<svg width="64" height="66" viewBox="0 0 64 66" fill="none" xmlns="http://www.w3.org/2000/svg">
<ellipse cx="32" cy="33" rx="32" ry="33" fill="#DFE0FF"/>
<path d="M28.7541 28.6893L24.2833 33.4039L21.7458 30.756L20.4166 32.1768L24.2833 36.3102L30.0833 30.1102L28.7541 28.6893Z" fill="#3F51B5"/>
<path d="M28.7541 20.2941L24.2833 25.0087L21.7458 22.3608L20.4166 23.7816L24.2833 27.915L30.0833 21.715L28.7541 20.2941Z" fill="#3F51B5"/>
<path d="M28.7541 37.0864L24.2833 41.801L21.7458 39.1531L20.4166 40.5739L24.2833 44.7072L30.0833 38.5073L28.7541 37.0864Z" fill="#3F51B5"/>
<path d="M32.5 31.2077H44.5833V33.791H32.5V31.2077Z" fill="#90CAF9"/>
<path d="M32.5 22.8125H44.5833V25.3958H32.5V22.8125Z" fill="#90CAF9"/>
<path d="M32.5 39.6048H44.5833V42.1881H32.5V39.6048Z" fill="#90CAF9"/>
</svg>
