<svg width="64" height="66" viewBox="0 0 64 66" fill="none" xmlns="http://www.w3.org/2000/svg">
<ellipse cx="32" cy="33" rx="32" ry="33" fill="#D0FFD5"/>
<path d="M47.0114 34.5625H42.1723L43.1401 26.3125C43.1401 24.5293 42.752 23.2241 41.9757 22.397C41.1995 21.5698 39.9746 21.1562 38.3011 21.1562C36.6276 21.1562 35.4027 21.5698 34.6265 22.397C33.8502 23.2241 33.4621 24.5293 33.4621 26.3125L34.4299 34.5625H29.5909L28.6231 26.3125C28.6231 24.4434 29.0566 22.7139 29.9235 21.124C30.7905 19.5342 31.965 18.2827 33.447 17.3696C34.9289 16.4565 36.547 16 38.3011 16C40.0553 16 41.6733 16.4565 43.1553 17.3696C44.6372 18.2827 45.8117 19.5342 46.6787 21.124C47.5457 22.7139 47.9792 24.4434 47.9792 26.3125L47.0114 34.5625ZM29.107 46.9375H30.0748C30.2159 46.9375 30.3318 46.9858 30.4226 47.0825C30.5133 47.1792 30.5587 47.3027 30.5587 47.4531V48.4844C30.5587 48.6348 30.5133 48.7583 30.4226 48.855C30.3318 48.9517 30.2159 49 30.0748 49H29.107C28.9658 49 28.8499 48.9517 28.7592 48.855C28.6684 48.7583 28.6231 48.6348 28.6231 48.4844V47.4531C28.6231 47.3027 28.6684 47.1792 28.7592 47.0825C28.8499 46.9858 28.9658 46.9375 29.107 46.9375ZM26.2035 49H25.2357C25.0946 49 24.9787 48.9517 24.8879 48.855C24.7972 48.7583 24.7518 48.6348 24.7518 48.4844V47.4531C24.7518 47.3027 24.7972 47.1792 24.8879 47.0825C24.9787 46.9858 25.0946 46.9375 25.2357 46.9375H26.2035C26.3447 46.9375 26.4606 46.9858 26.5514 47.0825C26.6421 47.1792 26.6874 47.3027 26.6874 47.4531V48.4844C26.6874 48.6348 26.6421 48.7583 26.5514 48.855C26.4606 48.9517 26.3447 49 26.2035 49ZM26.2035 40.75H25.2357C25.0946 40.75 24.9787 40.7017 24.8879 40.605C24.7972 40.5083 24.7518 40.3848 24.7518 40.2344V39.2031C24.7518 39.0527 24.7972 38.9292 24.8879 38.8325C24.9787 38.7358 25.0946 38.6875 25.2357 38.6875H26.2035C26.3447 38.6875 26.4606 38.7358 26.5514 38.8325C26.6421 38.9292 26.6874 39.0527 26.6874 39.2031V40.2344C26.6874 40.3848 26.6421 40.5083 26.5514 40.605C26.4606 40.7017 26.3447 40.75 26.2035 40.75ZM26.2035 32.5H25.2357C25.0946 32.5 24.9787 32.4463 24.8879 32.3389C24.7972 32.2314 24.7518 32.1133 24.7518 31.9844V30.9531C24.7518 30.8027 24.7972 30.6792 24.8879 30.5825C24.9787 30.4858 25.0946 30.4375 25.2357 30.4375H26.2035C26.3447 30.4375 26.4606 30.4858 26.5514 30.5825C26.6421 30.6792 26.6874 30.8027 26.6874 30.9531V31.9844C26.6874 32.1133 26.6421 32.2314 26.5514 32.3389C26.4606 32.4463 26.3447 32.5 26.2035 32.5ZM26.2035 24.25H25.2357C25.0946 24.25 24.9787 24.1963 24.8879 24.0889C24.7972 23.9814 24.7518 23.8633 24.7518 23.7344V22.7031C24.7518 22.5527 24.7972 22.4292 24.8879 22.3325C24.9787 22.2358 25.0946 22.1875 25.2357 22.1875H26.2035C26.3447 22.1875 26.4606 22.2358 26.5514 22.3325C26.6421 22.4292 26.6874 22.5527 26.6874 22.7031V23.7344C26.6874 23.8633 26.6421 23.9814 26.5514 24.0889C26.4606 24.1963 26.3447 24.25 26.2035 24.25ZM22.3323 49H21.3645C21.2234 49 21.1074 48.9517 21.0167 48.855C20.926 48.7583 20.8806 48.6348 20.8806 48.4844V47.4531C20.8806 47.3027 20.926 47.1792 21.0167 47.0825C21.1074 46.9858 21.2234 46.9375 21.3645 46.9375H22.3323C22.4735 46.9375 22.5894 46.9858 22.6801 47.0825C22.7709 47.1792 22.8162 47.3027 22.8162 47.4531V48.4844C22.8162 48.6348 22.7709 48.7583 22.6801 48.855C22.5894 48.9517 22.4735 49 22.3323 49ZM18.4611 49H17.4933C17.3522 49 17.2362 48.9517 17.1455 48.855C17.0548 48.7583 17.0094 48.6348 17.0094 48.4844V47.4531C17.0094 47.3027 17.0548 47.1792 17.1455 47.0825C17.2362 46.9858 17.3522 46.9375 17.4933 46.9375H18.4611C18.6022 46.9375 18.7182 46.9858 18.8089 47.0825C18.8996 47.1792 18.945 47.3027 18.945 47.4531V48.4844C18.945 48.6348 18.8996 48.7583 18.8089 48.855C18.7182 48.9517 18.6022 49 18.4611 49ZM18.4611 44.875H17.4933C17.3522 44.875 17.2362 44.8267 17.1455 44.73C17.0548 44.6333 17.0094 44.5098 17.0094 44.3594V43.3281C17.0094 43.1777 17.0548 43.0542 17.1455 42.9575C17.2362 42.8608 17.3522 42.8125 17.4933 42.8125H18.4611C18.6022 42.8125 18.7182 42.8608 18.8089 42.9575C18.8996 43.0542 18.945 43.1777 18.945 43.3281V44.3594C18.945 44.5098 18.8996 44.6333 18.8089 44.73C18.7182 44.8267 18.6022 44.875 18.4611 44.875ZM18.4611 40.75H17.4933C17.3522 40.75 17.2362 40.7017 17.1455 40.605C17.0548 40.5083 17.0094 40.3848 17.0094 40.2344V39.2031C17.0094 39.0527 17.0548 38.9292 17.1455 38.8325C17.2362 38.7358 17.3522 38.6875 17.4933 38.6875H18.4611C18.6022 38.6875 18.7182 38.7358 18.8089 38.8325C18.8996 38.9292 18.945 39.0527 18.945 39.2031V40.2344C18.945 40.3848 18.8996 40.5083 18.8089 40.605C18.7182 40.7017 18.6022 40.75 18.4611 40.75ZM18.4611 36.625H17.4933C17.3522 36.625 17.2362 36.5767 17.1455 36.48C17.0548 36.3833 17.0094 36.2598 17.0094 36.1094V35.0781C17.0094 34.9277 17.0548 34.8042 17.1455 34.7075C17.2362 34.6108 17.3522 34.5625 17.4933 34.5625H18.4611C18.6022 34.5625 18.7182 34.6108 18.8089 34.7075C18.8996 34.8042 18.945 34.9277 18.945 35.0781V36.1094C18.945 36.2598 18.8996 36.3833 18.8089 36.48C18.7182 36.5767 18.6022 36.625 18.4611 36.625ZM18.4611 32.5H17.4933C17.3522 32.5 17.2362 32.4517 17.1455 32.355C17.0548 32.2583 17.0094 32.1348 17.0094 31.9844V30.9531C17.0094 30.8027 17.0548 30.6792 17.1455 30.5825C17.2362 30.4858 17.3522 30.4375 17.4933 30.4375H18.4611C18.6022 30.4375 18.7182 30.4858 18.8089 30.5825C18.8996 30.6792 18.945 30.8027 18.945 30.9531V31.9844C18.945 32.1348 18.8996 32.2583 18.8089 32.355C18.7182 32.4517 18.6022 32.5 18.4611 32.5ZM18.4611 28.375H17.4933C17.3522 28.375 17.2362 28.3213 17.1455 28.2139C17.0548 28.1064 17.0094 27.9883 17.0094 27.8594V26.8281C17.0094 26.6777 17.0548 26.5542 17.1455 26.4575C17.2362 26.3608 17.3522 26.3125 17.4933 26.3125H18.4611C18.6022 26.3125 18.7182 26.3608 18.8089 26.4575C18.8996 26.5542 18.945 26.6777 18.945 26.8281V27.8594C18.945 27.9883 18.8996 28.1064 18.8089 28.2139C18.7182 28.3213 18.6022 28.375 18.4611 28.375ZM18.4611 24.25H17.4933C17.3522 24.25 17.2362 24.1963 17.1455 24.0889C17.0548 23.9814 17.0094 23.8633 17.0094 23.7344V22.7031C17.0094 22.5527 17.0548 22.4292 17.1455 22.3325C17.2362 22.2358 17.3522 22.1875 17.4933 22.1875H18.4611C18.6022 22.1875 18.7182 22.2358 18.8089 22.3325C18.8996 22.4292 18.945 22.5527 18.945 22.7031V23.7344C18.945 23.8633 18.8996 23.9814 18.8089 24.0889C18.7182 24.1963 18.6022 24.25 18.4611 24.25ZM18.4611 20.125H17.4933C17.3522 20.125 17.2362 20.0713 17.1455 19.9639C17.0548 19.8564 17.0094 19.7383 17.0094 19.6094V18.5781C17.0094 18.4277 17.0548 18.3042 17.1455 18.2075C17.2362 18.1108 17.3522 18.0625 17.4933 18.0625H18.4611C18.6022 18.0625 18.7182 18.1108 18.8089 18.2075C18.8996 18.3042 18.945 18.4277 18.945 18.5781V19.6094C18.945 19.7383 18.8996 19.8564 18.8089 19.9639C18.7182 20.0713 18.6022 20.125 18.4611 20.125ZM32.9782 38.6875H33.946C34.0871 38.6875 34.2031 38.7358 34.2938 38.8325C34.3845 38.9292 34.4299 39.0527 34.4299 39.2031V40.2344C34.4299 40.3848 34.3845 40.5083 34.2938 40.605C34.2031 40.7017 34.0871 40.75 33.946 40.75H32.9782C32.837 40.75 32.7211 40.7017 32.6304 40.605C32.5396 40.5083 32.4943 40.3848 32.4943 40.2344V39.2031C32.4943 39.0527 32.5396 38.9292 32.6304 38.8325C32.7211 38.7358 32.837 38.6875 32.9782 38.6875ZM32.9782 46.9375H33.946C34.0871 46.9375 34.2031 46.9858 34.2938 47.0825C34.3845 47.1792 34.4299 47.3027 34.4299 47.4531V48.4844C34.4299 48.6348 34.3845 48.7583 34.2938 48.855C34.2031 48.9517 34.0871 49 33.946 49H32.9782C32.837 49 32.7211 48.9517 32.6304 48.855C32.5396 48.7583 32.4943 48.6348 32.4943 48.4844V47.4531C32.4943 47.3027 32.5396 47.1792 32.6304 47.0825C32.7211 46.9858 32.837 46.9375 32.9782 46.9375ZM36.8494 46.9375H37.8172C37.9583 46.9375 38.0743 46.9858 38.165 47.0825C38.2557 47.1792 38.3011 47.3027 38.3011 47.4531V48.4844C38.3011 48.6348 38.2557 48.7583 38.165 48.855C38.0743 48.9517 37.9583 49 37.8172 49H36.8494C36.7083 49 36.5923 48.9517 36.5016 48.855C36.4109 48.7583 36.3655 48.6348 36.3655 48.4844V47.4531C36.3655 47.3027 36.4109 47.1792 36.5016 47.0825C36.5923 46.9858 36.7083 46.9375 36.8494 46.9375ZM40.7206 38.6875H41.6884C41.8296 38.6875 41.9455 38.7358 42.0362 38.8325C42.127 38.9292 42.1723 39.0527 42.1723 39.2031V40.2344C42.1723 40.3848 42.127 40.5083 42.0362 40.605C41.9455 40.7017 41.8296 40.75 41.6884 40.75H40.7206C40.5996 40.75 40.4888 40.7017 40.3879 40.605C40.2871 40.5083 40.2367 40.3848 40.2367 40.2344V39.2031C40.2367 39.0527 40.2871 38.9292 40.3879 38.8325C40.4888 38.7358 40.5996 38.6875 40.7206 38.6875ZM40.7206 46.9375H41.6884C41.8296 46.9375 41.9455 46.9858 42.0362 47.0825C42.127 47.1792 42.1723 47.3027 42.1723 47.4531V48.4844C42.1723 48.6348 42.127 48.7583 42.0362 48.855C41.9455 48.9517 41.8296 49 41.6884 49H40.7206C40.5996 49 40.4888 48.9517 40.3879 48.855C40.2871 48.7583 40.2367 48.6348 40.2367 48.4844V47.4531C40.2367 47.3027 40.2871 47.1792 40.3879 47.0825C40.4888 46.9858 40.5996 46.9375 40.7206 46.9375ZM44.5918 46.9375H45.5596C45.7008 46.9375 45.8167 46.9858 45.9075 47.0825C45.9982 47.1792 46.0435 47.3027 46.0435 47.4531V48.4844C46.0435 48.6348 45.9982 48.7583 45.9075 48.855C45.8167 48.9517 45.7008 49 45.5596 49H44.5918C44.4507 49 44.3348 48.9517 44.244 48.855C44.1533 48.7583 44.1079 48.6348 44.1079 48.4844V47.4531C44.1079 47.3027 44.1583 47.1792 44.2592 47.0825C44.36 46.9858 44.4709 46.9375 44.5918 46.9375Z" fill="#3F3F40"/>
</svg>
