<svg width="64" height="66" viewBox="0 0 64 66" fill="none" xmlns="http://www.w3.org/2000/svg">
<ellipse cx="32" cy="33" rx="32" ry="33" fill="#FFE3E4"/>
<path d="M35.8659 33.387L34.8859 34.612L33.9059 33.3895L31.9489 30.9433L32.9259 29.722L34.8829 32.1683L39.7739 26.0508L40.7539 27.272L35.8659 33.387Z" fill="#008000"/>
<path d="M32.454 40.8041H40.757V42.5328H32.454V40.8041Z" fill="#C00000"/>
<path d="M20 21.1747V50.811H44.909V21.1747H20ZM43.477 49.236L21.394 49.1635L21.417 22.946H43.494L43.477 49.236ZM24.151 27.6885V34.606H29.685V27.6885H24.151ZM28.3 32.8747H25.534V29.4172H28.3V32.8747ZM24.149 38.1497V45.0672H29.683V38.1535L24.149 38.1497ZM28.3 43.3422H25.534V39.886H28.3V43.3422ZM48 17.1885V46.7997H46.569L46.549 18.9997L24.149 18.9635V17.1885H48Z" fill="#CFCFCF"/>
</svg>
