<svg width="64" height="66" viewBox="0 0 64 66" fill="none" xmlns="http://www.w3.org/2000/svg">
<ellipse cx="32" cy="33" rx="32" ry="33" fill="#FDFFB3"/>
<g clip-path="url(#clip0)">
<path d="M24.0316 17.4597H26.7911V15H24.0316C23.2699 14.999 22.5237 15.295 21.8797 15.8536L22.8371 17.9328C23.1946 17.623 23.6089 17.4589 24.0316 17.4597ZM21.7917 20.5346C21.7917 20.0851 21.8605 19.6527 21.9961 19.2491L20.3688 18.2193C20.1245 18.945 19.9986 19.7351 19.9999 20.5346V24.8883H21.7917V20.5346ZM19.9999 27.3726H21.7917V33.5713H19.9999V27.3726ZM44.1289 18.011C44.6583 17.5504 45.1957 17.1075 45.7406 16.6827C45.4357 16.2511 45.0818 15.8901 44.6929 15.6137C44.1215 15.2107 43.4885 15.0003 42.8461 15H41.2603V17.4597H42.8461C43.3155 17.4597 43.7588 17.6545 44.1289 18.011ZM19.9999 36.0557H21.7917V42.2668H19.9999V36.0557ZM28.6009 15H33.1164V17.4599H28.6009V15ZM34.9261 15H39.4506V17.4599H34.9261V15ZM36.924 49.4369H41.4395V51.8967H36.924V49.4369ZM45.086 28.9715H46.8779V35.1825H45.086V28.9715ZM45.086 37.6668H46.8779V43.8655H45.086V37.6668ZM21.7917 46.3622V44.7511H19.9999V46.3622C20.0002 47.352 20.1936 48.3236 20.5601 49.176C20.9266 50.0283 21.4528 50.7304 22.0839 51.209L22.9505 49.0559C22.5996 48.79 22.3071 48.3999 22.1033 47.9261C21.8995 47.4524 21.7919 46.9123 21.7917 46.3622ZM45.086 24.856V26.4872H46.8778V22.834C46.2888 23.436 45.6909 24.1107 45.086 24.856ZM45.086 46.3622C45.086 47.9041 44.2478 49.215 43.1361 49.4116L43.3649 51.8512C44.331 51.6795 45.2191 51.0329 45.8646 50.0313C46.5178 49.0195 46.8783 47.7141 46.8778 46.3622V46.3499H45.086V46.3622ZM24.2556 49.4369H28.7801V51.8967H24.2556V49.4369ZM30.5898 49.4369H35.1143V51.8967H30.5898V49.4369Z" fill="#383838"/>
<path d="M24.1034 34.584L32.5081 46.1216C32.5081 46.1216 40.9128 23.9249 50.0001 18.9468L49.6588 15.4328C44.7099 18.1269 37.2011 25.2135 31.6548 36.0481L25.81 31.3044L24.1034 34.584Z" fill="#AF2F2F"/>
</g>
<defs>
<clipPath id="clip0">
<rect width="30" height="37" fill="white" transform="translate(20 15)"/>
</clipPath>
</defs>
</svg>
