<svg width="687" height="654" viewBox="0 0 687 654" fill="none" xmlns="http://www.w3.org/2000/svg">
<ellipse cx="343.85" cy="327" rx="343" ry="327" fill="#8872DF"/>
<ellipse cx="346.85" cy="330.5" rx="71" ry="67.5" fill="white"/>
<path d="M298.149 336.47H307.48V340H293.755V318.672H298.149V336.47ZM317.031 340.293C314.707 340.293 312.812 339.58 311.347 338.154C309.892 336.729 309.165 334.829 309.165 332.456V332.046C309.165 330.454 309.472 329.033 310.088 327.783C310.703 326.523 311.572 325.557 312.695 324.883C313.828 324.199 315.117 323.857 316.562 323.857C318.73 323.857 320.434 324.541 321.674 325.908C322.924 327.275 323.549 329.214 323.549 331.724V333.452H313.457C313.593 334.487 314.004 335.317 314.687 335.942C315.38 336.567 316.255 336.88 317.309 336.88C318.94 336.88 320.214 336.289 321.132 335.107L323.213 337.437C322.578 338.335 321.718 339.038 320.634 339.546C319.55 340.044 318.349 340.293 317.031 340.293ZM316.547 327.285C315.708 327.285 315.024 327.568 314.497 328.135C313.979 328.701 313.647 329.512 313.501 330.566H319.389V330.229C319.37 329.292 319.116 328.569 318.628 328.062C318.139 327.544 317.446 327.285 316.547 327.285ZM335.151 340C334.956 339.619 334.814 339.146 334.726 338.579C333.701 339.722 332.368 340.293 330.727 340.293C329.174 340.293 327.885 339.844 326.86 338.945C325.844 338.047 325.337 336.914 325.337 335.547C325.337 333.867 325.957 332.578 327.197 331.68C328.447 330.781 330.249 330.327 332.602 330.317H334.55V329.409C334.55 328.677 334.36 328.091 333.979 327.651C333.608 327.212 333.017 326.992 332.207 326.992C331.494 326.992 330.932 327.163 330.522 327.505C330.122 327.847 329.922 328.315 329.922 328.911H325.688C325.688 327.993 325.971 327.144 326.538 326.362C327.104 325.581 327.905 324.971 328.94 324.531C329.975 324.082 331.137 323.857 332.426 323.857C334.38 323.857 335.927 324.351 337.07 325.337C338.222 326.313 338.798 327.69 338.798 329.468V336.338C338.808 337.842 339.018 338.979 339.428 339.751V340H335.151ZM331.65 337.056C332.275 337.056 332.851 336.919 333.379 336.646C333.906 336.362 334.297 335.986 334.55 335.518V332.793H332.968C330.849 332.793 329.721 333.525 329.585 334.99L329.57 335.239C329.57 335.767 329.755 336.201 330.127 336.543C330.498 336.885 331.005 337.056 331.65 337.056ZM350.957 328.12C350.38 328.042 349.873 328.003 349.433 328.003C347.832 328.003 346.782 328.545 346.284 329.629V340H342.05V324.15H346.049L346.167 326.04C347.016 324.585 348.193 323.857 349.697 323.857C350.166 323.857 350.605 323.921 351.015 324.048L350.957 328.12ZM356.904 324.15L357.036 325.981C358.169 324.565 359.687 323.857 361.591 323.857C363.271 323.857 364.521 324.351 365.341 325.337C366.162 326.323 366.582 327.798 366.601 329.761V340H362.368V329.863C362.368 328.965 362.172 328.315 361.782 327.915C361.391 327.505 360.742 327.3 359.834 327.3C358.642 327.3 357.749 327.808 357.153 328.823V340H352.92V324.15H356.904ZM374.292 340H370.044V324.15H374.292V340ZM369.795 320.049C369.795 319.414 370.005 318.892 370.424 318.481C370.854 318.071 371.435 317.866 372.168 317.866C372.89 317.866 373.466 318.071 373.896 318.481C374.326 318.892 374.541 319.414 374.541 320.049C374.541 320.693 374.321 321.221 373.881 321.631C373.452 322.041 372.88 322.246 372.168 322.246C371.455 322.246 370.879 322.041 370.439 321.631C370.009 321.221 369.795 320.693 369.795 320.049ZM381.689 324.15L381.821 325.981C382.954 324.565 384.472 323.857 386.377 323.857C388.056 323.857 389.306 324.351 390.127 325.337C390.947 326.323 391.367 327.798 391.386 329.761V340H387.153V329.863C387.153 328.965 386.958 328.315 386.567 327.915C386.176 327.505 385.527 327.3 384.619 327.3C383.427 327.3 382.534 327.808 381.938 328.823V340H377.705V324.15H381.689ZM393.994 331.958C393.994 329.526 394.57 327.568 395.722 326.084C396.884 324.6 398.447 323.857 400.41 323.857C402.148 323.857 403.501 324.453 404.467 325.645L404.643 324.15H408.481V339.473C408.481 340.859 408.164 342.065 407.529 343.091C406.904 344.116 406.02 344.897 404.878 345.435C403.735 345.972 402.397 346.24 400.864 346.24C399.702 346.24 398.569 346.006 397.465 345.537C396.362 345.078 395.527 344.482 394.961 343.75L396.836 341.172C397.89 342.354 399.17 342.944 400.673 342.944C401.797 342.944 402.671 342.642 403.296 342.036C403.921 341.44 404.233 340.591 404.233 339.487V338.638C403.256 339.741 401.972 340.293 400.38 340.293C398.476 340.293 396.933 339.551 395.752 338.066C394.58 336.572 393.994 334.595 393.994 332.134V331.958ZM398.227 332.266C398.227 333.701 398.515 334.829 399.091 335.649C399.668 336.46 400.459 336.865 401.464 336.865C402.754 336.865 403.676 336.382 404.233 335.415V328.75C403.667 327.783 402.754 327.3 401.494 327.3C400.478 327.3 399.677 327.715 399.091 328.545C398.515 329.375 398.227 330.615 398.227 332.266Z" fill="black"/>
<line x1="286.908" y1="356.408" x2="56.3022" y2="506.383" stroke="white" stroke-width="20"/>
<line x1="406.988" y1="353.722" x2="650.313" y2="475.051" stroke="white" stroke-width="20"/>
<line x1="346.85" y1="4.37114e-07" x2="346.85" y2="264" stroke="white" stroke-width="20"/>
<path d="M95.315 270.468L122.416 283.532L109.54 256.361L117.053 248.91L144.587 276.673L138.847 282.365L131.321 274.776L118.901 261.109L131.926 289.23L127.998 293.126L100.024 279.869L113.568 292.382L121.095 299.971L115.375 305.645L87.8403 277.881L95.315 270.468ZM161.176 260.221C160.43 259.977 159.635 259.543 158.789 258.919C158.929 261.731 157.932 264.195 155.796 266.313C153.775 268.318 151.517 269.397 149.022 269.551C146.54 269.693 144.417 268.874 142.652 267.094C140.483 264.908 139.626 262.429 140.081 259.659C140.548 256.875 142.307 253.958 145.358 250.907L147.894 248.392L146.722 247.21C145.776 246.256 144.772 245.739 143.709 245.659C142.659 245.566 141.606 246.043 140.551 247.089C139.623 248.01 139.112 248.957 139.02 249.931C138.94 250.893 139.284 251.762 140.053 252.537L134.543 258.003C133.358 256.808 132.629 255.336 132.358 253.588C132.087 251.84 132.341 250.011 133.121 248.103C133.889 246.182 135.112 244.389 136.79 242.725C139.332 240.204 141.984 238.847 144.744 238.656C147.505 238.44 150.033 239.488 152.327 241.802L161.197 250.745C163.151 252.69 164.893 253.9 166.423 254.375L166.744 254.699L161.176 260.221ZM152.818 260.908C153.631 260.101 154.205 259.179 154.538 258.142C154.859 257.093 154.882 256.099 154.608 255.161L151.09 251.614L149.031 253.657C146.272 256.393 145.75 258.802 147.463 260.886L147.765 261.229C148.446 261.915 149.249 262.241 150.173 262.207C151.097 262.173 151.979 261.74 152.818 260.908ZM154.768 225.652L157.303 227.865C156.95 224.559 158.013 221.677 160.492 219.219C162.678 217.05 164.942 216.079 167.283 216.303C169.624 216.528 172.074 217.906 174.634 220.436L187.853 233.764L182.342 239.23L169.256 226.034C168.096 224.865 167.003 224.272 165.978 224.255C164.94 224.225 163.83 224.797 162.647 225.969C161.097 227.507 160.589 229.322 161.125 231.413L175.554 245.962L170.043 251.427L149.581 230.795L154.768 225.652ZM204.003 217.747C203.257 217.503 202.462 217.069 201.616 216.446C201.756 219.257 200.759 221.721 198.623 223.839C196.602 225.844 194.344 226.923 191.849 227.077C189.367 227.219 187.244 226.4 185.479 224.62C183.31 222.434 182.453 219.955 182.908 217.185C183.375 214.401 185.134 211.484 188.185 208.433L190.721 205.918L189.549 204.736C188.603 203.782 187.599 203.266 186.536 203.185C185.486 203.092 184.433 203.569 183.378 204.615C182.45 205.536 181.939 206.483 181.847 207.458C181.767 208.419 182.111 209.288 182.88 210.063L177.37 215.529C176.185 214.334 175.457 212.862 175.185 211.114C174.914 209.366 175.168 207.537 175.949 205.629C176.716 203.708 177.939 201.915 179.617 200.251C182.159 197.73 184.811 196.373 187.571 196.182C190.332 195.966 192.86 197.014 195.154 199.328L204.024 208.271C205.978 210.216 207.72 211.426 209.25 211.901L209.571 212.225L204.003 217.747ZM195.645 218.434C196.459 217.627 197.032 216.705 197.366 215.668C197.686 214.619 197.709 213.625 197.435 212.687L193.917 209.141L191.858 211.183C189.1 213.919 188.577 216.328 190.29 218.412L190.592 218.755C191.273 219.441 192.076 219.767 193 219.733C193.924 219.699 194.806 219.266 195.645 218.434ZM201.802 199.166C198.662 196 196.885 192.708 196.468 189.288C196.065 185.855 197.141 182.872 199.696 180.338C201.958 178.094 204.488 177.123 207.285 177.426L205.585 175.254L210.58 170.299L230.361 190.245C232.151 192.05 233.295 194.03 233.793 196.184C234.303 198.325 234.161 200.483 233.367 202.658C232.573 204.832 231.178 206.909 229.183 208.888C227.67 210.388 225.893 211.545 223.851 212.36C221.822 213.187 219.966 213.49 218.283 213.267L217.396 207.491C220.294 207.667 222.722 206.785 224.68 204.843C226.142 203.394 226.889 201.871 226.92 200.276C226.965 198.694 226.275 197.184 224.85 195.748L223.754 194.642C223.907 197.339 222.948 199.715 220.876 201.77C218.397 204.229 215.43 205.255 211.976 204.848C208.521 204.416 205.205 202.598 202.028 199.394L201.802 199.166ZM207.709 194.101C209.563 195.969 211.394 197.066 213.203 197.39C214.999 197.701 216.552 197.207 217.861 195.909C219.539 194.245 220.117 192.424 219.593 190.447L210.989 181.771C209.003 181.244 207.191 181.793 205.551 183.42C204.229 184.731 203.722 186.305 204.031 188.142C204.353 189.966 205.579 191.952 207.709 194.101ZM245.168 177.678C242.143 180.678 238.756 182.196 235.009 182.231C231.274 182.254 227.875 180.721 224.811 177.631L224.282 177.098C222.227 175.025 220.793 172.779 219.98 170.357C219.155 167.923 219.038 165.543 219.63 163.216C220.222 160.863 221.459 158.754 223.34 156.888C226.162 154.09 229.263 152.78 232.642 152.958C236.035 153.124 239.351 154.841 242.591 158.108L244.822 160.358L231.684 173.387C233.199 174.558 234.804 175.109 236.501 175.04C238.21 174.959 239.751 174.237 241.124 172.876C243.247 170.77 244.144 168.356 243.813 165.633L249.527 165.979C249.861 167.968 249.65 169.993 248.895 172.053C248.127 174.101 246.884 175.976 245.168 177.678ZM227.746 161.369C226.653 162.454 226.129 163.705 226.174 165.123C226.231 166.528 226.845 168.012 228.016 169.574L235.681 161.972L235.247 161.533C234.011 160.338 232.747 159.725 231.456 159.695C230.152 159.651 228.916 160.209 227.746 161.369Z" fill="white"/>
<path d="M422.799 165.736L412.004 156.624L404.755 161.048L398.209 155.523L434.553 135.032L440.258 139.847L426.221 179.168L419.675 173.642L422.799 165.736ZM417.876 153.04L425.346 159.346L431.031 144.991L417.876 153.04ZM451.839 162.766L449.858 165.487C453.12 164.843 456.084 165.647 458.752 167.899C461.105 169.885 462.273 172.054 462.256 174.406C462.239 176.758 461.084 179.321 458.79 182.094L446.681 196.438L440.75 191.432L452.738 177.231C453.8 175.972 454.294 174.832 454.221 173.809C454.158 172.772 453.491 171.717 452.219 170.643C450.55 169.234 448.697 168.889 446.662 169.607L433.445 185.265L427.514 180.259L446.257 158.055L451.839 162.766ZM464.063 211.111C464.24 210.346 464.602 209.515 465.148 208.618C462.361 209.006 459.818 208.23 457.519 206.29C455.344 204.453 454.069 202.3 453.695 199.828C453.335 197.369 453.963 195.181 455.58 193.266C457.566 190.913 459.959 189.84 462.759 190.048C465.573 190.268 468.634 191.762 471.943 194.532L474.672 196.835L475.746 195.563C476.612 194.537 477.038 193.491 477.024 192.425C477.024 191.37 476.456 190.364 475.321 189.405C474.322 188.562 473.333 188.138 472.354 188.132C471.389 188.137 470.555 188.557 469.85 189.391L463.919 184.385C465.005 183.099 466.406 182.244 468.124 181.819C469.841 181.394 471.685 181.486 473.655 182.095C475.636 182.69 477.53 183.749 479.336 185.274C482.072 187.583 483.657 190.105 484.091 192.838C484.551 195.568 483.73 198.179 481.628 200.669L473.504 210.293C471.739 212.412 470.688 214.254 470.35 215.82L470.056 216.169L464.063 211.111ZM462.64 202.846C463.516 203.585 464.485 204.075 465.547 204.315C466.621 204.542 467.612 204.477 468.523 204.121L471.745 200.304L469.528 198.433C466.559 195.927 464.113 195.619 462.189 197.51L461.874 197.841C461.251 198.58 460.997 199.408 461.112 200.326C461.228 201.244 461.737 202.083 462.64 202.846ZM479.988 224.553L474.037 219.529L500.644 188.008L506.596 193.031L479.988 224.553ZM500.269 227.298L516.031 216.951L522.393 222.321L491.813 240.438L490.333 241.192C486.557 242.972 483.144 242.575 480.093 240C479.231 239.272 478.466 238.403 477.796 237.392L481.589 232.898L482.475 233.681C483.597 234.628 484.576 235.161 485.412 235.281C486.261 235.413 487.178 235.214 488.163 234.686L490.402 233.449L501.42 204.618L507.802 210.005L500.269 227.298ZM523.194 250.516C523.807 249.791 523.923 248.917 523.545 247.894C523.191 246.87 522.36 245.523 521.05 243.855C516.704 238.289 515.958 233.817 518.81 230.438C520.473 228.468 522.673 227.513 525.41 227.574C528.172 227.633 530.873 228.776 533.513 231.005C536.332 233.384 538.022 235.947 538.585 238.695C539.161 241.454 538.554 243.894 536.764 246.014L530.833 241.008C531.549 240.16 531.865 239.231 531.779 238.222C531.705 237.199 531.087 236.197 529.924 235.215C528.926 234.372 527.962 233.946 527.034 233.935C526.105 233.925 525.347 234.268 524.758 234.966C524.203 235.623 524.061 236.416 524.33 237.346C524.624 238.274 525.383 239.512 526.607 241.061C527.842 242.595 528.81 243.974 529.51 245.198C531.673 248.992 531.56 252.305 529.169 255.137C527.46 257.162 525.205 258.07 522.405 257.862C519.617 257.641 516.848 256.369 514.098 254.048C512.237 252.477 510.859 250.752 509.963 248.871C509.092 246.988 508.732 245.125 508.881 243.283C509.042 241.427 509.688 239.829 510.82 238.488L516.443 243.235C515.608 244.334 515.317 245.471 515.568 246.644C515.82 247.817 516.554 248.917 517.772 249.945C518.908 250.903 519.942 251.413 520.874 251.474C521.832 251.533 522.606 251.213 523.194 250.516ZM537.493 273.796C534.237 271.047 532.425 267.808 532.059 264.078C531.707 260.36 532.934 256.839 535.74 253.514L536.225 252.94C538.107 250.71 540.219 249.083 542.559 248.059C544.91 247.022 547.271 246.695 549.642 247.079C552.037 247.461 554.247 248.507 556.272 250.216C559.309 252.78 560.888 255.753 561.009 259.135C561.143 262.528 559.727 265.983 556.759 269.499L554.715 271.921L540.575 259.985C539.542 261.597 539.135 263.245 539.354 264.929C539.586 266.625 540.441 268.096 541.919 269.343C544.204 271.272 546.688 271.951 549.371 271.381L549.531 277.104C547.579 277.612 545.544 277.581 543.424 277.01C541.317 276.426 539.34 275.355 537.493 273.796ZM552.198 255.001C551.021 254.008 549.729 253.596 548.32 253.766C546.925 253.947 545.502 254.69 544.049 255.994L552.299 262.958L552.697 262.486C553.779 261.15 554.277 259.837 554.194 258.548C554.122 257.246 553.457 256.063 552.198 255.001Z" fill="white"/>
<path d="M274.757 497.366L274.89 511.142L266.833 511.22L266.456 472.12L281.709 471.973C284.645 471.945 287.229 472.457 289.459 473.509C291.707 474.562 293.44 476.076 294.659 478.052C295.878 480.01 296.499 482.251 296.523 484.775C296.56 488.606 295.274 491.644 292.663 493.89C290.071 496.117 286.456 497.253 281.819 497.298L274.757 497.366ZM274.694 490.84L281.891 490.771C284.021 490.75 285.636 490.233 286.737 489.22C287.855 488.207 288.405 486.769 288.387 484.907C288.369 482.991 287.79 481.448 286.65 480.278C285.511 479.107 283.948 478.513 281.96 478.497L274.575 478.568L274.694 490.84ZM317.942 488.946C316.884 488.813 315.952 488.75 315.147 488.758C312.211 488.786 310.296 489.798 309.402 491.794L309.585 510.807L301.824 510.882L301.544 481.826L308.875 481.755L309.123 485.217C310.655 482.535 312.8 481.18 315.557 481.154C316.416 481.145 317.223 481.254 317.977 481.479L317.942 488.946ZM334.753 511.102C330.492 511.143 327.006 509.869 324.296 507.281C321.603 504.693 320.235 501.224 320.194 496.874L320.186 496.122C320.158 493.204 320.697 490.593 321.803 488.291C322.908 485.971 324.485 484.183 326.531 482.928C328.596 481.654 330.953 481.005 333.603 480.979C337.577 480.941 340.713 482.164 343.011 484.649C345.327 487.133 346.507 490.676 346.551 495.277L346.582 498.445L328.079 498.624C328.348 500.519 329.115 502.034 330.379 503.167C331.661 504.301 333.269 504.858 335.203 504.84C338.192 504.811 340.518 503.705 342.18 501.523L346.035 505.756C344.887 507.414 343.324 508.718 341.346 509.668C339.367 510.6 337.17 511.078 334.753 511.102ZM333.637 487.264C332.097 487.278 330.849 487.81 329.892 488.857C328.953 489.905 328.359 491.397 328.109 493.333L338.904 493.229L338.898 492.611C338.846 490.893 338.368 489.572 337.464 488.65C336.559 487.71 335.284 487.248 333.637 487.264ZM349.778 495.675C349.734 491.146 350.711 487.529 352.708 484.824C354.723 482.118 357.494 480.749 361.021 480.715C363.85 480.688 366.196 481.721 368.06 483.816L367.917 468.992L375.705 468.917L376.103 510.165L369.094 510.233L368.688 507.148C366.778 509.584 364.301 510.816 361.258 510.846C357.839 510.879 355.077 509.563 352.975 506.897C350.89 504.214 349.824 500.473 349.778 495.675ZM357.544 496.164C357.571 498.885 358.065 500.966 359.028 502.407C359.991 503.848 361.376 504.56 363.185 504.543C365.584 504.52 367.266 503.492 368.231 501.459L368.12 489.992C367.134 487.979 365.45 486.983 363.069 487.006C359.327 487.043 357.486 490.095 357.544 496.164ZM390.309 510.028L382.521 510.103L382.241 481.047L390.029 480.972L390.309 510.028ZM381.712 473.532C381.701 472.369 382.076 471.407 382.839 470.648C383.619 469.888 384.681 469.502 386.024 469.489C387.348 469.476 388.408 469.842 389.203 470.586C389.998 471.331 390.401 472.285 390.413 473.448C390.424 474.63 390.031 475.601 389.232 476.36C388.452 477.12 387.408 477.506 386.101 477.519C384.794 477.531 383.734 477.165 382.921 476.421C382.126 475.677 381.723 474.714 381.712 473.532ZM408.756 504.13C410.189 504.116 411.349 503.711 412.236 502.915C413.124 502.118 413.579 501.066 413.602 499.759L420.88 499.689C420.881 501.658 420.361 503.472 419.321 505.129C418.28 506.768 416.842 508.053 415.007 508.984C413.19 509.897 411.171 510.364 408.951 510.386C404.798 510.426 401.509 509.141 399.084 506.533C396.66 503.906 395.425 500.266 395.38 495.611L395.375 495.101C395.332 490.625 396.488 487.042 398.843 484.352C401.199 481.661 404.453 480.296 408.607 480.256C412.241 480.221 415.16 481.231 417.364 483.287C419.586 485.324 420.732 488.061 420.801 491.498L413.523 491.569C413.473 490.065 412.996 488.852 412.091 487.93C411.187 486.99 410.001 486.527 408.533 486.541C406.725 486.558 405.362 487.234 404.443 488.568C403.543 489.883 403.107 492.018 403.136 494.972L403.143 495.778C403.172 498.768 403.649 500.912 404.575 502.21C405.501 503.508 406.895 504.148 408.756 504.13ZM434.35 473.401L434.419 480.544L439.387 480.496L439.442 486.189L434.474 486.237L434.614 500.738C434.624 501.812 434.837 502.58 435.253 503.042C435.67 503.503 436.46 503.728 437.623 503.717C438.483 503.709 439.243 503.639 439.904 503.507L439.961 509.388C438.444 509.868 436.879 510.116 435.268 510.132C429.826 510.184 427.024 507.463 426.864 501.968L426.713 486.312L422.47 486.353L422.415 480.66L426.658 480.619L426.589 473.475L434.35 473.401Z" fill="white"/>
</svg>
