<svg width="43" height="27" viewBox="0 0 43 27" fill="none" xmlns="http://www.w3.org/2000/svg">
<path d="M3.53171 26.9192C3.22526 26.9377 2.9606 26.9232 2.73772 26.8758C2.52344 26.8248 2.30213 26.6855 2.0738 26.4579C1.7723 26.1296 1.51038 25.7034 1.28803 25.1793C1.07298 24.6723 0.920806 24.23 0.831508 23.8522C0.738565 23.4658 0.68676 23.0569 0.676093 22.6254L0.677271 22.3056C0.665302 21.895 0.665698 21.6211 0.678458 21.4839C0.682372 21.0868 0.756066 20.5436 0.899541 19.8541C1.01464 19.2173 1.11931 18.747 1.21357 18.4434C1.30418 18.1313 1.40625 17.87 1.51978 17.6596C1.64189 17.4456 1.86998 17.0751 2.20404 16.5481C2.3397 16.3182 2.53641 16.1486 2.79417 16.0393C3.00898 15.9481 3.23029 15.9201 3.45811 15.9553C3.69088 15.9782 3.89643 16.0684 4.07478 16.226C4.23855 16.3491 4.37875 16.5482 4.49539 16.8231C4.65942 17.2098 4.74481 17.6501 4.75157 18.144C4.75833 18.6379 4.67956 19.0616 4.51526 19.4152C4.46214 19.529 4.39692 19.6023 4.31959 19.6351C4.22508 19.6752 4.07133 19.6593 3.85835 19.5874C3.71906 19.4742 3.63965 19.4065 3.62012 19.3843C3.60059 19.3622 3.61049 19.3377 3.6498 19.3109C3.68704 19.1836 3.72219 18.9558 3.75527 18.6274C3.79329 18.2869 3.80527 18.0283 3.79121 17.8518C3.78653 17.793 3.76726 17.6998 3.73342 17.5722C3.67458 17.2423 3.62329 17.0258 3.57955 16.9227C3.53581 16.8196 3.47111 16.7507 3.38545 16.7161C3.34874 16.7012 3.3089 16.7029 3.26594 16.7212C3.19721 16.7503 3.09514 16.8443 2.95975 17.0031C2.78998 17.1765 2.60994 17.481 2.4196 17.9166C2.22926 18.3522 2.07993 18.8008 1.97161 19.2624C1.79507 19.9456 1.67047 20.5004 1.59782 20.9266C1.53377 21.3491 1.51879 21.756 1.55289 22.147L1.55327 22.5423C1.57644 22.573 1.6 22.6644 1.62395 22.8164C1.6479 22.9685 1.65662 23.0966 1.65011 23.2007C1.74123 23.7501 1.89067 24.2697 2.09843 24.7594C2.25517 25.1289 2.42375 25.4426 2.60418 25.7007C2.7932 25.9551 2.96972 26.1083 3.13375 26.1604C3.22801 26.1913 3.34387 26.1777 3.48134 26.1194C3.65319 26.0465 3.84547 25.9142 4.05819 25.7226C4.27951 25.5273 4.54027 25.2697 4.84048 24.9497C5.0053 24.7885 5.15176 24.6199 5.27986 24.4439C5.41656 24.2643 5.50964 24.1133 5.55911 23.9909C5.71325 23.7329 5.85906 23.5747 5.99654 23.5164C6.07647 23.4419 6.13362 23.3974 6.16799 23.3828C6.18517 23.3755 6.19923 23.3848 6.21017 23.4106C6.22605 23.4241 6.24128 23.4481 6.25586 23.4824C6.30689 23.6027 6.29895 23.7632 6.23203 23.964C6.16147 24.1561 6.04612 24.3622 5.88599 24.5822C5.78705 24.8269 5.63733 25.0476 5.43684 25.2442C5.24573 25.5584 4.99825 25.8713 4.69439 26.1827C4.39913 26.4904 4.10114 26.7081 3.80041 26.8356C3.73167 26.8648 3.64211 26.8927 3.53171 26.9192ZM8.64268 23.6713C8.53957 23.715 8.45065 23.7325 8.37593 23.7236C8.3012 23.7148 8.18795 23.6868 8.03615 23.6396C7.62504 23.4592 7.36663 23.2444 7.26092 22.9952C7.23541 22.9351 7.22148 22.8903 7.21914 22.8609C7.2194 22.7898 7.20248 22.726 7.16837 22.6695C7.14286 22.6094 7.12645 22.5707 7.11916 22.5535C7.07021 22.5337 7.04392 22.5195 7.04027 22.5109C7.03298 22.4938 7.03611 22.4772 7.04965 22.4613C7.05954 22.4369 7.06514 22.4142 7.06644 22.3934C7.11799 22.3715 7.11513 22.317 7.05785 22.2297C7.01151 22.1683 6.98209 22.0034 6.9696 21.7349C6.95346 21.4579 6.96792 21.1932 7.01296 20.9409C7.04187 20.7462 7.09733 20.4945 7.17935 20.186C7.26997 19.8738 7.36279 19.6266 7.45783 19.4443C7.5875 19.1764 7.71573 18.9649 7.84253 18.8097C7.96934 18.6545 8.12243 18.5136 8.30183 18.3868C8.45545 18.2709 8.56233 18.2002 8.62247 18.1747C8.68262 18.1492 8.74146 18.1445 8.799 18.1606C8.86149 18.1645 8.9478 18.1888 9.05794 18.2333C9.33366 18.238 9.54912 18.3037 9.70429 18.4305C9.86442 18.5451 10.0156 18.7699 10.1577 19.105C10.3946 19.6635 10.4239 20.3658 10.2455 21.212C10.1682 21.5794 10.0764 21.8769 9.97019 22.1044C9.86031 22.3234 9.70005 22.5789 9.4894 22.8711C9.36364 23.0765 9.23619 23.2421 9.10705 23.3678C8.98285 23.4814 8.82806 23.5825 8.64268 23.6713ZM9.3004 21.7803C9.4082 21.4608 9.4785 21.1724 9.51131 20.9152C9.55272 20.6543 9.56184 20.3412 9.53867 19.9759C9.51967 19.8116 9.46642 19.6264 9.37895 19.4202C9.2696 19.1624 9.17326 19.0309 9.08995 19.0257C8.9858 19.0192 8.89077 19.0342 8.80484 19.0706C8.61582 19.1508 8.45465 19.3206 8.32133 19.5799C8.16328 19.9004 8.05288 20.2615 7.99013 20.6633C7.92372 21.0564 7.88583 21.5287 7.87645 22.0802C7.86707 22.2971 7.89883 22.4914 7.97173 22.6633C8.02641 22.7922 8.10022 22.8825 8.19317 22.9343C8.29471 22.9825 8.40133 22.9829 8.51303 22.9355C8.79657 22.8152 9.05903 22.4301 9.3004 21.7803ZM17.962 19.3073C17.8235 19.3153 17.6637 19.2614 17.4828 19.1456C17.3068 19.0175 17.1386 18.7644 16.9782 18.3863L16.7396 17.788C16.6958 17.6849 16.6563 17.6155 16.6209 17.5798C16.594 17.5405 16.5635 17.5281 16.5291 17.5427C16.4174 17.5901 16.2388 17.8382 15.9932 18.2871C15.7563 18.7323 15.5387 19.2352 15.3406 19.7958C15.3159 19.857 15.2831 19.9469 15.2422 20.0657C15.2062 20.1721 15.1673 20.2596 15.1254 20.3281C15.0798 20.388 15.0313 20.4289 14.9797 20.4507C14.9024 20.4835 14.8166 20.4844 14.7223 20.4535L14.5314 20.3976C14.4494 20.3716 14.3938 20.3242 14.3646 20.2554L14.3412 20.1285L14.2768 19.1521C14.2799 18.6337 14.2749 18.3114 14.2619 18.1851C14.2453 18.0503 14.2173 17.9962 14.178 18.0231C14.1043 18.0645 14.0151 18.153 13.9104 18.2886C13.8021 18.4157 13.7454 18.5209 13.7401 18.6042C13.723 18.6115 13.6872 18.6824 13.6327 18.817C13.5747 18.943 13.5204 19.0421 13.4699 19.1142C13.4399 19.2587 13.3366 19.5408 13.1598 19.9606L12.9762 20.3882C12.8911 20.546 12.7999 20.833 12.7028 21.2494C12.6481 21.455 12.6122 21.5615 12.595 21.5688C12.3286 21.6818 12.1064 21.624 11.9283 21.3954C11.8685 21.3498 11.8166 21.2755 11.7729 21.1724C11.7146 21.0349 11.6458 20.7295 11.5667 20.2562C11.5201 19.9312 11.4865 19.7326 11.466 19.6602L11.421 19.3751C11.3908 19.2561 11.373 19.1065 11.3676 18.9263C11.3621 18.7462 11.3613 18.4576 11.3652 18.0605C11.3491 17.7835 11.3155 17.5848 11.2645 17.4645C11.2171 17.3528 11.2193 17.2505 11.2711 17.1575C11.3193 17.056 11.3906 16.9852 11.4851 16.9451C11.6054 16.8941 11.7286 16.8976 11.8546 16.9556C11.9806 17.0137 12.0764 17.1201 12.142 17.2747C12.204 17.4208 12.2334 17.5857 12.2303 17.7696L12.2361 18.1777C12.2257 18.3443 12.2303 18.606 12.2498 18.9627C12.2743 19.3071 12.2938 19.4966 12.3084 19.5309C12.3279 19.5531 12.3562 19.536 12.3931 19.4798C12.4265 19.4149 12.4647 19.3379 12.508 19.2486C12.5525 19.1384 12.6099 19.0228 12.6802 18.9018C12.8359 18.5518 13.0425 18.1904 13.3 17.8176C13.5661 17.4411 13.7809 17.1827 13.9444 17.0424C14.0561 16.995 14.1451 16.9776 14.2112 16.9901C14.2823 16.9903 14.3686 17.0145 14.4701 17.0627C14.568 17.1023 14.6414 17.132 14.6904 17.1517C14.8005 17.1963 14.8866 17.2916 14.9485 17.4376C14.9668 17.4806 14.9819 17.5401 14.9938 17.6161C15.0105 17.751 15.0252 17.9171 15.038 18.1145C15.0593 18.3082 15.0735 18.4492 15.0805 18.5374C15.1188 18.4604 15.1879 18.3246 15.2879 18.1301C15.3879 17.9356 15.4786 17.7552 15.5601 17.5888C15.8476 17.0714 16.1159 16.7599 16.3651 16.6542C16.5455 16.5777 16.7403 16.6066 16.9493 16.7409C17.0595 16.7855 17.1414 16.847 17.195 16.9257C17.245 16.9957 17.2991 17.0995 17.3574 17.2369C17.4158 17.3744 17.4613 17.4818 17.4941 17.5591C17.5282 17.6156 17.5763 17.7169 17.6382 17.863C17.676 17.9281 17.7411 18.0576 17.8335 18.2516C17.9345 18.4419 18.0034 18.5445 18.0401 18.5594C18.1049 18.5927 18.271 18.578 18.5384 18.5152C18.704 18.4754 18.8105 18.5113 18.8579 18.623C18.8907 18.7004 18.8677 18.8014 18.7888 18.9261C18.7062 19.0422 18.5833 19.1349 18.4201 19.2042C18.2654 19.2698 18.1127 19.3041 17.962 19.3073ZM20.5992 21.4885C20.5586 21.5362 20.5168 21.5691 20.4739 21.5873C20.3536 21.6384 20.2231 21.6177 20.0826 21.5252C19.9456 21.4414 19.8407 21.3136 19.7678 21.1417C19.735 21.0644 19.7114 20.973 19.6971 20.8675C19.6911 20.8295 19.678 20.7388 19.6577 20.5953C19.6496 20.4568 19.6316 20.3428 19.6038 20.2532C19.5809 20.1514 19.5595 19.9577 19.5397 19.6721C19.5199 19.3864 19.5176 19.1897 19.5327 19.0819C19.5429 18.9864 19.539 18.8816 19.521 18.7676C19.4994 18.6449 19.4722 18.5449 19.4394 18.4676C19.4193 18.2531 19.4205 18.1005 19.4429 18.0099C19.4229 17.7953 19.4253 17.6219 19.4503 17.4897C19.448 17.4603 19.4311 17.3965 19.3996 17.2983C19.373 17.1879 19.3776 17.115 19.4132 17.0796C19.388 16.9484 19.3748 16.8576 19.3738 16.8074C19.3209 16.5155 19.2905 16.133 19.2824 15.6599C19.2736 15.4001 19.2218 15.1585 19.127 14.9351C19.014 14.6687 18.884 14.5414 18.7369 14.5531C18.6278 14.5588 18.5513 14.5102 18.5076 14.407C18.4821 14.3469 18.4756 14.2838 18.4881 14.2176C18.5006 14.1515 18.5314 14.0928 18.5806 14.0415C18.6384 13.9866 18.7017 13.9445 18.7705 13.9153C18.865 13.8753 18.9564 13.8517 19.0446 13.8447C19.1415 13.834 19.1893 13.8391 19.188 13.8599C19.1989 13.8857 19.2123 13.9053 19.2282 13.9189C19.2404 13.9238 19.2594 13.9208 19.2852 13.9099C19.2964 13.8646 19.3918 13.9103 19.5715 14.047C19.7475 14.1751 19.8501 14.2735 19.8792 14.3422C19.873 14.3753 19.8717 14.3961 19.8753 14.4047C19.8875 14.4097 19.9066 14.4067 19.9323 14.3957C19.9815 14.3445 20.0695 14.2412 20.1963 14.086C20.3281 13.9186 20.4045 13.8 20.4256 13.7303C20.4391 13.7144 20.4638 13.6887 20.4994 13.6533C20.5314 13.6093 20.5549 13.569 20.5697 13.5323C20.6497 13.4578 20.7498 13.395 20.8701 13.344C21.0075 13.2857 21.1498 13.2507 21.2969 13.239C21.444 13.2273 21.577 13.2418 21.6957 13.2827C21.9745 13.4382 22.1577 13.619 22.2452 13.8252C22.3217 14.0056 22.3618 14.2674 22.3655 14.6106C22.3701 14.6694 22.358 14.7962 22.3291 14.991C22.3052 15.1735 22.2869 15.2978 22.2744 15.364C22.2143 15.7241 22.1034 16.0601 21.9417 16.372C21.78 16.6839 21.5741 16.9993 21.3242 17.3183C21.2552 17.4185 21.1764 17.5077 21.0879 17.5858C21.008 17.6602 20.9336 17.7121 20.8649 17.7412C20.8305 17.7558 20.7925 17.7618 20.7509 17.7592C20.6272 17.7305 20.4793 17.6209 20.3072 17.4303C20.3085 17.7441 20.3206 17.9518 20.3435 18.0536C20.3544 18.0794 20.3641 18.126 20.3724 18.1935C20.3857 18.2487 20.3806 18.2964 20.3572 18.3368C20.3608 18.3454 20.3613 18.3705 20.3587 18.4122C20.3647 18.4502 20.359 18.5084 20.3415 18.5867C20.3657 19.0023 20.3789 19.2603 20.381 19.3608C20.4099 19.8352 20.4388 20.1423 20.4677 20.2821C20.5416 20.5042 20.5891 20.7477 20.6102 21.0125C20.6349 21.2858 20.6313 21.4445 20.5992 21.4885ZM20.5747 17.1648C20.6338 17.089 20.7806 16.8493 21.0149 16.4458C21.2456 16.0336 21.382 15.7578 21.4242 15.6182C21.5036 15.3513 21.537 15.1192 21.5242 14.9218C21.519 14.6706 21.5117 14.4861 21.5023 14.3684C21.5062 14.306 21.4936 14.2403 21.4645 14.1716C21.4244 14.0771 21.3676 14.015 21.2942 13.9853C21.239 13.9986 21.1357 14.0779 20.9845 14.2231C20.8381 14.3562 20.6892 14.5309 20.5377 14.7473C20.3911 14.9514 20.2873 15.1728 20.2264 15.4116C20.1592 15.6834 20.1294 15.9596 20.1369 16.2403C20.1531 16.5173 20.1976 16.7418 20.2705 16.9136C20.3616 17.1284 20.463 17.2121 20.5747 17.1648ZM24.5238 17.2992C24.3976 17.3122 24.2886 17.2824 24.197 17.2097C24.1053 17.1371 24.0187 17.0167 23.9372 16.8485C23.8862 16.7282 23.8354 16.5368 23.7849 16.2744C23.7308 16.0033 23.6953 15.8359 23.6783 15.7721L23.6475 15.6635C23.6378 15.6169 23.6179 15.5341 23.5877 15.4151C23.5661 15.2925 23.5681 15.2613 23.5936 15.3214L23.5362 14.9352C23.4979 14.6777 23.4669 14.4373 23.4433 14.2142C23.4196 13.9911 23.4024 13.8311 23.3917 13.7342L23.3605 13.2304C23.2954 12.2644 23.3045 11.6168 23.3878 11.2874C23.3819 11.2494 23.382 11.2139 23.3882 11.1808C23.3908 11.1391 23.3892 11.0993 23.3832 11.0613C23.348 10.9545 23.3398 10.8516 23.3586 10.7524C23.3812 10.5907 23.3965 10.4473 23.4043 10.3224L23.3957 10.1587C23.4092 9.80828 23.4347 9.53385 23.4722 9.33545C23.4738 9.24355 23.4828 9.13328 23.4992 9.00466C23.5242 8.87239 23.5491 8.77567 23.5738 8.71448L23.5554 8.70706C23.5692 8.6201 23.5983 8.55709 23.6425 8.51804C23.6954 8.47534 23.7691 8.43394 23.8636 8.39385C23.9753 8.34646 24.047 8.33631 24.0788 8.36339C24.1155 8.37823 24.1612 8.45009 24.2159 8.57897L24.2651 8.69497C24.3015 8.78089 24.3203 8.84898 24.3213 8.89923C24.3309 8.94583 24.3227 9.01014 24.2967 9.09216L24.3096 9.08669C24.3096 9.08669 24.3101 9.11182 24.3112 9.16207C24.3122 9.21232 24.3114 9.25827 24.3088 9.29993C24.3143 9.48011 24.3078 9.58425 24.2893 9.61237C24.2632 9.69439 24.2311 10.1085 24.1928 10.8547C24.1594 11.5887 24.1459 12.1064 24.1521 12.4079L24.1697 12.6286L24.1767 12.7168C24.1697 12.9632 24.1655 13.0967 24.1642 13.1176L24.2622 13.958L24.3126 14.256L24.3169 14.5888L24.3435 14.8664C24.3409 14.9081 24.3462 14.9565 24.3595 15.0117C24.3727 15.0669 24.372 15.1129 24.3571 15.1496L24.3716 15.2195C24.4689 15.7358 24.5934 16.2204 24.7449 16.6731L24.7539 16.7302C24.7987 16.8835 24.8142 17.0037 24.8004 17.0906C24.7866 17.1776 24.741 17.2375 24.6637 17.2703C24.6465 17.2776 24.5999 17.2872 24.5238 17.2992ZM27.8928 15.7787C27.5234 15.9355 27.16 15.9274 26.8028 15.7545C26.4456 15.5816 26.1795 15.289 26.0045 14.8765C25.8296 14.4641 25.7284 13.9747 25.7011 13.4085C25.6787 12.8299 25.7298 12.2811 25.8542 11.7619C25.9787 11.2427 26.1621 10.8506 26.4045 10.5856C26.5363 10.4182 26.7096 10.2889 26.9244 10.1978C27.0876 10.1285 27.2924 10.0974 27.5387 10.1044C27.7103 10.1026 27.853 10.1283 27.9668 10.1814C28.0805 10.2345 28.2058 10.3385 28.3425 10.4934C28.4338 10.6372 28.4923 10.7391 28.5178 10.7992C28.5397 10.8508 28.5656 10.9716 28.5955 11.1617C28.6273 11.5233 28.6046 11.8523 28.5275 12.1486C28.4554 12.4327 28.319 12.7085 28.1182 12.9762C28.0172 13.1204 27.8636 13.2363 27.6574 13.3237C27.4769 13.4003 27.2923 13.4431 27.1036 13.4522C26.9198 13.4491 26.7575 13.4013 26.617 13.3089L26.483 13.244L26.4881 13.3636C26.5045 13.9041 26.5819 14.3376 26.7204 14.6641C26.8152 14.8875 26.9347 15.0497 27.0789 15.1507C27.1792 15.2197 27.3453 15.205 27.5773 15.1066C27.7491 15.0337 27.8664 14.9637 27.9292 14.8965C28.0398 14.7989 28.1297 14.6999 28.1987 14.5997C28.2726 14.4872 28.3423 14.3765 28.4076 14.2677L28.4482 14.2201L28.4353 14.2255C28.5166 14.1302 28.5824 14.0465 28.633 13.9744C28.6835 13.9023 28.718 13.8522 28.7365 13.8241C28.7536 13.8168 28.769 13.8052 28.7825 13.7893C28.7961 13.7734 28.806 13.7489 28.8122 13.7159C28.875 13.6487 28.9707 13.6233 29.0993 13.6397C29.2279 13.6561 29.3123 13.7116 29.3524 13.8061C29.3643 13.8821 29.3344 14.0266 29.2625 14.2396C29.1907 14.4526 29.1222 14.578 29.0571 14.6157C29.0485 14.6194 29.0239 14.645 28.9833 14.6926C28.9426 14.7403 28.9174 14.7763 28.9075 14.8008L28.9204 14.7954C28.8868 14.9313 28.8313 15.0156 28.754 15.0484L28.6509 15.0922C28.6457 15.1755 28.5589 15.2934 28.3904 15.446C28.2305 15.5949 28.0647 15.7058 27.8928 15.7787ZM27.27 12.6973C27.5277 12.5879 27.702 12.3416 27.7929 11.9584C27.8825 11.596 27.869 11.2773 27.7523 11.0023C27.6904 10.8562 27.6165 10.7659 27.5309 10.7313C27.4684 10.7274 27.4157 10.7345 27.3727 10.7527C27.3298 10.771 27.2622 10.8148 27.17 10.8844C27.0693 10.9575 26.9484 11.1507 26.8076 11.4639C26.6631 11.7686 26.5696 12.0262 26.5271 12.2368L26.4744 12.5785C26.5322 12.5236 26.5912 12.4834 26.6513 12.4579C26.7164 12.4201 26.7569 12.408 26.7728 12.4216C26.8238 12.5418 26.8958 12.6279 26.9888 12.6797C27.0817 12.7315 27.1754 12.7374 27.27 12.6973ZM31.8103 13.9648C31.6618 13.9974 31.4818 13.9673 31.2701 13.8746C31.0634 13.7697 30.9094 13.6576 30.8081 13.5383C30.8008 13.5211 30.7849 13.5076 30.7605 13.4977C30.7323 13.4792 30.7122 13.4675 30.6999 13.4625C30.6546 13.4514 30.5773 13.3169 30.468 13.0591C30.3805 12.8529 30.2979 12.6344 30.2204 12.4038C30.1514 12.1694 30.1049 11.9762 30.0809 11.8242L30.0232 11.0427L29.9849 10.4506L30.0158 9.55547L29.4401 9.6324C29.3763 9.64932 29.312 9.64112 29.2472 9.60779C29.1909 9.57082 29.1537 9.53085 29.1355 9.48789C29.1063 9.41915 29.106 9.32295 29.1347 9.19928C29.1683 9.06336 29.2066 8.9863 29.2495 8.96807C29.2789 8.96573 29.3495 8.94087 29.4612 8.89348C29.719 8.78413 29.9068 8.68923 30.0248 8.60878C30.0961 8.53796 30.1271 8.44371 30.1177 8.32603C30.1229 8.24271 30.1251 8.14038 30.1244 8.01905C30.1322 7.89408 30.1393 7.77952 30.1459 7.67537C30.1498 7.61288 30.1556 7.51915 30.1634 7.39417C30.1762 7.25696 30.1964 7.10139 30.224 6.92747C30.2302 6.8944 30.2434 6.81785 30.2634 6.69783C30.2798 6.56921 30.3164 6.4523 30.3732 6.34711C30.4078 6.26145 30.4681 6.2004 30.554 6.16395C30.6399 6.1275 30.7753 6.13596 30.9602 6.18934C30.9883 6.20783 31.0244 6.23309 31.0684 6.26511C31.121 6.29349 31.1545 6.32487 31.1691 6.35924C31.1837 6.39361 31.1803 6.48122 31.159 6.62208C31.1511 6.74705 31.1397 6.86344 31.1246 6.97123C31.1144 7.06678 31.1049 7.15192 31.0961 7.22665C31.0659 7.44223 31.0475 7.60209 31.041 7.70624C31.0025 7.85439 30.9959 7.95853 31.0215 8.01868C31.047 8.07883 31.1156 8.08521 31.2273 8.03782C31.3476 7.98679 31.5386 7.87536 31.8002 7.70352C31.9132 7.63531 31.9912 7.59209 32.0342 7.57386C32.3349 7.44629 32.551 7.50162 32.6825 7.73986C32.7129 7.78777 32.7427 7.84609 32.7719 7.91483C32.8229 8.03512 32.811 8.12638 32.736 8.1886C32.6696 8.24718 32.4946 8.33662 32.2111 8.4569C31.9543 8.6165 31.6799 8.75826 31.3878 8.88219C31.3362 8.90406 31.2779 8.93387 31.2128 8.97163C31.1527 8.99714 31.0919 9.03307 31.0304 9.07941C30.969 9.12576 30.9284 9.1734 30.9086 9.22235C30.8974 9.26766 30.891 9.33626 30.8894 9.42817C30.8746 9.46488 30.8564 9.58921 30.8347 9.80115C30.8202 10.1013 30.8066 10.2845 30.7941 10.3506C30.8537 11.1364 30.9808 11.9139 31.1752 12.683C31.2164 12.8278 31.2442 12.9174 31.2588 12.9517C31.3135 13.0806 31.3947 13.1526 31.5025 13.1677C31.6103 13.1828 31.7673 13.1466 31.9735 13.0591C32.2657 12.9352 32.5064 12.7976 32.6957 12.6463C32.906 12.4253 33.0593 12.2488 33.1553 12.1168C33.2144 12.041 33.2668 11.9732 33.3123 11.9133C33.3629 11.8412 33.3974 11.791 33.4158 11.7629C33.4198 11.7004 33.4389 11.6619 33.4733 11.6473C33.542 11.6182 33.6313 11.6614 33.7412 11.777C33.7995 11.9145 33.8205 12.0475 33.804 12.1761C33.7876 12.3048 33.6883 12.4888 33.506 12.7284C33.1426 13.2577 32.7117 13.6281 32.2133 13.8395C32.0758 13.8978 31.9415 13.9396 31.8103 13.9648ZM35.868 11.9849C35.5457 11.9898 35.2922 11.9301 35.1076 11.8056C34.9194 11.6726 34.7578 11.4471 34.623 11.1292C34.5574 10.9745 34.4937 10.7886 34.432 10.5715L34.261 10.0966C34.2281 10.0192 34.194 9.96273 34.1586 9.92706C34.1232 9.89139 34.0645 9.86053 33.9825 9.8345C33.958 9.8246 33.8968 9.79987 33.7989 9.76029C33.701 9.72071 33.6473 9.67762 33.6376 9.63101L33.5974 9.57204C33.5719 9.51189 33.5568 9.4524 33.5521 9.39356C33.556 9.33107 33.5709 9.29436 33.5966 9.28342C33.6224 9.27249 33.655 9.25361 33.6943 9.22679C33.73 9.19139 33.7668 9.17069 33.8048 9.1647C33.9251 9.11367 33.9962 9.11393 34.0181 9.16548C34.0816 9.21964 34.1411 9.20454 34.1965 9.12018C34.2569 9.02359 34.2912 8.87726 34.2993 8.68121C34.3394 8.44115 34.4317 8.16881 34.5762 7.86418C34.7256 7.54732 34.8595 7.31312 34.9777 7.16159C35.0232 7.10171 35.1093 7.02972 35.2358 6.94562C35.3587 6.85293 35.4717 6.78472 35.5748 6.74098C35.7295 6.67537 35.8772 6.65324 36.0181 6.6746C36.1676 6.6923 36.3298 6.74008 36.5047 6.81794C36.719 6.86897 36.8808 7.02337 36.9902 7.28114C37.0667 7.46157 37.1021 7.66453 37.0964 7.89001C37.1167 8.03347 37.0485 8.25504 36.8917 8.55472C36.7436 8.85075 36.5871 9.07935 36.4223 9.24052C36.2072 9.40272 35.945 9.54943 35.6357 9.68065C35.4295 9.76813 35.289 9.80744 35.2143 9.79859C35.0857 9.78218 35.1111 10.0452 35.2904 10.5875C35.3074 10.6513 35.3377 10.7347 35.3814 10.8378C35.4434 10.9839 35.5141 11.0908 35.5935 11.1585C35.6057 11.1634 35.6504 11.185 35.7274 11.2233C35.8009 11.253 35.8854 11.2729 35.9809 11.2831C36.0728 11.2846 36.1617 11.2672 36.2477 11.2308C36.325 11.198 36.3815 11.1638 36.4172 11.1284C36.5007 11.0626 36.5709 10.977 36.6277 10.8718C36.6808 10.7581 36.7519 10.591 36.8409 10.3708C36.9201 10.175 36.9788 10.0386 37.0171 9.96148C37.0272 9.86593 37.0967 9.79081 37.2256 9.73614C37.26 9.72156 37.3238 9.70464 37.417 9.68537C37.5198 9.71271 37.5858 9.76075 37.615 9.82949C37.6442 9.89823 37.6559 10.0453 37.6501 10.2708C37.6436 10.375 37.5873 10.5408 37.481 10.7684C37.3797 10.9837 37.2829 11.1616 37.1904 11.3022C36.9861 11.5613 36.7507 11.7473 36.4843 11.8603C36.3211 11.9296 36.1156 11.9711 35.868 11.9849ZM35.5185 9.04601C35.5972 8.99237 35.7127 8.91804 35.865 8.82301C36.0173 8.72798 36.1268 8.61563 36.1934 8.48597C36.265 8.34407 36.3265 8.13044 36.3778 7.84508C36.3744 7.76541 36.3581 7.6912 36.329 7.62247C36.2743 7.49358 36.2102 7.4143 36.1368 7.38462C36.0512 7.34999 35.9697 7.34908 35.8923 7.38188C35.772 7.43291 35.6693 7.53731 35.5842 7.69509C35.5092 7.75732 35.4204 7.90651 35.3178 8.14266C35.2238 8.37517 35.1513 8.59856 35.1003 8.81284C35.0456 9.01853 35.0452 9.12515 35.0991 9.1327C35.0928 9.16577 35.1449 9.16902 35.2553 9.14247C35.3621 9.10732 35.4498 9.07517 35.5185 9.04601ZM42.533 9.3704C42.3869 9.43237 42.2656 9.43315 42.169 9.37274C42.0112 9.2876 41.8944 9.21547 41.8187 9.15637C41.7479 9.08503 41.6888 8.99351 41.6414 8.88181C41.6013 8.78729 41.5728 8.70814 41.5558 8.64435L41.3559 8.02962C41.3314 8.01973 41.2989 8.0386 41.2583 8.08625C41.2262 8.13025 41.196 8.17855 41.1676 8.23114C41.1479 8.28009 41.1262 8.32474 41.1028 8.3651L40.9603 8.63848C40.7645 9.22847 40.563 9.67382 40.3561 9.97454C40.1576 10.2716 39.9382 10.4712 39.6976 10.5732L39.5503 10.6205C39.3626 10.6799 39.193 10.6504 39.0414 10.5322C38.8863 10.4054 38.7558 10.2174 38.6501 9.96826C38.5955 9.83938 38.5597 9.74304 38.5427 9.67925C38.4495 9.36394 38.3955 9.05736 38.3807 8.7595C38.3658 8.46164 38.3934 8.12043 38.4635 7.73587C38.5002 7.41614 38.605 7.07767 38.7779 6.72045C38.9594 6.35958 39.1676 6.07358 39.4024 5.86242C39.6201 5.65856 39.8406 5.50924 40.064 5.41447C40.2101 5.35251 40.3653 5.31203 40.5295 5.29302C40.6545 5.30084 40.7471 5.29199 40.8072 5.26647C40.876 5.23731 40.9093 5.17248 40.9072 5.07198C40.9197 5.00585 40.9183 4.89493 40.9029 4.73923C40.8915 4.52104 40.8908 4.36417 40.901 4.26862L40.8291 3.3106L40.8252 2.36937L40.8272 1.33441C40.8533 0.917829 40.9264 0.684021 41.0467 0.632991C41.1155 0.603832 41.2171 0.616461 41.3517 0.670881C41.4655 0.723998 41.5443 0.802109 41.588 0.905215C41.6245 0.991137 41.6443 1.10947 41.6474 1.26023C41.6591 1.40733 41.667 1.58139 41.6712 1.78239C41.636 2.01021 41.6155 2.2724 41.6095 2.56896L41.602 3.08917C41.6033 3.73748 41.6062 4.1266 41.6106 4.25652L41.6551 4.64825C41.6799 4.92163 41.7115 5.15154 41.75 5.33796C41.838 5.73658 41.8562 5.94683 41.8047 5.9687C41.7193 6.19756 41.7883 6.76646 42.0116 7.67541C42.0647 7.8962 42.2152 8.29873 42.4631 8.88299C42.5469 9.08061 42.5912 9.20885 42.5959 9.26769C42.6055 9.31429 42.5845 9.34853 42.533 9.3704ZM39.4433 9.72301C39.6066 9.65375 39.7486 9.52253 39.8694 9.32934C39.9952 9.12392 40.1427 8.8383 40.3119 8.47248C40.4492 8.15067 40.5808 7.68423 40.7068 7.07315C40.8329 6.46207 40.8795 6.11787 40.8467 6.04054C40.8321 6.00617 40.7764 5.99432 40.6795 6.005C40.5826 6.01567 40.4827 6.04288 40.3796 6.08662C40.3108 6.11578 40.2457 6.15353 40.1843 6.19987C40.0049 6.32667 39.8498 6.4989 39.7191 6.71656C39.5934 6.92199 39.4802 7.19303 39.3797 7.52968C39.2667 7.93246 39.204 8.33421 39.1915 8.73491C39.179 9.13562 39.211 9.42619 39.2875 9.60662C39.3313 9.70973 39.3832 9.74852 39.4433 9.72301Z" fill="url(#paint0_angular)"/>
<defs>
<radialGradient id="paint0_angular" cx="0" cy="0" r="1" gradientUnits="userSpaceOnUse" gradientTransform="translate(20.1486 13.5871) rotate(67.0124) scale(9 23.5)">
<stop offset="0.177083" stop-color="#2C0ADF"/>
<stop offset="0.572917" stop-color="#761313" stop-opacity="0.934472"/>
<stop offset="0.973958" stop-color="#717A0C" stop-opacity="0.87"/>
</radialGradient>
</defs>
</svg>
