<svg width="63" height="63" viewBox="0 0 63 63" fill="none" xmlns="http://www.w3.org/2000/svg">
<path d="M31.5 63C48.897 63 63 48.897 63 31.5C63 14.103 48.897 0 31.5 0C14.103 0 0 14.103 0 31.5C0 48.897 14.103 63 31.5 63Z" fill="#D4A600"/>
<path d="M32 42.3359C38.3513 42.3359 43.5 37.2589 43.5 30.9959C43.5 24.733 38.3513 19.6559 32 19.6559C25.6487 19.6559 20.5 24.733 20.5 30.9959C20.5 37.2589 25.6487 42.3359 32 42.3359Z" fill="white"/>
<path d="M26.2704 34.3328L5.09229 48.78" stroke="white" stroke-width="2"/>
<path d="M37.2988 34.0741L59.645 45.7617" stroke="white" stroke-width="2"/>
<path d="M31.7759 0V25.4312" stroke="white" stroke-width="2"/>
<path d="M8.67525 26.0542L11.1641 27.3126L9.98163 24.6952L10.6716 23.9775L13.2002 26.6519L12.6731 27.2002L11.9819 26.4691L10.8413 25.1526L12.0375 27.8615L11.6768 28.2368L9.10771 26.9598L10.3515 28.1651L11.0428 28.8962L10.5175 29.4428L7.98877 26.7683L8.67525 26.0542ZM14.7237 25.0671C14.6552 25.0436 14.5822 25.0017 14.5045 24.9416C14.5174 25.2125 14.4257 25.4499 14.2296 25.6539C14.044 25.847 13.8367 25.951 13.6075 25.9658C13.3796 25.9795 13.1846 25.9006 13.0225 25.7291C12.8233 25.5186 12.7446 25.2798 12.7864 25.0129C12.8293 24.7447 12.9908 24.4637 13.271 24.1698L13.5039 23.9276L13.3963 23.8137C13.3094 23.7218 13.2172 23.672 13.1196 23.6643C13.0232 23.6553 12.9265 23.7013 12.8296 23.8021C12.7444 23.8908 12.6974 23.982 12.689 24.0758C12.6816 24.1685 12.7132 24.2522 12.7838 24.3269L12.2778 24.8534C12.169 24.7383 12.102 24.5965 12.0772 24.4281C12.0523 24.2597 12.0756 24.0835 12.1472 23.8997C12.2178 23.7147 12.3301 23.542 12.4842 23.3817C12.7176 23.1388 12.9612 23.0081 13.2146 22.9897C13.4682 22.9689 13.7004 23.0698 13.911 23.2928L14.7255 24.1542C14.9051 24.3416 15.0651 24.4582 15.2056 24.5039L15.2351 24.5351L14.7237 25.0671ZM13.9561 25.1332C14.0308 25.0555 14.0835 24.9667 14.1141 24.8668C14.1436 24.7657 14.1457 24.67 14.1205 24.5796L13.7974 24.2379L13.6084 24.4347C13.355 24.6983 13.307 24.9304 13.4644 25.1311L13.4921 25.1642C13.5546 25.2302 13.6284 25.2616 13.7132 25.2584C13.7981 25.2551 13.8791 25.2134 13.9561 25.1332ZM14.1352 21.737L14.368 21.9502C14.3356 21.6317 14.4332 21.3541 14.6608 21.1173C14.8617 20.9084 15.0696 20.8148 15.2846 20.8364C15.4995 20.8581 15.7245 20.9908 15.9597 21.2346L17.1736 22.5185L16.6675 23.045L15.4658 21.7738C15.3592 21.6612 15.2588 21.6041 15.1647 21.6024C15.0694 21.5996 14.9674 21.6547 14.8588 21.7676C14.7164 21.9157 14.6698 22.0906 14.719 22.292L16.0441 23.6935L15.538 24.2199L13.6589 22.2324L14.1352 21.737ZM18.6568 20.9755C18.5883 20.952 18.5153 20.9102 18.4376 20.8502C18.4504 21.121 18.3589 21.3583 18.1627 21.5624C17.9771 21.7555 17.7698 21.8595 17.5406 21.8743C17.3127 21.888 17.1177 21.8091 16.9556 21.6376C16.7564 21.427 16.6777 21.1882 16.7195 20.9214C16.7624 20.6532 16.9239 20.3722 17.2041 20.0783L17.437 19.836L17.3294 19.7222C17.2425 19.6303 17.1503 19.5806 17.0527 19.5728C16.9563 19.5638 16.8596 19.6098 16.7627 19.7105C16.6774 19.7992 16.6305 19.8905 16.6221 19.9844C16.6147 20.077 16.6463 20.1607 16.7169 20.2353L16.2109 20.7619C16.1021 20.6468 16.0351 20.505 16.0103 20.3366C15.9854 20.1682 16.0087 19.992 16.0803 19.8082C16.1509 19.6231 16.2632 19.4504 16.4173 19.2901C16.6507 19.0473 16.8943 18.9166 17.1477 18.8982C17.4013 18.8774 17.6335 18.9783 17.8441 19.2012L18.6587 20.0627C18.8382 20.2501 18.9982 20.3666 19.1387 20.4124L19.1682 20.4436L18.6568 20.9755ZM17.8892 21.0417C17.9639 20.964 18.0166 20.8752 18.0472 20.7753C18.0767 20.6742 18.0788 20.5785 18.0536 20.4881L17.7305 20.1465L17.5414 20.3432C17.2881 20.6068 17.2401 20.8388 17.3974 21.0396L17.4252 21.0726C17.4877 21.1387 17.5615 21.1701 17.6463 21.1668C17.7312 21.1636 17.8122 21.1219 17.8892 21.0417ZM18.4546 19.1856C18.1663 18.8806 18.003 18.5635 17.9648 18.2341C17.9278 17.9034 18.0265 17.616 18.2613 17.3719C18.469 17.1557 18.7013 17.0622 18.9582 17.0914L18.802 16.8822L19.2608 16.4049L21.0774 18.3263C21.2418 18.5001 21.3469 18.6909 21.3926 18.8984C21.4395 19.1046 21.4264 19.3125 21.3535 19.522C21.2806 19.7314 21.1525 19.9315 20.9693 20.1221C20.8303 20.2666 20.6671 20.3781 20.4796 20.4566C20.2932 20.5363 20.1228 20.5655 19.9682 20.544L19.8868 19.9876C20.1529 20.0045 20.3759 19.9196 20.5557 19.7325C20.69 19.5929 20.7585 19.4462 20.7614 19.2925C20.7656 19.1401 20.7022 18.9947 20.5713 18.8564L20.4706 18.7498C20.4847 19.0096 20.3967 19.2385 20.2063 19.4365C19.9787 19.6733 19.7062 19.7722 19.3889 19.733C19.0717 19.6914 18.7672 19.5162 18.4754 19.2076L18.4546 19.1856ZM18.9972 18.6977C19.1674 18.8776 19.3356 18.9833 19.5017 19.0145C19.6666 19.0445 19.8093 18.9969 19.9295 18.8719C20.0836 18.7116 20.1367 18.5362 20.0885 18.3457L19.2984 17.51C19.116 17.4592 18.9496 17.5121 18.799 17.6688C18.6776 17.7951 18.631 17.9467 18.6594 18.1237C18.6889 18.2994 18.8015 18.4907 18.9972 18.6977ZM22.4373 17.1157C22.1595 17.4047 21.8484 17.5509 21.5043 17.5543C21.1613 17.5565 20.8491 17.4088 20.5677 17.1111L20.5192 17.0598C20.3304 16.8601 20.1987 16.6437 20.1241 16.4104C20.0483 16.176 20.0376 15.9467 20.0919 15.7225C20.1463 15.4959 20.2599 15.2927 20.4327 15.113C20.6918 14.8434 20.9766 14.7172 21.2869 14.7344C21.5985 14.7504 21.9031 14.9158 22.2006 15.2305L22.4055 15.4472L21.1989 16.7023C21.3381 16.8151 21.4855 16.8682 21.6413 16.8616C21.7983 16.8537 21.9398 16.7842 22.0659 16.6531C22.2608 16.4502 22.3431 16.2177 22.3128 15.9554L22.8376 15.9887C22.8683 16.1803 22.8489 16.3754 22.7795 16.5738C22.709 16.7711 22.5949 16.9517 22.4373 17.1157ZM20.8373 15.5446C20.7369 15.6491 20.6888 15.7696 20.6928 15.9062C20.6982 16.0416 20.7545 16.1845 20.8621 16.335L21.566 15.6027L21.5261 15.5604C21.4126 15.4453 21.2966 15.3863 21.178 15.3834C21.0582 15.3791 20.9447 15.4329 20.8373 15.5446Z" fill="white"/>
<path d="M38.7505 15.9655L37.7591 15.0877L37.0933 15.5139L36.4922 14.9817L39.8299 13.0078L40.3538 13.4716L39.0647 17.2594L38.4635 16.7271L38.7505 15.9655ZM38.2983 14.7425L38.9844 15.3499L39.5065 13.9671L38.2983 14.7425ZM41.4174 15.6794L41.2355 15.9415C41.535 15.8795 41.8072 15.9569 42.0523 16.1738C42.2684 16.3652 42.3756 16.5741 42.3741 16.8007C42.3725 17.0272 42.2664 17.2741 42.0557 17.5412L40.9437 18.923L40.399 18.4408L41.5 17.0728C41.5975 16.9515 41.6428 16.8417 41.6361 16.7432C41.6304 16.6433 41.5691 16.5416 41.4523 16.4382C41.299 16.3024 41.1288 16.2692 40.9419 16.3384L39.7281 17.8467L39.1835 17.3645L40.9048 15.2256L41.4174 15.6794ZM42.54 20.3365C42.5563 20.2628 42.5895 20.1827 42.6396 20.0963C42.3837 20.1337 42.1502 20.0589 41.939 19.8721C41.7393 19.6951 41.6222 19.4877 41.5878 19.2496C41.5548 19.0127 41.6124 18.8019 41.7609 18.6174C41.9433 18.3908 42.1631 18.2874 42.4202 18.3075C42.6787 18.3287 42.9598 18.4726 43.2637 18.7394L43.5143 18.9613L43.6129 18.8387C43.6925 18.7399 43.7316 18.6391 43.7303 18.5364C43.7303 18.4348 43.6781 18.3379 43.5739 18.2455C43.4822 18.1643 43.3913 18.1235 43.3014 18.1229C43.2128 18.1234 43.1362 18.1638 43.0715 18.2442L42.5268 17.7619C42.6265 17.6381 42.7552 17.5557 42.913 17.5148C43.0706 17.4738 43.24 17.4827 43.4209 17.5413C43.6028 17.5987 43.7768 17.7007 43.9426 17.8476C44.1939 18.07 44.3395 18.3129 44.3793 18.5762C44.4216 18.8392 44.3462 19.0907 44.1531 19.3306L43.407 20.2577C43.2449 20.4618 43.1484 20.6392 43.1174 20.7901L43.0904 20.8237L42.54 20.3365ZM42.4093 19.5403C42.4898 19.6115 42.5788 19.6587 42.6763 19.6818C42.7749 19.7037 42.8659 19.6974 42.9495 19.6631L43.2454 19.2954L43.0419 19.1152C42.7692 18.8738 42.5446 18.8441 42.3679 19.0263L42.339 19.0582C42.2818 19.1293 42.2584 19.2091 42.269 19.2975C42.2796 19.386 42.3264 19.4668 42.4093 19.5403ZM44.0025 21.6313L43.456 21.1474L45.8995 18.1109L46.4461 18.5948L44.0025 21.6313ZM45.865 21.8958L47.3126 20.899L47.8968 21.4163L45.0885 23.1615L44.9526 23.2342C44.6058 23.4056 44.2923 23.3674 44.0121 23.1193C43.933 23.0492 43.8626 22.9655 43.8012 22.8681L44.1495 22.4352L44.2309 22.5106C44.3339 22.6019 44.4238 22.6532 44.5006 22.6648C44.5786 22.6775 44.6628 22.6583 44.7533 22.6074L44.9589 22.4883L45.9707 19.711L46.5568 20.2299L45.865 21.8958ZM47.9704 24.1324C48.0267 24.0625 48.0373 23.9783 48.0026 23.8798C47.9701 23.7811 47.8938 23.6514 47.7735 23.4907C47.3744 22.9545 47.3059 22.5237 47.5678 22.1982C47.7205 22.0085 47.9226 21.9165 48.1739 21.9223C48.4275 21.928 48.6756 22.0381 48.9181 22.2529C49.1769 22.482 49.3322 22.7289 49.3839 22.9936C49.4368 23.2594 49.381 23.4945 49.2166 23.6987L48.6719 23.2164C48.7377 23.1348 48.7667 23.0453 48.7588 22.9481C48.752 22.8495 48.6953 22.753 48.5885 22.6584C48.4967 22.5772 48.4083 22.5362 48.3231 22.5351C48.2377 22.5341 48.1681 22.5672 48.114 22.6344C48.0631 22.6977 48.05 22.7741 48.0747 22.8637C48.1017 22.9531 48.1714 23.0723 48.2838 23.2216C48.3973 23.3693 48.4862 23.5022 48.5504 23.6201C48.7491 23.9855 48.7386 24.3047 48.5191 24.5775C48.3622 24.7726 48.1551 24.86 47.8979 24.84C47.6419 24.8187 47.3876 24.6962 47.1351 24.4726C46.9641 24.3213 46.8376 24.1551 46.7553 23.9739C46.6753 23.7925 46.6423 23.613 46.6559 23.4356C46.6707 23.2568 46.73 23.1029 46.8339 22.9737L47.3503 23.431C47.2737 23.5368 47.247 23.6464 47.2701 23.7594C47.2932 23.8724 47.3606 23.9783 47.4725 24.0774C47.5768 24.1696 47.6717 24.2188 47.7573 24.2246C47.8453 24.2303 47.9163 24.1995 47.9704 24.1324ZM49.2836 26.3749C48.9846 26.1101 48.8181 25.7981 48.7845 25.4388C48.7522 25.0806 48.8649 24.7415 49.1226 24.4212L49.1671 24.3659C49.34 24.151 49.5339 23.9943 49.7488 23.8957C49.9647 23.7958 50.1816 23.7643 50.3993 23.8013C50.6192 23.8381 50.8222 23.9388 51.0082 24.1035C51.2871 24.3504 51.4321 24.6368 51.4432 24.9626C51.4555 25.2895 51.3254 25.6223 51.0529 25.961L50.8651 26.1943L49.5666 25.0445C49.4717 25.1998 49.4344 25.3585 49.4545 25.5208C49.4758 25.6841 49.5543 25.8258 49.69 25.946C49.8998 26.1318 50.128 26.1972 50.3744 26.1423L50.3891 26.6936C50.2098 26.7425 50.023 26.7395 49.8283 26.6845C49.6348 26.6283 49.4532 26.5251 49.2836 26.3749ZM50.634 24.5644C50.5259 24.4687 50.4073 24.4291 50.2779 24.4454C50.1498 24.4629 50.0191 24.5344 49.8857 24.6601L50.6433 25.3309L50.6799 25.2854C50.7792 25.1567 50.825 25.0302 50.8173 24.9061C50.8107 24.7807 50.7497 24.6667 50.634 24.5644Z" fill="white"/>
<path d="M25.1554 47.9114L25.1676 49.2384L24.4277 49.2459L24.3931 45.4794L25.7939 45.4653C26.0635 45.4626 26.3007 45.5119 26.5056 45.6132C26.712 45.7147 26.8712 45.8605 26.9831 46.0509C27.0951 46.2395 27.1521 46.4554 27.1543 46.6985C27.1577 47.0675 27.0396 47.3602 26.7998 47.5766C26.5618 47.7911 26.2298 47.9005 25.804 47.9048L25.1554 47.9114ZM25.1496 47.2827L25.8106 47.2761C26.0062 47.2741 26.1545 47.2243 26.2556 47.1267C26.3583 47.0291 26.4088 46.8906 26.4071 46.7112C26.4055 46.5266 26.3523 46.378 26.2476 46.2653C26.143 46.1525 25.9995 46.0953 25.8169 46.0937L25.1387 46.1006L25.1496 47.2827ZM29.1214 47.1003C29.0242 47.0875 28.9386 47.0814 28.8647 47.0822C28.5951 47.0849 28.4192 47.1824 28.3371 47.3746L28.3539 49.2062L27.6411 49.2134L27.6154 46.4144L28.2887 46.4076L28.3115 46.7411C28.4522 46.4827 28.6491 46.3522 28.9023 46.3497C28.9812 46.3488 29.0553 46.3593 29.1246 46.381L29.1214 47.1003ZM30.6652 49.2346C30.2739 49.2385 29.9538 49.1158 29.7049 48.8665C29.4576 48.6172 29.332 48.283 29.3281 47.864L29.3275 47.7916C29.3249 47.5105 29.3744 47.2589 29.476 47.0372C29.5774 46.8137 29.7222 46.6415 29.9102 46.5206C30.0998 46.3979 30.3163 46.3353 30.5596 46.3328C30.9246 46.3292 31.2126 46.447 31.4236 46.6864C31.6363 46.9256 31.7447 47.2669 31.7487 47.7102L31.7516 48.0153L30.0523 48.0326C30.077 48.2151 30.1475 48.3611 30.2635 48.4702C30.3813 48.5794 30.529 48.6331 30.7066 48.6314C30.9811 48.6286 31.1947 48.522 31.3473 48.3118L31.7013 48.7196C31.5959 48.8793 31.4524 49.0049 31.2707 49.0964C31.089 49.1862 30.8872 49.2323 30.6652 49.2346ZM30.5628 46.9383C30.4213 46.9396 30.3067 46.9909 30.2188 47.0917C30.1326 47.1927 30.078 47.3364 30.0551 47.5229L31.0465 47.5129L31.0459 47.4533C31.0411 47.2878 30.9972 47.1606 30.9142 47.0718C30.8311 46.9812 30.714 46.9367 30.5628 46.9383ZM32.0451 47.7485C32.041 47.3122 32.1308 46.9638 32.3142 46.7032C32.4992 46.4426 32.7537 46.3107 33.0776 46.3074C33.3374 46.3048 33.5529 46.4043 33.724 46.6061L33.7109 45.1781L34.4261 45.1709L34.4627 49.1443L33.819 49.1509L33.7817 48.8537C33.6063 49.0884 33.3788 49.207 33.0994 49.2099C32.7854 49.2131 32.5317 49.0863 32.3387 48.8295C32.1472 48.5711 32.0493 48.2107 32.0451 47.7485ZM32.7583 47.7956C32.7608 48.0577 32.8061 48.2582 32.8946 48.397C32.983 48.5358 33.1102 48.6044 33.2763 48.6028C33.4966 48.6005 33.6511 48.5015 33.7398 48.3057L33.7296 47.2011C33.639 47.0071 33.4844 46.9112 33.2657 46.9134C32.922 46.917 32.753 47.211 32.7583 47.7956ZM35.7673 49.1311L35.0521 49.1383L35.0264 46.3394L35.7416 46.3322L35.7673 49.1311ZM34.9778 45.6155C34.9768 45.5034 35.0112 45.4108 35.0813 45.3376C35.1529 45.2644 35.2505 45.2273 35.3738 45.226C35.4954 45.2247 35.5927 45.26 35.6658 45.3317C35.7388 45.4034 35.7758 45.4953 35.7769 45.6074C35.7779 45.7212 35.7418 45.8148 35.6684 45.8879C35.5968 45.9611 35.5009 45.9983 35.3809 45.9995C35.2608 46.0007 35.1635 45.9654 35.0888 45.8938C35.0158 45.8221 34.9788 45.7293 34.9778 45.6155ZM37.4614 48.563C37.593 48.5616 37.6995 48.5226 37.781 48.4459C37.8626 48.3692 37.9044 48.2678 37.9065 48.1419L38.5749 48.1352C38.575 48.3248 38.5272 48.4996 38.4317 48.6592C38.3361 48.8171 38.204 48.9409 38.0355 49.0306C37.8686 49.1185 37.6832 49.1635 37.4793 49.1656C37.0979 49.1695 36.7959 49.0457 36.5732 48.7944C36.3506 48.5414 36.2372 48.1907 36.233 47.7423L36.2326 47.6932C36.2286 47.262 36.3348 46.9169 36.5511 46.6578C36.7674 46.3985 37.0663 46.267 37.4478 46.2632C37.7815 46.2598 38.0496 46.3571 38.252 46.5552C38.456 46.7514 38.5613 47.015 38.5676 47.3461L37.8992 47.353C37.8946 47.2081 37.8508 47.0912 37.7677 47.0024C37.6847 46.9119 37.5758 46.8673 37.441 46.8686C37.2749 46.8703 37.1497 46.9354 37.0653 47.0639C36.9827 47.1906 36.9426 47.3962 36.9453 47.6808L36.946 47.7584C36.9486 48.0464 36.9924 48.253 37.0775 48.378C37.1625 48.5031 37.2904 48.5647 37.4614 48.563ZM39.8119 45.6028L39.8182 46.2909L40.2745 46.2863L40.2795 46.8347L39.8233 46.8393L39.8362 48.2362C39.8371 48.3397 39.8566 48.4137 39.8948 48.4582C39.9331 48.5026 40.0057 48.5242 40.1125 48.5232C40.1915 48.5224 40.2613 48.5157 40.322 48.503L40.3272 49.0695C40.1879 49.1157 40.0442 49.1396 39.8962 49.1411C39.3964 49.1462 39.1391 48.884 39.1244 48.3547L39.1106 46.8466L38.7209 46.8505L38.7158 46.3021L39.1055 46.2982L39.0992 45.61L39.8119 45.6028Z" fill="white"/>
<path d="M32.76 34.872L32.808 35.176C32.808 35.3253 32.7173 35.6027 32.536 36.008C32.3653 36.4027 32.264 36.6213 32.232 36.664C32.1147 36.7707 31.8427 36.824 31.416 36.824C30.6053 36.824 29.864 36.7813 29.192 36.696L28.824 36.648C28.6427 36.648 28.488 36.712 28.36 36.84C28.232 36.9573 28.04 37.016 27.784 37.016L26.344 36.92C25.8107 36.92 25.544 36.856 25.544 36.728V36.696C25.5973 36.5147 25.624 36.2267 25.624 35.832L25.544 34.488V34.472C25.544 34.4187 25.6453 34.3173 25.848 34.168C26.0507 34.0187 26.152 33.8853 26.152 33.768C26.152 33.6507 26.104 33.5387 26.008 33.432C25.912 33.3253 25.7627 33.24 25.56 33.176C25.5387 33.112 25.528 33.048 25.528 32.984L25.624 32.344C25.6453 32.1947 25.656 32.056 25.656 31.928L25.512 29.368C25.512 29.336 25.5547 29.288 25.64 29.224C25.8 29.1067 25.88 29.0053 25.88 28.92L25.8 28.568C25.736 28.504 25.656 28.4507 25.56 28.408C25.4 28.3547 25.32 28.3013 25.32 28.248C25.32 28.184 25.3787 28.0027 25.496 27.704C25.624 27.4053 25.688 27.2187 25.688 27.144L25.416 25.736C25.416 25.6507 25.6453 25.4427 26.104 25.112C26.5627 24.7707 26.9413 24.6 27.24 24.6C27.5493 24.6 27.9387 24.6373 28.408 24.712C28.888 24.7867 29.128 24.8613 29.128 24.936C29.128 25.064 29.0853 25.4053 29 25.96C28.9253 26.504 28.8613 26.792 28.808 26.824C28.552 26.952 28.424 27.0907 28.424 27.24C28.424 27.3787 28.504 27.5227 28.664 27.672C28.8347 27.8107 28.92 27.9013 28.92 27.944V27.96C28.8347 29.144 28.792 29.96 28.792 30.408C28.792 30.8453 28.7973 31.1013 28.808 31.176C28.8293 31.24 28.8827 31.32 28.968 31.416C29.064 31.512 29.112 31.5867 29.112 31.64C29.112 31.6933 29.0533 31.8053 28.936 31.976C28.8293 32.136 28.776 32.2853 28.776 32.424C28.808 32.7547 28.824 33.016 28.824 33.208C28.824 33.3893 28.8133 33.4907 28.792 33.512C28.4187 33.8853 28.232 34.2053 28.232 34.472C28.232 34.5253 28.2587 34.6 28.312 34.696C28.3653 34.792 28.408 34.84 28.44 34.84C28.4827 34.84 28.6053 34.7653 28.808 34.616C29.0107 34.456 29.1653 34.376 29.272 34.376H29.32C29.6827 34.4507 30.024 34.488 30.344 34.488C30.664 34.488 30.872 34.44 30.968 34.344C31.3307 33.9813 31.6187 33.5547 31.832 33.064C31.8853 32.936 31.928 32.872 31.96 32.872C32.2587 32.872 32.5307 33 32.776 33.256C33.032 33.512 33.16 33.7253 33.16 33.896C33.096 34.2267 33.0107 34.456 32.904 34.584C32.808 34.7013 32.76 34.7973 32.76 34.872ZM38.1803 30.872L37.9883 30.568C37.9883 30.5573 37.9989 30.5413 38.0203 30.52C38.0523 30.488 38.0843 30.4347 38.1163 30.36C38.1589 30.2853 38.2016 30.1893 38.2443 30.072C38.3403 29.8053 38.3883 29.3787 38.3883 28.792C38.3883 28.7813 38.3189 28.7227 38.1803 28.616C38.0416 28.4987 37.9723 28.4133 37.9723 28.36C37.9723 28.264 38.0629 28.0133 38.2443 27.608L38.3403 27.416C38.3403 27.288 38.2763 27.1653 38.1483 27.048C38.0203 26.9307 37.8923 26.8453 37.7643 26.792L37.5883 26.712C37.1403 27.0853 36.9163 27.3627 36.9163 27.544L37.0123 28.6C36.8096 28.7813 36.7083 28.9147 36.7083 29C36.7083 29.0853 36.7189 29.1387 36.7403 29.16C36.9003 29.3093 36.9803 29.4213 36.9803 29.496C36.9803 29.56 36.9643 29.608 36.9323 29.64C36.9109 29.6613 36.9003 29.7467 36.9003 29.896L36.9163 30.6C36.9163 30.8347 36.9003 30.984 36.8683 31.048C37.0283 31.2293 37.1669 31.32 37.2843 31.32C37.4123 31.32 37.5936 31.2667 37.8283 31.16C38.0629 31.0533 38.1803 30.9573 38.1803 30.872ZM41.3802 28.616L41.3323 29.656C41.3323 29.8373 41.3483 29.9813 41.3802 30.088V30.136C41.3802 30.3493 41.1669 30.7493 40.7403 31.336C40.3136 31.912 40.0363 32.2 39.9083 32.2C39.7909 32.2 39.5403 32.344 39.1563 32.632C38.7829 32.9093 38.5963 33.0907 38.5963 33.176C38.5963 33.24 38.3083 33.32 37.7323 33.416C37.1669 33.5013 36.8843 33.5547 36.8843 33.576C36.8843 34.632 36.9696 35.4747 37.1403 36.104L37.2203 36.408C37.2203 36.4827 37.0549 36.6 36.7243 36.76C36.4043 36.9093 36.2176 37.0107 36.1643 37.064C36.0469 37.1813 35.7963 37.272 35.4123 37.336C35.2203 37.336 34.8469 37.2667 34.2923 37.128C33.7376 36.9893 33.4603 36.8667 33.4603 36.76C33.5776 36.5147 33.6789 35.9333 33.7643 35.016L33.7963 34.536C33.7963 34.5253 33.8176 34.504 33.8603 34.472C34.0096 34.3973 34.0843 34.2853 34.0843 34.136C34.0843 33.976 33.9883 33.8373 33.7963 33.72C33.6149 33.592 33.5243 33.5173 33.5243 33.496C33.5243 33.368 33.5989 33.1707 33.7483 32.904L33.8283 32.76L33.8603 31.656C33.8603 31.2933 33.8443 31.096 33.8123 31.064C33.7803 31.032 33.7643 30.9947 33.7643 30.952L33.9563 30.152C33.9776 30.0027 33.9883 29.832 33.9883 29.64C33.9883 29.0853 33.9243 28.392 33.7963 27.56L33.7163 27.112L33.9403 26.744C33.9403 26.552 33.8016 26.1733 33.5243 25.608L33.3803 25.304C33.9776 24.7813 34.5269 24.52 35.0283 24.52C35.7216 24.5947 36.0896 24.6587 36.1323 24.712C36.2389 24.8293 36.3509 25.0853 36.4683 25.48L36.5323 25.688C36.6069 25.7413 36.6656 25.768 36.7083 25.768C36.7509 25.768 36.7776 25.7573 36.7883 25.736C37.0976 25.2987 37.2896 24.9787 37.3643 24.776C37.9723 24.744 38.4149 24.728 38.6923 24.728L38.8683 24.744H38.9003C39.0389 24.7653 39.2629 24.8293 39.5723 24.936C39.8816 25.032 40.0683 25.112 40.1323 25.176C40.4629 25.5067 40.7829 26.024 41.0923 26.728C41.1989 26.9627 41.2683 27.0907 41.3003 27.112V27.128C41.3003 27.16 41.2149 27.272 41.0443 27.464C40.8843 27.6453 40.8043 27.7627 40.8043 27.816V27.832C40.8043 27.9387 40.8469 28.0293 40.9323 28.104C41.0176 28.168 41.1189 28.2 41.2362 28.2C41.3322 28.2 41.3802 28.3387 41.3802 28.616Z" fill="#757AFF"/>
</svg>
