<svg width="50" height="27" viewBox="0 0 50 27" fill="none" xmlns="http://www.w3.org/2000/svg">
<path d="M0.753461 20.5852C0.667802 20.5506 0.572509 20.4693 0.467584 20.3415C0.362659 20.2137 0.331676 20.1406 0.374637 20.1224C0.43973 20.0847 0.486077 19.9788 0.513679 19.8049C0.546229 19.6187 0.53816 19.4802 0.489473 19.3893C0.474893 19.355 0.475024 19.3194 0.489866 19.2827C0.501062 19.2374 0.522022 19.2032 0.552746 19.18C0.603259 19.1079 0.654292 19.0609 0.705845 19.039C0.851912 18.9771 1.02883 19.0237 1.2366 19.1789C1.33554 19.2687 1.40323 19.3566 1.43968 19.4425C1.47248 19.5198 1.48563 19.6105 1.47912 19.7147C1.46896 19.8102 1.43537 19.9462 1.37835 20.1224C1.31612 20.382 1.22056 20.5391 1.09168 20.5938C1.00576 20.6303 0.893017 20.6274 0.753461 20.5852ZM1.72308 26.3482C1.55176 26.2789 1.41872 26.1326 1.32395 25.9092C1.27292 25.7889 1.25066 25.6767 1.25717 25.5725C1.23895 25.5296 1.22567 25.4744 1.21734 25.407C1.20901 25.3395 1.2012 25.2972 1.19391 25.28C1.16345 25.2321 1.13768 25.0758 1.11659 24.811C1.12545 24.4017 1.07469 23.7084 0.964317 22.7313C0.946092 22.6883 0.948696 22.6467 0.97213 22.6063C0.991919 22.5574 1.03436 22.514 1.09945 22.4763C1.1609 22.4299 1.20451 22.4013 1.23029 22.3903C1.28184 22.3685 1.33391 22.3717 1.38651 22.4001C1.44405 22.4163 1.52906 22.4613 1.64153 22.5352C1.71496 22.5649 1.77354 22.6313 1.81728 22.7344C1.88653 22.8977 1.91452 23.119 1.90123 23.3984C1.89524 23.6949 1.91333 23.9407 1.9555 24.1357C1.95081 24.4115 1.96031 24.6609 1.984 24.884C1.98869 24.9429 2.00665 25.0569 2.03789 25.2261C2.06913 25.3954 2.07473 25.54 2.05467 25.66C2.10518 25.9225 2.129 26.1101 2.12613 26.2228C2.12327 26.3356 2.09606 26.4029 2.04451 26.4247C1.98436 26.4503 1.87722 26.4247 1.72308 26.3482ZM8.47117 23.2726C8.29933 23.3455 8.14298 23.3713 8.00212 23.3499C7.85762 23.32 7.71025 23.2355 7.56002 23.0965C7.36605 22.8543 7.21075 22.5958 7.09411 22.3208C7.03944 22.1919 7.01405 22.0962 7.01796 22.0338C7.03775 21.9848 7.01965 21.9063 6.96368 21.7983C6.91265 21.678 6.8762 21.592 6.85433 21.5405C6.7619 21.3465 6.65984 21.2732 6.54814 21.3206C6.47081 21.3534 6.39765 21.4199 6.32865 21.5202C5.97506 22.025 5.68058 22.4541 5.4452 22.8074C5.20982 23.1607 4.99827 23.5343 4.81054 23.9283C4.74856 24.1168 4.70938 24.2753 4.69297 24.404C4.67656 24.5326 4.66459 24.6238 4.65703 24.6777C4.64584 24.723 4.61876 24.7548 4.5758 24.773C4.53154 24.8121 4.50081 24.8353 4.48363 24.8425C4.44067 24.8608 4.38 24.8612 4.30163 24.8437C4.21962 24.8177 4.16637 24.7997 4.1419 24.7898C4.09295 24.77 4.01341 24.7379 3.90327 24.6933C3.78949 24.6402 3.72102 24.5983 3.69785 24.5676C3.66869 24.4988 3.62703 24.329 3.57288 24.0579C3.52732 23.7832 3.50715 23.6042 3.51236 23.5209C3.53813 23.51 3.55493 23.442 3.56274 23.317C3.56691 23.1835 3.57772 23.0775 3.59516 22.9991C3.56626 22.8593 3.55221 22.5155 3.553 21.9677C3.58581 21.7104 3.59454 21.504 3.57918 21.3483C3.57242 21.1889 3.53388 21.0025 3.46359 20.789L3.45265 20.7632C3.43807 20.7289 3.44003 20.6976 3.45851 20.6695C3.47336 20.6328 3.49367 20.609 3.51944 20.598C3.56136 20.5296 3.6081 20.4844 3.65965 20.4625C3.77135 20.4151 3.91221 20.4365 4.08223 20.5266C4.28036 20.6351 4.4177 20.7797 4.49425 20.9601C4.58902 21.1835 4.59669 21.5959 4.51727 22.1974C4.517 22.2684 4.51479 22.3708 4.51062 22.5043C4.51504 22.6342 4.52637 22.7207 4.54459 22.7636L5.05857 21.9677C5.09451 21.8612 5.22092 21.6454 5.43781 21.3202C5.6547 20.995 5.81782 20.794 5.92718 20.7172C6.0933 20.5352 6.20213 20.4333 6.25369 20.4114C6.35679 20.3677 6.52707 20.3867 6.76452 20.4684C7.01057 20.5465 7.17264 20.6299 7.25075 20.7184C7.29085 20.8129 7.3286 20.878 7.36401 20.9137C7.47987 21.0673 7.58701 21.2601 7.68542 21.4921C7.75103 21.6467 7.79828 21.794 7.82718 21.9338C7.86103 22.0614 7.86441 22.141 7.83733 22.1728C7.84098 22.1814 7.85074 22.1925 7.86662 22.206C7.8825 22.2195 7.90333 22.2208 7.92911 22.2099L7.95645 22.2744C7.88771 22.3035 7.9101 22.3802 8.02362 22.5044C8.13713 22.6286 8.25326 22.7111 8.37198 22.752C8.49435 22.8015 8.57376 22.8692 8.61021 22.9551C8.65395 23.0582 8.60761 23.164 8.47117 23.2726ZM9.99454 20.619C9.8227 20.6919 9.66322 20.7342 9.51612 20.7459C9.39583 20.7969 9.30444 20.8205 9.24195 20.8166C9.18805 20.809 9.12934 20.7782 9.06581 20.724C8.98145 20.6685 8.93016 20.6193 8.91194 20.5764C8.89007 20.5248 8.92092 20.4661 9.0045 20.4002C9.08444 20.3258 9.23923 20.2246 9.46887 20.0968C9.74044 19.9005 9.99104 19.7384 10.2207 19.6106C10.4589 19.4791 10.7499 19.3404 11.0936 19.1946C11.317 19.0999 11.4728 19.049 11.5611 19.0419C11.6457 19.0263 11.7535 19.0414 11.8844 19.0873C12.0313 19.1466 12.1248 19.2236 12.1649 19.3181C12.1977 19.3954 12.187 19.4658 12.1328 19.5294C12.0873 19.5892 12.005 19.6343 11.886 19.6645L11.1014 20.0734C11.0498 20.0953 10.9135 20.1683 10.6925 20.2925C10.4764 20.4044 10.2437 20.5133 9.99454 20.619ZM14.5576 22.1202C14.5146 22.1384 14.4601 22.1413 14.3939 22.1288C14.34 22.1212 14.285 22.0989 14.2287 22.062C14.1381 22.0396 14.0709 21.9768 14.0272 21.8737C13.9434 21.6761 13.8689 21.0943 13.8038 20.1283C13.7619 19.8622 13.728 19.6029 13.7019 19.3504C13.6965 19.1702 13.6773 19.0414 13.6445 18.9641C13.6154 18.8954 13.5912 18.8144 13.5719 18.7212C13.5576 18.6157 13.5431 18.5458 13.5285 18.5115C13.6316 18.4677 13.6514 18.2515 13.5879 17.8628C13.5676 17.7193 13.5521 17.5991 13.5414 17.5023C13.5271 17.3968 13.5133 17.3165 13.5001 17.2613C13.5063 17.2282 13.5071 17.1823 13.5024 17.1234C13.5063 17.061 13.5077 17.0046 13.5067 16.9543C13.488 16.719 13.4857 16.4867 13.5001 16.2576C13.4392 15.8272 13.3881 15.3723 13.347 14.893C13.3108 14.4014 13.2963 14.0325 13.3033 13.7862L13.2939 13.3339C13.2916 13.3045 13.2887 13.25 13.2853 13.1703C13.2869 13.0784 13.2804 13.0152 13.2658 12.9809C13.2512 12.9465 13.2274 12.9262 13.1943 12.92C13.1404 12.9124 13.1007 12.8786 13.0752 12.8184C13.0278 12.7067 13.069 12.5169 13.1986 12.249C13.2471 12.0764 13.2984 11.9583 13.3525 11.8948C13.4116 11.819 13.5056 11.7538 13.6345 11.6991L14.0579 11.5499C14.1646 11.5148 14.4414 11.4024 14.8882 11.2129C15.0009 11.2158 15.1308 11.2113 15.278 11.1996C15.5722 11.1762 15.7266 11.1817 15.7411 11.216C15.7594 11.259 15.785 11.2836 15.8181 11.2898C15.8597 11.2925 15.9125 11.2853 15.9763 11.2684C16.0622 11.2319 16.2373 11.2742 16.5015 11.3953C16.7708 11.5041 16.9964 11.6416 17.1784 11.8077C17.2968 11.9197 17.389 12.0175 17.4549 12.1011C17.5257 12.1724 17.5866 12.2682 17.6376 12.3885C17.6923 12.5174 17.7275 12.6241 17.7431 12.7088C17.7842 12.8535 17.8192 12.9958 17.8481 13.1356C17.877 13.2754 17.8816 13.3698 17.8618 13.4188C17.7681 13.5802 17.7376 13.6996 17.7704 13.7769C17.7996 13.8456 17.7644 14.0735 17.6649 14.4604C17.5741 14.8436 17.4699 15.1717 17.3525 15.4445C17.2384 15.7971 17.0687 16.1378 16.8432 16.4666C16.0225 17.3521 15.4066 17.8719 14.9955 18.026C14.7387 18.1856 14.5876 18.2954 14.542 18.3553C14.4928 18.4066 14.4747 18.4953 14.4877 18.6216C14.4922 18.7515 14.4984 18.8858 14.5065 19.0243C14.5231 19.1591 14.5387 19.2438 14.5533 19.2781C14.5419 19.3945 14.5607 19.7616 14.6099 20.3795C14.6677 20.9937 14.723 21.4467 14.7759 21.7386C14.7889 21.8649 14.7794 21.95 14.7474 21.994C14.7154 22.038 14.6521 22.0801 14.5576 22.1202ZM14.4608 17.4468C14.4853 17.4567 14.5448 17.4416 14.6393 17.4015C14.751 17.3542 14.8898 17.275 15.0556 17.1641C15.2301 17.0495 15.3886 16.9214 15.5313 16.7798C15.7969 16.5455 16.0695 16.2321 16.3491 15.8398C16.428 15.7151 16.5163 15.5407 16.6139 15.3168C16.7202 15.0893 16.8087 14.8439 16.8795 14.5806C16.8946 14.4729 16.9121 14.2272 16.9319 13.8437C16.9496 13.6942 16.9484 13.5122 16.9284 13.2977C16.9169 13.0795 16.8802 12.8974 16.8183 12.7513C16.7891 12.6826 16.7629 12.6328 16.7398 12.6021C16.602 12.3969 16.3986 12.2399 16.1293 12.1311C15.8651 12.01 15.5981 11.9661 15.3283 11.9995C15.1333 12.0416 14.9628 12.0937 14.8167 12.1557C14.705 12.2031 14.5816 12.2706 14.4465 12.3584C14.3272 12.4596 14.2496 12.5635 14.2137 12.67C14.1863 12.7729 14.174 12.9707 14.1766 13.2637C14.1393 13.7255 14.1338 14.2145 14.1601 14.7306C14.2497 15.3718 14.2973 15.9143 14.303 16.358C14.3088 16.8017 14.3115 17.059 14.3112 17.1301L14.3331 17.1817C14.355 17.2332 14.3725 17.2866 14.3858 17.3418C14.3991 17.397 14.4241 17.432 14.4608 17.4468ZM20.1982 18.4651C20.1076 18.4427 20.0403 18.4155 19.9963 18.3834C19.9523 18.3514 19.9121 18.2924 19.8756 18.2065C19.8428 18.1292 19.8198 18.0629 19.8065 18.0077C19.7083 17.7047 19.6288 17.3379 19.5679 16.9075L19.523 16.6224C19.4576 16.3967 19.4166 15.8818 19.4 15.0778C19.3833 14.2738 19.4081 13.7108 19.4742 13.3887C19.5247 13.3166 19.5887 13.2641 19.666 13.2313C19.7777 13.1839 19.8886 13.1825 19.9987 13.227C20.0649 13.2395 20.118 13.293 20.1581 13.3875C20.1945 13.4734 20.2148 13.6169 20.219 13.8179C20.2281 14.0067 20.2246 14.2971 20.2084 14.6892C20.2032 14.7725 20.1977 14.9269 20.192 15.1524C20.1949 15.3743 20.2036 15.5024 20.2182 15.5367C20.2255 15.5539 20.2334 15.5607 20.242 15.557C20.2592 15.5497 20.2745 15.5382 20.2881 15.5223C20.298 15.4978 20.3097 15.4776 20.3232 15.4617C20.3485 15.2584 20.4814 14.9384 20.722 14.5018C20.9712 14.0615 21.1499 13.7778 21.2582 13.6508C21.3038 13.5909 21.3666 13.5237 21.4465 13.4493C21.5264 13.3748 21.5799 13.3217 21.607 13.2899C21.7153 13.1629 21.864 13.0592 22.053 12.979C22.1733 12.928 22.2855 12.9058 22.3897 12.9123C22.4988 12.9065 22.5869 12.9351 22.6541 12.9978C22.6882 13.0543 22.7297 13.0924 22.7787 13.1122C22.8362 13.1284 22.8754 13.1371 22.8962 13.1384C22.922 13.1275 22.9447 13.1331 22.9642 13.1552C22.9801 13.1687 22.9898 13.1798 22.9935 13.1884C23.019 13.2485 23.001 13.3018 22.9396 13.3481C22.8745 13.3859 22.7535 13.4473 22.5767 13.5325C22.4859 13.5811 22.3962 13.6445 22.3077 13.7227C22.2191 13.8008 22.1342 13.8875 22.053 13.9828C21.6885 14.4618 21.4187 14.8297 21.2438 15.0864C21.0774 15.3395 20.9304 15.6503 20.8028 16.0187C20.752 16.1619 20.7058 16.3995 20.6642 16.7314C20.6295 16.8171 20.6325 17.0034 20.6731 17.2903C20.7187 17.565 20.7542 17.7324 20.7797 17.7925C20.7821 17.822 20.7868 17.8808 20.7938 17.9691C20.7972 18.0487 20.7877 18.1339 20.7653 18.2245C20.7205 18.4057 20.6637 18.5109 20.595 18.5401C20.5177 18.5729 20.3854 18.5479 20.1982 18.4651ZM25.5963 16.4793C25.4932 16.523 25.4042 16.5404 25.3295 16.5316C25.2548 16.5227 25.1415 16.4947 24.9897 16.4476C24.5786 16.2672 24.3202 16.0524 24.2145 15.8032C24.189 15.743 24.1751 15.6983 24.1727 15.6688C24.173 15.5978 24.1561 15.534 24.122 15.4775C24.0964 15.4173 24.08 15.3787 24.0728 15.3615C24.0238 15.3417 23.9975 15.3275 23.9939 15.3189C23.9866 15.3017 23.9897 15.2852 24.0032 15.2693C24.0131 15.2448 24.0187 15.2222 24.02 15.2013C24.0716 15.1795 24.0687 15.1249 24.0114 15.0377C23.9651 14.9763 23.9357 14.8113 23.9232 14.5429C23.907 14.2658 23.9215 14.0012 23.9666 13.7489C23.9955 13.5541 24.0509 13.3025 24.1329 12.994C24.2236 12.6818 24.3164 12.4346 24.4114 12.2523C24.5411 11.9844 24.6693 11.7728 24.7961 11.6177C24.9229 11.4625 25.076 11.3215 25.2554 11.1947C25.409 11.0789 25.5159 11.0082 25.5761 10.9827C25.6362 10.9571 25.6951 10.9525 25.7526 10.9686C25.8151 10.9725 25.9014 10.9967 26.0115 11.0412C26.2873 11.0459 26.5027 11.1117 26.6579 11.2385C26.818 11.353 26.9691 11.5779 27.1113 11.913C27.3482 12.4715 27.3775 13.1738 27.1991 14.02C27.1218 14.3874 27.03 14.6848 26.9238 14.9124C26.8139 15.1314 26.6536 15.3869 26.443 15.679C26.3172 15.8845 26.1898 16.05 26.0606 16.1758C25.9364 16.2893 25.7816 16.3905 25.5963 16.4793ZM26.254 14.5882C26.3618 14.2688 26.4321 13.9804 26.4649 13.7232C26.5063 13.4623 26.5154 13.1492 26.4923 12.7839C26.4733 12.6196 26.42 12.4343 26.3325 12.2281C26.2232 11.9704 26.1269 11.8389 26.0435 11.8337C25.9394 11.8272 25.8444 11.8421 25.7584 11.8786C25.5694 11.9588 25.4082 12.1285 25.2749 12.3878C25.1169 12.7084 25.0065 13.0695 24.9437 13.4712C24.8773 13.8644 24.8394 14.3367 24.83 14.8881C24.8207 15.105 24.8524 15.2994 24.9253 15.4712C24.98 15.6001 25.0538 15.6905 25.1468 15.7423C25.2483 15.7904 25.3549 15.7908 25.4666 15.7435C25.7502 15.6232 26.0126 15.2381 26.254 14.5882ZM31.4689 17.0751C31.3866 17.1202 31.24 17.157 31.0291 17.1856C30.8219 17.2229 30.6514 17.2394 30.5179 17.2352C30.2914 17.1793 30.0461 17.0552 29.7821 16.863C29.5303 16.6758 29.3875 16.5184 29.3537 16.3908C29.3391 16.3565 29.3619 16.3265 29.422 16.301C29.4822 16.2755 29.5539 16.2654 29.6372 16.2706C29.7291 16.2721 29.8032 16.2914 29.8594 16.3284C30.0331 16.4271 30.2295 16.4958 30.4488 16.5346C30.668 16.5734 30.8212 16.5641 30.9084 16.5069C31.0915 16.3887 31.2171 16.2188 31.2853 15.9972C31.3621 15.772 31.403 15.486 31.408 15.1392C31.3931 14.8413 31.3659 14.574 31.3264 14.3374C31.2954 14.0971 31.2475 13.7929 31.1827 13.425C31.1262 13.1246 31.0908 12.9216 31.0764 12.8162C31.0416 12.6383 31.0157 12.5175 30.9987 12.4537C30.9818 12.39 30.9672 12.3556 30.955 12.3506C30.9428 12.3457 30.9305 12.3407 30.9183 12.3358L30.2719 13.1423C30.0063 13.3766 29.7318 13.5539 29.4482 13.6742C29.3279 13.7252 29.2004 13.7591 29.0655 13.7757C28.9528 13.7729 28.8109 13.7012 28.6398 13.5609C28.4773 13.4169 28.3774 13.2768 28.3399 13.1407C28.2974 13.0167 28.3077 12.7184 28.3707 12.2455C28.4337 11.7727 28.4843 11.5333 28.5223 11.5273C28.5652 11.5091 28.5685 11.457 28.532 11.3711C28.5164 11.2865 28.6598 10.9671 28.9621 10.4131C29.1511 9.99832 29.3367 9.67118 29.519 9.43164C29.6976 9.18352 29.8821 9.00894 30.0724 8.90793C30.1362 8.891 30.1896 8.87343 30.2325 8.8552C30.2841 8.83333 30.3185 8.81875 30.3357 8.81146C30.3565 8.81277 30.4 8.81967 30.4661 8.83217C30.5286 8.83607 30.6101 8.83699 30.7106 8.8349C30.9238 8.83569 31.1484 8.92292 31.3843 9.09659C31.6202 9.27026 31.7959 9.46944 31.9115 9.69414C31.9745 9.89046 32.0099 10.0934 32.0177 10.303C32.0255 10.5126 31.9932 10.6277 31.9209 10.6483C31.8485 10.6688 31.7753 10.7353 31.7014 10.8478C31.636 10.9567 31.6106 11.0283 31.6252 11.0626C31.6653 11.1571 31.6494 11.3109 31.5775 11.5239L31.7669 12.508C31.8883 13.1764 31.9629 13.5554 31.9907 13.6449C32.0589 14.0925 32.0973 14.4818 32.1059 14.8127C32.1736 15.0678 32.2029 15.2683 32.1938 15.4141C32.1969 15.5649 32.1711 15.7431 32.1164 15.9488C32.0836 16.206 32 16.4392 31.8657 16.6483C31.7399 16.8537 31.6076 16.996 31.4689 17.0751ZM29.1034 12.9688C29.1375 13.0253 29.2233 13.0244 29.3608 12.9661C29.6013 12.8641 29.8281 12.6817 30.0411 12.419C30.0953 12.3554 30.1427 12.2999 30.1833 12.2522C30.2239 12.2046 30.262 12.163 30.2977 12.1276C30.4232 11.9933 30.5155 11.8882 30.5746 11.8125C30.6337 11.7367 30.6659 11.6571 30.6711 11.5738C30.6937 11.4121 30.6904 11.1652 30.6609 10.833C30.655 10.7949 30.66 10.7472 30.6762 10.6896C30.6973 10.6198 30.7232 10.5734 30.7539 10.5502L30.8055 10.5283C30.8484 10.5101 30.9244 10.4981 31.0335 10.4924C31.0692 10.457 31.0811 10.4013 31.0691 10.3253C31.0571 10.2492 31.0286 10.1701 30.9836 10.0878C30.9494 10.0313 30.8676 9.96972 30.7379 9.90306C30.6168 9.83276 30.4877 9.79123 30.3505 9.77847C30.2916 9.78315 30.2493 9.79096 30.2235 9.8019C30.1376 9.83835 30.057 9.92322 29.9818 10.0565C29.9029 10.1812 29.809 10.3782 29.7002 10.6474C29.6718 10.7 29.6477 10.7508 29.6279 10.7997C29.6082 10.8487 29.5865 10.8933 29.5631 10.9337C29.3543 11.3974 29.1983 11.8184 29.0952 12.1967C28.997 12.5628 28.9998 12.8202 29.1034 12.9688ZM34.4326 12.609C34.4238 12.6838 34.3936 12.7321 34.342 12.7539C34.2905 12.7758 34.2273 12.7823 34.1526 12.7734C34.0865 12.7609 34.0473 12.7522 34.035 12.7473C33.9062 12.802 33.7954 12.7678 33.7027 12.6449C33.6868 12.6314 33.6661 12.5946 33.6406 12.5344C33.5932 12.4227 33.5518 12.1818 33.5164 11.8115L33.4317 11.3608C33.3572 10.9463 33.2997 10.5956 33.2591 10.3087C33.2666 10.2548 33.2562 10.0868 33.2278 9.80486C33.1992 9.59396 33.1896 9.38007 33.199 9.16319C33.138 8.7328 33.1391 8.28119 33.2021 7.80837C33.2084 7.7753 33.2281 7.72635 33.2615 7.66152C33.2948 7.59669 33.3243 7.55881 33.3501 7.54787C33.3798 7.47445 33.4247 7.42498 33.4849 7.39947C33.545 7.37395 33.6387 7.37981 33.7661 7.41705C33.8957 7.48371 33.9806 7.56429 34.0207 7.6588C34.09 7.82206 34.0864 8.11249 34.0101 8.53012L34.0172 9.12024C34.0182 9.17049 34.019 9.29182 34.0195 9.48423C34.0164 9.66805 34.0335 9.82805 34.071 9.96422C34.1171 9.76218 34.2243 9.45312 34.3925 9.03706C34.4914 8.79232 34.5803 8.60759 34.6592 8.48288C34.7345 8.34957 34.8503 8.16862 35.0068 7.94002C35.1141 7.76271 35.217 7.62277 35.3154 7.52018C35.4138 7.4176 35.536 7.33533 35.6821 7.27336C35.7594 7.24056 35.8214 7.21934 35.868 7.20971C35.9847 7.15009 36.1047 7.17014 36.2281 7.26986C36.3515 7.36958 36.4655 7.5189 36.5702 7.71783C36.4598 7.74438 36.3831 7.76677 36.3402 7.785C36.1683 7.8579 36.0282 7.95787 35.9199 8.08493C35.8202 8.20834 35.742 8.32264 35.6852 8.42783C35.6248 8.52442 35.5854 8.58678 35.5669 8.6149C35.2305 9.11245 34.9899 9.54908 34.8451 9.92479C34.7027 10.3299 34.6048 10.6249 34.5514 10.8098C34.5066 10.991 34.4876 11.1613 34.4944 11.3206C34.4941 11.3917 34.4976 11.6031 34.5049 11.9549C34.5085 12.298 34.4844 12.5161 34.4326 12.609ZM39.8119 10.7224C39.4425 10.8792 39.0791 10.8711 38.7219 10.6982C38.3647 10.5253 38.0986 10.2326 37.9237 9.82021C37.7487 9.40779 37.6476 8.91843 37.6202 8.35213C37.5978 7.7736 37.6489 7.22474 37.7734 6.70558C37.8978 6.18641 38.0813 5.7943 38.3237 5.52925C38.4554 5.36184 38.6287 5.23257 38.8435 5.14144C39.0067 5.07219 39.2115 5.04108 39.4578 5.04811C39.6294 5.0463 39.7721 5.07194 39.8859 5.12506C39.9996 5.17818 40.1249 5.2822 40.2616 5.43712C40.353 5.58084 40.4114 5.68278 40.4369 5.74292C40.4588 5.79447 40.4847 5.91529 40.5146 6.10535C40.5464 6.467 40.5237 6.79598 40.4467 7.09227C40.3745 7.37633 40.2381 7.65219 40.0373 7.91984C39.9363 8.06408 39.7827 8.17994 39.5765 8.26742C39.3961 8.34396 39.2115 8.38679 39.0227 8.3959C38.8389 8.39277 38.6767 8.34499 38.5361 8.25256L38.4021 8.18772L38.4072 8.30723C38.4236 8.84775 38.501 9.28127 38.6395 9.60777C38.7343 9.83116 38.8538 9.99338 38.9981 10.0944C39.0983 10.1634 39.2644 10.1487 39.4964 10.0503C39.6682 9.97738 39.7855 9.90734 39.8483 9.84017C39.9589 9.74253 40.0488 9.6436 40.1178 9.54336C40.1917 9.43088 40.2614 9.32023 40.3267 9.21139L40.3673 9.16375L40.3544 9.16921C40.4357 9.07392 40.5016 8.99022 40.5521 8.91809C40.6026 8.84597 40.6371 8.79585 40.6556 8.76773C40.6728 8.76044 40.6881 8.74886 40.7017 8.73298C40.7152 8.71709 40.7251 8.69262 40.7313 8.65955C40.7941 8.59238 40.8898 8.567 41.0184 8.5834C41.147 8.59981 41.2314 8.65527 41.2715 8.74978C41.2834 8.82581 41.2535 8.97031 41.1816 9.18329C41.1098 9.39627 41.0413 9.52163 40.9762 9.55939C40.9676 9.56303 40.943 9.58868 40.9024 9.63632C40.8618 9.68397 40.8365 9.72003 40.8266 9.7445L40.8395 9.73904C40.8059 9.87495 40.7505 9.9593 40.6731 9.99211L40.57 10.0358C40.5648 10.1192 40.478 10.2371 40.3095 10.3897C40.1496 10.5386 39.9838 10.6495 39.8119 10.7224ZM39.1891 7.64097C39.4468 7.53162 39.6212 7.28532 39.712 6.90206C39.8016 6.53963 39.7881 6.22094 39.6714 5.94599C39.6095 5.79993 39.5357 5.70958 39.45 5.67495C39.3875 5.67104 39.3348 5.6782 39.2918 5.69642C39.2489 5.71465 39.1813 5.75852 39.0891 5.82804C38.9884 5.9012 38.8676 6.09439 38.7267 6.4076C38.5822 6.71223 38.4887 6.96986 38.4463 7.1805L38.3935 7.52223C38.4513 7.46729 38.5103 7.42707 38.5705 7.40155C38.6355 7.3638 38.676 7.35169 38.6919 7.36523C38.7429 7.48552 38.8149 7.57158 38.9079 7.62339C39.0008 7.6752 39.0946 7.68106 39.1891 7.64097ZM43.5575 9.14868C43.3773 9.15415 43.1905 9.13201 42.9971 9.08228C42.8 9.02395 42.6574 8.96276 42.5694 8.89871C42.5621 8.88153 42.5494 8.85145 42.5312 8.80849C42.5129 8.76553 42.5149 8.73429 42.537 8.71476C42.5555 8.68664 42.5991 8.658 42.6679 8.62884C42.8139 8.56688 43.0532 8.48565 43.3857 8.38515C43.5747 8.30496 43.7804 8.19236 44.0028 8.04734C44.2215 7.89373 44.331 7.78138 44.3312 7.7103C44.357 7.69937 44.3681 7.6896 44.3644 7.68101C44.3571 7.66383 44.3045 7.63545 44.2066 7.59587C44.1895 7.60316 44.1453 7.60667 44.0743 7.60641C43.9995 7.59756 43.9536 7.59677 43.9364 7.60406C43.9218 7.5697 43.8649 7.54314 43.7657 7.52439C43.6629 7.49705 43.5551 7.48194 43.4423 7.47908C43.1057 7.37857 42.8658 7.30293 42.7226 7.25215C42.5757 7.19279 42.5061 7.13616 42.5136 7.08226L42.4863 7.01782C42.4261 7.04334 42.3228 6.99087 42.1762 6.86042C42.0346 6.71774 41.9328 6.57336 41.8708 6.4273C41.8052 6.27264 41.7785 6.0305 41.7907 5.70087C41.8116 5.3676 41.8715 5.0786 41.9704 4.83386C42.1162 4.5084 42.3253 4.1409 42.5977 3.73135C42.8786 3.31815 43.1162 3.0298 43.3104 2.86629C43.431 2.74418 43.5643 2.65215 43.7104 2.59018C43.8478 2.53186 43.9766 2.51273 44.0966 2.53278C44.2375 2.55413 44.3868 2.60738 44.5446 2.69252C44.7109 2.77402 44.8332 2.85903 44.9113 2.94756C44.9915 3.13658 45.0484 3.33043 45.0819 3.52909C45.1205 3.71551 45.1011 3.82513 45.0238 3.85793C45.0152 3.86158 45.0041 3.87134 44.9906 3.88722C44.977 3.9031 44.9775 3.92823 44.9921 3.9626C45.0067 3.99697 45.0096 4.05151 45.0007 4.12624C44.9882 4.19237 44.9628 4.26397 44.9245 4.34104C44.7938 4.5587 44.6683 4.69305 44.548 4.74408C44.4535 4.78417 44.3733 4.76243 44.3075 4.67885C44.283 4.66896 44.2549 4.65047 44.2231 4.62339C44.1913 4.59631 44.1626 4.58824 44.1368 4.59918C44.1282 4.60282 44.1056 4.59722 44.0688 4.58238C44.0371 4.5553 44.0103 4.51599 43.9884 4.46443C43.9775 4.43866 43.9751 4.40924 43.9814 4.37617C43.9926 4.33087 44.0006 4.3021 44.0056 4.28986C44.0571 4.26799 44.1011 4.13273 44.1376 3.88408C44.1704 3.62684 44.1722 3.46385 44.1431 3.39511C44.1212 3.34356 44.0999 3.31713 44.079 3.31583C44.0668 3.31088 44.0263 3.32299 43.9576 3.35215C43.4149 3.93718 43.0948 4.34165 42.9972 4.56557C42.9933 4.62806 42.9864 4.67154 42.9765 4.69601C42.9752 4.71684 42.9573 4.73455 42.923 4.74912C42.8902 4.6718 42.7864 5.06052 42.6117 5.9153C42.6018 5.93977 42.6022 6.00044 42.6128 6.0973C42.6321 6.19051 42.6545 6.26719 42.68 6.32733C42.692 6.40336 42.6998 6.44567 42.7034 6.45426C42.718 6.48863 42.7455 6.51753 42.7858 6.54096C42.8348 6.56075 42.8942 6.58119 42.9639 6.60228C43.0301 6.61478 43.098 6.63158 43.1678 6.65267C43.7567 6.79823 44.1736 6.92048 44.4183 7.01942C44.668 7.10613 44.8337 7.19804 44.9155 7.29516C45.1001 7.41962 45.2216 7.55058 45.2799 7.68806C45.3236 7.79116 45.3232 7.89778 45.2787 8.00792C45.2342 8.11805 45.1492 8.24029 45.0237 8.37464C44.9474 8.4577 44.803 8.5595 44.5905 8.68004C44.3817 8.80918 44.1699 8.91931 43.9551 9.01043C43.8348 9.06146 43.7023 9.10755 43.5575 9.14868ZM48.1294 7.02672C47.8372 7.15065 47.5583 7.19803 47.2924 7.16887C47.0266 7.1397 46.8156 7.03659 46.6593 6.85954C46.5336 6.7304 46.4671 6.65723 46.4598 6.64005C46.4379 6.58849 46.4516 6.53707 46.5008 6.48578C46.5609 6.46027 46.6406 6.45688 46.7398 6.47563C46.8476 6.49073 46.9309 6.49594 46.9898 6.49126C47.1697 6.55687 47.3713 6.5423 47.5947 6.44753C47.7666 6.37463 47.9066 6.27465 48.015 6.14759C48.1319 6.01689 48.1789 5.90064 48.156 5.79884C48.1377 5.75587 48.031 5.62374 47.8357 5.40242C47.4897 5.18423 47.1891 4.94169 46.9339 4.67481C46.6837 4.39569 46.5112 4.14443 46.4165 3.92104C46.3472 3.75779 46.3234 3.57019 46.345 3.35825C46.3666 3.14632 46.4336 2.94558 46.5458 2.75603C46.6658 2.44151 46.8379 2.13024 47.0621 1.82224C47.2949 1.51058 47.5213 1.26753 47.7413 1.09309C47.8444 1.04935 47.9744 1.00939 48.1314 0.973201C48.297 0.933368 48.4172 0.917879 48.4919 0.926733C48.601 0.921007 48.7313 0.977248 48.8829 1.09546C49.0344 1.21367 49.1393 1.34151 49.1976 1.47898C49.256 1.61646 49.2631 1.83647 49.2191 2.13901C49.2274 2.20645 49.2277 2.30265 49.2199 2.42763C49.2121 2.55261 49.2136 2.62798 49.2246 2.65376C49.2266 2.75426 49.189 2.82091 49.1117 2.85372C49.0344 2.88652 48.9424 2.88496 48.836 2.84903C48.7344 2.80086 48.6403 2.73433 48.5536 2.64945C48.4841 2.55728 48.4329 2.47253 48.4001 2.3952C48.3564 2.29209 48.347 2.17441 48.372 2.04214C48.4264 1.90753 48.4463 1.82304 48.4318 1.78867C48.4172 1.75431 48.3626 1.75717 48.2681 1.79726C48.165 1.841 48.002 2.00646 47.7791 2.29364C47.5563 2.58082 47.3972 2.85108 47.3019 3.10442C47.2092 3.31609 47.162 3.46788 47.1605 3.55979C47.1553 3.64311 47.1837 3.7578 47.2456 3.90387C47.3003 4.03275 47.3917 4.17648 47.5198 4.33504C47.6528 4.48137 47.7622 4.57185 47.8478 4.60648C47.8796 4.63356 47.9449 4.69201 48.0439 4.78184C48.1514 4.86802 48.2657 4.94627 48.3868 5.01657C48.7226 5.33032 48.9361 5.59459 49.0273 5.8094C49.133 6.05857 49.1107 6.28092 48.9605 6.47646C48.8188 6.66834 48.5418 6.85177 48.1294 7.02672Z" fill="url(#paint0_angular)"/>
<defs>
<radialGradient id="paint0_angular" cx="0" cy="0" r="1" gradientUnits="userSpaceOnUse" gradientTransform="translate(23.831 12.0249) rotate(67.0124) scale(9 27.5)">
<stop offset="0.177083" stop-color="#5742CA"/>
<stop offset="0.572917" stop-color="#F71E1E" stop-opacity="0.934472"/>
<stop offset="0.973958" stop-color="#B4C119" stop-opacity="0.87"/>
</radialGradient>
</defs>
</svg>
