<svg width="160" height="152" viewBox="0 0 160 152" fill="none" xmlns="http://www.w3.org/2000/svg">
<path d="M80 152C124.183 152 160 117.974 160 76C160 34.0264 124.183 0 80 0C35.8172 0 0 34.0264 0 76C0 117.974 35.8172 152 80 152Z" fill="#EAA2A4"/>
<path d="M81.2698 102.144C97.4 102.144 110.476 89.8945 110.476 74.784C110.476 59.6735 97.4 47.424 81.2698 47.424C65.1396 47.424 52.0635 59.6735 52.0635 74.784C52.0635 89.8945 65.1396 102.144 81.2698 102.144Z" fill="white"/>
<path d="M66.7189 82.8349L12.9332 117.691" stroke="white" stroke-width="2"/>
<path d="M94.726 82.2106L151.478 110.409" stroke="white" stroke-width="2"/>
<path d="M80.6997 0V61.3578" stroke="white" stroke-width="2"/>
<path d="M22.0329 62.861L28.3538 65.8973L25.3507 59.5824L27.103 57.8506L33.5249 64.3032L32.1861 65.6261L30.4308 63.8623L27.534 60.6859L30.5719 67.2216L29.6557 68.1271L23.1312 65.046L26.2901 67.9542L28.0457 69.718L26.7116 71.0367L20.2894 64.584L22.0329 62.861ZM37.394 60.4795C37.22 60.4228 37.0346 60.3219 36.8373 60.1769C36.87 60.8304 36.6372 61.4031 36.1392 61.8954C35.6679 62.3614 35.1412 62.6121 34.5593 62.6479C33.9804 62.6809 33.4852 62.4906 33.0736 62.0769C32.5677 61.5688 32.3678 60.9927 32.4739 60.3489C32.5828 59.7018 32.9931 59.0239 33.7047 58.3148L34.2962 57.7302L34.0228 57.4555C33.8022 57.2338 33.568 57.1136 33.3201 57.095C33.0752 57.0734 32.8296 57.1843 32.5835 57.4274C32.3671 57.6415 32.2479 57.8616 32.2265 58.0879C32.2078 58.3115 32.288 58.5135 32.4674 58.6936L31.1823 59.964C30.9059 59.6862 30.7358 59.3441 30.6726 58.9379C30.6094 58.5316 30.6687 58.1065 30.8506 57.6631C31.0297 57.2166 31.315 56.7999 31.7063 56.4131C32.2992 55.8272 32.9178 55.5118 33.5615 55.4674C34.2055 55.4172 34.7951 55.6608 35.3301 56.1986L37.3987 58.2771C37.8547 58.7292 38.261 59.0104 38.6178 59.1208L38.6927 59.1961L37.394 60.4795ZM35.4446 60.6392C35.6343 60.4516 35.7681 60.2373 35.8458 59.9963C35.9207 59.7525 35.926 59.5215 35.8621 59.3035L35.0416 58.4791L34.5614 58.9539C33.9179 59.5898 33.7961 60.1497 34.1957 60.634L34.2661 60.7138C34.4249 60.8732 34.6122 60.949 34.8277 60.9411C35.0433 60.9332 35.249 60.8325 35.4446 60.6392ZM35.8995 52.4451L36.4907 52.9594C36.4084 52.1911 36.6563 51.5212 37.2343 50.95C37.7444 50.4459 38.2724 50.2202 38.8184 50.2722C39.3644 50.3245 39.9358 50.6448 40.5329 51.2328L43.6161 54.3305L42.3307 55.6008L39.2786 52.5339C39.008 52.2622 38.7531 52.1244 38.514 52.1204C38.2719 52.1134 38.013 52.2464 37.7371 52.5188C37.3754 52.8762 37.2571 53.2981 37.3821 53.784L40.7475 57.1655L39.4621 58.4356L34.6897 53.6404L35.8995 52.4451ZM47.3828 50.6078C47.2088 50.5511 47.0234 50.4503 46.8261 50.3055C46.8588 50.9588 46.6262 51.5315 46.128 52.0237C45.6567 52.4897 45.13 52.7405 44.5481 52.7763C43.9692 52.8093 43.474 52.6189 43.0624 52.2052C42.5565 51.6972 42.3566 51.121 42.4627 50.4772C42.5716 49.8302 42.9819 49.1522 43.6935 48.4431L44.285 47.8586L44.0116 47.5839C43.791 47.3622 43.5568 47.2422 43.3089 47.2234C43.064 47.2018 42.8184 47.3127 42.5723 47.5558C42.3559 47.7698 42.2367 47.9899 42.2153 48.2165C42.1966 48.4399 42.2768 48.6418 42.4562 48.822L41.1711 50.0924C40.8947 49.8146 40.7246 49.4725 40.6614 49.0662C40.5982 48.66 40.6575 48.2349 40.8394 47.7914C41.0185 47.345 41.3038 46.9282 41.6951 46.5415C42.288 45.9556 42.9066 45.6402 43.5503 45.5958C44.1943 45.5456 44.7839 45.7892 45.3189 46.327L47.3877 48.4055C47.8435 48.8575 48.2498 49.1387 48.6066 49.2491L48.6815 49.3245L47.3828 50.6078ZM45.4335 50.7675C45.6231 50.58 45.757 50.3657 45.8346 50.1247C45.9095 49.8809 45.9149 49.6498 45.8509 49.4318L45.0304 48.6077L44.5502 49.0823C43.9067 49.7182 43.7849 50.2781 44.1845 50.7624L44.2549 50.8421C44.4137 51.0016 44.601 51.0773 44.8165 51.0694C45.0321 51.0615 45.2378 50.9609 45.4335 50.7675ZM46.8693 46.2893C46.1371 45.5535 45.7224 44.7884 45.6254 43.9935C45.5314 43.1956 45.7821 42.5023 46.3783 41.9134C46.9059 41.3919 47.496 41.1662 48.1483 41.2366L47.7516 40.7318L48.9168 39.5802L53.5305 44.2159C53.948 44.6355 54.2148 45.0956 54.3309 45.5963C54.4499 46.0939 54.4168 46.5954 54.2316 47.1009C54.0464 47.6062 53.721 48.0889 53.2557 48.5489C52.9028 48.8975 52.4884 49.1664 52.0121 49.3558C51.5389 49.548 51.106 49.6185 50.7134 49.5666L50.5066 48.2242C51.1825 48.2651 51.7488 48.0601 52.2055 47.6088C52.5465 47.272 52.7205 46.918 52.7279 46.5473C52.7384 46.1796 52.5775 45.8287 52.2451 45.4949L51.9893 45.2379C52.0252 45.8647 51.8015 46.4169 51.318 46.8945C50.74 47.4661 50.048 47.7045 49.2422 47.6099C48.4366 47.5095 47.6632 47.087 46.9222 46.3423L46.8693 46.2893ZM48.2472 45.1121C48.6796 45.5463 49.1067 45.8013 49.5286 45.8766C49.9475 45.9488 50.3097 45.834 50.615 45.5324C51.0064 45.1456 51.1412 44.7224 51.019 44.2629L49.0122 42.2465C48.549 42.124 48.1264 42.2516 47.7439 42.6297C47.4356 42.9344 47.3173 43.3002 47.3894 43.7272C47.4645 44.1511 47.7504 44.6127 48.2472 45.1121ZM56.984 41.2952C56.2785 41.9924 55.4885 42.3452 54.6146 42.3534C53.7434 42.3587 52.9507 42.0024 52.236 41.2843L52.1126 41.1604C51.6333 40.6786 51.2989 40.1566 51.1093 39.5937C50.9168 39.028 50.8895 38.4748 51.0276 37.934C51.1657 37.3871 51.4542 36.8969 51.8929 36.4633C52.5511 35.813 53.2744 35.5085 54.0625 35.5499C54.8539 35.5884 55.6273 35.9875 56.383 36.7468L56.9033 37.2697L53.839 40.2979C54.1924 40.57 54.5667 40.6981 54.9626 40.6821C55.3612 40.6632 55.7206 40.4954 56.0408 40.1791C56.536 39.6897 56.7449 39.1286 56.668 38.4957L58.0007 38.5761C58.0786 39.0384 58.0294 39.5091 57.8533 39.9878C57.6741 40.4638 57.3842 40.8996 56.984 41.2952ZM52.9206 37.5047C52.6656 37.7569 52.5434 38.0476 52.5537 38.3772C52.5672 38.7037 52.7104 39.0486 52.9835 39.4117L54.7713 37.6449L54.6698 37.5428C54.3818 37.2651 54.087 37.1226 53.7859 37.1156C53.4817 37.1054 53.1935 37.2351 52.9206 37.5047Z" fill="white"/>
<path d="M98.4137 38.5197L95.8959 36.4019L94.2052 37.4301L92.6784 36.146L101.155 31.3836L102.486 32.5027L99.2118 41.6415L97.6848 40.3572L98.4137 38.5197ZM97.2655 35.5689L99.0077 37.0345L100.334 33.6982L97.2655 35.5689ZM105.187 37.8294L104.725 38.4618C105.486 38.3121 106.177 38.499 106.799 39.0224C107.348 39.484 107.62 39.9881 107.616 40.5347C107.613 41.0814 107.343 41.677 106.808 42.3215L103.984 45.6553L102.601 44.4918L105.397 41.1913C105.644 40.8987 105.759 40.6337 105.742 40.396C105.728 40.155 105.572 39.9098 105.275 39.6601C104.886 39.3327 104.454 39.2525 103.979 39.4194L100.897 43.0585L99.5134 41.895L103.885 36.7345L105.187 37.8294ZM108.038 49.0655C108.079 48.8877 108.164 48.6946 108.291 48.4861C107.641 48.5763 107.048 48.396 106.512 47.9451C106.004 47.5181 105.707 47.0177 105.62 46.4432C105.536 45.8717 105.682 45.3632 106.059 44.9181C106.523 44.3712 107.081 44.1218 107.734 44.1702C108.39 44.2213 109.104 44.5685 109.876 45.2123L110.512 45.7476L110.763 45.4519C110.965 45.2135 111.064 44.9704 111.061 44.7226C111.061 44.4774 110.928 44.2436 110.664 44.0207C110.431 43.8248 110.2 43.7263 109.972 43.7249C109.747 43.726 109.552 43.8236 109.388 44.0175L108.004 42.854C108.258 42.5551 108.584 42.3564 108.985 42.2576C109.386 42.1588 109.816 42.1802 110.275 42.3218C110.737 42.4601 111.179 42.7062 111.6 43.0606C112.238 43.5973 112.608 44.1834 112.709 44.8186C112.816 45.4531 112.625 46.0599 112.135 46.6387L110.24 48.8754C109.828 49.3679 109.583 49.796 109.504 50.16L109.436 50.2411L108.038 49.0655ZM107.706 47.1446C107.91 47.3164 108.136 47.4303 108.384 47.486C108.635 47.5388 108.866 47.5237 109.078 47.441L109.829 46.5538L109.313 46.119C108.62 45.5365 108.05 45.465 107.601 45.9045L107.527 45.9814C107.382 46.1531 107.323 46.3456 107.35 46.5589C107.377 46.7723 107.495 46.9673 107.706 47.1446ZM111.752 52.1897L110.364 51.022L116.57 43.696L117.958 44.8635L111.752 52.1897ZM116.482 52.8277L120.159 50.4229L121.643 51.6709L114.51 55.8816L114.165 56.0568C113.284 56.4705 112.488 56.3783 111.777 55.7798C111.576 55.6106 111.397 55.4086 111.241 55.1737L112.126 54.1292L112.332 54.3112C112.594 54.5313 112.822 54.6551 113.017 54.683C113.215 54.7137 113.429 54.6675 113.659 54.5447L114.181 54.2572L116.751 47.5565L118.239 48.8085L116.482 52.8277ZM121.829 58.2239C121.972 58.0554 121.999 57.8523 121.911 57.6145C121.829 57.3765 121.635 57.0634 121.329 56.6758C120.316 55.3821 120.142 54.3428 120.807 53.5574C121.195 53.0996 121.708 52.8776 122.346 52.8918C122.99 52.9055 123.62 53.1712 124.236 53.6892C124.893 54.2421 125.288 54.8378 125.419 55.4765C125.554 56.1177 125.412 56.6848 124.994 57.1776L123.611 56.0141C123.778 55.817 123.852 55.6011 123.832 55.3666C123.814 55.1288 123.67 54.8959 123.399 54.6677C123.166 54.4718 122.941 54.3728 122.725 54.3702C122.508 54.3679 122.332 54.4476 122.194 54.6098C122.065 54.7625 122.032 54.9468 122.094 55.163C122.163 55.3787 122.34 55.6664 122.625 56.0264C122.914 56.3829 123.139 56.7034 123.303 56.9879C123.807 57.8697 123.78 58.6397 123.223 59.2979C122.824 59.7685 122.298 59.9796 121.645 59.9312C120.995 59.8799 120.349 59.5842 119.708 59.0448C119.274 58.6797 118.952 58.2787 118.743 57.8416C118.54 57.4039 118.456 56.9709 118.491 56.5428C118.529 56.1115 118.679 55.7401 118.943 55.4284L120.255 56.5317C120.06 56.7871 119.992 57.0514 120.051 57.324C120.11 57.5966 120.281 57.8523 120.565 58.0912C120.83 58.3138 121.071 58.4324 121.288 58.4465C121.512 58.4603 121.692 58.3859 121.829 58.2239ZM125.164 63.6345C124.405 62.9956 123.982 62.2428 123.897 61.3759C123.815 60.5118 124.101 59.6935 124.756 58.9207L124.869 58.7873C125.308 58.269 125.8 57.8908 126.346 57.6528C126.894 57.4118 127.445 57.3358 127.998 57.4251C128.557 57.5139 129.072 57.757 129.544 58.1542C130.253 58.7501 130.621 59.4411 130.649 60.2271C130.68 61.0157 130.35 61.8187 129.658 62.6358L129.181 63.1987L125.883 60.4246C125.642 60.7993 125.547 61.1823 125.599 61.5737C125.653 61.9679 125.852 62.3098 126.197 62.5996C126.729 63.0479 127.309 63.2057 127.935 63.0732L127.972 64.4034C127.517 64.5214 127.042 64.5142 126.548 64.3815C126.056 64.2458 125.595 63.9969 125.164 63.6345ZM128.594 59.2663C128.32 59.0355 128.018 58.9397 127.69 58.9792C127.364 59.0213 127.032 59.194 126.694 59.4971L128.618 61.1156L128.711 61.0059C128.963 60.6954 129.079 60.3902 129.06 60.0907C129.043 59.788 128.888 59.5131 128.594 59.2663Z" fill="white"/>
<path d="M63.8849 115.596L63.916 118.798L62.0368 118.816L61.9489 109.728L65.5064 109.694C66.1912 109.688 66.7936 109.807 67.314 110.051C67.8383 110.296 68.2425 110.648 68.5268 111.107C68.8111 111.562 68.956 112.083 68.9616 112.669C68.9702 113.56 68.6703 114.266 68.0613 114.788C67.4567 115.305 66.6136 115.57 65.5321 115.58L63.8849 115.596ZM63.8703 114.079L65.5489 114.063C66.0456 114.058 66.4223 113.938 66.6791 113.703C66.9399 113.467 67.0682 113.133 67.064 112.7C67.0598 112.255 66.9247 111.896 66.6588 111.624C66.3932 111.352 66.0286 111.214 65.5649 111.21L63.8425 111.227L63.8703 114.079ZM73.9572 113.639C73.7105 113.608 73.4931 113.593 73.3054 113.595C72.6206 113.602 72.1739 113.837 71.9654 114.301L72.0081 118.72L70.198 118.737L70.1326 111.984L71.8425 111.968L71.9003 112.772C72.2577 112.149 72.758 111.834 73.401 111.828C73.6013 111.826 73.7896 111.851 73.9654 111.903L73.9572 113.639ZM77.8782 118.788C76.8844 118.798 76.0713 118.502 75.4392 117.9C74.8111 117.299 74.4921 116.492 74.4823 115.481L74.4806 115.307C74.4741 114.628 74.5998 114.022 74.8578 113.487C75.1155 112.947 75.4831 112.532 75.9605 112.24C76.4421 111.944 76.9919 111.793 77.61 111.787C78.5368 111.778 79.2683 112.063 79.8042 112.64C80.3444 113.217 80.6196 114.041 80.6299 115.11L80.6371 115.847L76.3216 115.888C76.3843 116.329 76.5632 116.681 76.858 116.944C77.157 117.208 77.5321 117.337 77.9831 117.333C78.6803 117.326 79.2228 117.069 79.6104 116.562L80.5096 117.546C80.2418 117.931 79.8773 118.234 79.4159 118.455C78.9543 118.672 78.4419 118.783 77.8782 118.788ZM77.6179 113.248C77.2587 113.251 76.9676 113.375 76.7444 113.618C76.5254 113.862 76.3869 114.208 76.3286 114.658L78.8463 114.634L78.8449 114.491C78.8328 114.091 78.7213 113.784 78.5105 113.57C78.2994 113.352 78.002 113.244 77.6179 113.248ZM81.3826 115.203C81.3723 114.15 81.6002 113.309 82.0659 112.681C82.5359 112.052 83.1822 111.734 84.0048 111.726C84.6647 111.72 85.2118 111.96 85.6466 112.447L85.6132 109.001L87.4297 108.984L87.5225 118.57L85.8877 118.586L85.793 117.869C85.3476 118.435 84.7698 118.722 84.0601 118.729C83.2627 118.736 82.6185 118.431 82.1282 117.811C81.6419 117.187 81.3933 116.318 81.3826 115.203ZM83.1939 115.316C83.2002 115.949 83.3154 116.432 83.54 116.767C83.7646 117.102 84.0876 117.268 84.5096 117.264C85.0689 117.258 85.4614 117.02 85.6865 116.547L85.6606 113.882C85.4306 113.414 85.0378 113.183 84.4825 113.188C83.6097 113.197 83.1803 113.906 83.1939 115.316ZM90.8358 118.539L89.0194 118.556L88.9541 111.803L90.7705 111.786L90.8358 118.539ZM88.8307 110.056C88.8282 109.786 88.9156 109.562 89.0936 109.386C89.2755 109.209 89.5232 109.12 89.8364 109.117C90.1452 109.114 90.3925 109.199 90.5779 109.372C90.7633 109.545 90.8573 109.767 90.8601 110.037C90.8627 110.312 90.771 110.537 90.5847 110.714C90.4027 110.89 90.1592 110.98 89.8544 110.983C89.5496 110.986 89.3023 110.901 89.1127 110.728C88.9273 110.555 88.8333 110.331 88.8307 110.056ZM95.1384 117.168C95.4726 117.165 95.7429 117.07 95.95 116.885C96.1571 116.7 96.2633 116.456 96.2686 116.152L97.9661 116.136C97.9663 116.593 97.8451 117.015 97.6025 117.4C97.3597 117.781 97.0243 118.08 96.5963 118.296C96.1725 118.508 95.7016 118.617 95.1838 118.622C94.2152 118.631 93.4481 118.332 92.8825 117.726C92.3171 117.116 92.0291 116.27 92.0186 115.188L92.0174 115.069C92.0074 114.029 92.277 113.196 92.8263 112.571C93.3758 111.946 94.1347 111.628 95.1036 111.619C95.9512 111.611 96.632 111.846 97.1461 112.324C97.6643 112.797 97.9316 113.433 97.9477 114.232L96.2502 114.248C96.2385 113.899 96.1273 113.617 95.9162 113.403C95.7054 113.184 95.4287 113.077 95.0863 113.08C94.6646 113.084 94.3468 113.241 94.1324 113.551C93.9225 113.857 93.8208 114.353 93.8276 115.039L93.8292 115.227C93.836 115.922 93.9472 116.42 94.1632 116.722C94.3792 117.023 94.7041 117.172 95.1384 117.168ZM101.108 110.026L101.124 111.686L102.283 111.675L102.295 112.998L101.137 113.009L101.169 116.379C101.172 116.629 101.221 116.808 101.318 116.915C101.416 117.022 101.6 117.074 101.871 117.072C102.072 117.07 102.249 117.054 102.403 117.023L102.416 118.39C102.063 118.501 101.698 118.559 101.322 118.563C100.053 118.575 99.3991 117.942 99.3618 116.665L99.3266 113.027L98.337 113.036L98.3241 111.713L99.3137 111.703L99.2977 110.043L101.108 110.026Z" fill="white"/>
<path d="M80.43 83.946L80.544 84.668C80.544 85.0227 80.3287 85.6813 79.898 86.644C79.4927 87.5813 79.252 88.1007 79.176 88.202C78.8973 88.4553 78.2513 88.582 77.238 88.582C75.3127 88.582 73.552 88.4807 71.956 88.278L71.082 88.164C70.6513 88.164 70.284 88.316 69.98 88.62C69.676 88.8987 69.22 89.038 68.612 89.038L65.192 88.81C63.9253 88.81 63.292 88.658 63.292 88.354V88.278C63.4187 87.8473 63.482 87.1633 63.482 86.226L63.292 83.034V82.996C63.292 82.8693 63.5327 82.6287 64.014 82.274C64.4953 81.9193 64.736 81.6027 64.736 81.324C64.736 81.0453 64.622 80.7793 64.394 80.526C64.166 80.2727 63.8113 80.07 63.33 79.918C63.2793 79.766 63.254 79.614 63.254 79.462L63.482 77.942C63.5327 77.5873 63.558 77.258 63.558 76.954L63.216 70.874C63.216 70.798 63.3173 70.684 63.52 70.532C63.9 70.2533 64.09 70.0127 64.09 69.81L63.9 68.974C63.748 68.822 63.558 68.6953 63.33 68.594C62.95 68.4673 62.76 68.3407 62.76 68.214C62.76 68.062 62.8993 67.6313 63.178 66.922C63.482 66.2127 63.634 65.7693 63.634 65.592L62.988 62.248C62.988 62.0453 63.5327 61.5513 64.622 60.766C65.7113 59.9553 66.6107 59.55 67.32 59.55C68.0547 59.55 68.9793 59.6387 70.094 59.816C71.234 59.9933 71.804 60.1707 71.804 60.348C71.804 60.652 71.7027 61.4627 71.5 62.78C71.3227 64.072 71.1707 64.756 71.044 64.832C70.436 65.136 70.132 65.4653 70.132 65.82C70.132 66.1493 70.322 66.4913 70.702 66.846C71.1073 67.1753 71.31 67.3907 71.31 67.492V67.53C71.1073 70.342 71.006 72.28 71.006 73.344C71.006 74.3827 71.0187 74.9907 71.044 75.168C71.0947 75.32 71.2213 75.51 71.424 75.738C71.652 75.966 71.766 76.1433 71.766 76.27C71.766 76.3967 71.6267 76.6627 71.348 77.068C71.0947 77.448 70.968 77.8027 70.968 78.132C71.044 78.9173 71.082 79.538 71.082 79.994C71.082 80.4247 71.0567 80.6653 71.006 80.716C70.1193 81.6027 69.676 82.3627 69.676 82.996C69.676 83.1227 69.7393 83.3 69.866 83.528C69.9927 83.756 70.094 83.87 70.17 83.87C70.2713 83.87 70.5627 83.6927 71.044 83.338C71.5253 82.958 71.8927 82.768 72.146 82.768H72.26C73.1213 82.9453 73.932 83.034 74.692 83.034C75.452 83.034 75.946 82.92 76.174 82.692C77.0353 81.8307 77.7193 80.8173 78.226 79.652C78.3527 79.348 78.454 79.196 78.53 79.196C79.2393 79.196 79.8853 79.5 80.468 80.108C81.076 80.716 81.38 81.2227 81.38 81.628C81.228 82.4133 81.0253 82.958 80.772 83.262C80.544 83.5407 80.43 83.7687 80.43 83.946ZM93.3031 74.446L92.8471 73.724C92.8471 73.6987 92.8724 73.6607 92.9231 73.61C92.9991 73.534 93.0751 73.4073 93.1511 73.23C93.2524 73.0527 93.3538 72.8247 93.4551 72.546C93.6831 71.9127 93.7971 70.8993 93.7971 69.506C93.7971 69.4807 93.6324 69.3413 93.3031 69.088C92.9738 68.8093 92.8091 68.6067 92.8091 68.48C92.8091 68.252 93.0244 67.6567 93.4551 66.694L93.6831 66.238C93.6831 65.934 93.5311 65.6427 93.2271 65.364C92.9231 65.0853 92.6191 64.8827 92.3151 64.756L91.8971 64.566C90.8331 65.4527 90.3011 66.1113 90.3011 66.542L90.5291 69.05C90.0478 69.4807 89.8071 69.7973 89.8071 70C89.8071 70.2027 89.8324 70.3293 89.8831 70.38C90.2631 70.7347 90.4531 71.0007 90.4531 71.178C90.4531 71.33 90.4151 71.444 90.3391 71.52C90.2884 71.5707 90.2631 71.7733 90.2631 72.128L90.3011 73.8C90.3011 74.3573 90.2631 74.712 90.1871 74.864C90.5671 75.2947 90.8964 75.51 91.1751 75.51C91.4791 75.51 91.9098 75.3833 92.4671 75.13C93.0244 74.8767 93.3031 74.6487 93.3031 74.446ZM100.903 69.088L100.789 71.558C100.789 71.9887 100.827 72.3307 100.903 72.584V72.698C100.903 73.2047 100.396 74.1547 99.3831 75.548C98.3698 76.916 97.7111 77.6 97.4071 77.6C97.1284 77.6 96.5331 77.942 95.6211 78.626C94.7344 79.2847 94.2911 79.7153 94.2911 79.918C94.2911 80.07 93.6071 80.26 92.2391 80.488C90.8964 80.6907 90.2251 80.8173 90.2251 80.868C90.2251 83.376 90.4278 85.3773 90.8331 86.872L91.0231 87.594C91.0231 87.7713 90.6304 88.05 89.8451 88.43C89.0851 88.7847 88.6418 89.0253 88.5151 89.152C88.2364 89.4307 87.6411 89.646 86.7291 89.798C86.2731 89.798 85.3864 89.6333 84.0691 89.304C82.7518 88.9747 82.0931 88.6833 82.0931 88.43C82.3718 87.8473 82.6124 86.4667 82.8151 84.288L82.8911 83.148C82.8911 83.1227 82.9418 83.072 83.0431 82.996C83.3978 82.8187 83.5751 82.5527 83.5751 82.198C83.5751 81.818 83.3471 81.4887 82.8911 81.21C82.4604 80.906 82.2451 80.7287 82.2451 80.678C82.2451 80.374 82.4224 79.9053 82.7771 79.272L82.9671 78.93L83.0431 76.308C83.0431 75.4467 83.0051 74.978 82.9291 74.902C82.8531 74.826 82.8151 74.7373 82.8151 74.636L83.2711 72.736C83.3218 72.3813 83.3471 71.976 83.3471 71.52C83.3471 70.2027 83.1951 68.556 82.8911 66.58L82.7011 65.516L83.2331 64.642C83.2331 64.186 82.9038 63.2867 82.2451 61.944L81.9031 61.222C83.3218 59.9807 84.6264 59.36 85.8171 59.36C87.4638 59.5373 88.3378 59.6893 88.4391 59.816C88.6924 60.0947 88.9584 60.7027 89.2371 61.64L89.3891 62.134C89.5664 62.2607 89.7058 62.324 89.8071 62.324C89.9084 62.324 89.9718 62.2987 89.9971 62.248C90.7318 61.2093 91.1878 60.4493 91.3651 59.968C92.8091 59.892 93.8604 59.854 94.5191 59.854L94.9371 59.892H95.0131C95.3424 59.9427 95.8744 60.0947 96.6091 60.348C97.3438 60.576 97.7871 60.766 97.9391 60.918C98.7244 61.7033 99.4844 62.932 100.219 64.604C100.472 65.1613 100.637 65.4653 100.713 65.516V65.554C100.713 65.63 100.51 65.896 100.105 66.352C99.7251 66.7827 99.5351 67.0613 99.5351 67.188V67.226C99.5351 67.4793 99.6364 67.6947 99.8391 67.872C100.042 68.024 100.282 68.1 100.561 68.1C100.789 68.1 100.903 68.4293 100.903 69.088Z" fill="#757AFF"/>
</svg>
