<svg width="139" height="66" viewBox="0 0 139 66" fill="none" xmlns="http://www.w3.org/2000/svg">
<path d="M100.25 43.35L100.4 44.3C100.4 44.7667 100.117 45.6333 99.55 46.9C99.0167 48.1333 98.7 48.8167 98.6 48.95C98.2333 49.2833 97.3833 49.45 96.05 49.45C93.5167 49.45 91.2 49.3167 89.1 49.05L87.95 48.9C87.3833 48.9 86.9 49.1 86.5 49.5C86.1 49.8667 85.5 50.05 84.7 50.05L80.2 49.75C78.5333 49.75 77.7 49.55 77.7 49.15V49.05C77.8667 48.4833 77.95 47.5833 77.95 46.35L77.7 42.15V42.1C77.7 41.9333 78.0167 41.6167 78.65 41.15C79.2833 40.6833 79.6 40.2667 79.6 39.9C79.6 39.5333 79.45 39.1833 79.15 38.85C78.85 38.5167 78.3833 38.25 77.75 38.05C77.6833 37.85 77.65 37.65 77.65 37.45L77.95 35.45C78.0167 34.9833 78.05 34.55 78.05 34.15L77.6 26.15C77.6 26.05 77.7333 25.9 78 25.7C78.5 25.3333 78.75 25.0167 78.75 24.75L78.5 23.65C78.3 23.45 78.05 23.2833 77.75 23.15C77.25 22.9833 77 22.8167 77 22.65C77 22.45 77.1833 21.8833 77.55 20.95C77.95 20.0167 78.15 19.4333 78.15 19.2L77.3 14.8C77.3 14.5333 78.0167 13.8833 79.45 12.85C80.8833 11.7833 82.0667 11.25 83 11.25C83.9667 11.25 85.1833 11.3667 86.65 11.6C88.15 11.8333 88.9 12.0667 88.9 12.3C88.9 12.7 88.7667 13.7667 88.5 15.5C88.2667 17.2 88.0667 18.1 87.9 18.2C87.1 18.6 86.7 19.0333 86.7 19.5C86.7 19.9333 86.95 20.3833 87.45 20.85C87.9833 21.2833 88.25 21.5667 88.25 21.7V21.75C87.9833 25.45 87.85 28 87.85 29.4C87.85 30.7667 87.8667 31.5667 87.9 31.8C87.9667 32 88.1333 32.25 88.4 32.55C88.7 32.85 88.85 33.0833 88.85 33.25C88.85 33.4167 88.6667 33.7667 88.3 34.3C87.9667 34.8 87.8 35.2667 87.8 35.7C87.9 36.7333 87.95 37.55 87.95 38.15C87.95 38.7167 87.9167 39.0333 87.85 39.1C86.6833 40.2667 86.1 41.2667 86.1 42.1C86.1 42.2667 86.1833 42.5 86.35 42.8C86.5167 43.1 86.65 43.25 86.75 43.25C86.8833 43.25 87.2667 43.0167 87.9 42.55C88.5333 42.05 89.0167 41.8 89.35 41.8H89.5C90.6333 42.0333 91.7 42.15 92.7 42.15C93.7 42.15 94.35 42 94.65 41.7C95.7833 40.5667 96.6833 39.2333 97.35 37.7C97.5167 37.3 97.65 37.1 97.75 37.1C98.6833 37.1 99.5333 37.5 100.3 38.3C101.1 39.1 101.5 39.7667 101.5 40.3C101.3 41.3333 101.033 42.05 100.7 42.45C100.4 42.8167 100.25 43.1167 100.25 43.35ZM117.188 30.85L116.588 29.9C116.588 29.8667 116.622 29.8167 116.688 29.75C116.788 29.65 116.888 29.4833 116.988 29.25C117.122 29.0167 117.255 28.7167 117.388 28.35C117.688 27.5167 117.838 26.1833 117.838 24.35C117.838 24.3167 117.622 24.1333 117.188 23.8C116.755 23.4333 116.538 23.1667 116.538 23C116.538 22.7 116.822 21.9167 117.388 20.65L117.688 20.05C117.688 19.65 117.488 19.2667 117.088 18.9C116.688 18.5333 116.288 18.2667 115.888 18.1L115.338 17.85C113.938 19.0167 113.238 19.8833 113.238 20.45L113.538 23.75C112.905 24.3167 112.588 24.7333 112.588 25C112.588 25.2667 112.622 25.4333 112.688 25.5C113.188 25.9667 113.438 26.3167 113.438 26.55C113.438 26.75 113.388 26.9 113.288 27C113.222 27.0667 113.188 27.3333 113.188 27.8L113.238 30C113.238 30.7333 113.188 31.2 113.088 31.4C113.588 31.9667 114.022 32.25 114.388 32.25C114.788 32.25 115.355 32.0833 116.088 31.75C116.822 31.4167 117.188 31.1167 117.188 30.85ZM127.188 23.8L127.038 27.05C127.038 27.6167 127.088 28.0667 127.188 28.4V28.55C127.188 29.2167 126.522 30.4667 125.188 32.3C123.855 34.1 122.988 35 122.588 35C122.222 35 121.438 35.45 120.238 36.35C119.072 37.2167 118.488 37.7833 118.488 38.05C118.488 38.25 117.588 38.5 115.788 38.8C114.022 39.0667 113.138 39.2333 113.138 39.3C113.138 42.6 113.405 45.2333 113.938 47.2L114.188 48.15C114.188 48.3833 113.672 48.75 112.638 49.25C111.638 49.7167 111.055 50.0333 110.888 50.2C110.522 50.5667 109.738 50.85 108.538 51.05C107.938 51.05 106.772 50.8333 105.038 50.4C103.305 49.9667 102.438 49.5833 102.438 49.25C102.805 48.4833 103.122 46.6667 103.388 43.8L103.488 42.3C103.488 42.2667 103.555 42.2 103.688 42.1C104.155 41.8667 104.388 41.5167 104.388 41.05C104.388 40.55 104.088 40.1167 103.488 39.75C102.922 39.35 102.638 39.1167 102.638 39.05C102.638 38.65 102.872 38.0333 103.338 37.2L103.588 36.75L103.688 33.3C103.688 32.1667 103.638 31.55 103.538 31.45C103.438 31.35 103.388 31.2333 103.388 31.1L103.988 28.6C104.055 28.1333 104.088 27.6 104.088 27C104.088 25.2667 103.888 23.1 103.488 20.5L103.238 19.1L103.938 17.95C103.938 17.35 103.505 16.1667 102.638 14.4L102.188 13.45C104.055 11.8167 105.772 11 107.338 11C109.505 11.2333 110.655 11.4333 110.788 11.6C111.122 11.9667 111.472 12.7667 111.838 14L112.038 14.65C112.272 14.8167 112.455 14.9 112.588 14.9C112.722 14.9 112.805 14.8667 112.838 14.8C113.805 13.4333 114.405 12.4333 114.638 11.8C116.538 11.7 117.922 11.65 118.788 11.65L119.338 11.7H119.438C119.872 11.7667 120.572 11.9667 121.538 12.3C122.505 12.6 123.088 12.85 123.288 13.05C124.322 14.0833 125.322 15.7 126.288 17.9C126.622 18.6333 126.838 19.0333 126.938 19.1V19.15C126.938 19.25 126.672 19.6 126.138 20.2C125.638 20.7667 125.388 21.1333 125.388 21.3V21.35C125.388 21.6833 125.522 21.9667 125.788 22.2C126.055 22.4 126.372 22.5 126.738 22.5C127.038 22.5 127.188 22.9333 127.188 23.8Z" fill="white"/>
<path d="M30.5 58C46.2401 58 59 45.0393 59 29.0515C59 13.0637 46.2401 0.103027 30.5 0.103027C14.7599 0.103027 2 13.0637 2 29.0515C2 45.0393 14.7599 58 30.5 58Z" fill="white"/>
<path d="M25.7687 31.6549L6.6076 44.9318" stroke="#757AFF" stroke-width="5"/>
<path d="M35.7462 31.4171L55.9642 42.1581" stroke="#757AFF" stroke-width="5"/>
<path d="M30.7493 0V23.6803" stroke="#757AFF" stroke-width="5"/>
<path d="M30.7096 38.2202C35.339 38.2202 39.0919 34.2536 39.0919 29.3606C39.0919 24.4675 35.339 20.5009 30.7096 20.5009C26.0801 20.5009 22.3272 24.4675 22.3272 29.3606C22.3272 34.2536 26.0801 38.2202 30.7096 38.2202Z" fill="#757AFF"/>
<path d="M24.5575 29.6541H25.7336V30.218H24.0037V26.8108H24.5575V29.6541ZM26.9373 30.2648C26.6444 30.2648 26.4056 30.1509 26.2209 29.9231C26.0376 29.6955 25.9459 29.3919 25.9459 29.0128V28.9473C25.9459 28.693 25.9846 28.466 26.0623 28.2663C26.1398 28.065 26.2493 27.9107 26.3908 27.803C26.5336 27.6938 26.6961 27.6391 26.8782 27.6391C27.1515 27.6391 27.3662 27.7484 27.5225 27.9668C27.6801 28.1852 27.7588 28.4949 27.7588 28.8959V29.172H26.4869C26.504 29.3373 26.5558 29.4699 26.6419 29.5697C26.7292 29.6696 26.8395 29.7196 26.9724 29.7196C27.1779 29.7196 27.3385 29.6252 27.4542 29.4364L27.7165 29.8086C27.6364 29.952 27.5281 30.0643 27.3914 30.1455C27.2548 30.2251 27.1034 30.2648 26.9373 30.2648ZM26.8763 28.1868C26.7706 28.1868 26.6844 28.232 26.618 28.3226C26.5527 28.413 26.5108 28.5425 26.4924 28.7109H27.2345V28.6571C27.2321 28.5074 27.2001 28.3919 27.1386 28.3109C27.077 28.2281 26.9896 28.1868 26.8763 28.1868ZM29.2211 30.218C29.1965 30.1572 29.1786 30.0816 29.1675 29.991C29.0383 30.1736 28.8703 30.2648 28.6635 30.2648C28.4678 30.2648 28.3053 30.1931 28.1761 30.0495C28.0481 29.906 27.9842 29.725 27.9842 29.5066C27.9842 29.2383 28.0623 29.0323 28.2186 28.8889C28.3761 28.7453 28.6033 28.6727 28.8998 28.6711H29.1453V28.5261C29.1453 28.4091 29.1214 28.3155 29.0734 28.2452C29.0266 28.1751 28.9521 28.14 28.85 28.14C28.7602 28.14 28.6893 28.1673 28.6377 28.2219C28.5873 28.2765 28.5621 28.3513 28.5621 28.4465H28.0284C28.0284 28.2999 28.0641 28.1642 28.1355 28.0393C28.2069 27.9145 28.3078 27.8171 28.4383 27.7468C28.5687 27.6751 28.7152 27.6391 28.8776 27.6391C29.1239 27.6391 29.3189 27.718 29.463 27.8756C29.6081 28.0315 29.6807 28.2515 29.6807 28.5355V29.633C29.682 29.8733 29.7085 30.0549 29.7601 30.1783V30.218H29.2211ZM28.7798 29.7477C28.8586 29.7477 28.9312 29.7258 28.9978 29.6822C29.0642 29.6368 29.1135 29.5768 29.1453 29.502V29.0667H28.946C28.6789 29.0667 28.5367 29.1836 28.5196 29.4177L28.5177 29.4574C28.5177 29.5418 28.541 29.6111 28.5879 29.6658C28.6347 29.7204 28.6985 29.7477 28.7798 29.7477ZM31.2132 28.3202C31.1405 28.3077 31.0766 28.3015 31.0211 28.3015C30.8194 28.3015 30.687 28.3881 30.6242 28.5612V30.218H30.0906V27.6859H30.5946L30.6095 27.9879C30.7165 27.7554 30.8648 27.6391 31.0544 27.6391C31.1135 27.6391 31.1688 27.6493 31.2205 27.6696L31.2132 28.3202ZM31.9627 27.6859L31.9794 27.9784C32.1222 27.7522 32.3135 27.6391 32.5535 27.6391C32.7652 27.6391 32.9228 27.718 33.0261 27.8756C33.1296 28.0331 33.1825 28.2687 33.1849 28.5823V30.218H32.6514V28.5986C32.6514 28.4551 32.6267 28.3513 32.5775 28.2874C32.5283 28.2219 32.4465 28.1892 32.332 28.1892C32.1818 28.1892 32.0692 28.2703 31.9941 28.4325V30.218H31.4606V27.6859H31.9627ZM34.1543 30.218H33.6189V27.6859H34.1543V30.218ZM33.5875 27.0308C33.5875 26.9293 33.6139 26.8459 33.6667 26.7803C33.7209 26.7148 33.7942 26.682 33.8866 26.682C33.9775 26.682 34.0501 26.7148 34.1043 26.7803C34.1585 26.8459 34.1856 26.9293 34.1856 27.0308C34.1856 27.1337 34.1579 27.218 34.1025 27.2835C34.0484 27.349 33.9763 27.3818 33.8866 27.3818C33.7967 27.3818 33.7241 27.349 33.6686 27.2835C33.6144 27.218 33.5875 27.1337 33.5875 27.0308ZM35.0865 27.6859L35.1032 27.9784C35.246 27.7522 35.4373 27.6391 35.6774 27.6391C35.889 27.6391 36.0466 27.718 36.15 27.8756C36.2534 28.0331 36.3063 28.2687 36.3087 28.5823V30.218H35.7752V28.5986C35.7752 28.4551 35.7506 28.3513 35.7013 28.2874C35.6521 28.2219 35.5703 28.1892 35.4558 28.1892C35.3056 28.1892 35.193 28.2703 35.1179 28.4325V30.218H34.5844V27.6859H35.0865ZM36.6374 28.9333C36.6374 28.5448 36.71 28.232 36.8552 27.9949C37.0016 27.7578 37.1986 27.6391 37.446 27.6391C37.6651 27.6391 37.8356 27.7343 37.9574 27.9248L37.9796 27.6859H38.4633V30.1338C38.4633 30.3553 38.4233 30.5479 38.3433 30.7118C38.2645 30.8756 38.1531 31.0003 38.0092 31.0863C37.8651 31.1721 37.6965 31.2149 37.5033 31.2149C37.3568 31.2149 37.214 31.1775 37.0749 31.1026C36.9359 31.0293 36.8306 30.9341 36.7593 30.8171L36.9956 30.4053C37.1284 30.5941 37.2898 30.6883 37.4792 30.6883C37.6209 30.6883 37.731 30.6401 37.8098 30.5433C37.8886 30.4481 37.9279 30.3124 37.9279 30.1361V30.0004C37.8047 30.1767 37.6429 30.2648 37.4423 30.2648C37.2023 30.2648 37.0078 30.1463 36.859 29.9091C36.7113 29.6704 36.6374 29.3546 36.6374 28.9614V28.9333ZM37.1709 28.9825C37.1709 29.2117 37.2072 29.3919 37.2798 29.5229C37.3525 29.6525 37.4522 29.7172 37.5789 29.7172C37.7415 29.7172 37.8577 29.64 37.9279 29.4856V28.4208C37.8565 28.2663 37.7415 28.1892 37.5827 28.1892C37.4546 28.1892 37.3537 28.2555 37.2798 28.3881C37.2072 28.5206 37.1709 28.7187 37.1709 28.9825Z" fill="white"/>
<path d="M5.36134 30.074L10.0574 30.9539L7.07803 27.4682L7.98469 26.0919L13.273 29.1062L12.5803 30.1577L11.1348 29.3337L8.70852 27.8066L11.7451 31.4257L11.2711 32.1453L6.43184 31.2704L8.99234 32.5858L10.438 33.4097L9.74775 34.4578L4.45925 31.4433L5.36134 30.074ZM15.275 26.0673C15.1498 26.06 15.0102 26.0268 14.8559 25.9677C14.9781 26.3738 14.9103 26.7724 14.6527 27.1636C14.4088 27.5339 14.0949 27.7777 13.711 27.8953C13.3287 28.0105 12.9681 27.9715 12.6291 27.7782C12.2125 27.5409 11.9903 27.2108 11.9625 26.7881C11.936 26.363 12.1064 25.8692 12.4737 25.3066L12.7798 24.842L12.5546 24.7137C12.3729 24.6101 12.1978 24.5727 12.029 24.6014C11.8618 24.6278 11.7145 24.7377 11.5872 24.9309C11.4752 25.101 11.4293 25.259 11.4497 25.405C11.4715 25.5489 11.5562 25.6629 11.7039 25.747L11.039 26.7566C10.8114 26.6269 10.6451 26.4392 10.5404 26.1938C10.4357 25.9483 10.4101 25.671 10.4637 25.3621C10.515 25.0518 10.6419 24.7429 10.8444 24.4355C11.1512 23.9698 11.5167 23.6703 11.9406 23.5373C12.3638 23.4006 12.7958 23.4577 13.2364 23.7089L14.9399 24.6799C15.3144 24.8901 15.6295 25.0009 15.8852 25.0121L15.9469 25.0473L15.275 26.0673ZM13.995 26.486C14.0931 26.337 14.1498 26.1802 14.1647 26.0158C14.1774 25.8501 14.1455 25.7037 14.0692 25.5769L13.3936 25.1918L13.1451 25.5692C12.8122 26.0745 12.8167 26.4469 13.1584 26.6867L13.2178 26.7254C13.3486 26.7998 13.4855 26.8169 13.6285 26.7768C13.7715 26.7366 13.8937 26.6397 13.995 26.486ZM13.041 21.2528L13.5156 21.4801C13.3425 21.0098 13.4056 20.5476 13.7046 20.0936C13.9685 19.693 14.2872 19.4647 14.6606 19.4083C15.034 19.3521 15.4656 19.4605 15.9554 19.7333L18.4943 21.1803L17.8293 22.1899L15.3159 20.7572C15.0931 20.6303 14.9013 20.5851 14.7408 20.6216C14.5777 20.6568 14.4248 20.7827 14.282 20.9992C14.0949 21.2833 14.0805 21.5682 14.2388 21.8538L17.0101 23.4335L16.345 24.4429L12.415 22.2028L13.041 21.2528ZM20.4433 18.2217C20.3181 18.2144 20.1786 18.1812 20.0243 18.1222C20.1465 18.5282 20.0788 18.9268 19.821 19.318C19.5771 19.6883 19.2632 19.9322 18.8793 20.0497C18.497 20.165 18.1364 20.1259 17.7974 19.9327C17.3809 19.6954 17.1586 19.3652 17.1308 18.9426C17.1043 18.5174 17.2747 18.0236 17.642 17.461L17.9481 16.9964L17.723 16.8681C17.5413 16.7645 17.3661 16.7272 17.1973 16.7558C17.0302 16.7822 16.8828 16.8921 16.7555 17.0853C16.6435 17.2554 16.5976 17.4134 16.618 17.5596C16.6398 17.7033 16.7245 17.8174 16.8722 17.9015L16.2073 18.9111C15.9797 18.7813 15.8134 18.5937 15.7087 18.3482C15.604 18.1027 15.5784 17.8254 15.632 17.5166C15.6833 17.2062 15.8102 16.8973 16.0127 16.5899C16.3195 16.1243 16.685 15.8247 17.1089 15.6917C17.5322 15.555 17.9641 15.6121 18.4048 15.8634L20.1083 16.8343C20.4827 17.0446 20.7978 17.1553 21.0536 17.1666L21.1152 17.2018L20.4433 18.2217ZM19.1633 18.6405C19.2614 18.4914 19.3181 18.3347 19.333 18.1702C19.3457 18.0045 19.3138 17.8582 19.2376 17.7314L18.5619 17.3464L18.3134 17.7236C17.9805 18.229 17.985 18.6014 18.3267 18.8411L18.3861 18.8798C18.5169 18.9542 18.6538 18.9714 18.7968 18.9312C18.9399 18.8911 19.0621 18.7941 19.1633 18.6405ZM19.4364 15.5866C18.8335 15.2429 18.4385 14.8288 18.2515 14.3442C18.0661 13.8572 18.1274 13.3798 18.4359 12.9117C18.7088 12.4972 19.069 12.2588 19.5164 12.1967L19.1734 11.9436L19.7763 11.0283L23.5755 13.194C23.9193 13.39 24.1686 13.6361 24.3232 13.9324C24.4792 14.2263 24.534 14.5474 24.4878 14.8959C24.4414 15.2443 24.2978 15.6013 24.0571 15.9668C23.8745 16.2439 23.6384 16.4809 23.3488 16.6779C23.0616 16.8761 22.7828 16.9911 22.5121 17.0226L22.1676 16.2111C22.6261 16.1266 22.9736 15.9051 23.2099 15.5464C23.3864 15.2787 23.4484 15.0274 23.3965 14.7928C23.3471 14.5596 23.1855 14.3649 22.9118 14.209L22.7011 14.089C22.8214 14.4777 22.7566 14.8619 22.5064 15.2415C22.2074 15.6957 21.7809 15.9588 21.2271 16.0308C20.6726 16.099 20.0902 15.9592 19.48 15.6114L19.4364 15.5866ZM20.1777 14.6206C20.5338 14.8233 20.8587 14.9141 21.1526 14.8927C21.444 14.8698 21.6688 14.7384 21.8267 14.4987C22.0293 14.1913 22.0545 13.9028 21.9021 13.6335L20.2496 12.6915C19.9208 12.6899 19.6576 12.8393 19.4597 13.1398C19.3002 13.3819 19.2772 13.6316 19.391 13.8886C19.5064 14.1432 19.7686 14.3872 20.1777 14.6206ZM25.438 10.7914C25.073 11.3455 24.5985 11.6966 24.015 11.8444C23.4328 11.9899 22.8476 11.895 22.2591 11.5595L22.1575 11.5016C21.7628 11.2765 21.4588 11.0024 21.2455 10.679C21.0299 10.3542 20.9266 10.0104 20.936 9.64736C20.9444 9.28051 21.0622 8.92481 21.2892 8.58016C21.6298 8.0633 22.067 7.75355 22.6007 7.65096C23.1362 7.54609 23.7151 7.6711 24.3373 8.02581L24.7659 8.27012L23.1803 10.6768C23.4586 10.7905 23.7288 10.81 23.9912 10.7353C24.255 10.6584 24.4698 10.4941 24.6355 10.2427C24.8917 9.85366 24.9453 9.46631 24.7966 9.08042L25.7008 8.91353C25.8239 9.19186 25.8633 9.49621 25.819 9.82639C25.7722 10.1553 25.6451 10.477 25.438 10.7914ZM22.1368 9.06813C22.0049 9.2685 21.9678 9.47151 22.0253 9.67733C22.0845 9.88071 22.2333 10.0745 22.4718 10.2585L23.3968 8.85429L23.3132 8.80661C23.0778 8.67876 22.8586 8.63718 22.6561 8.68194C22.451 8.72514 22.278 8.85384 22.1368 9.06813Z" fill="#757AFF"/>
<path d="M39.6751 11.8377L38.4151 9.95367L37.1071 10.3272L36.343 9.18478L42.8271 7.57487L43.493 8.57044L39.6125 14.0736L38.8484 12.931L39.6751 11.8377ZM39.4747 9.65108L40.3466 10.9549L41.8494 8.97011L39.4747 9.65108ZM44.2689 12.6344L43.8451 12.9715C44.3747 13.0127 44.7951 13.2661 45.1065 13.7318C45.3812 14.1424 45.4656 14.5301 45.36 14.8949C45.2543 15.2598 44.9645 15.6081 44.4904 15.9396L42.0006 17.6443L41.3084 16.6093L43.7732 14.9216C43.9916 14.7719 44.1175 14.6161 44.1511 14.454C44.1869 14.2901 44.1306 14.0972 43.9821 13.8752C43.7873 13.5838 43.5176 13.4499 43.1734 13.4733L40.4558 15.3342L39.7635 14.2992L43.6173 11.6603L44.2689 12.6344ZM44.0294 20.6781C44.0902 20.5668 44.1822 20.4534 44.3054 20.3376C43.8601 20.2771 43.5032 20.0463 43.2348 19.6452C42.981 19.2654 42.8794 18.8756 42.9302 18.4752C42.9826 18.0774 43.175 17.7645 43.5075 17.5369C43.9158 17.2573 44.3306 17.1942 44.7519 17.3479C45.1748 17.504 45.5798 17.8688 45.9671 18.4428L46.2856 18.919L46.5064 18.7678C46.6845 18.6458 46.7958 18.5017 46.8404 18.3354C46.8866 18.1715 46.8434 17.9905 46.7109 17.7923C46.5943 17.618 46.4609 17.5092 46.3107 17.4659C46.1621 17.4248 46.0155 17.454 45.8706 17.553L45.1783 16.518C45.4016 16.3652 45.6544 16.293 45.9371 16.3014C46.2196 16.3097 46.499 16.4039 46.7752 16.5839C47.0536 16.7623 47.2983 17.0089 47.5091 17.3242C47.8284 17.8016 47.9615 18.2623 47.9085 18.7059C47.8596 19.1501 47.619 19.5203 47.1868 19.8163L45.5164 20.96C45.1523 21.2129 44.91 21.4536 44.7894 21.6824L44.729 21.7239L44.0294 20.6781ZM44.1729 19.3318C44.2751 19.4846 44.4026 19.6028 44.5553 19.6861C44.7104 19.7679 44.8656 19.8008 45.0211 19.7849L45.6836 19.3312L45.4249 18.9444C45.0784 18.4263 44.7159 18.2724 44.3373 18.4829L44.2744 18.5207C44.1463 18.6086 44.071 18.7263 44.0484 18.8739C44.026 19.0217 44.0675 19.1741 44.1729 19.3318ZM45.8882 23.4573L45.1936 22.4186L50.6644 18.6724L51.3592 19.7111L45.8882 23.4573ZM48.8852 24.7628L51.7613 23.8376L52.5039 24.9479L47.0097 26.4386L46.7492 26.4917C46.0908 26.6047 45.5836 26.3951 45.2275 25.8627C45.1269 25.7122 45.0473 25.544 44.9887 25.3578L45.7686 24.8237L45.8705 24.9838C46.0015 25.1796 46.1286 25.3049 46.2518 25.3597C46.3766 25.4171 46.5262 25.4259 46.7008 25.3865L47.0991 25.2912L50.0558 21.2876L50.8008 22.4015L48.8852 24.7628ZM51.3916 29.3648C51.5176 29.2787 51.5737 29.1479 51.5604 28.9725C51.5509 28.798 51.4822 28.5526 51.3539 28.2366C50.9298 27.1832 51.0111 26.4558 51.5975 26.0542C51.9394 25.8201 52.3194 25.767 52.7374 25.8951C53.1592 26.0239 53.5245 26.3186 53.8326 26.7795C54.1615 27.2713 54.3091 27.743 54.2752 28.1945C54.2429 28.6482 54.0427 29.0012 53.6746 29.2531L52.9824 28.2181C53.1296 28.1173 53.2188 27.9866 53.2498 27.826C53.2833 27.6638 53.2322 27.4813 53.0965 27.2783C52.9799 27.104 52.8505 26.996 52.7083 26.9541C52.566 26.9123 52.4345 26.9328 52.3133 27.0157C52.1992 27.0938 52.1427 27.2109 52.1433 27.3671C52.1478 27.5241 52.2102 27.7494 52.3305 28.0432C52.4531 28.3351 52.5415 28.5914 52.5954 28.8119C52.7616 29.4954 52.599 30.0053 52.1075 30.3419C51.7561 30.5826 51.3697 30.626 50.9484 30.4724C50.5296 30.3172 50.1597 29.9995 49.8387 29.5196C49.6215 29.1948 49.4853 28.867 49.43 28.5358C49.3786 28.2054 49.4049 27.9002 49.5085 27.6204C49.6146 27.3389 49.7839 27.1185 50.0165 26.9591L50.6728 27.9406C50.4965 28.0753 50.4019 28.2394 50.3891 28.4326C50.3764 28.6258 50.441 28.8286 50.5832 29.0411C50.7159 29.2392 50.8524 29.3633 50.993 29.4132C51.1377 29.4639 51.2705 29.4476 51.3916 29.3648ZM52.5694 33.6027C52.1894 33.0343 52.0528 32.4524 52.16 31.8568C52.2688 31.2637 52.6116 30.7696 53.1886 30.3744L53.2883 30.3062C53.6753 30.0412 54.0712 29.8798 54.4758 29.8221C54.8826 29.7628 55.2598 29.8142 55.6074 29.9767C55.9588 30.1398 56.2526 30.3982 56.489 30.7515C56.8435 31.2816 56.9559 31.8121 56.8263 32.343C56.6982 32.8762 56.329 33.3517 55.7189 33.7697L55.2985 34.0575L53.6483 31.5897C53.4188 31.7954 53.2841 32.0339 53.2439 32.3052C53.2053 32.5788 53.2723 32.8445 53.4448 33.1024C53.7113 33.5011 54.0635 33.7144 54.5009 33.742L54.2747 34.6384C53.9524 34.6328 53.641 34.5398 53.3402 34.3592C53.0419 34.1771 52.785 33.925 52.5694 33.6027ZM55.6531 31.3187C55.5157 31.1134 55.3352 30.9933 55.1112 30.9587C54.8888 30.9264 54.6376 30.9802 54.3571 31.1199L55.32 32.5598L55.4019 32.5037C55.6267 32.3429 55.7608 32.1604 55.8045 31.9565C55.8505 31.751 55.8001 31.5383 55.6531 31.3187Z" fill="#757AFF"/>
<path d="M22.1482 47.38L22.1666 49.9852L21.0522 50L21 42.6057L23.1099 42.5779C23.516 42.5726 23.8733 42.6695 24.1819 42.8684C24.4928 43.0675 24.7325 43.3539 24.9012 43.7275C25.0698 44.0978 25.1557 44.5216 25.159 44.9989C25.1641 45.7234 24.9862 46.2979 24.6251 46.7227C24.2665 47.1438 23.7665 47.3587 23.1251 47.3672L22.1482 47.38ZM22.1395 46.1459L23.135 46.1329C23.4297 46.1289 23.6531 46.0311 23.8054 45.8395C23.96 45.648 24.0361 45.376 24.0336 45.0239C24.0311 44.6616 23.951 44.3698 23.7933 44.1485C23.6358 43.9271 23.4196 43.8147 23.1446 43.8117L22.1231 43.8251L22.1395 46.1459ZM28.1218 45.7877C27.9754 45.7626 27.8465 45.7507 27.7352 45.7522C27.329 45.7575 27.0641 45.9488 26.9405 46.3263L26.9658 49.9219L25.8923 49.9361L25.8535 44.4412L26.8676 44.4278L26.9019 45.0825C27.1138 44.5753 27.4105 44.3191 27.7919 44.3142C27.9107 44.3125 28.0223 44.3331 28.1266 44.3756L28.1218 45.7877ZM30.4472 49.9777C29.8577 49.9854 29.3756 49.7445 29.0007 49.2551C28.6282 48.7657 28.439 48.1096 28.4331 47.287L28.4322 47.1448C28.4283 46.593 28.5029 46.0992 28.6559 45.6639C28.8087 45.2251 29.0267 44.887 29.3098 44.6496C29.5955 44.4087 29.9215 44.286 30.2881 44.2811C30.8378 44.2739 31.2716 44.5052 31.5894 44.9751C31.9098 45.4449 32.073 46.1149 32.0791 46.985L32.0834 47.5841L29.524 47.6179C29.5612 47.9763 29.6673 48.2628 29.8421 48.4771C30.0195 48.6915 30.2419 48.7969 30.5094 48.7935C30.9229 48.788 31.2446 48.5788 31.4745 48.1662L32.0077 48.9667C31.8489 49.2802 31.6327 49.5268 31.3591 49.7065C31.0854 49.8828 30.7815 49.9731 30.4472 49.9777ZM30.2928 45.4696C30.0798 45.4723 29.9071 45.5729 29.7748 45.7709C29.6449 45.9691 29.5627 46.2512 29.5281 46.6174L31.0213 46.5977L31.0205 46.4808C31.0133 46.1559 30.9472 45.9061 30.8221 45.7317C30.697 45.554 30.5206 45.4666 30.2928 45.4696ZM32.5255 47.0603C32.5194 46.2038 32.6545 45.5198 32.9308 45.0082C33.2095 44.4965 33.5928 44.2376 34.0807 44.2311C34.472 44.226 34.7965 44.4214 35.0543 44.8176L35.0345 42.0142L36.1118 42L36.1669 49.8005L35.1974 49.8133L35.1412 49.2299C34.877 49.6906 34.5344 49.9236 34.1134 49.9293C33.6405 49.9355 33.2585 49.6866 32.9677 49.1825C32.6793 48.6751 32.5318 47.9676 32.5255 47.0603ZM33.5997 47.1527C33.6034 47.6673 33.6718 48.0608 33.805 48.3334C33.9382 48.6059 34.1298 48.7405 34.38 48.7373C34.7117 48.733 34.9445 48.5385 35.078 48.1541L35.0626 45.9855C34.9262 45.6049 34.6933 45.4165 34.3639 45.4208C33.8463 45.4278 33.5917 46.005 33.5997 47.1527ZM38.1319 49.7746L37.0546 49.7888L37.0159 44.2939L38.0932 44.2797L38.1319 49.7746ZM36.9427 42.8728C36.9412 42.6528 36.9931 42.4709 37.0986 42.3274C37.2065 42.1836 37.3534 42.1106 37.5392 42.1082C37.7223 42.1057 37.869 42.1749 37.9789 42.3156C38.0889 42.4565 38.1446 42.6369 38.1463 42.8569C38.1478 43.0804 38.0935 43.264 37.9829 43.4076C37.875 43.5513 37.7306 43.6243 37.5498 43.6267C37.3691 43.629 37.2224 43.5598 37.11 43.4191C37 43.2784 36.9443 43.0963 36.9427 42.8728ZM40.6836 48.6592C40.8818 48.6566 41.0421 48.58 41.165 48.4294C41.2878 48.2787 41.3507 48.0798 41.3539 47.8326L42.3606 47.8194C42.3608 48.1917 42.2888 48.5348 42.145 48.8481C42.001 49.1581 41.8021 49.4011 41.5482 49.5771C41.2969 49.7498 41.0176 49.8381 40.7106 49.8423C40.1361 49.8498 39.6811 49.6068 39.3457 49.1136C39.0104 48.6168 38.8396 47.9285 38.8334 47.0482L38.8327 46.9517C38.8267 46.1052 38.9866 45.4277 39.3124 44.9189C39.6383 44.41 40.0884 44.1519 40.663 44.1443C41.1656 44.1377 41.5694 44.3287 41.8743 44.7175C42.1816 45.1028 42.3402 45.6204 42.3497 46.2703L41.343 46.2838C41.3361 45.9993 41.2701 45.7699 41.1449 45.5956C41.0199 45.4178 40.8558 45.3303 40.6527 45.3329C40.4026 45.3361 40.2141 45.464 40.087 45.7162C39.9625 45.9649 39.9022 46.3687 39.9062 46.9273L39.9072 47.0797C39.9112 47.6452 39.9772 48.0506 40.1052 48.2961C40.2333 48.5416 40.426 48.6626 40.6836 48.6592ZM44.2239 42.848L44.2334 44.1988L44.9206 44.1897L44.9282 45.2663L44.241 45.2754L44.2604 48.0177C44.2618 48.2208 44.2912 48.3661 44.3488 48.4534C44.4064 48.5406 44.5157 48.5832 44.6766 48.5811C44.7956 48.5796 44.9007 48.5663 44.9921 48.5414L45 49.6535C44.7902 49.7443 44.5737 49.7912 44.3508 49.7942C43.5981 49.8041 43.2105 49.2895 43.1884 48.2503L43.1675 45.2896L42.5806 45.2974L42.573 44.2207L43.1599 44.213L43.1503 42.862L44.2239 42.848Z" fill="#757AFF"/>
</svg>
