<svg width="41" height="33" viewBox="0 0 41 33" fill="none" xmlns="http://www.w3.org/2000/svg">
<path d="M19.4 26.68L19.52 27.44C19.52 27.8133 19.2933 28.5067 18.84 29.52C18.4133 30.5067 18.16 31.0533 18.08 31.16C17.7867 31.4267 17.1067 31.56 16.04 31.56C14.0133 31.56 12.16 31.4533 10.48 31.24L9.56 31.12C9.10667 31.12 8.72 31.28 8.4 31.6C8.08 31.8933 7.6 32.04 6.96 32.04L3.36 31.8C2.02667 31.8 1.36 31.64 1.36 31.32V31.24C1.49333 30.7867 1.56 30.0667 1.56 29.08L1.36 25.72V25.68C1.36 25.5467 1.61333 25.2933 2.12 24.92C2.62667 24.5467 2.88 24.2133 2.88 23.92C2.88 23.6267 2.76 23.3467 2.52 23.08C2.28 22.8133 1.90667 22.6 1.4 22.44C1.34667 22.28 1.32 22.12 1.32 21.96L1.56 20.36C1.61333 19.9867 1.64 19.64 1.64 19.32L1.28 12.92C1.28 12.84 1.38667 12.72 1.6 12.56C2 12.2667 2.2 12.0133 2.2 11.8L2 10.92C1.84 10.76 1.64 10.6267 1.4 10.52C1 10.3867 0.8 10.2533 0.8 10.12C0.8 9.96 0.946667 9.50667 1.24 8.76C1.56 8.01333 1.72 7.54667 1.72 7.36L1.04 3.84C1.04 3.62667 1.61333 3.10667 2.76 2.28C3.90667 1.42667 4.85333 0.999999 5.6 0.999999C6.37333 0.999999 7.34667 1.09333 8.52 1.28C9.72 1.46667 10.32 1.65333 10.32 1.84C10.32 2.16 10.2133 3.01333 10 4.4C9.81333 5.76 9.65333 6.48 9.52 6.56C8.88 6.88 8.56 7.22667 8.56 7.6C8.56 7.94667 8.76 8.30667 9.16 8.68C9.58667 9.02667 9.8 9.25333 9.8 9.36V9.4C9.58667 12.36 9.48 14.4 9.48 15.52C9.48 16.6133 9.49333 17.2533 9.52 17.44C9.57333 17.6 9.70667 17.8 9.92 18.04C10.16 18.28 10.28 18.4667 10.28 18.6C10.28 18.7333 10.1333 19.0133 9.84 19.44C9.57333 19.84 9.44 20.2133 9.44 20.56C9.52 21.3867 9.56 22.04 9.56 22.52C9.56 22.9733 9.53333 23.2267 9.48 23.28C8.54667 24.2133 8.08 25.0133 8.08 25.68C8.08 25.8133 8.14667 26 8.28 26.24C8.41333 26.48 8.52 26.6 8.6 26.6C8.70667 26.6 9.01333 26.4133 9.52 26.04C10.0267 25.64 10.4133 25.44 10.68 25.44H10.8C11.7067 25.6267 12.56 25.72 13.36 25.72C14.16 25.72 14.68 25.6 14.92 25.36C15.8267 24.4533 16.5467 23.3867 17.08 22.16C17.2133 21.84 17.32 21.68 17.4 21.68C18.1467 21.68 18.8267 22 19.44 22.64C20.08 23.28 20.4 23.8133 20.4 24.24C20.24 25.0667 20.0267 25.64 19.76 25.96C19.52 26.2533 19.4 26.4933 19.4 26.68ZM32.9506 16.68L32.4706 15.92C32.4706 15.8933 32.4973 15.8533 32.5506 15.8C32.6306 15.72 32.7106 15.5867 32.7906 15.4C32.8973 15.2133 33.004 14.9733 33.1106 14.68C33.3506 14.0133 33.4706 12.9467 33.4706 11.48C33.4706 11.4533 33.2973 11.3067 32.9506 11.04C32.604 10.7467 32.4306 10.5333 32.4306 10.4C32.4306 10.16 32.6573 9.53333 33.1106 8.52L33.3506 8.04C33.3506 7.72 33.1906 7.41333 32.8706 7.12C32.5506 6.82667 32.2306 6.61333 31.9106 6.48L31.4706 6.28C30.3506 7.21333 29.7906 7.90667 29.7906 8.36L30.0306 11C29.524 11.4533 29.2706 11.7867 29.2706 12C29.2706 12.2133 29.2973 12.3467 29.3506 12.4C29.7506 12.7733 29.9506 13.0533 29.9506 13.24C29.9506 13.4 29.9106 13.52 29.8306 13.6C29.7773 13.6533 29.7506 13.8667 29.7506 14.24L29.7906 16C29.7906 16.5867 29.7506 16.96 29.6706 17.12C30.0706 17.5733 30.4173 17.8 30.7106 17.8C31.0306 17.8 31.484 17.6667 32.0706 17.4C32.6573 17.1333 32.9506 16.8933 32.9506 16.68ZM40.9506 11.04L40.8306 13.64C40.8306 14.0933 40.8706 14.4533 40.9506 14.72V14.84C40.9506 15.3733 40.4173 16.3733 39.3506 17.84C38.284 19.28 37.5906 20 37.2706 20C36.9773 20 36.3506 20.36 35.3906 21.08C34.4573 21.7733 33.9906 22.2267 33.9906 22.44C33.9906 22.6 33.2706 22.8 31.8306 23.04C30.4173 23.2533 29.7106 23.3867 29.7106 23.44C29.7106 26.08 29.924 28.1867 30.3506 29.76L30.5506 30.52C30.5506 30.7067 30.1373 31 29.3106 31.4C28.5106 31.7733 28.044 32.0267 27.9106 32.16C27.6173 32.4533 26.9906 32.68 26.0306 32.84C25.5506 32.84 24.6173 32.6667 23.2306 32.32C21.844 31.9733 21.1506 31.6667 21.1506 31.4C21.444 30.7867 21.6973 29.3333 21.9106 27.04L21.9906 25.84C21.9906 25.8133 22.044 25.76 22.1506 25.68C22.524 25.4933 22.7106 25.2133 22.7106 24.84C22.7106 24.44 22.4706 24.0933 21.9906 23.8C21.5373 23.48 21.3106 23.2933 21.3106 23.24C21.3106 22.92 21.4973 22.4267 21.8706 21.76L22.0706 21.4L22.1506 18.64C22.1506 17.7333 22.1106 17.24 22.0306 17.16C21.9506 17.08 21.9106 16.9867 21.9106 16.88L22.3906 14.88C22.444 14.5067 22.4706 14.08 22.4706 13.6C22.4706 12.2133 22.3106 10.48 21.9906 8.4L21.7906 7.28L22.3506 6.36C22.3506 5.88 22.004 4.93333 21.3106 3.52L20.9506 2.76C22.444 1.45333 23.8173 0.799999 25.0706 0.799999C26.804 0.986665 27.724 1.14666 27.8306 1.28C28.0973 1.57333 28.3773 2.21333 28.6706 3.2L28.8306 3.72C29.0173 3.85333 29.164 3.92 29.2706 3.92C29.3773 3.92 29.444 3.89333 29.4706 3.84C30.244 2.74666 30.724 1.94666 30.9106 1.44C32.4306 1.36 33.5373 1.32 34.2306 1.32L34.6706 1.36H34.7506C35.0973 1.41333 35.6573 1.57333 36.4306 1.84C37.204 2.08 37.6706 2.28 37.8306 2.44C38.6573 3.26667 39.4573 4.56 40.2306 6.32C40.4973 6.90667 40.6706 7.22667 40.7506 7.28V7.32C40.7506 7.4 40.5373 7.68 40.1106 8.16C39.7106 8.61333 39.5106 8.90667 39.5106 9.04V9.08C39.5106 9.34667 39.6173 9.57333 39.8306 9.76C40.044 9.92 40.2973 10 40.5906 10C40.8306 10 40.9506 10.3467 40.9506 11.04Z" fill="black"/>
</svg>
