<svg width="307" height="301" viewBox="0 0 307 301" fill="none" xmlns="http://www.w3.org/2000/svg">
<g clip-path="url(#clip0)">
<path d="M77.3186 161.824C80.6911 161.824 83.425 157.979 83.425 153.236C83.425 148.493 80.6911 144.648 77.3186 144.648C73.946 144.648 71.2121 148.493 71.2121 153.236C71.2121 157.979 73.946 161.824 77.3186 161.824Z" fill="#F2F2F2"/>
<path d="M56.4206 257.464C58.5107 257.464 60.205 255.081 60.205 252.141C60.205 249.202 58.5107 246.819 56.4206 246.819C54.3305 246.819 52.6361 249.202 52.6361 252.141C52.6361 255.081 54.3305 257.464 56.4206 257.464Z" fill="#F2F2F2"/>
<path d="M172.49 10.0305H126.05V10.9635H172.49V10.0305Z" fill="#F2F2F2"/>
<path d="M139.319 1.63287H138.655V10.2637H139.319V1.63287Z" fill="#F2F2F2"/>
<path d="M159.553 1.63287H158.89V10.2637H159.553V1.63287Z" fill="#F2F2F2"/>
<path d="M247.457 235.833H201.017V236.766H247.457V235.833Z" fill="#F2F2F2"/>
<path d="M214.286 227.435H213.623V236.066H214.286V227.435Z" fill="#F2F2F2"/>
<path d="M234.521 227.435H233.857V236.066H234.521V227.435Z" fill="#F2F2F2"/>
<path d="M249.779 93.5399H203.339V94.473H249.779V93.5399Z" fill="#F2F2F2"/>
<path d="M216.608 85.1423H215.945V93.7732H216.608V85.1423Z" fill="#F2F2F2"/>
<path d="M236.843 85.1423H236.179V93.7732H236.843V85.1423Z" fill="#F2F2F2"/>
<path d="M249.779 59.9495H203.339V60.8826H249.779V59.9495Z" fill="#F2F2F2"/>
<path d="M216.608 51.5519H215.945V60.1828H216.608V51.5519Z" fill="#F2F2F2"/>
<path d="M236.843 51.5519H236.179V60.1828H236.843V51.5519Z" fill="#F2F2F2"/>
<path d="M147.943 64.6149H101.503V65.5479H147.943V64.6149Z" fill="#F2F2F2"/>
<path d="M114.772 56.2173H114.109V64.8481H114.772V56.2173Z" fill="#F2F2F2"/>
<path d="M135.006 56.2173H134.343V64.8481H135.006V56.2173Z" fill="#F2F2F2"/>
<path d="M114.109 42.6878H67.6686V43.6209H114.109V42.6878Z" fill="#F2F2F2"/>
<path d="M80.9371 34.2902H80.2737V42.9211H80.9371V34.2902Z" fill="#F2F2F2"/>
<path d="M101.172 34.2902H100.508V42.9211H101.172V34.2902Z" fill="#F2F2F2"/>
<path d="M93.2106 128.996H46.7706V129.93H93.2106V128.996Z" fill="#F2F2F2"/>
<path d="M60.0392 120.599H59.3757V129.23H60.0392V120.599Z" fill="#F2F2F2"/>
<path d="M80.2737 120.599H79.6103V129.23H80.2737V120.599Z" fill="#F2F2F2"/>
<path d="M69.9906 224.169H23.5507V225.102H69.9906V224.169Z" fill="#F2F2F2"/>
<path d="M36.8192 215.772H36.1558V224.403H36.8192V215.772Z" fill="#F2F2F2"/>
<path d="M57.0537 215.772H56.3903V224.403H57.0537V215.772Z" fill="#F2F2F2"/>
<path d="M243.145 125.964H242.482V134.595H243.145V125.964Z" fill="#F2F2F2"/>
<path d="M51.0829 55.2842H4.64301V56.2172H51.0829V55.2842Z" fill="#F2F2F2"/>
<path d="M38.4778 55.984H37.8144V64.6148H38.4778V55.984Z" fill="#F2F2F2"/>
<path d="M18.2433 55.984H17.5798V64.6148H18.2433V55.984Z" fill="#F2F2F2"/>
<path d="M54.0683 177.516H7.62842V178.449H54.0683V177.516Z" fill="#F2F2F2"/>
<path d="M41.4632 178.216H40.7998V186.847H41.4632V178.216Z" fill="#F2F2F2"/>
<path d="M21.2287 178.216H20.5652V186.847H21.2287V178.216Z" fill="#F2F2F2"/>
<path d="M200.354 24.9595H153.914V25.8926H200.354V24.9595Z" fill="#F2F2F2"/>
<path d="M187.749 25.6593H187.086V34.2902H187.749V25.6593Z" fill="#F2F2F2"/>
<path d="M167.514 25.6593H166.851V34.2902H167.514V25.6593Z" fill="#F2F2F2"/>
<path d="M69.9906 89.8076H23.5507V90.7407H69.9906V89.8076Z" fill="#F2F2F2"/>
<path d="M36.8192 81.41H36.1558V90.0409H36.8192V81.41Z" fill="#F2F2F2"/>
<path d="M57.0537 81.41H56.3903V90.0409H57.0537V81.41Z" fill="#F2F2F2"/>
<path d="M77.4542 80.7102V300.447H222.081V80.7102H77.4542ZM149.768 96.5724C148.784 96.5724 147.822 96.1619 147.003 95.393C146.185 94.624 145.547 93.5311 145.171 92.2524C144.794 90.9737 144.696 89.5666 144.888 88.2091C145.08 86.8517 145.554 85.6047 146.249 84.626C146.945 83.6473 147.832 82.9809 148.797 82.7108C149.762 82.4408 150.763 82.5794 151.672 83.1091C152.581 83.6387 153.358 84.5357 153.905 85.6865C154.452 86.8373 154.743 88.1903 154.743 89.5744C154.743 91.4304 154.219 93.2103 153.286 94.5227C152.353 95.8351 151.087 96.5724 149.768 96.5724Z" fill="#3F3D56"/>
<path d="M12.358 281.692C14.6514 293.615 22.5071 301 22.5071 301C22.5071 301 26.6442 289.052 24.3508 277.129C22.0573 265.205 14.2017 257.82 14.2017 257.82C14.2017 257.82 10.0645 269.768 12.358 281.692Z" fill="#3F3D56"/>
<path d="M15.7281 279.129C22.0214 287.745 22.79 300.99 22.79 300.99C22.79 300.99 13.3553 300.266 7.06197 291.65C0.768679 283.033 0 269.788 0 269.788C0 269.788 9.43477 270.513 15.7281 279.129Z" fill="#6C63FF"/>
<path d="M307 299.981H5.47229V300.914H307V299.981Z" fill="#3F3D56"/>
<path d="M63.688 271.214C63.6862 269.146 63.241 267.127 62.4107 265.421C61.5803 263.715 60.4034 262.4 59.0337 261.65C60.6203 260.782 61.9414 259.163 62.7685 257.07C63.5957 254.978 63.8767 252.545 63.5631 250.192C63.2494 247.839 62.3608 245.714 61.0509 244.185C59.7411 242.656 58.0925 241.819 56.3903 241.819C54.6881 241.819 53.0395 242.656 51.7297 244.185C50.4198 245.714 49.5312 247.839 49.2176 250.192C48.9039 252.545 49.185 254.978 50.0121 257.07C50.8392 259.163 52.1603 260.782 53.7469 261.65C52.3761 262.398 51.1982 263.712 50.3676 265.419C49.537 267.125 49.0926 269.145 49.0926 271.214C49.0926 273.282 49.537 275.302 50.3676 277.008C51.1982 278.715 52.3761 280.029 53.7469 280.778C52.1603 281.645 50.8392 283.265 50.0121 285.357C49.185 287.449 48.9039 289.883 49.2176 292.236C49.5312 294.589 50.4198 296.713 51.7297 298.242C53.0395 299.771 54.6881 300.608 56.3903 300.608C58.0925 300.608 59.7411 299.771 61.0509 298.242C62.3608 296.713 63.2494 294.589 63.5631 292.236C63.8767 289.883 63.5957 287.449 62.7685 285.357C61.9414 283.265 60.6203 281.645 59.0337 280.778C60.4034 280.027 61.5803 278.712 62.4107 277.006C63.241 275.3 63.6862 273.281 63.688 271.214ZM49.756 252.086C49.755 250.33 50.106 248.61 50.7689 247.123C51.4317 245.635 52.3795 244.441 53.5032 243.677C54.627 242.913 55.8812 242.611 57.1217 242.804C58.3622 242.998 59.5388 243.679 60.5162 244.771C61.4936 245.863 62.2322 247.32 62.6472 248.976C63.0622 250.631 63.1366 252.418 62.8621 254.13C62.5875 255.843 61.9751 257.412 61.0951 258.656C60.2151 259.901 59.1033 260.772 57.8873 261.168C56.9 260.877 55.8806 260.877 54.8933 261.168C53.4342 260.691 52.1326 259.534 51.2 257.885C50.2674 256.236 49.7585 254.193 49.756 252.086ZM63.0246 290.341C63.0256 292.097 62.6746 293.817 62.0117 295.305C61.3489 296.792 60.4011 297.986 59.2774 298.75C58.1536 299.514 56.8994 299.817 55.6589 299.623C54.4184 299.43 53.2418 298.748 52.2644 297.656C51.287 296.564 50.5484 295.107 50.1334 293.451C49.7185 291.796 49.644 290.009 49.9185 288.297C50.1931 286.584 50.8055 285.016 51.6855 283.771C52.5655 282.526 53.6774 281.655 54.8933 281.259C55.8806 281.55 56.9 281.55 57.8873 281.259C59.3464 281.736 60.648 282.893 61.5806 284.542C62.5132 286.191 63.0221 288.235 63.0246 290.341ZM57.8873 280.296C56.9 280.005 55.8806 280.005 54.8933 280.296C53.433 279.822 52.13 278.666 51.197 277.016C50.264 275.367 49.756 273.321 49.756 271.214C49.756 269.106 50.264 267.06 51.197 265.411C52.13 263.761 53.433 262.605 54.8933 262.131C55.8806 262.422 56.9 262.422 57.8873 262.131C59.3476 262.605 60.6506 263.761 61.5836 265.411C62.5166 267.06 63.0246 269.106 63.0246 271.214C63.0246 273.321 62.5166 275.367 61.5836 277.016C60.6506 278.666 59.3476 279.822 57.8873 280.296Z" fill="#3F3D56"/>
<path d="M169.505 126.664H93.5423C92.9264 126.664 92.3358 126.32 91.9004 125.707C91.4649 125.095 91.2203 124.264 91.2203 123.398C91.2203 122.532 91.4649 121.701 91.9004 121.089C92.3358 120.476 92.9264 120.132 93.5423 120.132H169.505C170.121 120.132 170.711 120.476 171.147 121.089C171.582 121.701 171.827 122.532 171.827 123.398C171.827 124.264 171.582 125.095 171.147 125.707C170.711 126.32 170.121 126.664 169.505 126.664Z" fill="#F2F2F2"/>
<path d="M169.505 160.254H93.5423C92.9264 160.254 92.3358 159.91 91.9004 159.298C91.4649 158.685 91.2203 157.855 91.2203 156.988C91.2203 156.122 91.4649 155.292 91.9004 154.679C92.3358 154.067 92.9264 153.723 93.5423 153.723H169.505C170.121 153.723 170.711 154.067 171.147 154.679C171.582 155.292 171.827 156.122 171.827 156.988C171.827 157.855 171.582 158.685 171.147 159.298C170.711 159.91 170.121 160.254 169.505 160.254Z" fill="#F2F2F2"/>
<path d="M169.505 193.845H93.5423C92.9264 193.845 92.3358 193.501 91.9004 192.888C91.4649 192.276 91.2203 191.445 91.2203 190.579C91.2203 189.713 91.4649 188.882 91.9004 188.27C92.3358 187.657 92.9264 187.313 93.5423 187.313H169.505C170.121 187.313 170.711 187.657 171.147 188.27C171.582 188.882 171.827 189.713 171.827 190.579C171.827 191.445 171.582 192.276 171.147 192.888C170.711 193.501 170.121 193.845 169.505 193.845Z" fill="#F2F2F2"/>
<path d="M169.505 227.435H93.5423C92.9264 227.435 92.3358 227.091 91.9004 226.478C91.4649 225.866 91.2203 225.035 91.2203 224.169C91.2203 223.303 91.4649 222.472 91.9004 221.86C92.3358 221.248 92.9264 220.903 93.5423 220.903H169.505C170.121 220.903 170.711 221.248 171.147 221.86C171.582 222.472 171.827 223.303 171.827 224.169C171.827 225.035 171.582 225.866 171.147 226.478C170.711 227.091 170.121 227.435 169.505 227.435Z" fill="#F2F2F2"/>
<path d="M169.505 261.025H93.5423C92.9264 261.025 92.3358 260.681 91.9004 260.069C91.4649 259.456 91.2203 258.626 91.2203 257.76C91.2203 256.893 91.4649 256.063 91.9004 255.45C92.3358 254.838 92.9264 254.494 93.5423 254.494H169.505C170.121 254.494 170.711 254.838 171.147 255.45C171.582 256.063 171.827 256.893 171.827 257.76C171.827 258.626 171.582 259.456 171.147 260.069C170.711 260.681 170.121 261.025 169.505 261.025Z" fill="#F2F2F2"/>
<path d="M156.236 126.664H93.2105C92.5947 126.664 92.0041 126.32 91.5686 125.707C91.1332 125.095 90.8885 124.264 90.8885 123.398C90.8885 122.532 91.1332 121.701 91.5686 121.089C92.0041 120.476 92.5947 120.132 93.2105 120.132H156.236C156.852 120.132 157.443 120.476 157.878 121.089C158.313 121.701 158.558 122.532 158.558 123.398C158.558 124.264 158.313 125.095 157.878 125.707C157.443 126.32 156.852 126.664 156.236 126.664Z" fill="#6C63FF"/>
<path d="M136.665 160.254H93.2105C92.5947 160.254 92.0041 159.91 91.5686 159.298C91.1332 158.685 90.8885 157.855 90.8885 156.988C90.8885 156.122 91.1332 155.292 91.5686 154.679C92.0041 154.067 92.5947 153.723 93.2105 153.723H136.665C137.281 153.723 137.871 154.067 138.307 154.679C138.742 155.292 138.987 156.122 138.987 156.988C138.987 157.855 138.742 158.685 138.307 159.298C137.871 159.91 137.281 160.254 136.665 160.254Z" fill="#6C63FF"/>
<path d="M112.782 193.845H93.2105C92.5947 193.845 92.0041 193.501 91.5686 192.888C91.1332 192.276 90.8885 191.445 90.8885 190.579C90.8885 189.713 91.1332 188.882 91.5686 188.27C92.0041 187.657 92.5947 187.313 93.2105 187.313H112.782C113.397 187.313 113.988 187.657 114.424 188.27C114.859 188.882 115.104 189.713 115.104 190.579C115.104 191.445 114.859 192.276 114.424 192.888C113.988 193.501 113.397 193.845 112.782 193.845Z" fill="#6C63FF"/>
<path d="M162.207 227.435H93.2105C92.5947 227.435 92.0041 227.091 91.5686 226.478C91.1332 225.866 90.8885 225.035 90.8885 224.169C90.8885 223.303 91.1332 222.472 91.5686 221.86C92.0041 221.248 92.5947 220.903 93.2105 220.903H162.207C162.823 220.903 163.413 221.248 163.849 221.86C164.284 222.472 164.529 223.303 164.529 224.169C164.529 225.035 164.284 225.866 163.849 226.478C163.413 227.091 162.823 227.435 162.207 227.435Z" fill="#6C63FF"/>
<path d="M146.948 261.025H93.2105C92.5947 261.025 92.0041 260.681 91.5686 260.069C91.1332 259.456 90.8885 258.626 90.8885 257.76C90.8885 256.893 91.1332 256.063 91.5686 255.45C92.0041 254.838 92.5947 254.494 93.2105 254.494H146.948C147.564 254.494 148.155 254.838 148.59 255.45C149.026 256.063 149.27 256.893 149.27 257.76C149.27 258.626 149.026 259.456 148.59 260.069C148.155 260.681 147.564 261.025 146.948 261.025Z" fill="#6C63FF"/>
<path d="M201.018 120.132H200.354V126.664H201.018V120.132Z" fill="#6C63FF"/>
<path d="M205.993 127.13C205.468 127.13 204.955 126.911 204.519 126.501C204.082 126.091 203.742 125.508 203.541 124.826C203.341 124.144 203.288 123.394 203.39 122.67C203.493 121.946 203.746 121.281 204.117 120.759C204.488 120.237 204.961 119.881 205.475 119.737C205.99 119.593 206.524 119.667 207.009 119.95C207.494 120.232 207.908 120.711 208.2 121.325C208.491 121.938 208.647 122.66 208.647 123.398C208.646 124.388 208.366 125.336 207.869 126.036C207.371 126.736 206.697 127.129 205.993 127.13ZM205.993 120.599C205.6 120.599 205.215 120.763 204.887 121.071C204.56 121.378 204.305 121.815 204.154 122.327C204.004 122.838 203.964 123.401 204.041 123.944C204.118 124.487 204.308 124.986 204.586 125.377C204.864 125.769 205.219 126.035 205.605 126.143C205.991 126.251 206.391 126.196 206.755 125.984C207.119 125.772 207.429 125.414 207.648 124.953C207.867 124.493 207.983 123.952 207.983 123.398C207.983 122.656 207.773 121.944 207.4 121.42C207.027 120.895 206.521 120.6 205.993 120.599Z" fill="#6C63FF"/>
<path d="M201.018 153.723H200.354V160.254H201.018V153.723Z" fill="#6C63FF"/>
<path d="M205.993 160.721C205.468 160.721 204.955 160.502 204.519 160.092C204.082 159.682 203.742 159.099 203.541 158.417C203.341 157.735 203.288 156.984 203.39 156.26C203.493 155.536 203.746 154.871 204.117 154.349C204.488 153.827 204.961 153.472 205.475 153.328C205.99 153.184 206.524 153.258 207.009 153.54C207.494 153.823 207.908 154.301 208.2 154.915C208.491 155.529 208.647 156.25 208.647 156.988C208.646 157.978 208.366 158.927 207.869 159.626C207.371 160.326 206.697 160.72 205.993 160.721ZM205.993 154.189C205.6 154.189 205.215 154.353 204.887 154.661C204.56 154.969 204.305 155.406 204.154 155.917C204.004 156.429 203.964 156.992 204.041 157.535C204.118 158.078 204.308 158.576 204.586 158.968C204.864 159.359 205.219 159.626 205.605 159.734C205.991 159.842 206.391 159.786 206.755 159.575C207.119 159.363 207.429 159.004 207.648 158.544C207.867 158.083 207.983 157.542 207.983 156.988C207.983 156.246 207.773 155.535 207.4 155.01C207.027 154.485 206.521 154.19 205.993 154.189Z" fill="#6C63FF"/>
<path d="M201.018 187.313H200.354V193.845H201.018V187.313Z" fill="#6C63FF"/>
<path d="M205.993 194.311C205.468 194.311 204.955 194.092 204.519 193.682C204.082 193.272 203.742 192.689 203.541 192.007C203.341 191.325 203.288 190.575 203.39 189.851C203.493 189.127 203.746 188.462 204.117 187.94C204.488 187.418 204.961 187.062 205.475 186.918C205.99 186.774 206.524 186.848 207.009 187.131C207.494 187.413 207.908 187.892 208.2 188.505C208.491 189.119 208.647 189.841 208.647 190.579C208.646 191.568 208.366 192.517 207.869 193.217C207.371 193.916 206.697 194.31 205.993 194.311ZM205.993 187.78C205.6 187.78 205.215 187.944 204.887 188.251C204.56 188.559 204.305 188.996 204.154 189.508C204.004 190.019 203.964 190.582 204.041 191.125C204.118 191.668 204.308 192.167 204.586 192.558C204.864 192.95 205.219 193.216 205.605 193.324C205.991 193.432 206.391 193.377 206.755 193.165C207.119 192.953 207.429 192.594 207.648 192.134C207.867 191.674 207.983 191.132 207.983 190.579C207.983 189.837 207.773 189.125 207.4 188.6C207.027 188.076 206.521 187.78 205.993 187.78Z" fill="#6C63FF"/>
<path d="M201.018 220.903H200.354V227.435H201.018V220.903Z" fill="#6C63FF"/>
<path d="M205.993 227.902C205.468 227.902 204.955 227.683 204.519 227.273C204.082 226.862 203.742 226.279 203.541 225.598C203.341 224.916 203.288 224.165 203.39 223.441C203.493 222.717 203.746 222.052 204.117 221.53C204.488 221.008 204.961 220.653 205.475 220.509C205.99 220.365 206.524 220.439 207.009 220.721C207.494 221.004 207.908 221.482 208.2 222.096C208.491 222.709 208.647 223.431 208.647 224.169C208.646 225.159 208.366 226.107 207.869 226.807C207.371 227.507 206.697 227.9 205.993 227.902ZM205.993 221.37C205.6 221.37 205.215 221.534 204.887 221.842C204.56 222.149 204.305 222.587 204.154 223.098C204.004 223.61 203.964 224.172 204.041 224.715C204.118 225.258 204.308 225.757 204.586 226.149C204.864 226.54 205.219 226.807 205.605 226.915C205.991 227.023 206.391 226.967 206.755 226.755C207.119 226.543 207.429 226.185 207.648 225.724C207.867 225.264 207.983 224.723 207.983 224.169C207.983 223.427 207.773 222.716 207.4 222.191C207.027 221.666 206.521 221.371 205.993 221.37Z" fill="#6C63FF"/>
<path d="M201.018 254.494H200.354V261.025H201.018V254.494Z" fill="#6C63FF"/>
<path d="M205.993 261.492C205.468 261.492 204.955 261.273 204.519 260.863C204.082 260.453 203.742 259.87 203.541 259.188C203.341 258.506 203.288 257.755 203.39 257.031C203.493 256.307 203.746 255.642 204.117 255.121C204.488 254.599 204.961 254.243 205.475 254.099C205.99 253.955 206.524 254.029 207.009 254.311C207.494 254.594 207.908 255.072 208.2 255.686C208.491 256.3 208.647 257.021 208.647 257.76C208.646 258.749 208.366 259.698 207.869 260.397C207.371 261.097 206.697 261.491 205.993 261.492ZM205.993 254.96C205.6 254.96 205.215 255.125 204.887 255.432C204.56 255.74 204.305 256.177 204.154 256.688C204.004 257.2 203.964 257.763 204.041 258.306C204.118 258.849 204.308 259.347 204.586 259.739C204.864 260.13 205.219 260.397 205.605 260.505C205.991 260.613 206.391 260.558 206.755 260.346C207.119 260.134 207.429 259.775 207.648 259.315C207.867 258.854 207.983 258.313 207.983 257.76C207.983 257.017 207.773 256.306 207.4 255.781C207.027 255.256 206.521 254.961 205.993 254.96Z" fill="#6C63FF"/>
<path d="M205.993 125.264C206.726 125.264 207.32 124.429 207.32 123.398C207.32 122.367 206.726 121.532 205.993 121.532C205.26 121.532 204.666 122.367 204.666 123.398C204.666 124.429 205.26 125.264 205.993 125.264Z" fill="#6C63FF"/>
<path d="M205.993 226.035C206.726 226.035 207.32 225.2 207.32 224.169C207.32 223.139 206.726 222.303 205.993 222.303C205.26 222.303 204.666 223.139 204.666 224.169C204.666 225.2 205.26 226.035 205.993 226.035Z" fill="#6C63FF"/>
<path d="M205.993 259.626C206.726 259.626 207.32 258.79 207.32 257.76C207.32 256.729 206.726 255.893 205.993 255.893C205.26 255.893 204.666 256.729 204.666 257.76C204.666 258.79 205.26 259.626 205.993 259.626Z" fill="#6C63FF"/>
<path d="M149.768 92.8401C151.05 92.8401 152.09 91.378 152.09 89.5744C152.09 87.7708 151.05 86.3087 149.768 86.3087C148.485 86.3087 147.446 87.7708 147.446 89.5744C147.446 91.378 148.485 92.8401 149.768 92.8401Z" fill="#3F3D56"/>
<path d="M149.768 6.53147C151.05 6.53147 152.09 5.06935 152.09 3.26573C152.09 1.46212 151.05 0 149.768 0C148.485 0 147.446 1.46212 147.446 3.26573C147.446 5.06935 148.485 6.53147 149.768 6.53147Z" fill="#3F3D56"/>
<path d="M150.099 3.26569H149.436V89.5743H150.099V3.26569Z" fill="#3F3D56"/>
</g>
<defs>
<clipPath id="clip0">
<rect width="307" height="301" fill="white"/>
</clipPath>
</defs>
</svg>
