<svg width="487" height="386" viewBox="0 0 487 386" fill="none" xmlns="http://www.w3.org/2000/svg">
<path d="M108.198 217.023C108.198 217.023 112.569 213.422 117.091 215.647C117.091 215.647 115.827 218.739 110.192 218.7L108.198 217.023Z" fill="#6C63FF"/>
<path d="M107.654 217.232C107.654 217.232 106.487 223.265 110.044 227.181C110.044 227.181 112.017 224.627 109.774 218.686L107.654 217.232Z" fill="#6C63FF"/>
<path d="M101.875 211.741C101.875 211.741 102.036 206.647 112.067 207.893C112.067 207.893 112.223 211.169 108.775 212.875C105.327 214.581 103.675 213.355 101.875 211.741Z" fill="#6C63FF"/>
<path d="M101.256 211.731C101.256 211.731 97.0873 213.476 101.209 224.07C101.209 224.07 103.966 223.231 104.316 218.933C104.666 214.634 103.14 213.214 101.256 211.731Z" fill="#6C63FF"/>
<path d="M95.3675 204.777C95.3675 204.777 94.5245 196.441 104.742 196.848C104.742 196.848 105.715 204.384 97.2348 206.705L95.3675 204.777Z" fill="#6C63FF"/>
<path d="M88.3159 195.636C88.3159 195.636 89.3992 186.104 99.6963 188.474C99.6963 188.474 100.008 196.664 90.0694 197.822L88.3159 195.636Z" fill="#6C63FF"/>
<path d="M83.0683 186.094C83.0683 186.094 85.0999 176.745 95.2917 179.081C95.2917 179.081 93.1842 187.49 83.7975 187.771L83.0683 186.094Z" fill="#6C63FF"/>
<path d="M78.0736 176.775C78.0736 176.775 80.042 167.082 89.8755 169.544C89.8755 169.544 86.925 178.786 78.7606 178.379L78.0736 176.775Z" fill="#6C63FF"/>
<path d="M74.7564 167.857C74.7564 167.857 76.1263 156.066 85.2938 158.257C85.2938 158.257 83.0093 169.03 75.473 169.529L74.7564 167.857Z" fill="#6C63FF"/>
<path d="M71.5657 157.045C71.5657 157.045 73.2812 145.147 82.5878 148.176C82.5878 148.176 79.3507 159.493 72.2612 158.649L71.5657 157.045Z" fill="#6C63FF"/>
<path d="M69.4751 146.96C69.4751 146.96 72.4255 135.009 79.5573 135.014C79.5573 135.014 76.5436 147.614 70.1495 149.301L69.4751 146.96Z" fill="#6C63FF"/>
<path d="M68.0336 137.064C68.0336 137.064 71.2074 122.69 77.0325 123.533C77.0325 123.533 74.8702 134.505 68.3118 139.269L68.0336 137.064Z" fill="#6C63FF"/>
<path d="M67.0093 125.229C67.0093 125.229 70.0315 113.239 75.7301 112.512C75.7301 112.512 73.7912 124.265 67.237 128.302L67.0093 125.229Z" fill="#6C63FF"/>
<path d="M65.9472 114.218C65.9472 114.218 69.8165 102.175 73.5847 101.739C73.5847 101.739 72.1221 113.491 66.3897 116.147L65.9472 114.218Z" fill="#6C63FF"/>
<path d="M65.1337 103.954C65.1337 103.954 67.3255 90.9606 71.0599 89.7297C71.0599 89.7297 70.8955 100.28 65.5425 104.899L65.1337 103.954Z" fill="#6C63FF"/>
<path d="M63.2665 90.5584C63.2665 90.5584 65.6816 80.1776 68.6827 78.4765C68.6827 78.4765 68.4804 90.5923 64.0462 93.0155L63.2665 90.5584Z" fill="#6C63FF"/>
<path d="M61.7912 81.7672L60.6321 63.7001C60.6321 63.7001 66.7859 77.105 62.3181 84.9415L61.7912 81.7672Z" fill="#6C63FF"/>
<path d="M56.7754 63.9812C56.7754 63.9812 52.2275 50.9494 51.2159 50.2564C51.2159 50.2564 59.5615 58.4951 59.14 69.535L56.7754 63.9812Z" fill="#6C63FF"/>
<path d="M95.0894 204.728C95.0894 204.728 87.8186 203.958 88.4297 215.695C88.4297 215.695 95.0051 216.631 96.8133 206.822L95.0894 204.728Z" fill="#6C63FF"/>
<path d="M87.9661 195.336C87.9661 195.336 79.612 195.67 80.6911 207.665C80.6911 207.665 87.7511 208.799 89.6942 197.531L87.9661 195.336Z" fill="#6C63FF"/>
<path d="M83.0135 186.879C83.0135 186.879 75.2917 183.123 70.7901 193.892C70.7901 193.892 77.9092 196.989 83.7385 188.561L83.0135 186.879Z" fill="#6C63FF"/>
<path d="M77.905 176.871C77.905 176.871 69.9977 172.859 65.7786 183.375C65.7786 183.375 73.9766 186.22 78.6004 178.471L77.905 176.871Z" fill="#6C63FF"/>
<path d="M74.8618 168.104C74.8618 168.104 67.1147 160.224 61.4287 168.793C61.4287 168.793 69.2896 175.209 75.2664 169.917L74.8618 168.104Z" fill="#6C63FF"/>
<path d="M71.9788 156.745C71.9788 156.745 64.1811 148.68 58.5541 157.714C58.5541 157.714 67.2243 164.232 72.3075 158.484L71.9788 156.745Z" fill="#6C63FF"/>
<path d="M70.2338 146.577C70.2338 146.577 64.0926 136.351 57.3487 138.988C57.3487 138.988 63.7301 149.824 70.2506 149.044L70.2338 146.577Z" fill="#6C63FF"/>
<path d="M68.2064 136.991C68.2064 136.991 61.9219 124.042 56.4846 126.576C56.4846 126.576 61.0283 136.54 68.4256 139.201L68.2064 136.991Z" fill="#6C63FF"/>
<path d="M67.3845 124.536C67.3845 124.536 61.0367 114.407 55.4604 115.924C55.4604 115.924 60.7164 126.247 68.0673 127.521L67.3845 124.536Z" fill="#6C63FF"/>
<path d="M66.5752 113.956C66.5752 113.956 61.5383 102.5 57.7533 102.563C57.7533 102.563 60.3708 114.049 66.3265 115.929L66.5752 113.956Z" fill="#6C63FF"/>
<path d="M65.3107 103.692C65.3107 103.692 59.747 92.1092 55.8608 92.2546C55.8608 92.2546 58.845 102.238 65.1716 104.739L65.3107 103.692Z" fill="#6C63FF"/>
<path d="M64.1179 91.2272C64.1179 91.2272 59.924 81.6218 56.6869 80.6574C56.6869 80.6574 59.0178 92.4824 63.7765 93.8394L64.1179 91.2272Z" fill="#6C63FF"/>
<path d="M61.3192 81.4473L52.1769 66.6951C52.1769 66.6951 54.8871 81.5346 62.6764 84.2776L61.3192 81.4473Z" fill="#6C63FF"/>
<path d="M54.8408 65.2848C54.8408 65.2848 44.552 57.7585 44.1306 56.4839C44.1306 56.4839 49.61 67.4269 59.1611 68.9777L54.8408 65.2848Z" fill="#6C63FF"/>
<path d="M54.12 61.7276C54.12 61.7276 42.1664 49.4906 39.2243 49.636C39.2243 49.636 48.7501 49.7136 54.3982 61.0394L54.12 61.7276Z" fill="#6C63FF"/>
<path d="M64.0673 93.1657L63.6458 93.2481C60.8302 73.8386 57.2854 62.4546 53.669 61.1848L53.7912 60.7002C57.6184 62.0378 61.1843 73.257 64.0673 93.1657Z" fill="#444053"/>
<path d="M68.8091 139.632L68.1769 139.72C67.983 137.907 67.8144 136.046 67.6837 134.195C66.5415 118.081 65.1084 103.299 63.5067 92.2401L63.8566 91.7021C65.4625 102.781 67.1737 117.998 68.3202 134.137C68.4509 135.978 68.6152 137.825 68.8091 139.632Z" fill="#444053"/>
<path d="M120.35 225.785C120.236 225.732 108.872 220.488 96.8175 207.316C89.758 199.606 83.8057 190.659 79.1821 180.807C73.4034 168.492 69.6226 153.207 68.0251 138.27L68.6995 138.6C72.2822 172.127 86.3686 194.536 97.3612 206.579C109.298 219.635 120.543 224.826 120.649 224.874L120.35 225.785Z" fill="#444053"/>
<g opacity="0.7">
<path opacity="0.7" d="M125.833 186.317C125.833 186.317 130.938 184.378 134.685 188.047C134.685 188.047 132.674 190.567 127.304 188.6L125.833 186.317Z" fill="#6C63FF"/>
<path opacity="0.7" d="M125.26 186.327C125.26 186.327 122.588 191.691 124.969 196.64C124.969 196.64 127.498 194.88 126.912 188.44L125.26 186.327Z" fill="#6C63FF"/>
<path opacity="0.7" d="M121.159 179.11C121.159 179.11 122.634 174.303 131.886 178.921C131.886 178.921 131.19 182.105 127.452 182.551C123.713 182.997 122.465 181.257 121.159 179.11Z" fill="#6C63FF"/>
<path opacity="0.7" d="M120.573 178.892C120.573 178.892 116.147 179.135 117.336 190.654C117.336 190.654 120.189 190.8 121.635 186.811C123.081 182.823 121.989 180.947 120.573 178.892Z" fill="#6C63FF"/>
<path opacity="0.7" d="M116.754 170.222C116.754 170.222 118.099 161.984 127.751 165.861C127.751 165.861 126.735 173.387 118.036 172.704L116.754 170.222Z" fill="#6C63FF"/>
<path opacity="0.7" d="M112.388 159.076C112.388 159.076 115.886 150.352 125.091 156.129C125.091 156.129 123.271 164.053 113.479 161.761L112.388 159.076Z" fill="#6C63FF"/>
<path opacity="0.7" d="M109.842 148.196C109.842 148.196 114.204 139.957 123.33 145.68C123.33 145.68 119.115 152.979 110.107 150.042L109.842 148.196Z" fill="#6C63FF"/>
<path opacity="0.7" d="M107.486 137.587C107.486 137.587 111.869 129.019 120.632 134.723C120.632 134.723 115.427 142.535 107.738 139.356L107.486 137.587Z" fill="#6C63FF"/>
<path opacity="0.7" d="M106.626 127.938C106.626 127.938 110.984 117.15 119.178 122.384C119.178 122.384 114.208 131.883 106.887 129.785L106.626 127.938Z" fill="#6C63FF"/>
<path opacity="0.7" d="M106.381 116.525C106.381 116.525 111.098 105.752 119.195 111.829C119.195 111.829 113.18 121.522 106.63 118.294L106.381 116.525Z" fill="#6C63FF"/>
<path opacity="0.7" d="M107.001 106.168C107.001 106.168 112.902 95.7682 119.713 98.2107C119.713 98.2107 113.572 109.226 107.035 108.635L107.001 106.168Z" fill="#6C63FF"/>
<path opacity="0.7" d="M108.198 96.2383C108.198 96.2383 114.942 83.6039 120.291 86.4003C120.291 86.4003 115.384 96.1365 107.894 98.4385L108.198 96.2383Z" fill="#6C63FF"/>
<path opacity="0.7" d="M110.259 84.5926C110.259 84.5926 116.253 74.1778 121.875 75.433C121.875 75.433 116.986 85.9932 109.686 87.6021L110.259 84.5926Z" fill="#6C63FF"/>
<path opacity="0.7" d="M112.101 73.7126C112.101 73.7126 118.908 63.5353 122.617 64.4173C122.617 64.4173 118.179 75.1374 112.021 75.7044L112.101 73.7126Z" fill="#6C63FF"/>
<path opacity="0.7" d="M113.977 63.6371C113.977 63.6371 119.431 52.0059 123.317 52.0834C123.317 52.0834 120.425 62.1008 114.124 64.6839L113.977 63.6371Z" fill="#6C63FF"/>
<path opacity="0.7" d="M115.658 50.2079C115.658 50.2079 120.653 41.1259 123.958 40.5153C123.958 40.5153 120.628 52.0204 115.772 52.8298L115.658 50.2079Z" fill="#6C63FF"/>
<path opacity="0.7" d="M116.527 41.3101L120.097 23.6598C120.097 23.6598 122.503 38.5622 116.206 44.4989L116.527 41.3101Z" fill="#6C63FF"/>
<path opacity="0.7" d="M116.35 22.6178C116.35 22.6178 115.376 8.6216 114.592 7.59418C114.592 7.59418 120.434 18.2949 117.171 28.7145L116.35 22.6178Z" fill="#6C63FF"/>
<path opacity="0.7" d="M116.497 170.091C116.497 170.091 109.753 166.873 107.304 178.291C107.304 178.291 113.336 181.432 117.601 172.684L116.497 170.091Z" fill="#6C63FF"/>
<path opacity="0.7" d="M112.126 158.688C112.126 158.688 104.063 156.153 101.989 167.974C101.989 167.974 108.438 171.473 113.209 161.378L112.126 158.688Z" fill="#6C63FF"/>
<path opacity="0.7" d="M109.589 148.923C109.589 148.923 103.191 142.695 96.1009 151.438C96.1009 151.438 102.095 156.832 109.846 150.769L109.589 148.923Z" fill="#6C63FF"/>
<path opacity="0.7" d="M107.304 137.621C107.304 137.621 100.788 131.088 94.0441 139.681C94.0441 139.681 101.134 145.206 107.553 139.39L107.304 137.621Z" fill="#6C63FF"/>
<path opacity="0.7" d="M106.668 128.214C106.668 128.214 101.306 118.037 93.6605 124.269C93.6605 124.269 99.5066 133.09 106.584 130.085L106.668 128.214Z" fill="#6C63FF"/>
<path opacity="0.7" d="M106.853 116.38C106.853 116.38 101.492 106.013 93.7869 112.721C93.7869 112.721 100.379 121.929 106.714 118.163L106.853 116.38Z" fill="#6C63FF"/>
<path opacity="0.7" d="M107.814 106.072C107.814 106.072 104.598 94.2125 97.4792 94.4403C97.4792 94.4403 100.767 106.973 107.195 108.456L107.814 106.072Z" fill="#6C63FF"/>
<path opacity="0.7" d="M108.358 96.2286C108.358 96.2286 105.711 81.7138 99.8649 82.276C99.8649 82.276 101.627 93.345 108 98.4191L108.358 96.2286Z" fill="#6C63FF"/>
<path opacity="0.7" d="M110.803 84.0594C110.803 84.0594 107.363 72.215 101.644 71.7546C101.644 71.7546 103.991 83.41 110.68 87.1417L110.803 84.0594Z" fill="#6C63FF"/>
<path opacity="0.7" d="M112.767 73.6787C112.767 73.6787 110.921 61.0201 107.287 59.7842C107.287 59.7842 106.82 71.6432 112.017 75.4815L112.767 73.6787Z" fill="#6C63FF"/>
<path opacity="0.7" d="M114.213 63.4481C114.213 63.4481 111.899 50.4842 108.152 49.2968C108.152 49.2968 108.417 59.8473 113.812 64.398L114.213 63.4481Z" fill="#6C63FF"/>
<path opacity="0.7" d="M116.295 51.1578C116.295 51.1578 114.777 40.554 111.937 38.5234C111.937 38.5234 111.094 50.6102 115.309 53.547L116.295 51.1578Z" fill="#6C63FF"/>
<path opacity="0.7" d="M116.16 40.8254L111.245 23.6113C111.245 23.6113 109.981 38.7027 116.725 43.9901L116.16 40.8254Z" fill="#6C63FF"/>
<path opacity="0.7" d="M114.158 23.1993C114.158 23.1993 106.263 12.4841 106.204 11.132C106.204 11.132 108.619 23.4562 117.319 28.2007L114.158 23.1993Z" fill="#6C63FF"/>
<path opacity="0.7" d="M114.39 19.5598C114.39 19.5598 106.141 3.78497 103.296 2.91263C103.296 2.91263 112.366 6.25174 114.811 18.983L114.39 19.5598Z" fill="#6C63FF"/>
<path opacity="0.7" d="M115.755 52.9412L115.334 52.8734C117.665 33.3863 117.231 21.2996 114.103 18.8522L114.343 18.45C117.66 21.0524 118.145 32.9792 115.755 52.9412Z" fill="#444053"/>
<path opacity="0.7" d="M108.253 98.9813L107.625 98.8505C107.911 97.0525 108.232 95.2206 108.586 93.4032C111.667 77.6284 114.124 63.0313 115.452 51.9235L115.928 51.5261C114.596 62.6727 112.291 77.769 109.209 93.568C108.855 95.3466 108.535 97.1688 108.253 98.9813Z" fill="#444053"/>
<path opacity="0.7" d="M135.174 198.84C135.081 198.753 125.589 189.86 117.471 173.154C112.727 163.379 109.361 152.801 107.498 141.813C105.167 128.079 105.509 112.192 107.852 97.3869L108.409 97.9297C103.161 131.166 110.811 157.384 118.204 172.645C126.213 189.191 135.604 197.992 135.7 198.079L135.174 198.84Z" fill="#444053"/>
</g>
<path d="M427.544 365.466C427.544 365.466 409.723 364.23 411.826 378.59C411.826 378.59 411.405 381.125 413.407 382.278C413.407 382.278 413.441 381.212 415.236 381.575C415.875 381.699 416.525 381.735 417.171 381.682C418.045 381.611 418.877 381.217 419.54 380.558C419.54 380.558 424.547 378.178 426.494 368.766C426.494 368.766 427.936 366.712 427.881 366.183L424.872 367.637C424.872 367.637 425.9 370.133 425.091 372.203C425.091 372.203 424.994 367.729 424.416 367.841C424.298 367.865 422.853 368.708 422.853 368.708C422.853 368.708 424.623 373.07 423.274 376.21C423.274 376.21 423.78 370.855 422.288 369.018L420.18 370.443C420.18 370.443 422.246 374.931 420.846 378.59C420.846 378.59 421.205 372.973 419.734 370.787L417.816 372.508C417.816 372.508 419.759 376.933 418.574 379.966C418.574 379.966 418.419 373.429 417.403 372.934C417.403 372.934 415.717 374.635 415.468 375.357C415.468 375.357 416.796 378.566 415.974 380.262C415.974 380.262 415.468 375.9 415.051 375.9C415.051 375.9 413.365 378.784 413.205 380.747C413.205 380.747 413.276 377.805 414.646 375.609C413.682 375.818 412.793 376.347 412.088 377.131C412.088 377.131 412.349 375.091 415.038 374.912C415.038 374.912 416.421 372.726 416.792 372.59C416.792 372.59 414.09 372.333 412.454 373.167C412.454 373.167 413.896 371.228 417.285 372.115L419.177 370.337C419.177 370.337 415.624 369.779 414.119 370.395C414.119 370.395 415.852 368.694 419.687 369.934L421.748 368.519C421.748 368.519 418.722 367.768 416.918 368.035C416.918 368.035 418.823 366.852 422.355 368.132L423.831 367.371C423.831 367.371 421.609 366.886 420.96 366.789C420.311 366.692 420.277 366.503 420.277 366.503C421.682 366.234 423.123 366.418 424.442 367.036C424.442 367.036 427.599 365.694 427.544 365.466Z" fill="#6C63FF"/>
<path opacity="0.1" d="M415.27 385.981C422.235 385.981 427.881 384.883 427.881 383.528C427.881 382.174 422.235 381.076 415.27 381.076C408.305 381.076 402.659 382.174 402.659 383.528C402.659 384.883 408.305 385.981 415.27 385.981Z" fill="#6C63FF"/>
<path d="M461.727 327.631C461.727 327.631 451.683 326.938 452.876 335.031C452.814 335.441 452.867 335.863 453.027 336.237C453.187 336.61 453.445 336.916 453.765 337.11C453.765 337.11 453.786 336.509 454.798 336.713C455.158 336.785 455.525 336.806 455.889 336.776C456.382 336.738 456.85 336.515 457.221 336.141C457.221 336.141 460.045 334.799 461.145 329.492C461.145 329.492 461.959 328.334 461.925 328.038L460.239 328.872C460.239 328.872 460.817 330.277 460.361 331.445C460.361 331.445 460.307 328.92 459.982 328.983C459.915 328.983 459.101 329.468 459.101 329.468C459.101 329.468 460.096 331.92 459.346 333.698C459.346 333.698 459.632 330.679 458.789 329.647L457.596 330.447C457.596 330.447 458.76 332.976 457.972 335.041C457.972 335.041 458.174 331.876 457.344 330.64L456.265 331.61C456.265 331.61 457.356 334.106 456.686 335.816C456.686 335.816 456.597 332.133 456.024 331.852C455.615 332.251 455.248 332.705 454.933 333.204C454.933 333.204 455.683 335.017 455.219 335.971C455.219 335.971 454.933 333.514 454.701 333.505C454.701 333.505 453.757 335.133 453.66 336.248C453.705 335.213 453.986 334.211 454.473 333.34C453.929 333.458 453.426 333.756 453.027 334.198C453.027 334.198 453.175 333.049 454.713 332.947C454.713 332.947 455.493 331.711 455.7 331.639C455.7 331.639 454.178 331.493 453.255 331.963C453.255 331.963 454.069 330.878 455.978 331.367L457.049 330.369C457.049 330.369 455.042 330.054 454.195 330.403C454.195 330.403 455.173 329.434 457.335 330.141L458.498 329.342C457.603 329.116 456.687 329.025 455.771 329.07C455.771 329.07 456.846 328.406 458.836 329.128L459.679 328.697C459.679 328.697 458.414 328.416 458.06 328.372C457.706 328.329 457.672 328.208 457.672 328.208C458.465 328.056 459.279 328.16 460.024 328.508C460.024 328.508 461.757 327.762 461.727 327.631Z" fill="#6C63FF"/>
<path opacity="0.1" d="M454.81 339.199C458.738 339.199 461.921 338.581 461.921 337.818C461.921 337.055 458.738 336.437 454.81 336.437C450.883 336.437 447.7 337.055 447.7 337.818C447.7 338.581 450.883 339.199 454.81 339.199Z" fill="#6C63FF"/>
<path d="M402.427 334.658C402.427 334.658 390.296 333.815 391.729 343.59C391.655 344.085 391.719 344.595 391.912 345.046C392.105 345.497 392.417 345.866 392.804 346.1C392.804 346.1 392.804 345.378 394.048 345.616C394.483 345.699 394.926 345.725 395.367 345.693C395.961 345.643 396.526 345.375 396.977 344.927C396.977 344.927 400.387 343.309 401.715 336.897C401.715 336.897 402.697 335.501 402.655 335.143L400.61 336.146C400.61 336.146 401.31 337.847 400.758 339.257C400.758 339.257 400.695 336.209 400.298 336.282C400.218 336.282 399.236 336.868 399.236 336.868C399.236 336.868 400.437 339.829 399.531 341.976C399.531 341.976 399.877 338.332 398.861 337.081L397.42 338.05C397.42 338.05 398.823 341.104 397.871 343.6C397.871 343.6 398.115 339.776 397.116 338.269L395.809 339.437C395.809 339.437 397.133 342.446 396.328 344.515C396.328 344.515 396.223 340.067 395.527 339.727C395.527 339.727 394.385 340.886 394.212 341.361C394.212 341.361 395.114 343.546 394.553 344.7C394.553 344.7 394.212 341.739 393.93 341.724C393.93 341.724 392.792 343.687 392.665 345.034C392.722 343.789 393.06 342.583 393.647 341.535C392.992 341.678 392.386 342.039 391.906 342.572C391.906 342.572 392.084 341.181 393.93 341.06C393.93 341.06 394.87 339.572 395.122 339.48C395.122 339.48 393.285 339.306 392.172 339.873C392.172 339.873 393.15 338.559 395.455 339.155L396.745 337.949C396.745 337.949 394.33 337.566 393.302 337.987C393.302 337.987 394.482 336.829 397.095 337.672L398.499 336.703C398.499 336.703 396.438 336.19 395.207 336.374C395.207 336.374 396.505 335.574 398.907 336.442L399.915 335.967C399.915 335.967 398.406 335.627 397.963 335.574C397.521 335.521 397.5 335.38 397.5 335.38C398.456 335.197 399.438 335.323 400.336 335.744C400.336 335.744 402.465 334.813 402.427 334.658Z" fill="#6C63FF"/>
<path opacity="0.1" d="M394.073 348.62C398.815 348.62 402.659 347.874 402.659 346.953C402.659 346.032 398.815 345.286 394.073 345.286C389.331 345.286 385.487 346.032 385.487 346.953C385.487 347.874 389.331 348.62 394.073 348.62Z" fill="#6C63FF"/>
<path opacity="0.1" d="M300.977 339.727L258.697 358.536L196.897 386C194.567 381.023 191.127 374.214 186.87 366.13C172.236 338.239 148.017 294.86 126.461 256.739C102.166 213.786 81.2601 177.516 81.2601 177.516L96.396 172.471L220.029 131.243L300.977 339.727Z" fill="black"/>
<path d="M301.82 336.335L259.54 355.143L197.74 382.608C195.409 377.63 191.97 370.821 187.713 362.738C173.079 334.847 148.86 291.468 127.304 253.346C103.009 210.393 82.1031 174.124 82.1031 174.124L97.239 169.079L220.872 127.851L301.82 336.335Z" fill="white"/>
<path opacity="0.1" d="M301.82 336.335L259.54 355.143C235.926 360.799 211.828 363.347 187.713 362.738C173.079 334.847 148.86 291.468 127.304 253.346L97.239 169.079L220.872 127.851L301.82 336.335Z" fill="black"/>
<path d="M333.276 324.636C333.276 324.636 267.591 369.309 169.525 359.229L91.338 140.083L128.805 132.683L258.322 107.109L331.81 320.4L333.276 324.636Z" fill="#6C63FF"/>
<path opacity="0.1" d="M331.81 320.4C316.341 321.272 298.452 321.19 280.446 318.723C260.965 316.097 241.39 310.659 224.573 300.705C210.529 292.384 198.52 283.345 188.046 272.494C160.813 244.327 143.958 204.035 128.822 132.683L258.339 107.109L331.81 320.4Z" fill="black"/>
<path d="M379.991 308.149C379.991 308.149 331.553 319.063 282.297 312.341C262.815 309.699 243.22 304.276 226.423 294.322C212.379 286.001 200.371 276.963 189.896 266.112C156.177 231.218 138.385 177.802 120.033 69.8791C120.033 69.8791 200.539 92.2158 280.08 43.2874C280.08 43.2874 306.908 235.817 379.991 308.149Z" fill="white"/>
<path opacity="0.1" d="M282.297 312.341C262.815 309.699 243.22 304.276 226.423 294.322C212.379 286.001 200.37 276.963 189.896 266.112C218.596 263.432 222.722 245.389 222.722 245.389C243.999 284.218 282.297 312.341 282.297 312.341Z" fill="black"/>
<path opacity="0.3" d="M161.665 109.503C161.665 109.503 204.91 115.178 245.386 89.027L248.16 99.2673C248.16 99.2673 209.437 121.468 161.665 121.468V109.503Z" fill="#6C63FF"/>
<path opacity="0.3" d="M161.665 160.045C161.665 160.045 204.657 156.056 252.518 129.46L254.136 133.715C254.136 133.715 236.522 159.202 161.665 165.861V160.045Z" fill="black"/>
<path opacity="0.3" d="M166.76 179.76C166.76 179.76 209.753 175.771 257.614 149.18L259.232 153.435C259.232 153.435 241.622 178.946 166.76 185.609V179.76Z" fill="black"/>
<path opacity="0.3" d="M171.422 201.011C171.422 201.011 214.415 197.022 262.275 170.431L263.894 174.686C263.894 174.686 246.259 200.182 171.422 206.861V201.011Z" fill="black"/>
<path opacity="0.3" d="M176.956 219.223C176.956 219.223 219.949 215.235 267.81 188.643L269.428 192.898C269.428 192.898 251.818 218.4 176.956 225.078V219.223Z" fill="black"/>
<path opacity="0.1" d="M182.057 238.958C182.057 238.958 225.049 234.969 272.91 208.377L274.528 212.632C274.528 212.632 256.914 238.134 182.057 244.807V238.958Z" fill="black"/>
<path opacity="0.3" d="M271.65 116.189L259.62 120.898L263.715 134.73L275.745 130.021L271.65 116.189Z" fill="#6C63FF"/>
<path opacity="0.3" d="M278.494 136.767L266.463 141.476L270.559 155.308L282.589 150.599L278.494 136.767Z" fill="#6C63FF"/>
<path opacity="0.3" d="M289.465 176.361L277.435 181.07L281.53 194.902L293.56 190.193L289.465 176.361Z" fill="#6C63FF"/>
<path opacity="0.3" d="M295.76 197.612L283.73 202.321L287.825 216.153L299.855 211.444L295.76 197.612Z" fill="#6C63FF"/>
<path opacity="0.3" d="M284.074 158.144L272.043 162.853L276.139 176.685L288.169 171.976L284.074 158.144Z" fill="#6C63FF"/>
<path d="M409.862 217.876L409.411 217.392C410.574 217.12 411.67 216.999 411.67 216.999C411.67 216.999 407.679 200.396 400.947 194.856C397.618 192.118 394.844 187.558 392.884 183.647C389.312 176.575 385.298 169.809 380.876 163.404L379.662 161.644L379.139 160.879C379.868 159.609 380.762 158.402 380.661 156.929C380.659 156.919 380.659 156.909 380.661 156.9C380.665 156.822 380.665 156.745 380.661 156.667C380.649 156.485 380.62 156.305 380.577 156.129L380.53 156.212C379.961 154.312 377.774 153.473 376.151 152.427C372.357 149.97 370.735 144.6 369.925 139.608C369.293 135.731 368.771 131.369 366.132 128.873C364.446 127.269 362.153 126.741 360.454 125.147C358.844 123.635 357.947 121.342 356.935 119.234C355.249 115.721 353.023 112.449 350.086 110.351C347.148 108.252 343.418 107.443 340.193 108.848C338.958 109.391 337.837 110.234 336.615 110.821C333.58 112.275 330.103 112.081 327.097 113.617C323.397 115.507 320.99 119.685 318.79 123.649C317.652 125.699 315.864 128.699 314.849 131.718C314.849 131.612 314.849 131.51 314.849 131.403C314.361 132.734 314.095 134.157 314.065 135.6C314.045 136.214 314.103 136.828 314.237 137.422C314.693 139.361 316.05 140.432 317.66 141.178C317.753 141.795 317.877 142.405 318.031 143.005C318.76 145.763 320.056 148.278 321.809 150.337C323.563 152.396 325.722 153.939 328.105 154.835C328.244 154.893 328.387 154.932 328.526 154.981C328.643 155.364 328.813 155.724 329.028 156.047C330.372 157.985 333.07 157.433 334.823 156.023C334.895 155.969 334.962 155.901 335.03 155.843C335.042 156.118 335.067 156.391 335.106 156.662C335.144 156.895 335.173 157.147 335.215 157.355C336.796 167.15 340.842 172.437 340.842 172.437C340.842 172.437 341.217 173.086 341.829 174.162C341.508 179.566 343.654 184.49 346.132 188.294C343.995 189.714 339.388 192.496 336.539 192.263C336.539 192.263 326.069 193.819 324.855 193.039C324.686 192.932 324.526 193.078 324.374 193.407C321.491 191.386 312.273 185.561 311.485 193.039C310.773 199.824 319.173 200.691 323.173 200.725C322.992 202.712 322.891 204.302 322.891 204.302L340.092 202.95L349.049 201.433C348.058 202.94 346.941 204.282 345.85 204.937C345.85 204.937 337.753 212.473 336.353 212.54C336.155 212.54 336.092 212.768 336.122 213.132C332.716 213.132 322.124 213.699 325.061 220.484C327.73 226.634 335.241 222.378 338.638 220.028C339.439 221.816 340.121 223.217 340.121 223.217L354.001 211.852L357.007 208.944C358.025 208.888 359.031 208.664 359.995 208.28C359.995 208.324 360.024 208.368 360.037 208.406C360.144 208.763 360.225 209.129 360.277 209.502C361.12 215.07 358.288 228.058 358.288 228.058C358.288 228.058 352.058 246.324 355.051 248.815C358.043 251.306 355.831 261.818 355.831 261.818C356.353 262.828 356.954 263.782 357.626 264.667C357.943 265.088 358.295 265.473 358.676 265.816C358.537 266.252 358.421 266.697 358.33 267.149C357.873 269.388 358.045 271.737 358.823 273.856C360.88 279.594 359.628 287.91 359.628 287.91L355.59 319.276C353.651 318.937 351.148 318.656 350.216 319.276C348.787 320.202 349.255 324.869 352.572 326.875C351.565 327.762 350.399 328.379 349.158 328.683C346.208 329.458 344.134 329.952 342.768 330.253C342.68 330.253 335.687 328.479 333.892 329.652C332.096 330.825 332.96 337.328 338.069 338.923C343.068 340.479 361.71 342.761 367.08 341.831L367.422 341.763C371.987 340.726 367.978 333.829 367.472 332.991C367.439 332.71 367.409 332.414 367.375 332.094C367.304 331.377 367.24 330.553 367.194 329.671C372.286 330.209 377.31 330.471 379.616 330.073C379.725 330.073 379.826 330.035 379.919 330.01C383.961 329.09 380.421 322.993 379.965 322.256C379.946 322.069 379.925 321.87 379.902 321.66V321.607C379.902 321.466 379.873 321.316 379.86 321.171C379.847 321.025 379.86 320.924 379.826 320.793C379.793 320.662 379.826 320.56 379.797 320.439C379.78 320.2 379.763 319.953 379.746 319.697C379.746 319.596 379.746 319.489 379.746 319.382C379.746 319.189 379.725 318.995 379.717 318.796C379.717 318.689 379.717 318.583 379.717 318.471C379.717 318.181 379.717 317.88 379.691 317.58C379.691 317.497 379.691 317.415 379.691 317.332C379.691 317.09 379.691 316.848 379.691 316.596C379.691 316.48 379.691 316.363 379.691 316.242C379.691 315.985 379.691 315.728 379.691 315.467C379.691 315.379 379.691 315.297 379.691 315.21C379.691 314.885 379.717 314.551 379.734 314.216L379.759 313.858C379.759 313.611 379.793 313.373 379.814 313.121C379.814 313 379.814 312.879 379.847 312.758C379.881 312.418 379.919 312.079 379.961 311.735C379.961 311.633 379.991 311.531 380.003 311.43C380.041 311.173 380.079 310.911 380.121 310.649C380.121 310.523 380.164 310.393 380.189 310.262C380.239 309.981 380.294 309.7 380.353 309.418C380.353 309.341 380.383 309.263 380.4 309.186C380.475 308.847 380.56 308.512 380.648 308.178C380.678 308.061 380.711 307.945 380.745 307.829C380.817 307.577 380.893 307.344 380.973 307.083L381.074 306.772C381.188 306.443 381.31 306.118 381.436 305.803C381.47 305.721 381.508 305.638 381.546 305.556C381.651 305.304 381.765 305.071 381.883 304.81L382.027 304.524C382.187 304.213 382.351 303.903 382.532 303.608C387.169 296.009 388.391 281.353 388.277 278.164C388.164 274.976 388.829 268.36 389.66 267.381C390.216 266.727 393.453 261.566 395.388 257.64C395.738 256.923 396.041 256.249 396.281 255.648C397.656 255.101 398.566 254.679 398.566 254.679C398.082 252.645 397.849 250.542 397.875 248.432C397.908 244.308 398.895 238.875 402.966 234.465C408.977 227.952 409.816 221.496 409.896 219.015C409.896 218.841 409.896 218.686 409.896 218.555C409.883 218.099 409.862 217.876 409.862 217.876Z" fill="url(#paint0_linear)"/>
<path d="M393.845 258.522C392.214 261.874 390.383 265.091 388.366 268.152C387.573 269.121 386.937 275.669 387.047 278.814C387.156 281.959 385.997 296.459 381.567 303.971C377.137 311.483 379.413 324.466 379.413 324.466L372.345 327.316H363.852L358.001 325.305L356.459 320.41C356.459 320.41 358.516 320.046 363.624 318.651C365.041 318.319 366.325 317.464 367.28 316.215C368.235 314.967 368.809 313.393 368.914 311.735L372.501 282.933C372.501 282.933 373.559 275.664 371.814 270.633C371.322 269.217 371.118 267.691 371.218 266.171C371.317 264.651 371.717 263.177 372.387 261.861L372.501 261.658C372.501 261.658 378.035 256.632 383.675 253.487C388.669 250.715 393.736 249.397 395.173 254.316C395.358 254.951 394.751 256.584 393.845 258.522Z" fill="#A5636D"/>
<path opacity="0.05" d="M393.845 258.522C392.214 261.874 390.383 265.091 388.366 268.152C387.573 269.121 386.937 275.669 387.047 278.814C387.156 281.959 385.997 296.459 381.567 303.971C378.448 309.268 378.655 317.274 379.038 321.544C379.202 323.332 379.405 324.452 379.405 324.452L372.336 327.301H363.852L358.001 325.305L356.459 320.41C356.459 320.41 356.973 320.318 358.145 320.056C359.316 319.794 361.095 319.349 363.649 318.651C365.062 318.313 366.34 317.456 367.29 316.208C368.24 314.959 368.81 313.389 368.914 311.735L372.501 282.933C372.501 282.933 373.559 275.664 371.814 270.633C371.322 269.217 371.118 267.691 371.218 266.171C371.317 264.651 371.717 263.177 372.387 261.861L372.501 261.658C372.501 261.658 378.035 256.632 383.675 253.487C388.669 250.715 393.736 249.397 395.173 254.316C395.358 254.951 394.751 256.584 393.845 258.522Z" fill="black"/>
<path opacity="0.1" d="M379.413 324.471L372.345 327.321H363.852L358.001 325.305L356.459 320.41C356.459 320.41 356.973 320.318 358.145 320.056C358.062 320.945 358.265 321.839 358.717 322.568C359.168 323.296 359.835 323.81 360.594 324.011L363.915 324.142C364.383 324.142 364.855 324.171 365.318 324.171C369.99 324.173 374.63 323.288 379.051 321.549C379.219 323.337 379.413 324.471 379.413 324.471Z" fill="black"/>
<path d="M363.911 324.965L360.585 324.835C360.585 324.835 357.483 324.078 358.242 320.032C358.242 320.032 352.256 318.471 350.726 319.504C349.196 320.536 349.934 326.23 354.258 327.626C358.473 328.988 374.263 330.989 378.802 330.17L379.093 330.112C383.207 329.143 379.093 322.358 379.093 322.358C374.212 324.279 369.067 325.163 363.911 324.965Z" fill="#BEBED0"/>
<path d="M384.391 259.637C384.168 260.151 383.927 260.684 383.654 261.241C381.567 265.603 378.22 271.094 377.635 271.806C376.741 272.901 376.029 280.287 376.142 283.854C376.256 287.421 374.958 303.763 369.959 312.244C367.401 316.605 366.823 322.542 366.865 327.321C366.878 328.94 366.961 330.557 367.114 332.167C367.3 334.139 367.536 335.37 367.536 335.37L359.561 338.584H349.963L343.359 336.325L341.63 330.781C341.63 330.781 342.208 330.674 343.506 330.379C344.804 330.083 346.827 329.589 349.719 328.804C351.314 328.424 352.759 327.457 353.833 326.049C354.908 324.641 355.554 322.869 355.675 321.001L359.717 288.497C359.717 288.497 360.91 280.282 358.945 274.612C358.204 272.507 358.039 270.193 358.473 267.977C358.708 266.733 359.137 265.548 359.738 264.478C359.738 264.478 361.281 263.083 363.607 261.236C364.636 260.422 365.828 259.521 367.11 258.61C372.741 254.602 380.147 250.511 383.696 253.492C384.478 254.171 385.052 255.12 385.331 256.201C385.474 256.763 385.074 258.038 384.391 259.637Z" fill="#A5636D"/>
<path opacity="0.1" d="M367.514 335.375L359.54 338.588H349.963L343.359 336.33L341.63 330.786C341.63 330.786 342.208 330.679 343.506 330.384C343.423 331.04 343.482 331.711 343.678 332.335C343.873 332.96 344.199 333.52 344.627 333.965C345.292 334.615 346.132 334.978 347.005 334.992L350.027 335.104C350.553 335.104 351.085 335.138 351.611 335.138C356.886 335.136 362.124 334.134 367.114 332.172C367.3 334.144 367.514 335.375 367.514 335.375Z" fill="black"/>
<path d="M350.022 335.928L347.004 335.811C346.132 335.794 345.29 335.431 344.623 334.784C343.856 333.999 343.194 332.642 343.624 330.359C343.624 330.359 336.88 328.6 335.139 329.763C333.399 330.926 334.25 337.357 339.127 338.933C343.902 340.469 361.706 342.727 366.832 341.806L367.156 341.739C371.793 340.643 367.156 332.976 367.156 332.976C361.649 335.151 355.842 336.152 350.022 335.928Z" fill="#BEBED0"/>
<path opacity="0.1" d="M393.845 258.522C390.958 259.681 386.718 261.217 384.391 261.28C384.15 261.291 383.909 261.278 383.67 261.241C382.043 260.984 377.015 261.396 372.404 261.871C370.553 262.06 368.775 262.259 367.304 262.433C365.112 262.695 363.603 262.884 363.603 262.884V261.241C364.631 260.427 365.824 259.525 367.106 258.614C372.737 254.606 380.142 250.516 383.691 253.497C388.686 250.725 393.753 249.406 395.19 254.325C395.358 254.951 394.751 256.584 393.845 258.522Z" fill="black"/>
<path d="M407.7 220.299C407.62 222.756 406.819 229.134 401.078 235.58C393.761 243.794 396.863 255.59 396.863 255.59C396.863 255.59 388.138 259.53 384.374 259.637C384.133 259.648 383.892 259.635 383.653 259.598C381.394 259.235 372.425 260.189 367.27 260.79C365.078 261.052 363.569 261.241 363.569 261.241V226.348L404.003 215.06L407.666 219.253C407.698 219.6 407.709 219.95 407.7 220.299Z" fill="#5C5C8E"/>
<g opacity="0.1">
<path opacity="0.1" d="M364.252 260.81L363.586 260.892V261.26C363.586 261.26 365.095 261.071 367.287 260.81C370.988 260.378 376.64 259.773 380.379 259.593C377.791 259.322 369.243 260.228 364.252 260.81Z" fill="black"/>
<path opacity="0.1" d="M407.683 219.272L404.02 215.075L401.58 215.778L404.648 219.291C404.669 219.641 404.669 219.993 404.648 220.343C404.568 222.795 403.767 229.178 398.027 235.623C390.709 243.833 393.812 255.634 393.812 255.634C393.812 255.634 386.591 258.891 382.456 259.564C382.851 259.563 383.245 259.587 383.637 259.637C383.875 259.675 384.117 259.69 384.357 259.681C388.121 259.574 396.846 255.634 396.846 255.634C396.846 255.634 393.727 243.833 401.061 235.623C406.802 229.178 407.603 222.795 407.683 220.343C407.705 219.986 407.705 219.629 407.683 219.272Z" fill="black"/>
</g>
<path d="M326.899 195.651C326.899 195.651 314.676 185.9 313.778 194.682C312.88 203.463 326.899 202.208 326.899 202.208V195.651Z" fill="#A5636D"/>
<path d="M347.974 189.186C347.974 189.186 341.361 194.216 337.702 193.906C337.702 193.906 327.704 195.447 326.541 194.677C325.378 193.906 324.669 205.823 324.669 205.823L341.108 204.491L351.645 202.639C351.645 202.639 356.914 198.946 356.914 195.762C356.914 192.578 347.974 189.186 347.974 189.186Z" fill="#F7CDDD"/>
<path opacity="0.05" d="M347.974 189.186C347.974 189.186 341.361 194.216 337.702 193.906C337.702 193.906 327.704 195.447 326.541 194.677C325.378 193.906 324.669 205.823 324.669 205.823L341.108 204.491L351.645 202.639C351.645 202.639 356.914 198.946 356.914 195.762C356.914 192.578 347.974 189.186 347.974 189.186Z" fill="black"/>
<path d="M338.275 214.561C338.275 214.561 323.409 213.854 326.739 221.831C330.069 229.808 341.335 220.125 341.335 220.125L338.275 214.561Z" fill="#A5636D"/>
<path d="M353.23 197.604C353.23 197.604 341.179 187.238 342.878 174.613C344.577 161.988 353.23 184.277 353.23 184.277V197.604Z" fill="#5C5C8E"/>
<path d="M349.9 140.369C349.896 144.911 348.359 149.273 345.614 152.538C344.945 153.34 344.208 154.063 343.413 154.695C341.896 155.911 340.204 156.81 338.414 157.35C337.703 157.555 336.981 157.702 336.252 157.791C335.729 157.85 335.203 157.884 334.667 157.884C332.958 157.895 331.26 157.567 329.647 156.914C327.008 155.855 324.673 153.981 322.898 151.497C321.123 149.014 319.977 146.017 319.585 142.834C319.193 139.651 319.57 136.406 320.676 133.453C321.781 130.501 323.572 127.955 325.851 126.095C328.131 124.234 330.812 123.131 333.601 122.906C336.39 122.681 339.179 123.343 341.662 124.819C344.146 126.295 346.228 128.529 347.681 131.275C349.134 134.021 349.902 137.174 349.9 140.388V140.369Z" fill="#A5636D"/>
<path opacity="0.1" d="M407.7 220.299C406.334 220.59 404.648 221.114 404.648 221.928C404.648 223.299 385.605 230.69 385.605 230.69C385.605 230.69 386.317 232.599 384.416 235.885C382.516 239.171 367.038 258.052 367.038 258.052L367.089 258.614L367.287 260.79L368.231 271.191C368.231 271.191 362.28 268.729 360.374 269C359.759 269.092 359.11 268.637 358.473 267.982C358.708 266.738 359.137 265.553 359.738 264.483C359.738 264.483 361.281 263.088 363.607 261.241V226.348L404.041 215.06L407.704 219.253C407.723 219.601 407.722 219.951 407.7 220.299Z" fill="black"/>
<path d="M409.411 218.371C409.411 218.371 404.648 218.913 404.648 220.285C404.648 221.656 385.605 229.047 385.605 229.047C385.605 229.047 386.317 230.956 384.416 234.242C382.515 237.528 367.038 256.414 367.038 256.414L368.231 269.548C368.231 269.548 362.279 267.086 360.374 267.357C359.531 267.478 358.583 266.577 357.803 265.525C357.159 264.648 356.585 263.706 356.088 262.71C356.088 262.71 358.233 252.304 355.375 249.843C352.518 247.381 358.469 229.318 358.469 229.318C358.469 229.318 361.158 216.476 360.366 210.965C360.317 210.597 360.241 210.234 360.138 209.88C360.138 209.841 360.117 209.797 360.105 209.759C358.419 204.495 340.143 160.326 340.143 160.326C340.154 159.073 340.23 157.822 340.37 156.58C340.408 156.236 340.459 155.877 340.513 155.514C340.606 154.86 340.73 154.213 340.884 153.575C340.981 153.166 341.097 152.763 341.23 152.368C341.795 150.701 342.659 149.417 343.949 149.388C343.949 149.388 345.378 147.571 348.728 147.076C351.182 146.708 354.684 147.076 359.426 149.388C370.608 154.855 373.23 155.136 373.23 155.136L378.848 163.617L380.003 165.357C384.237 171.705 388.07 178.394 391.472 185.372C393.344 189.249 395.995 193.751 399.173 196.46C405.601 201.951 409.411 218.371 409.411 218.371Z" fill="#F7CDDD"/>
<path opacity="0.1" d="M367.692 186.724C367.692 186.724 383.582 191.241 389.74 202.63L367.692 186.724Z" fill="black"/>
<path opacity="0.1" d="M372.602 206.734C372.602 206.734 375.607 229.934 374.773 231.679C373.938 233.423 372.602 206.734 372.602 206.734Z" fill="black"/>
<path opacity="0.1" d="M371.527 218.642C370.372 220.382 365.681 233.83 365.681 233.83L367.034 256.414L368.227 269.548C368.227 269.548 362.28 267.086 360.374 267.357C359.531 267.478 358.579 266.577 357.803 265.525C359.038 257.834 361.681 241.739 362.157 241.429C362.785 241.017 366.001 228.087 366.17 224.467C366.339 220.847 370.806 212.778 370.806 212.778C370.806 212.778 372.69 216.902 371.527 218.642Z" fill="black"/>
<path opacity="0.1" d="M367.038 196.475C366.743 197.497 366.288 203.454 366.288 203.454C365.959 208.697 362.494 210.413 360.366 210.965C360.317 210.597 360.241 210.234 360.138 209.88C358.709 205.232 340.143 160.345 340.143 160.345C340.162 158.068 340.411 155.801 340.884 153.59C344.927 152.223 351.325 154.326 351.325 154.326C353.175 154.045 359.211 167.843 359.211 167.843C359.211 167.843 363.232 178.408 363.675 179.847C364.117 181.286 363.675 183.647 363.852 184.47C364.029 185.294 365.909 186.002 366.174 187.136C366.44 188.27 366.267 190.528 366.444 190.931C366.621 191.333 367.337 195.447 367.038 196.475Z" fill="black"/>
<path d="M365.609 195.651C365.314 196.678 364.859 202.63 364.859 202.63C364.589 206.991 362.145 208.93 360.105 209.759C359.185 210.136 358.222 210.357 357.247 210.413L354.376 213.282L341.12 224.501C341.12 224.501 336.181 213.999 337.521 213.941C338.861 213.883 346.591 206.419 346.591 206.419C348.956 204.966 351.325 200.119 352.425 197.628C352.362 197.331 352.314 197.03 352.282 196.727C351.805 192.079 341.807 174.283 341.807 174.283C341.807 174.283 337.942 169.054 336.438 159.367C336.395 159.144 336.366 158.916 336.328 158.683C336.285 158.382 336.26 158.077 336.252 157.772C336.071 154.045 338.431 152.688 341.23 152.368C342.692 152.235 344.162 152.287 345.614 152.523C347.06 152.733 348.492 153.057 349.9 153.493C351.097 153.309 354.048 159.032 355.982 163.088C357.023 165.289 357.774 167.004 357.774 167.004C357.774 167.004 361.795 177.574 362.237 179.009C362.68 180.443 362.237 182.813 362.414 183.632C362.591 184.451 364.471 185.168 364.737 186.302C365.002 187.436 364.83 189.695 365.007 190.097C365.184 190.499 365.909 194.624 365.609 195.651Z" fill="#F7CDDD"/>
<path opacity="0.1" d="M380.985 171.972C378.456 174.943 374.372 174.952 371.093 173.426C367.814 171.899 365.036 169.166 361.997 167.038C360.024 165.652 357.934 164.518 355.991 163.089C355.704 162.875 355.426 162.662 355.148 162.439C352.905 160.617 350.962 158.276 348.64 156.624C347.086 155.436 345.278 154.765 343.413 154.685C342.555 154.676 341.705 154.881 340.922 155.286C340.777 155.354 340.636 155.433 340.501 155.523C339.736 156.028 339.028 156.638 338.393 157.341C337.736 158.019 337.108 158.741 336.417 159.376C336.374 159.153 336.345 158.926 336.307 158.693C336.264 158.391 336.239 158.087 336.231 157.782C335.708 157.84 335.182 157.874 334.646 157.874C332.937 157.885 331.239 157.557 329.626 156.905C329.626 156.832 329.626 156.759 329.588 156.687C329.019 153.236 327.991 149.582 325.576 147.643C324.176 146.519 321.942 146.059 320.003 145.22C319.332 142.531 319.23 139.696 319.707 136.952C320.184 134.208 321.225 131.636 322.744 129.45C324.263 127.265 326.216 125.529 328.438 124.389C330.66 123.249 333.088 122.738 335.517 122.898C337.947 123.059 340.307 123.886 342.402 125.311C344.496 126.736 346.263 128.717 347.554 131.088C348.846 133.459 349.625 136.152 349.825 138.94C350.026 141.729 349.642 144.532 348.707 147.115C351.16 146.747 354.663 147.115 359.405 149.427C370.587 154.893 373.209 155.174 373.209 155.174L378.827 163.656C378.22 164.722 377.533 165.773 377.47 167.019C377.365 169.302 379.299 170.896 380.985 171.972Z" fill="black"/>
<path d="M325.593 145.991C328.008 147.929 329.036 151.578 329.609 155.024C329.786 156.1 329.955 157.234 330.528 158.087C331.793 159.997 334.389 159.459 336.062 158.087C337.736 156.716 339.055 154.637 340.922 153.667C343.401 152.378 346.317 153.318 348.64 154.99C350.962 156.662 352.905 159.003 355.148 160.806C357.319 162.565 359.738 163.82 361.997 165.405C365.036 167.533 367.814 170.28 371.093 171.793C374.372 173.305 378.469 173.3 380.981 170.339C379.295 169.263 377.361 167.673 377.491 165.366C377.622 163.059 379.957 161.339 379.801 158.974C379.645 156.609 377.226 155.683 375.489 154.52C371.864 152.097 370.317 146.766 369.542 141.847C368.939 137.999 368.442 133.7 365.942 131.229C364.328 129.639 362.149 129.121 360.522 127.546C358.983 126.048 358.128 123.785 357.15 121.696C355.536 118.221 353.415 114.989 350.613 112.91C347.81 110.831 344.244 110.002 341.167 111.427C339.987 111.965 338.912 112.798 337.748 113.365C334.849 114.819 331.531 114.611 328.661 116.128C325.125 117.998 322.828 122.127 320.724 126.048C318.946 129.407 315.418 135.329 316.417 139.69C317.411 144.125 322.971 143.887 325.593 145.991Z" fill="#4C3E42"/>
<g opacity="0.1">
<path opacity="0.1" d="M379.797 158.707C379.784 158.527 379.757 158.349 379.717 158.174C379.076 159.333 378.28 160.457 378.204 161.814C378.187 162.128 378.21 162.443 378.271 162.749C378.983 161.446 379.898 160.219 379.797 158.707Z" fill="black"/>
<path opacity="0.1" d="M371.805 168.255C368.526 166.743 365.753 163.995 362.714 161.867C360.45 160.282 358.031 159.027 355.86 157.268C353.618 155.446 351.675 153.105 349.352 151.452C347.03 149.8 344.117 148.84 341.635 150.125C339.767 151.094 338.452 153.154 336.775 154.549C335.097 155.945 332.526 156.488 331.241 154.549C330.667 153.696 330.499 152.562 330.322 151.486C329.753 148.041 328.72 144.391 326.309 142.453C323.683 140.345 318.124 140.582 317.116 136.153C316.948 135.36 316.904 134.54 316.986 133.729C316.341 135.707 316.008 137.694 316.4 139.424C317.411 143.873 322.971 143.635 325.593 145.724C328.008 147.663 329.036 151.317 329.609 154.763C329.786 155.838 329.955 156.972 330.524 157.825C331.789 159.735 334.385 159.197 336.062 157.801C337.74 156.405 339.051 154.351 340.922 153.381C343.401 152.097 346.317 153.037 348.64 154.709C350.962 156.381 352.905 158.722 355.148 160.525C357.319 162.289 359.738 163.539 361.997 165.124C365.036 167.256 367.814 170.004 371.093 171.516C374.372 173.028 378.469 173.019 380.981 170.062C380.331 169.661 379.715 169.192 379.139 168.662C376.855 169.626 374.128 169.326 371.805 168.255Z" fill="black"/>
</g>
<path d="M297.205 201.404L330.924 186.923C331.319 186.753 331.738 186.674 332.159 186.69C332.58 186.707 332.994 186.819 333.378 187.019C333.761 187.22 334.106 187.506 334.393 187.86C334.68 188.215 334.904 188.63 335.051 189.084C335.198 189.538 335.266 190.021 335.251 190.505C335.236 190.989 335.138 191.465 334.963 191.905C334.789 192.346 334.54 192.742 334.232 193.072C333.923 193.402 333.561 193.659 333.167 193.829L299.447 208.314L292.223 207.481L297.205 201.404Z" fill="#5C5C8E"/>
<path opacity="0.1" d="M334.027 187.921C334.324 188.838 334.293 189.854 333.94 190.744C333.586 191.635 332.94 192.328 332.143 192.67L298.423 207.151L292.994 206.526L292.214 207.495L299.439 208.329L333.158 193.843C333.553 193.674 333.915 193.417 334.223 193.087C334.531 192.757 334.78 192.36 334.955 191.92C335.13 191.479 335.228 191.003 335.243 190.519C335.258 190.035 335.19 189.552 335.042 189.099C334.795 188.335 334.334 187.687 333.732 187.257C333.848 187.467 333.946 187.69 334.027 187.921Z" fill="white"/>
<path d="M297.205 201.404L299.451 208.314L293.521 207.631L292.223 207.481L293.997 205.319L297.205 201.404Z" fill="#EFC8C4"/>
<path d="M293.993 205.319C294.133 205.437 294.25 205.585 294.339 205.756C294.395 205.856 294.424 205.973 294.424 206.092C294.424 206.212 294.395 206.329 294.339 206.429C294.242 206.537 294.131 206.627 294.01 206.696C293.873 206.799 293.759 206.937 293.675 207.099C293.592 207.262 293.542 207.443 293.529 207.631L292.231 207.481L293.993 205.319Z" fill="#727A9C"/>
<path d="M267.772 126.523L262.086 123.334C262.005 123.289 261.932 123.225 261.872 123.147C261.813 123.07 261.767 122.979 261.737 122.881C261.708 122.783 261.696 122.679 261.701 122.576C261.707 122.472 261.73 122.371 261.77 122.278L262.372 120.853C262.412 120.759 262.467 120.675 262.534 120.606C262.602 120.537 262.68 120.484 262.766 120.45C262.851 120.416 262.942 120.402 263.032 120.409C263.122 120.416 263.21 120.443 263.291 120.489L267.123 122.636L271.123 113.205C271.203 113.017 271.344 112.873 271.516 112.804C271.688 112.735 271.877 112.747 272.042 112.837L273.281 113.535C273.362 113.58 273.435 113.643 273.495 113.721C273.555 113.798 273.601 113.889 273.631 113.987C273.66 114.085 273.672 114.189 273.667 114.293C273.661 114.397 273.637 114.498 273.597 114.591L268.691 126.159C268.651 126.253 268.596 126.336 268.528 126.405C268.461 126.474 268.382 126.526 268.297 126.56C268.211 126.594 268.121 126.608 268.031 126.602C267.941 126.595 267.853 126.568 267.772 126.523Z" fill="#3ACC6C"/>
<path d="M280.193 167.314L274.507 164.126C274.426 164.08 274.354 164.017 274.294 163.939C274.234 163.861 274.188 163.771 274.159 163.673C274.13 163.575 274.117 163.471 274.123 163.367C274.128 163.264 274.152 163.162 274.191 163.069L274.794 161.644C274.875 161.456 275.017 161.311 275.19 161.243C275.363 161.175 275.553 161.189 275.717 161.281L279.544 163.428L283.54 153.987C283.62 153.799 283.761 153.655 283.933 153.586C284.106 153.517 284.294 153.529 284.459 153.619L285.694 154.317C285.775 154.362 285.848 154.425 285.908 154.502C285.969 154.58 286.015 154.67 286.045 154.768C286.074 154.867 286.087 154.971 286.082 155.074C286.077 155.178 286.054 155.28 286.014 155.373L281.108 166.941C281.026 167.129 280.884 167.272 280.711 167.34C280.538 167.408 280.349 167.396 280.185 167.305L280.193 167.314Z" fill="#3ACC6C"/>
<path d="M274.617 147.207L268.931 144.018C268.767 143.926 268.642 143.764 268.582 143.566C268.522 143.368 268.532 143.151 268.611 142.962L269.218 141.537C269.257 141.443 269.312 141.359 269.379 141.29C269.447 141.221 269.525 141.168 269.611 141.134C269.696 141.101 269.787 141.087 269.877 141.093C269.967 141.1 270.055 141.127 270.136 141.173L273.968 143.32L277.968 133.875C278.007 133.782 278.062 133.698 278.13 133.629C278.198 133.561 278.276 133.508 278.362 133.474C278.447 133.441 278.537 133.426 278.627 133.433C278.717 133.439 278.806 133.466 278.887 133.511L280.126 134.204C280.289 134.298 280.414 134.462 280.473 134.661C280.532 134.859 280.521 135.077 280.442 135.266L275.532 146.844C275.492 146.937 275.437 147.02 275.369 147.089C275.302 147.158 275.223 147.21 275.138 147.244C275.052 147.278 274.962 147.292 274.872 147.286C274.782 147.279 274.694 147.253 274.613 147.207H274.617Z" fill="#3ACC6C"/>
<path d="M285.588 185.731L279.902 182.542C279.821 182.496 279.749 182.433 279.689 182.355C279.629 182.277 279.583 182.187 279.554 182.089C279.525 181.991 279.512 181.887 279.518 181.783C279.524 181.68 279.547 181.578 279.586 181.485L280.189 180.06C280.229 179.967 280.284 179.884 280.351 179.815C280.419 179.746 280.498 179.694 280.583 179.66C280.668 179.626 280.759 179.612 280.849 179.618C280.939 179.625 281.027 179.651 281.108 179.697L284.939 181.844L288.939 172.413C289.02 172.224 289.162 172.08 289.335 172.011C289.508 171.942 289.697 171.954 289.862 172.045L291.097 172.742C291.179 172.787 291.252 172.851 291.312 172.928C291.372 173.006 291.418 173.096 291.447 173.195C291.477 173.293 291.489 173.397 291.483 173.501C291.477 173.604 291.454 173.706 291.414 173.799L286.512 185.367C286.43 185.555 286.287 185.698 286.115 185.766C285.942 185.834 285.753 185.821 285.588 185.731Z" fill="#3ACC6C"/>
<path d="M73.0114 310.94C73.0114 310.94 75.5193 314.711 71.8565 320.4C68.1937 326.09 65.1674 330.897 66.3771 334.454C66.3771 334.454 71.9071 323.885 76.4045 323.739C80.9018 323.594 77.9598 317.299 73.0114 310.94Z" fill="#3ACC6C"/>
<path opacity="0.1" d="M73.0114 310.94C73.231 311.304 73.4041 311.702 73.5257 312.123C77.9134 318.055 80.2696 323.589 76.0335 323.754C72.101 323.88 67.3845 331.963 66.2591 334.004C66.293 334.169 66.3366 334.33 66.3897 334.488C66.3897 334.488 71.9198 323.919 76.4171 323.773C80.9145 323.628 77.9598 317.299 73.0114 310.94Z" fill="black"/>
<path d="M77.6732 315.748C77.6732 317.071 77.5425 318.171 77.3823 318.171C77.2222 318.171 77.0957 317.095 77.0957 315.748C77.0957 314.4 77.2559 315.045 77.4161 315.045C77.5762 315.045 77.6732 314.42 77.6732 315.748Z" fill="#FFD037"/>
<path d="M79.2706 317.328C78.259 317.962 77.3739 318.35 77.298 318.185C77.2222 318.021 77.9809 317.381 78.984 316.732C79.9872 316.082 79.5952 316.557 79.6711 316.732C79.7469 316.906 80.2864 316.693 79.2706 317.328Z" fill="#FFD037"/>
<path d="M59.7681 310.94C59.7681 310.94 57.2644 314.711 60.9272 320.4C64.59 326.09 67.6121 330.897 66.4066 334.454C66.4066 334.454 60.8808 323.885 56.3792 323.739C51.8777 323.594 54.8197 317.299 59.7681 310.94Z" fill="#3ACC6C"/>
<path opacity="0.1" d="M59.768 310.94C59.551 311.305 59.3794 311.703 59.258 312.123C54.866 318.055 52.5141 323.589 56.7501 323.754C60.6785 323.88 65.395 331.963 66.5246 334.004C66.4893 334.169 66.4442 334.331 66.3897 334.488C66.3897 334.488 60.8639 323.875 56.3539 323.73C51.8439 323.584 54.8197 317.299 59.768 310.94Z" fill="black"/>
<path d="M55.1105 315.748C55.1105 317.071 55.237 318.171 55.3971 318.171C55.5573 318.171 55.688 317.095 55.688 315.748C55.688 314.4 55.5278 315.045 55.3676 315.045C55.2075 315.045 55.1105 314.42 55.1105 315.748Z" fill="#FFD037"/>
<path d="M53.5088 317.328C54.5246 317.962 55.4056 318.35 55.4814 318.185C55.5573 318.021 54.7986 317.381 53.7955 316.732C52.7923 316.082 53.1801 316.557 53.1042 316.732C53.0283 316.906 52.4973 316.693 53.5088 317.328Z" fill="#FFD037"/>
<path opacity="0.1" d="M66.3939 363.28C80.8709 363.28 92.6067 361.21 92.6067 358.657C92.6067 356.104 80.8709 354.034 66.3939 354.034C51.917 354.034 40.1812 356.104 40.1812 358.657C40.1812 361.21 51.917 363.28 66.3939 363.28Z" fill="#6C63FF"/>
<path d="M79.8818 329.366L79.7554 330.544L79.5825 332.206L79.5067 332.899L79.3339 334.561L79.2538 335.254L79.081 336.916L77.0746 355.817C76.8934 357.504 74.4951 358.822 71.5952 358.822H61.18C58.2844 358.822 55.8903 357.504 55.7006 355.817L53.6943 336.916L53.5173 335.254L53.4456 334.561L53.2644 332.899L53.1927 332.206L53.0157 330.544L52.8892 329.366C52.7923 328.397 54.0863 327.602 55.7259 327.602H77.0494C78.6932 327.602 79.9872 328.411 79.8818 329.366Z" fill="#65617D"/>
<path d="M79.7596 330.544L79.5825 332.206H53.2012L53.0283 330.544H79.7596Z" fill="#9D9CB5"/>
<path d="M79.5109 332.899L79.3339 334.561H53.4541L53.277 332.899H79.5109Z" fill="#9D9CB5"/>
<path d="M79.258 335.254L79.081 336.916H53.7027L53.5257 335.254H79.258Z" fill="#9D9CB5"/>
<defs>
<linearGradient id="paint0_linear" x1="361.576" y1="342.02" x2="361.576" y2="108.131" gradientUnits="userSpaceOnUse">
<stop stop-color="#808080" stop-opacity="0.25"/>
<stop offset="0.54" stop-color="#808080" stop-opacity="0.12"/>
<stop offset="1" stop-color="#808080" stop-opacity="0.1"/>
</linearGradient>
</defs>
</svg>
