<svg width="403" height="338" viewBox="0 0 403 338" fill="none" xmlns="http://www.w3.org/2000/svg">
<path d="M44.5633 150.111C44.6635 150.242 44.7533 150.4 44.8327 150.583C44.8962 150.73 44.8966 150.882 44.8341 151.04C44.7924 151.145 44.7244 151.24 44.6301 151.324C44.5359 151.409 44.4783 151.477 44.4575 151.53C43.7608 152.136 43.1554 152.55 42.6414 152.772C42.2742 152.931 41.8123 153.022 41.2557 153.044C40.7457 152.873 40.2019 152.824 39.6244 152.9C39.0469 152.975 37.9265 153.307 36.2634 153.895C35.2462 154.466 34.3338 154.925 33.526 155.274C33.8562 156.744 33.9577 158.138 33.8305 159.457C33.9852 160.218 34.0531 160.93 34.0341 161.591C34.0945 162.437 34.1669 162.907 34.2512 163.001C34.2046 163.195 34.2605 164.282 34.419 166.262C34.5616 168.205 34.725 170.095 34.9093 171.933C35.0342 173.23 35.1159 174.175 35.1545 174.768C35.1297 175.215 35.1449 175.906 35.2004 176.84C35.2767 177.723 35.3311 178.353 35.3638 178.731L35.6296 183.126C35.574 183.804 35.5877 184.844 35.6709 186.246C35.7749 187.595 35.9047 188.803 36.0603 189.869L36.3428 192.034C36.4449 192.775 36.4939 193.342 36.4899 193.736C36.5226 194.114 36.5102 194.337 36.4526 194.405C36.3951 194.474 36.2115 194.553 35.9019 194.643C35.6081 194.77 35.1745 194.675 34.601 194.356C34.0801 194.058 33.7245 193.689 33.534 193.248C33.1848 192.441 32.873 190.963 32.5984 188.816C32.3606 186.653 32.2527 184.891 32.2747 183.53C32.1359 182.806 32.0342 182.218 31.9698 181.767C31.9421 181.299 31.9069 180.966 31.8643 180.766C31.9109 180.572 31.9095 180.115 31.86 179.396C31.8313 178.624 31.7714 177.93 31.6802 177.316C31.5047 176.608 31.0478 172.426 30.3097 164.77L30.1952 163.447C30.2876 162.753 30.2982 161.921 30.2269 160.949C30.4412 160.639 30.4215 160.19 30.1675 159.602C30.1199 159.492 30.1115 159.321 30.1423 159.09C30.2098 158.843 30.2277 158.683 30.1959 158.61C30.2376 158.504 30.2396 158.307 30.202 158.019C30.1851 157.677 30.2184 157.401 30.3018 157.191L30.278 157.136L29.4206 157.572L26.841 159.014L25.677 159.648C23.6267 160.752 22.4523 161.412 22.1536 161.628C21.0838 162.178 20.2706 162.464 19.714 162.487C19.194 162.494 18.8884 162.19 18.7972 161.576C18.7169 161.088 18.7944 160.662 19.0296 160.299C19.3015 159.92 19.7809 159.516 20.4676 159.089C20.7663 158.873 21.3612 158.485 22.2523 157.925L23.6203 157.007L25.3976 155.977C27.3844 154.726 29.5472 153.53 31.8862 152.388C32.8616 151.923 33.6719 151.529 34.3169 151.207C34.9828 150.832 35.4179 150.578 35.6224 150.446C36.1523 150.261 37.0181 149.996 38.2198 149.65C39.4582 149.289 40.3741 149.09 40.9675 149.051C41.8546 148.885 42.5532 148.888 43.0632 149.06C43.6099 149.216 44.1099 149.566 44.5633 150.111ZM48.3258 184.044C48.1204 183.871 47.8416 183.73 47.4894 183.621C47.158 183.459 46.9764 183.342 46.9447 183.268C46.7701 182.864 46.5434 182.592 46.2646 182.451C46.1594 182.409 46.0513 182.26 45.9402 182.003C45.6862 181.415 45.5331 180.305 45.4807 178.672C45.4492 176.986 45.5353 175.118 45.739 173.069C45.8641 172.754 45.9728 172.249 46.0652 171.556C46.1943 170.846 46.298 170.431 46.3764 170.31C46.313 170.163 46.3125 170.011 46.375 169.853C46.4217 169.658 46.5184 169.529 46.6653 169.466L46.5225 169.136C46.3796 168.805 46.6442 167.754 47.3162 165.982C47.9724 164.173 48.5828 162.863 49.1476 162.053C49.7957 161.032 50.597 160.315 51.5517 159.902C52.2126 159.616 52.861 159.554 53.497 159.715C53.7759 159.856 54.9616 160.28 57.0542 160.988L59.8776 161.925L60.0766 165.107C60.1746 166.241 60.3983 167.212 60.7474 168.02C61.3505 169.415 62.3337 170.581 63.697 171.516C64.0551 171.841 64.589 172.068 65.2984 172.197C66.0079 172.326 66.6539 172.308 67.2363 172.144C68.1076 171.941 68.6861 172.171 68.9717 172.831C69.2892 173.566 69.1492 174.149 68.5518 174.582C68.4208 174.682 68.2084 174.796 67.9147 174.923C65.7484 175.859 63.2172 175.145 60.3211 172.78C60.079 172.623 59.7025 172.306 59.1915 171.83C58.7173 171.338 58.4142 170.989 58.2822 170.785C58.1889 171.174 58.0643 171.642 57.9084 172.188C57.7526 172.735 57.5913 173.219 57.4245 173.64C55.1524 179.372 52.8597 182.738 50.5466 183.737C49.8122 184.055 49.072 184.157 48.3258 184.044ZM48.9753 180.103C49.0547 180.286 49.2621 180.262 49.5975 180.03C49.9696 179.782 50.3676 179.392 50.7914 178.86C51.2519 178.312 51.6727 177.673 52.0538 176.942C54.037 172.86 55.2897 169.507 55.812 166.885L56.1666 164.378C55.4661 163.766 54.8425 163.382 54.2958 163.226C53.7332 163.034 53.2867 163.009 52.9563 163.152C52.1852 163.485 51.3942 164.982 50.5831 167.642C49.7561 170.265 49.2269 173.174 48.9952 176.368C48.9346 177.135 48.9186 177.905 48.9472 178.677C48.96 179.412 48.9694 179.887 48.9753 180.103ZM73.3806 175.24C72.8766 175.283 72.2351 175.06 71.4562 174.568C70.6615 174.04 70.1371 173.483 69.8832 172.895L69.6543 170.249L69.2724 166.492C69.3965 165.872 69.4075 165.191 69.3054 164.451C69.2241 163.658 69.1781 163.199 69.1672 163.073C69.2328 162.217 69.237 160.21 69.1799 157.054L69.1312 154.068C69.207 151.421 69.1945 149.073 69.0935 147.025L69.0939 144.606L69.0928 141.73C69.0288 138.054 68.9592 135.927 68.8838 135.35C68.7569 135.056 68.7167 134.812 68.7634 134.617C68.8468 134.407 68.9619 134.27 69.1088 134.207C69.213 133.944 69.467 133.725 69.8709 133.55C70.0545 133.471 70.4752 133.638 71.133 134.051C71.775 134.427 72.1832 134.817 72.3578 135.221C72.6276 135.845 72.8259 137.11 72.9527 139.016C73.0635 140.886 73.0518 143.026 72.9175 145.437C72.6681 154.74 72.7538 159.474 73.1745 159.641C73.2896 159.504 73.5382 159.222 73.9203 158.796C74.2865 158.333 74.6473 157.806 75.0026 157.217C75.2537 156.89 75.4864 156.572 75.7008 156.261C75.8993 155.914 76.077 155.619 76.2338 155.377C77.0387 154.114 77.5538 153.39 77.7791 153.206C77.9359 152.964 78.247 152.524 78.7125 151.887C79.1829 151.161 79.4286 150.772 79.4494 150.719C79.7948 150.308 80.1143 150.039 80.4081 149.912C80.6284 149.817 80.8621 149.803 81.1091 149.871C81.3562 149.938 81.6717 150.063 82.0557 150.246C82.3871 150.408 82.6083 150.617 82.7194 150.874C82.8305 151.131 82.8027 151.47 82.6359 151.891C82.4533 152.275 82.1084 152.838 81.6013 153.58C81.2668 154.117 80.906 154.643 80.519 155.159C80.1319 155.675 79.7632 156.183 79.4128 156.683C77.4676 159.441 76.4821 160.891 76.4562 161.033C76.5932 161.148 76.9012 161.407 77.3804 161.81C77.8964 162.197 78.3622 162.519 78.7779 162.775L80.223 163.85C80.9334 164.284 81.3283 164.592 81.4077 164.776C82.1349 165.551 82.885 166.076 83.6579 166.352C84.4676 166.613 85.2029 166.6 85.8638 166.314C86.1942 166.171 86.5401 165.913 86.9013 165.539C87.3568 165.08 87.7498 164.78 88.0803 164.637C88.5943 164.415 89.0701 164.558 89.5076 165.066C89.713 165.238 89.8395 165.38 89.8871 165.49C89.9506 165.637 89.8364 166.078 89.5446 166.815C89.0026 168.182 88.2359 169.08 87.2446 169.508C86.9141 169.651 86.4889 169.726 85.969 169.733C85.4341 170.008 84.5778 169.942 83.4 169.536C82.2589 169.114 80.5414 168.266 78.2474 166.992C78.184 166.845 77.7757 166.455 77.0226 165.822C76.7329 165.555 76.4407 165.332 76.1461 165.155C75.8355 164.94 75.6197 164.794 75.4987 164.716C75.4352 164.569 75.264 164.425 74.9852 164.284C74.7273 164.09 74.5298 163.936 74.3929 163.821C73.9414 163.885 73.6268 164.065 73.4492 164.359C73.3082 164.638 73.199 164.991 73.1216 165.416C73.0808 165.826 73.0371 166.128 72.9904 166.323C73.0359 167.436 73.1766 168.77 73.4126 170.324C73.6327 171.841 73.8851 172.778 74.1698 173.134C74.4237 173.721 74.5065 174.165 74.4182 174.464C74.3139 174.727 73.9681 174.986 73.3806 175.24ZM98.3126 164.986C96.7338 165.668 95.1764 165.644 93.6405 164.913C92.1045 164.183 90.9556 162.936 90.1938 161.174C89.432 159.412 88.9843 157.317 88.8507 154.891C88.7379 152.413 88.9407 150.059 89.4589 147.83C89.9772 145.602 90.7519 143.916 91.7831 142.773C92.3428 142.052 93.0817 141.493 93.9996 141.096C94.6972 140.794 95.5739 140.655 96.6297 140.678C97.3649 140.665 97.9772 140.771 98.4663 140.995C98.9555 141.22 99.4952 141.662 100.086 142.322C100.481 142.935 100.735 143.37 100.846 143.627C100.941 143.847 101.056 144.364 101.19 145.178C101.336 146.727 101.249 148.138 100.927 149.41C100.626 150.629 100.049 151.815 99.1969 152.968C98.7682 153.589 98.1132 154.09 97.232 154.471C96.461 154.805 95.6711 154.993 94.8624 155.038C94.0745 155.03 93.3779 154.83 92.7727 154.438L92.1967 154.164L92.222 154.676C92.308 156.992 92.6525 158.848 93.2556 160.243C93.6683 161.197 94.1851 161.889 94.8063 162.318C95.2379 162.611 95.9493 162.543 96.9407 162.114C97.675 161.797 98.1757 161.493 98.4426 161.203C98.914 160.782 99.2961 160.355 99.5889 159.924C99.9025 159.439 100.198 158.963 100.475 158.495L100.647 158.289L100.592 158.313C100.938 157.903 101.218 157.542 101.432 157.231C101.646 156.921 101.793 156.705 101.871 156.584C101.945 156.552 102.01 156.502 102.068 156.434C102.125 156.365 102.167 156.26 102.193 156.118C102.46 155.828 102.869 155.717 103.421 155.783C103.972 155.85 104.335 156.085 104.51 156.489C104.564 156.815 104.439 157.435 104.138 158.35C103.836 159.264 103.546 159.804 103.268 159.967C103.232 159.983 103.127 160.094 102.954 160.299C102.781 160.505 102.674 160.66 102.633 160.765L102.688 160.741C102.548 161.325 102.312 161.688 101.982 161.831L101.541 162.021C101.521 162.378 101.153 162.886 100.435 163.545C99.7545 164.188 99.0469 164.668 98.3126 164.986ZM95.5534 151.798C96.6549 151.322 97.3948 150.261 97.7731 148.616C98.1464 147.06 98.0792 145.695 97.5713 144.52C97.3015 143.896 96.9825 143.51 96.6144 143.365C96.3465 143.35 96.1207 143.382 95.9372 143.461C95.7536 143.541 95.4653 143.731 95.0723 144.031C94.6426 144.348 94.1305 145.179 93.5359 146.526C92.9255 147.835 92.5324 148.942 92.3566 149.846L92.1406 151.312C92.3867 151.075 92.6383 150.901 92.8953 150.79C93.1731 150.626 93.3463 150.573 93.4148 150.631C93.637 151.145 93.948 151.511 94.3478 151.731C94.7477 151.95 95.1496 151.972 95.5534 151.798ZM134.704 150.824C134.62 151.034 134.505 151.171 134.358 151.235C134.175 151.314 133.815 151.339 133.279 151.309C132.754 151.405 132.342 151.409 132.042 151.321C131.759 151.269 131.545 151.078 131.402 150.747C131.244 150.38 131.174 149.866 131.193 149.204C131.253 148.437 130.773 145.006 129.75 138.911C129.327 136.218 129.115 134.872 129.115 134.872C129.1 134.835 128.927 134.234 128.598 133.069C128.47 132.471 128.199 131.39 127.784 129.826C127.86 128.791 127.757 127.746 127.475 126.691C127.214 125.584 127.07 124.949 127.043 124.786C126.872 123.683 126.778 122.961 126.761 122.62L126.423 120.478L126.206 119.069C126.067 118.04 125.941 117.397 125.83 117.14L125.449 116.258L123.411 117.139L122.389 117.647L120.272 118.496C119.742 118.682 119.018 118.973 118.1 119.37C116.343 120.042 115.115 120.377 114.416 120.374C113.702 120.334 113.152 119.918 112.766 119.126C112.434 118.66 112.438 118.266 112.778 117.945C113.103 117.586 113.999 117.09 115.468 116.455C116.753 115.899 117.844 115.45 118.741 115.105C119.239 114.847 119.966 114.511 120.92 114.098C121.948 113.654 122.801 113.307 123.477 113.058C124.191 112.793 124.603 112.637 124.713 112.589C124.775 112.432 124.804 112.245 124.798 112.03C124.792 111.814 124.783 111.644 124.773 111.518C124.503 110.894 124.538 110.421 124.878 110.099C124.892 109.527 125.065 109.169 125.395 109.026C125.836 108.836 126.445 108.986 127.224 109.477C127.377 109.629 127.63 109.912 127.983 110.326C128.357 110.687 128.728 110.941 129.096 111.087C129.18 110.876 129.617 110.578 130.409 110.192C131.201 109.806 131.755 109.524 132.069 109.344C132.767 109.043 133.475 108.715 134.193 108.361C134.896 107.97 135.376 107.719 135.633 107.608C135.884 107.281 136.358 106.967 137.056 106.666C137.386 106.523 137.861 106.361 138.48 106.181C139.325 105.816 139.928 105.598 140.29 105.529C140.689 105.444 140.983 105.469 141.173 105.605C141.347 106.009 141.566 106.263 141.829 106.367C142.024 106.414 142.145 106.492 142.192 106.602C142.224 106.676 142.222 106.873 142.186 107.193C142.072 107.635 141.483 108.086 140.418 108.546L139.285 109.101C138.509 109.524 137.937 109.814 137.57 109.973C136.229 110.902 134.205 112.016 131.498 113.317C129.993 113.967 129.304 114.44 129.431 114.733C129.211 114.829 129.304 116.204 129.712 118.861C129.872 119.837 129.983 120.748 130.043 121.594C130.124 122.386 130.147 122.943 130.111 123.264C130.285 123.363 130.411 123.504 130.491 123.688C130.57 123.871 130.635 124.323 130.684 125.042C130.749 125.494 130.795 125.953 130.822 126.421C130.834 126.851 130.888 127.177 130.983 127.397C131.01 127.56 131.058 127.975 131.129 128.641C131.22 129.256 131.361 129.935 131.553 130.681C132.131 132.522 132.337 133.654 132.17 134.074C132.165 134.164 132.136 134.35 132.085 134.634C132.07 134.902 132.118 135.164 132.229 135.421C132.451 135.935 132.72 136.909 133.034 138.342C133.332 139.738 133.432 140.523 133.333 140.696C133.443 140.649 133.546 140.735 133.641 140.955C133.752 141.212 133.808 141.646 133.81 142.255C133.937 142.549 134.033 142.921 134.097 143.373C134.162 143.824 134.226 144.123 134.289 144.27L134.453 146.161C134.703 149.059 134.787 150.613 134.704 150.824ZM149.899 142.098C149.474 142.326 149.099 142.466 148.773 142.519C148.469 142.52 147.988 142.467 147.331 142.359C145.197 141.756 143.878 140.822 143.375 139.558C143.364 139.432 143.311 139.259 143.216 139.039C143.121 138.818 143.031 138.661 142.947 138.567C142.847 138.436 142.789 138.352 142.773 138.315C142.578 138.269 142.455 138.235 142.402 138.214C142.37 138.141 142.357 138.059 142.362 137.97C142.404 137.865 142.427 137.768 142.432 137.678C142.563 137.578 142.605 137.473 142.557 137.363C142.509 137.253 142.417 137.14 142.28 137.025C142.043 136.779 141.813 136.094 141.588 134.971C141.385 133.795 141.287 132.661 141.294 131.568C141.286 130.744 141.357 129.646 141.505 128.274C141.689 126.887 141.93 125.781 142.227 124.955C142.617 123.741 143.021 122.76 143.439 122.013C143.893 121.25 144.48 120.539 145.197 119.88C145.825 119.216 146.286 118.821 146.58 118.694C146.947 118.535 147.501 118.557 148.242 118.76C149.235 118.636 150.054 118.717 150.701 119.004C151.369 119.239 152.038 119.777 152.707 120.621C153.261 121.297 153.744 122.112 154.157 123.067C155.046 125.123 155.379 127.659 155.157 130.674C155.068 132.282 154.87 133.587 154.563 134.592C154.24 135.559 153.735 136.758 153.046 138.189C152.545 139.146 152.072 139.917 151.627 140.502C151.219 141.07 150.643 141.602 149.899 142.098ZM151.472 133.64C151.751 132.168 151.894 130.886 151.901 129.794C151.892 128.665 151.715 127.347 151.369 125.841C151.342 125.678 151.233 125.376 151.043 124.936C150.725 124.201 150.35 123.535 149.918 122.938C149.485 122.341 149.151 122.071 148.915 122.13C148.573 122.146 148.274 122.21 148.017 122.322C147.173 122.687 146.487 123.571 145.961 124.975C145.525 126.384 145.293 127.966 145.267 129.72C145.262 131.422 145.4 133.454 145.68 135.817C145.814 136.63 145.976 137.258 146.166 137.698C146.452 138.359 146.811 138.836 147.242 139.129C147.658 139.385 148.105 139.41 148.582 139.203C149.169 138.949 149.722 138.362 150.239 137.441C150.74 136.484 151.151 135.217 151.472 133.64ZM177.756 129.795C177.132 130.065 176.612 130.072 176.196 129.816C175.518 129.456 175.015 129.15 174.689 128.899C174.383 128.595 174.127 128.205 173.921 127.727C173.746 127.323 173.622 126.985 173.547 126.712L172.673 124.083C172.567 124.042 172.428 124.124 172.256 124.329C172.12 124.518 171.992 124.726 171.872 124.953C171.788 125.163 171.697 125.355 171.598 125.529L170.995 126.704C170.173 129.238 169.323 131.153 168.444 132.448C167.603 133.727 166.668 134.588 165.64 135.033L165.01 135.24C164.207 135.499 163.479 135.378 162.827 134.876C162.158 134.337 161.593 133.535 161.133 132.471C160.895 131.92 160.739 131.508 160.664 131.235C160.256 129.886 160.015 128.574 159.943 127.298C159.871 126.022 159.979 124.559 160.268 122.909C160.416 121.537 160.856 120.084 161.586 118.548C162.353 116.996 163.237 115.764 164.237 114.853C165.164 113.973 166.105 113.326 167.06 112.914C167.684 112.644 168.348 112.466 169.051 112.379C169.587 112.409 169.984 112.369 170.241 112.258C170.534 112.131 170.675 111.852 170.663 111.421C170.715 111.137 170.706 110.662 170.635 109.995C170.58 109.061 170.573 108.388 170.613 107.978L170.278 103.875L170.233 99.8412L170.212 95.4058C170.311 93.6197 170.618 92.6155 171.132 92.3933C171.426 92.2664 171.862 92.3175 172.44 92.5468C172.93 92.7712 173.269 93.1036 173.46 93.5442C173.618 93.9114 173.707 94.4179 173.724 95.0639C173.779 95.694 173.818 96.4397 173.842 97.301C173.698 98.2784 173.617 99.4026 173.6 100.674L173.583 102.903C173.608 105.682 173.631 107.349 173.654 107.906L173.856 109.583C173.97 110.754 174.113 111.739 174.283 112.537C174.672 114.242 174.756 115.143 174.536 115.238C174.176 116.221 174.489 118.657 175.472 122.546C175.706 123.491 176.363 125.212 177.442 127.708C177.807 128.553 178.001 129.101 178.023 129.353C178.065 129.553 177.976 129.7 177.756 129.795ZM164.525 131.396C165.223 131.095 165.828 130.528 166.34 129.697C166.873 128.813 167.497 127.584 168.211 126.012C168.79 124.629 169.341 122.626 169.863 120.003C170.385 117.381 170.575 115.904 170.432 115.574C170.369 115.427 170.13 115.378 169.715 115.426C169.3 115.475 168.872 115.594 168.432 115.785C168.138 115.912 167.86 116.076 167.598 116.276C166.833 116.825 166.174 117.567 165.62 118.504C165.087 119.388 164.61 120.553 164.189 121.998C163.716 123.728 163.459 125.451 163.417 127.169C163.375 128.887 163.521 130.131 163.854 130.902C164.045 131.343 164.268 131.507 164.525 131.396ZM188.959 124.626C188.519 124.816 188.138 124.893 187.818 124.858C187.497 124.822 187.011 124.705 186.359 124.508C184.592 123.746 183.478 122.833 183.018 121.769C182.907 121.512 182.846 121.32 182.835 121.194C182.834 120.889 182.76 120.616 182.612 120.375C182.501 120.118 182.429 119.953 182.398 119.88C182.187 119.796 182.074 119.736 182.058 119.7C182.026 119.626 182.039 119.555 182.097 119.487C182.139 119.382 182.162 119.284 182.167 119.195C182.387 119.1 182.373 118.866 182.125 118.494C181.925 118.232 181.794 117.526 181.733 116.376C181.655 115.189 181.71 114.054 181.895 112.972C182.014 112.136 182.244 111.056 182.587 109.732C182.966 108.391 183.356 107.329 183.758 106.545C184.306 105.393 184.85 104.483 185.389 103.814C185.927 103.145 186.579 102.537 187.345 101.988C188 101.487 188.456 101.181 188.713 101.07C188.97 100.959 189.222 100.937 189.469 101.005C189.737 101.019 190.107 101.121 190.581 101.308C191.762 101.32 192.688 101.596 193.356 102.135C194.046 102.621 194.7 103.58 195.319 105.012C196.351 107.399 196.497 110.408 195.757 114.04C195.436 115.616 195.051 116.894 194.603 117.872C194.138 118.814 193.459 119.913 192.565 121.172C192.032 122.056 191.49 122.769 190.941 123.312C190.412 123.802 189.751 124.24 188.959 124.626ZM191.723 116.502C192.176 115.13 192.469 113.892 192.602 112.789C192.771 111.67 192.801 110.327 192.692 108.763C192.605 108.059 192.372 107.267 191.991 106.386C191.515 105.284 191.098 104.723 190.741 104.703C190.294 104.679 189.887 104.746 189.52 104.904C188.712 105.253 188.027 105.986 187.463 107.101C186.795 108.479 186.332 110.03 186.075 111.753C185.802 113.44 185.653 115.465 185.629 117.829C185.595 118.759 185.737 119.591 186.055 120.325C186.293 120.876 186.612 121.261 187.011 121.48C187.448 121.684 187.905 121.682 188.382 121.476C189.594 120.952 190.707 119.294 191.723 116.502ZM225.122 112.001C222.813 112.607 220.813 112.011 219.121 110.215C218.952 110.027 218.689 109.77 218.331 109.446C217.993 109.068 217.737 108.678 217.563 108.274C217.357 107.797 217.186 106.999 217.051 105.881C216.134 103.053 215.576 100.2 215.378 97.322C215.335 97.1225 215.276 96.7341 215.201 96.1565C215.162 95.5632 215.129 94.8805 215.1 94.1085C214.91 92.0554 214.891 89.4924 215.045 86.4193C215.182 83.3095 215.478 80.4146 215.931 77.7345C216.385 75.0544 216.881 73.2277 217.419 72.2544C217.784 71.4864 218.279 70.9675 218.903 70.6977C219.381 70.4914 219.699 70.5718 219.857 70.939C219.863 71.1543 219.882 71.2987 219.914 71.3721C219.93 71.4088 220.019 71.4138 220.182 71.387C220.402 71.2918 220.568 71.3727 220.679 71.6297C220.869 72.0703 220.877 72.7426 220.701 73.6465C220.509 74.5137 220.209 75.2316 219.802 75.8001C219.833 75.8736 219.842 76.0442 219.827 76.3121C219.812 76.5801 219.695 76.9139 219.475 77.3138C219.524 77.7286 219.538 78.1146 219.518 78.4718C219.498 78.829 219.486 79.0523 219.481 79.1416C219.476 79.2309 219.437 79.4437 219.365 79.7801C219.329 80.1006 219.307 80.5025 219.298 80.9857C218.96 82.221 218.855 82.9856 218.982 83.2793C218.983 83.5839 218.95 84.1644 218.885 85.0207C218.84 85.8245 218.842 86.2814 218.889 86.3916L218.623 86.8336C218.734 87.0906 218.804 87.6051 218.832 88.3771C218.882 89.0965 218.834 89.7926 218.689 90.4653C218.686 91.1639 218.75 92.4216 218.882 94.2385C219.027 95.1782 219.071 95.8346 219.014 96.2077C219.004 96.3863 219.037 96.612 219.111 96.8849C219.028 97.0953 219.029 97.5522 219.115 98.2558C219.201 98.9593 219.398 99.7675 219.706 100.68L219.929 103.918C219.656 103.992 219.733 104.525 220.162 105.516C220.591 106.508 221.1 107.486 221.692 108.45C222.039 108.649 222.373 108.766 222.693 108.802C223.035 108.785 223.481 108.657 224.031 108.419L225.801 107.524C225.927 107.513 226.119 107.452 226.376 107.341C226.706 107.198 227.139 106.989 227.674 106.714C228.193 106.403 228.607 106.202 228.917 106.112C229.982 105.651 231.127 105.025 232.354 104.234C232.91 103.906 233.481 103.616 234.069 103.362C234.362 103.235 234.58 103.184 234.722 103.21C234.848 103.199 235.043 103.246 235.305 103.35C235.826 103.648 236.134 103.907 236.23 104.127C236.404 104.531 236.08 105.041 235.258 105.658C233.366 107.13 231.437 108.465 229.471 109.663C227.558 110.882 226.108 111.661 225.122 112.001ZM240.571 75.1891C240.508 75.3469 240.422 75.4495 240.312 75.4972C240.165 75.5606 239.879 75.5537 239.453 75.4762C239.07 75.5982 238.439 75.5004 237.561 75.1827C236.704 74.8125 236.236 74.5356 236.156 74.352C235.766 73.6494 235.534 72.8124 235.463 71.8409C235.392 70.8695 235.734 70.1987 236.489 69.8287C236.599 69.7811 236.762 69.7543 236.977 69.7484C237.177 69.7058 237.536 69.681 238.056 69.6742C238.193 69.7893 238.475 70.0379 238.902 70.42C239.365 70.7862 239.747 71.1658 240.047 71.5588C240.385 71.9359 240.633 72.308 240.792 72.6752C241.172 73.5564 241.099 74.3944 240.571 75.1891ZM243.846 99.8541C243.296 100.092 242.649 99.9576 241.907 99.4505C241.202 98.9275 240.661 98.333 240.286 97.6671C239.83 96.2084 239.512 95.1695 239.331 94.5502C239.038 93.0648 238.695 91.0122 238.304 88.3925C237.933 85.7203 237.757 84.2055 237.777 83.8483C237.808 83.6171 237.934 83.4539 238.154 83.3587C238.374 83.2634 238.645 83.2337 238.965 83.2695C239.286 83.3053 239.577 83.3752 239.84 83.4795C240.309 83.7564 240.654 84.1519 240.876 84.6659C241.209 85.4369 241.541 87.2112 241.87 89.9886C242.149 92.0466 242.382 93.4929 242.569 94.3274C242.755 95.162 243.057 96.0119 243.475 96.8772C243.549 97.1501 243.666 97.6225 243.826 98.2943C244.006 98.9135 244.092 99.3124 244.082 99.491C244.072 99.6696 243.993 99.7906 243.846 99.8541ZM256.727 95.3976C254.891 96.1911 253.265 96.1095 251.849 95.1528C251.465 94.9702 251.178 94.6585 250.988 94.2179C250.892 93.9976 250.85 93.7982 250.86 93.6196C250.891 93.3884 250.979 93.241 251.126 93.1776C251.31 93.0982 251.567 93.1394 251.899 93.3012C252.54 93.3727 253.338 93.2022 254.292 92.7895C255.32 92.3451 256.251 91.7251 257.083 90.9294C258.036 89.9075 258.192 89.3608 257.551 89.2892L257.606 89.2654C256.015 89.5172 254.282 89.4386 252.405 89.0295C250.55 88.5678 249.366 87.9465 248.854 87.1655C248.554 86.7725 248.3 86.3374 248.094 85.8601C247.697 84.9422 247.502 83.9369 247.509 82.8445C247.516 81.752 247.702 80.6694 248.066 79.5968C248.866 78.4231 249.416 77.728 249.714 77.5118L249.738 77.5668C250.093 76.6729 250.615 75.8151 251.306 74.9936C252.033 74.1562 253.01 73.1894 254.236 72.0931L255.014 71.6258L256.068 71.0395C256.121 71.0604 256.228 71.0574 256.391 71.0307C256.554 71.0039 256.716 70.9771 256.879 70.9504C257.147 70.9653 257.354 70.941 257.501 70.8775C258.247 70.6861 259.035 70.8465 259.866 71.3586C260.734 71.8549 261.275 72.4493 261.487 73.142C261.731 73.908 261.788 74.6458 261.659 75.3553C261.551 76.0121 261.274 76.4804 260.829 76.7602C260.849 76.7076 260.744 76.6659 260.513 76.6351C260.282 76.6043 260.095 76.576 259.953 76.5502L259.836 76.7318C259.82 76.6951 259.778 76.6479 259.709 76.5904C259.662 76.4802 259.577 76.3859 259.456 76.3075C259.251 76.1348 259.077 75.8833 258.934 75.5528L258.632 74.7029L258.504 74.1045C258.456 73.9944 258.351 73.9527 258.189 73.9795C258.01 73.9695 257.792 74.0201 257.535 74.1312L257.071 74.2666C256.483 74.5205 255.831 74.9769 255.113 75.6356C254.396 76.2944 253.857 76.9631 253.496 77.6418C252.597 78.9892 251.971 80.1099 251.616 81.0039C251.283 81.8453 251.107 82.7492 251.089 83.7157C250.918 84.5303 250.896 85.0845 251.023 85.3782C251.198 85.7821 251.648 86.067 252.373 86.2328C253.135 86.3827 254.286 86.4737 255.825 86.5057C257.043 86.5019 258.068 86.6037 258.898 86.8112C259.765 87.0028 260.436 87.3448 260.91 87.837C260.979 87.8946 261.061 88.0335 261.156 88.2538C261.267 88.5108 261.302 88.6919 261.26 88.7971C261.365 88.8388 261.426 88.878 261.442 88.9147L261.418 88.8596C261.692 89.0899 261.868 89.2968 261.948 89.4804C262.201 90.0678 262.072 90.7773 261.56 91.6088C261.032 92.4035 260.247 93.157 259.204 93.8693L259.259 93.8455C258.489 94.4834 257.645 95.0008 256.727 95.3976ZM274.948 87.9787C274.313 88.1225 273.541 87.9989 272.631 87.6078C271.742 87.1641 271.078 86.6882 270.641 86.1801C270.609 86.1067 270.541 86.0491 270.436 86.0074C270.314 85.929 270.228 85.8794 270.175 85.8586C269.981 85.8119 269.645 85.2378 269.169 84.1363C268.788 83.2551 268.428 82.3213 268.089 81.335C267.786 80.3327 267.582 79.5061 267.475 78.8552L267.204 75.5077L267.023 72.9714L267.129 69.1343L264.664 69.4807C264.391 69.5551 264.116 69.5218 263.837 69.3809C263.595 69.2241 263.434 69.0539 263.355 68.8703C263.228 68.5766 263.224 68.1643 263.343 67.6334C263.483 67.05 263.645 66.7186 263.828 66.6392C263.954 66.6283 264.256 66.5197 264.733 66.3134C265.835 65.8372 266.637 65.4251 267.14 65.0768C267.444 64.7713 267.574 64.3664 267.53 63.8624C267.55 63.5051 267.557 63.0665 267.55 62.5466C267.58 62.0108 267.607 61.5196 267.632 61.0731C267.647 60.8052 267.669 60.4033 267.699 59.8675C267.75 59.2791 267.832 58.6118 267.945 57.8656C267.971 57.7237 268.025 57.3953 268.107 56.8803C268.174 56.3286 268.327 55.8265 268.567 55.3741C268.713 55.0059 268.97 54.7425 269.337 54.5838C269.704 54.4251 270.285 54.4574 271.078 54.6808C271.2 54.7592 271.355 54.8664 271.544 55.0024C271.771 55.1225 271.915 55.256 271.979 55.4028C272.042 55.5497 272.03 55.9253 271.943 56.5295C271.913 57.0654 271.867 57.5645 271.806 58.0269C271.765 58.4367 271.727 58.8018 271.691 59.1223C271.568 60.0471 271.494 60.7328 271.469 61.1793C271.308 61.8153 271.283 62.2618 271.394 62.5189C271.506 62.7759 271.8 62.8012 272.277 62.5949C272.791 62.3727 273.606 61.8896 274.723 61.1455C275.205 60.8499 275.538 60.6624 275.722 60.583C277.007 60.0276 277.934 60.2584 278.505 61.2756C278.637 61.48 278.766 61.7291 278.893 62.0228C279.115 62.5368 279.067 62.9283 278.747 63.1971C278.464 63.4501 277.717 63.8385 276.505 64.3622C275.41 65.0537 274.238 65.6693 272.989 66.2089C272.769 66.3041 272.52 66.4336 272.242 66.5972C271.985 66.7083 271.726 66.8641 271.464 67.0645C271.202 67.2649 271.029 67.4703 270.946 67.6806C270.899 67.8751 270.874 68.1693 270.87 68.5632C270.807 68.721 270.733 69.2543 270.646 70.1633C270.592 71.4502 270.54 72.2356 270.488 72.5194C270.766 75.8853 271.333 79.2134 272.189 82.5039C272.37 83.1232 272.492 83.5062 272.555 83.6531C272.793 84.2038 273.144 84.51 273.606 84.5716C274.068 84.6331 274.74 84.4735 275.621 84.0926C276.87 83.553 277.897 82.9562 278.704 82.3024C279.599 81.349 280.251 80.588 280.659 80.0195C280.91 79.6931 281.132 79.4009 281.326 79.1429C281.54 78.8324 281.687 78.6166 281.765 78.4955C281.78 78.2276 281.861 78.0619 282.008 77.9984C282.301 77.8714 282.685 78.0541 283.16 78.5463C283.413 79.1338 283.507 79.7034 283.441 80.2551C283.374 80.8068 282.954 81.5985 282.18 82.6304C280.637 84.9094 278.801 86.5092 276.672 87.4298C276.084 87.6837 275.51 87.8667 274.948 87.9787ZM87.9098 337.036C87.4106 336.991 87.0296 336.916 86.7667 336.811C86.5405 336.691 86.3639 336.484 86.2369 336.191C86.0782 335.823 86.0028 335.246 86.0109 334.458C86.0398 333.618 86.1223 332.296 86.2585 330.494C86.2725 329.922 86.3297 328.895 86.4301 327.413C86.798 322.417 86.9026 319.736 86.7439 319.369C86.6754 319.311 86.6094 319.209 86.5459 319.062C86.3872 318.695 86.5381 318.237 86.9986 317.69C87.4781 316.48 87.7868 315.279 87.9249 314.086C87.9429 313.12 88.0259 311.951 88.174 310.58C88.3062 309.172 88.4979 307.498 88.7492 305.559C88.8565 304.598 89.0334 303.192 89.2797 301.343C89.5907 298.332 90.192 294.935 91.0836 291.15C91.4361 289.647 91.8956 288.795 92.4623 288.593C93.1599 288.292 94.0738 288.289 95.2039 288.585C96.3549 288.828 97.2702 289.282 97.9499 289.947C98.2078 290.141 98.5193 290.66 98.8844 291.504C99.3764 292.642 100.081 294.626 100.999 297.454C101.131 297.963 101.383 298.747 101.754 299.807C102.358 301.507 102.955 303.341 103.544 305.308C104.918 309.595 106.013 312.935 106.829 315.327C107.645 317.72 108.49 319.926 109.363 321.945C109.807 322.973 110.151 323.718 110.394 324.18L110.561 324.565L111.053 325.856C110.928 326.171 110.645 326.424 110.205 326.615C109.691 326.837 109.139 326.922 108.551 326.872C107.979 326.858 107.584 326.701 107.368 326.403C107.315 326.382 107.244 326.369 107.155 326.364C107.066 326.359 106.958 326.21 106.831 325.916L106.362 324.681L105.194 321.525L101.613 312.484L100.92 312.848C100.186 313.166 98.6157 314.019 96.2093 315.408C93.8028 316.797 92.3271 317.718 91.7823 318.171C91.4519 318.314 91.1432 318.709 90.8564 319.356C90.5695 320.003 90.3933 320.754 90.3276 321.611C90.3762 322.025 90.3493 322.669 90.247 323.541C90.1288 324.377 90.0935 324.849 90.1411 324.96C89.9843 325.202 89.8697 325.491 89.7972 325.827C89.7455 326.111 89.7172 326.298 89.7123 326.387C89.8868 326.791 89.9457 327.985 89.8889 329.971C89.8687 331.941 89.7296 333.635 89.4714 335.054L89.0766 337.316L87.9098 337.036ZM91.6444 314.374C91.8489 314.242 92.2944 313.962 92.9812 313.535C93.652 313.071 94.2732 312.693 94.8448 312.402C97.2186 310.636 98.6992 309.625 99.2867 309.371C99.5437 309.26 99.8062 309.212 100.074 309.227C100.248 309.326 100.405 309.389 100.547 309.415C100.71 309.388 100.81 309.366 100.847 309.351C100.825 309.099 100.188 307.021 98.9363 303.117C97.7054 299.16 96.8386 296.55 96.3357 295.286L95.3105 292.461C95.0902 292.556 94.7954 293.184 94.4262 294.346C94.0569 295.508 93.7069 296.967 93.3762 298.722C93.0664 300.425 92.8642 302.125 92.7697 303.821C92.6882 304.641 92.5908 305.424 92.4776 306.17C92.3852 306.864 92.2656 307.242 92.1188 307.306C91.9728 307.674 91.7955 308.927 91.5869 311.065C91.3782 313.204 91.3974 314.307 91.6444 314.374ZM134.34 311.802C133.606 312.12 132.936 312.235 132.332 312.147C131.712 312.023 131.078 311.665 130.43 311.074C129.592 310.042 128.919 308.938 128.411 307.763C128.173 307.213 128.061 306.803 128.076 306.535C128.159 306.325 128.079 305.989 127.836 305.528C127.614 305.014 127.456 304.646 127.36 304.426C126.959 303.598 126.519 303.286 126.042 303.493C125.711 303.636 125.4 303.923 125.107 304.354C123.606 306.528 122.357 308.376 121.358 309.897C120.36 311.418 119.464 313.025 118.671 314.719C118.411 315.528 118.248 316.209 118.181 316.761C118.114 317.313 118.066 317.704 118.035 317.935C117.988 318.13 117.873 318.267 117.69 318.346C117.501 318.515 117.37 318.615 117.297 318.647C117.113 318.726 116.853 318.729 116.517 318.657C116.164 318.548 115.936 318.472 115.831 318.431C115.62 318.347 115.278 318.212 114.805 318.024C114.316 317.8 114.021 317.622 113.921 317.491C113.794 317.197 113.611 316.47 113.371 315.31C113.167 314.135 113.076 313.368 113.096 313.011C113.206 312.963 113.276 312.671 113.306 312.136C113.32 311.563 113.363 311.109 113.435 310.772C113.307 310.174 113.237 308.701 113.225 306.353C113.358 305.25 113.389 304.365 113.319 303.698C113.285 303.015 113.114 302.217 112.807 301.304L112.759 301.194C112.696 301.047 112.703 300.913 112.782 300.792C112.844 300.635 112.931 300.532 113.041 300.484C113.218 300.19 113.417 299.995 113.638 299.899C114.115 299.693 114.719 299.781 115.451 300.162C116.303 300.621 116.896 301.236 117.229 302.008C117.642 302.962 117.687 304.729 117.364 307.309C117.365 307.614 117.358 308.053 117.344 308.625C117.367 309.182 117.418 309.552 117.497 309.735L119.677 306.309C119.828 305.852 120.363 304.923 121.283 303.523C122.203 302.123 122.897 301.257 123.363 300.925C124.07 300.14 124.533 299.7 124.753 299.605C125.194 299.414 125.924 299.491 126.944 299.834C128.001 300.162 128.698 300.514 129.035 300.891C129.21 301.295 129.374 301.573 129.526 301.725C130.027 302.38 130.492 303.203 130.921 304.194C131.206 304.855 131.413 305.485 131.541 306.083C131.69 306.629 131.707 306.97 131.592 307.107C131.607 307.144 131.65 307.191 131.718 307.249C131.786 307.306 131.876 307.311 131.986 307.264L132.105 307.539C131.811 307.666 131.909 307.994 132.4 308.523C132.89 309.052 133.39 309.402 133.9 309.574C134.426 309.782 134.768 310.07 134.927 310.437C135.117 310.878 134.921 311.333 134.34 311.802ZM144.176 309.577C143.735 309.767 143.355 309.845 143.034 309.809C142.714 309.773 142.228 309.656 141.576 309.459C139.809 308.698 138.695 307.784 138.235 306.72C138.124 306.463 138.063 306.271 138.052 306.145C138.051 305.841 137.976 305.568 137.829 305.326C137.717 305.069 137.646 304.904 137.614 304.831C137.404 304.747 137.291 304.687 137.275 304.651C137.243 304.577 137.256 304.506 137.314 304.438C137.355 304.333 137.379 304.235 137.384 304.146C137.604 304.051 137.59 303.817 137.342 303.445C137.142 303.183 137.011 302.477 136.949 301.327C136.872 300.14 136.926 299.006 137.112 297.923C137.23 297.088 137.461 296.007 137.803 294.683C138.183 293.342 138.573 292.28 138.975 291.496C139.523 290.344 140.066 289.434 140.605 288.765C141.144 288.097 141.796 287.488 142.561 286.939C143.216 286.438 143.672 286.132 143.929 286.021C144.186 285.91 144.438 285.888 144.685 285.956C144.953 285.971 145.324 286.072 145.797 286.259C146.979 286.272 147.904 286.547 148.573 287.086C149.263 287.572 149.917 288.531 150.536 289.963C151.567 292.35 151.713 295.359 150.974 298.991C150.653 300.567 150.268 301.845 149.82 302.823C149.355 303.765 148.676 304.865 147.781 306.123C147.249 307.007 146.707 307.72 146.157 308.263C145.628 308.753 144.968 309.191 144.176 309.577ZM146.94 301.453C147.392 300.081 147.685 298.843 147.818 297.74C147.988 296.621 148.018 295.279 147.908 293.714C147.822 293.01 147.588 292.218 147.208 291.337C146.731 290.235 146.315 289.674 145.958 289.655C145.511 289.63 145.104 289.697 144.737 289.855C143.929 290.205 143.243 290.937 142.68 292.052C142.012 293.43 141.549 294.981 141.292 296.705C141.019 298.391 140.87 300.417 140.846 302.78C140.812 303.71 140.954 304.542 141.271 305.276C141.509 305.827 141.828 306.212 142.228 306.432C142.665 306.635 143.122 306.634 143.599 306.427C144.811 305.903 145.924 304.246 146.94 301.453ZM166.986 300.567C166.408 300.642 165.915 300.659 165.505 300.619C165.095 300.578 164.504 300.42 163.731 300.144C162.689 299.548 161.899 298.931 161.361 298.292C160.844 297.6 160.229 296.428 159.515 294.776C159.134 293.895 158.582 291.257 157.859 286.863C157.897 287.152 157.795 286.564 157.554 285.099C157.49 284.648 157.232 284.454 156.78 284.519C156.329 284.583 155.736 284.774 155.002 285.091C154.378 285.361 153.995 285.483 153.853 285.457C153.727 285.468 153.629 285.445 153.561 285.387C153.529 285.314 153.505 285.259 153.489 285.222C153.41 285.039 153.241 284.85 152.983 284.657C152.931 284.636 152.889 284.589 152.857 284.515C152.778 284.332 152.782 284.09 152.87 283.79C152.996 283.475 153.197 283.235 153.475 283.071C153.643 282.955 154.041 282.718 154.67 282.359C155.299 282 155.86 281.583 156.352 281.109C156.845 280.634 157.169 280.124 157.324 279.577C157.278 278.159 157.297 276.539 157.38 274.716C157.448 272.857 157.547 271.724 157.677 271.32C158.137 270.772 158.478 270.45 158.698 270.355C158.918 270.26 159.134 270.254 159.344 270.337C159.554 270.421 159.867 270.591 160.283 270.847C160.352 270.904 160.499 270.993 160.725 271.113C160.951 271.233 161.104 271.385 161.184 271.569C161.311 271.862 161.354 272.366 161.314 273.081C161.311 273.779 161.223 275.038 161.05 276.855L160.93 278.542C161.056 278.531 161.321 278.438 161.724 278.264C162.128 278.089 162.451 277.928 162.692 277.78C163.436 277.284 164.157 276.885 164.855 276.584C165.222 276.425 165.487 276.332 165.65 276.305C166.494 275.94 167.171 275.844 167.681 276.015C168.212 276.135 168.673 276.545 169.064 277.248C169.312 277.62 169.342 277.891 169.153 278.059C168.965 278.228 168.356 278.534 167.328 278.979C163.148 281.003 161.072 282.097 161.099 282.26C160.999 282.434 161.002 283.195 161.106 284.545C161.21 285.894 161.345 287.165 161.512 288.356C161.987 290.766 162.589 292.815 163.319 294.504C163.986 296.046 164.65 296.979 165.313 297.302C165.576 297.407 165.965 297.348 166.479 297.125C166.993 296.903 167.504 296.573 168.012 296.136C168.541 295.646 168.936 295.148 169.197 294.643C169.62 293.807 170.051 293.293 170.492 293.103C170.712 293.008 170.909 293.01 171.083 293.109C171.277 293.156 171.414 293.271 171.494 293.454C171.668 293.858 171.67 294.467 171.499 295.282C171.314 296.365 170.881 297.38 170.201 298.327C169.521 299.275 168.759 299.931 167.915 300.296C167.511 300.471 167.201 300.561 166.986 300.567ZM197.024 286.275C196.61 286.628 196.238 286.876 195.908 287.019C195.651 287.13 195.37 287.186 195.065 287.187C194.781 287.135 194.377 287.005 193.851 286.797C193.677 286.698 193.364 286.528 192.912 286.288C192.48 285.995 192.096 285.66 191.758 285.283C191.442 284.853 191.133 284.29 190.831 283.592C190.609 283.078 190.437 282.629 190.315 282.246C190.193 281.863 190.103 281.554 190.044 281.318L189.464 279.673C189.229 278.423 188.921 277.358 188.54 276.477C188.111 275.486 187.769 275.046 187.512 275.157C186.913 275.285 186.059 276.634 184.948 279.206C183.821 281.741 182.704 284.752 181.596 288.237L181.224 290.098C181.198 290.24 181.126 290.576 181.007 291.107C180.887 291.638 180.773 291.927 180.663 291.975C180.275 292.186 179.644 292.241 178.772 292.138C177.884 291.999 177.35 291.772 177.171 291.458C177.076 291.237 176.915 290.109 176.688 288.072C176.481 285.982 176.321 284.351 176.208 283.181L175.536 274.973C175.433 273.928 175.37 272.321 175.348 270.152L175.227 267.001L175.174 265.063L174.803 257.249L174.708 257.029C174.438 256.405 174.376 255.909 174.522 255.54L175.269 255.152C175.238 255.079 175.424 255.107 175.829 255.237C176.218 255.33 176.612 255.487 177.012 255.706C177.433 255.873 177.683 256.048 177.762 256.232C177.984 256.441 178.166 256.711 178.308 257.041C178.673 257.886 178.878 259.519 178.922 261.94C178.798 262.56 178.803 263.931 178.935 266.052C179.012 267.239 179.047 268.074 179.038 268.557C178.946 269.555 178.897 271.559 178.891 274.569C178.905 277.526 179.041 279.907 179.299 281.713C179.307 282.538 179.382 283.116 179.525 283.446C179.605 283.63 179.699 283.698 179.809 283.65C180.066 283.539 180.32 283.015 180.569 282.08C181.818 278.62 182.871 275.964 183.727 274.113C184.582 272.261 185.448 271.19 186.325 270.898C186.813 270.818 187.528 271.01 188.469 271.474C189.432 271.886 190.184 272.367 190.727 272.917C191.296 273.63 191.732 274.335 192.034 275.032C192.303 275.656 192.74 276.818 193.344 278.518L193.782 279.833C194.282 281.795 194.595 282.924 194.722 283.217C194.865 283.548 195.005 283.771 195.142 283.886C195.315 283.985 195.604 284.1 196.009 284.23C196.803 284.453 197.271 284.73 197.414 285.06C197.541 285.354 197.411 285.759 197.024 286.275ZM208.75 282.84C207.171 283.523 205.614 283.499 204.078 282.768C202.542 282.038 201.393 280.791 200.631 279.029C199.869 277.267 199.422 275.172 199.288 272.746C199.175 270.267 199.378 267.914 199.896 265.685C200.415 263.457 201.189 261.771 202.22 260.628C202.78 259.907 203.519 259.348 204.437 258.951C205.135 258.649 206.011 258.51 207.067 258.533C207.802 258.52 208.415 258.626 208.904 258.85C209.393 259.074 209.933 259.517 210.523 260.177C210.919 260.79 211.172 261.225 211.283 261.482C211.379 261.702 211.493 262.219 211.627 263.033C211.774 264.582 211.686 265.992 211.364 267.265C211.063 268.484 210.487 269.67 209.634 270.823C209.206 271.444 208.551 271.945 207.669 272.326C206.898 272.659 206.108 272.848 205.3 272.893C204.512 272.885 203.815 272.685 203.21 272.293L202.634 272.019L202.659 272.531C202.745 274.847 203.09 276.702 203.693 278.098C204.106 279.052 204.623 279.744 205.244 280.173C205.675 280.465 206.387 280.398 207.378 279.969C208.112 279.652 208.613 279.348 208.88 279.058C209.351 278.637 209.733 278.21 210.026 277.779C210.34 277.294 210.635 276.818 210.912 276.35L211.085 276.144L211.03 276.168C211.375 275.757 211.655 275.397 211.869 275.086C212.084 274.776 212.23 274.56 212.308 274.439C212.382 274.407 212.447 274.357 212.505 274.289C212.563 274.22 212.604 274.115 212.63 273.973C212.897 273.683 213.306 273.572 213.858 273.638C214.41 273.705 214.773 273.94 214.947 274.344C215.001 274.669 214.877 275.29 214.575 276.204C214.273 277.119 213.983 277.659 213.706 277.822C213.669 277.838 213.564 277.949 213.391 278.154C213.219 278.359 213.112 278.515 213.07 278.62L213.125 278.596C212.985 279.18 212.75 279.543 212.419 279.686L211.979 279.876C211.959 280.233 211.59 280.741 210.873 281.4C210.192 282.043 209.484 282.523 208.75 282.84ZM205.991 269.653C207.092 269.177 207.832 268.116 208.21 266.471C208.584 264.915 208.517 263.55 208.009 262.375C207.739 261.75 207.42 261.365 207.052 261.219C206.784 261.205 206.558 261.237 206.375 261.316C206.191 261.395 205.903 261.585 205.51 261.886C205.08 262.203 204.568 263.034 203.973 264.38C203.363 265.69 202.97 266.797 202.794 267.701L202.578 269.167C202.824 268.93 203.076 268.756 203.333 268.645C203.61 268.481 203.784 268.428 203.852 268.485C204.074 268.999 204.385 269.366 204.785 269.586C205.185 269.805 205.587 269.827 205.991 269.653ZM221.515 274.839C221.126 274.746 220.836 274.631 220.647 274.495C220.457 274.359 220.283 274.107 220.125 273.74C219.982 273.41 219.881 273.126 219.823 272.89C219.393 271.594 219.042 270.025 218.768 268.182L218.567 266.962C218.281 265.996 218.09 263.791 217.995 260.346C217.9 256.9 217.99 254.487 218.264 253.105C218.478 252.794 218.751 252.567 219.081 252.424C219.559 252.218 220.034 252.209 220.507 252.396C220.791 252.448 221.02 252.676 221.195 253.08C221.353 253.447 221.445 254.061 221.468 254.922C221.513 255.731 221.506 256.976 221.448 258.657C221.429 259.014 221.41 259.676 221.392 260.642C221.41 261.593 221.451 262.142 221.515 262.289C221.547 262.362 221.581 262.391 221.618 262.375C221.691 262.343 221.757 262.293 221.814 262.225C221.856 262.119 221.905 262.033 221.963 261.964C222.065 261.092 222.626 259.717 223.644 257.838C224.699 255.944 225.457 254.723 225.917 254.176C226.111 253.918 226.378 253.628 226.718 253.307C227.059 252.985 227.286 252.756 227.401 252.619C227.862 252.071 228.496 251.623 229.304 251.274C229.818 251.052 230.298 250.953 230.745 250.978C231.212 250.95 231.591 251.07 231.88 251.337C232.028 251.578 232.207 251.74 232.418 251.824C232.665 251.891 232.833 251.927 232.922 251.932C233.032 251.885 233.129 251.908 233.214 252.002C233.282 252.06 233.324 252.107 233.34 252.144C233.451 252.401 233.376 252.629 233.114 252.83C232.836 252.993 232.32 253.26 231.564 253.63C231.176 253.842 230.794 254.116 230.417 254.453C230.04 254.791 229.678 255.165 229.333 255.575C227.785 257.639 226.639 259.224 225.897 260.329C225.191 261.418 224.571 262.754 224.034 264.337C223.821 264.952 223.63 265.972 223.461 267.396C223.315 267.764 223.333 268.562 223.516 269.79C223.719 270.966 223.876 271.683 223.987 271.94C223.998 272.066 224.02 272.318 224.053 272.696C224.069 273.037 224.031 273.402 223.938 273.791C223.751 274.569 223.511 275.022 223.217 275.149C222.887 275.292 222.319 275.188 221.515 274.839ZM254.248 259.905C253.749 259.859 253.36 259.766 253.082 259.625C252.839 259.468 252.631 259.188 252.457 258.784C252.139 258.049 251.852 256.779 251.594 254.973C251.307 254.008 251.1 253.226 250.972 252.627C250.865 251.977 250.858 251.304 250.95 250.611C250.859 249.996 250.759 249.059 250.65 247.799C250.346 244.88 250.04 242.659 249.731 241.137C249.675 240.202 249.623 239.375 249.573 238.656C249.524 237.936 249.48 237.28 249.441 236.686C249.463 236.938 249.382 235.492 249.199 232.346C249.112 231.338 249.02 230.571 248.924 230.046C248.614 228.22 248.533 226.773 248.682 225.706C248.78 225.228 248.829 224.836 248.828 224.532C248.864 224.211 248.905 223.954 248.952 223.759C248.92 223.686 248.951 223.607 249.046 223.523C249.124 223.402 249.237 223.309 249.384 223.246C249.824 223.055 250.255 223.044 250.675 223.21C250.827 223.058 251.143 223.183 251.622 223.586C252.138 223.973 252.441 224.321 252.531 224.631C252.738 225.108 252.8 225.604 252.717 226.119C252.634 226.329 252.588 226.676 252.579 227.159C252.554 227.606 252.523 227.989 252.488 228.31C252.525 228.599 252.587 229.095 252.673 229.798C252.781 230.449 252.848 231.008 252.876 231.476C252.883 231.996 252.881 232.497 252.872 232.981C252.884 233.411 252.899 233.797 252.915 234.139C252.975 234.679 253.027 235.507 253.073 236.62C253.098 238.09 253.17 239.214 253.288 239.991C253.31 240.243 253.38 240.758 253.498 241.535C253.777 243.593 253.861 245.147 253.749 246.198C253.661 246.802 253.719 247.54 253.921 248.411C254.16 249.267 254.301 249.794 254.344 249.993C254.507 251.884 254.652 252.976 254.779 253.27C254.849 253.632 254.998 254.33 255.227 255.364C255.515 256.634 255.659 257.574 255.661 258.183C255.953 259.059 255.86 259.6 255.383 259.807C255.089 259.934 254.711 259.966 254.248 259.905ZM267.075 255.864C265.693 255.894 264.605 255.646 263.811 255.118C263 254.553 262.301 253.591 261.714 252.233C261.428 251.572 261.15 250.777 260.879 249.848L260.132 247.818C259.989 247.488 259.842 247.246 259.689 247.095C259.536 246.943 259.284 246.812 258.931 246.703C258.826 246.661 258.563 246.557 258.142 246.39C257.722 246.224 257.49 246.04 257.447 245.841L257.273 245.589C257.162 245.332 257.096 245.078 257.074 244.826C257.089 244.558 257.151 244.4 257.262 244.353C257.372 244.305 257.511 244.223 257.678 244.107C257.83 243.954 257.988 243.864 258.15 243.838C258.664 243.616 258.969 243.615 259.064 243.835C259.338 244.065 259.593 243.999 259.828 243.636C260.084 243.22 260.226 242.592 260.255 241.751C260.42 240.721 260.808 239.551 261.418 238.242C262.049 236.879 262.616 235.872 263.118 235.219C263.312 234.961 263.679 234.65 264.218 234.286C264.742 233.885 265.225 233.589 265.665 233.399C266.326 233.113 266.959 233.014 267.563 233.102C268.204 233.173 268.901 233.373 269.653 233.702C270.573 233.914 271.271 234.571 271.747 235.673C272.08 236.444 272.238 237.313 272.22 238.279C272.311 238.893 272.025 239.845 271.362 241.134C270.736 242.407 270.072 243.391 269.37 244.086C268.453 244.788 267.334 245.424 266.012 245.996C265.131 246.376 264.53 246.549 264.209 246.513C263.658 246.447 263.774 247.573 264.559 249.892C264.633 250.165 264.765 250.522 264.956 250.962C265.226 251.586 265.532 252.042 265.874 252.33C265.927 252.351 266.119 252.442 266.45 252.604C266.765 252.729 267.128 252.812 267.538 252.853C267.932 252.857 268.312 252.78 268.68 252.621C269.01 252.478 269.251 252.33 269.403 252.177C269.759 251.893 270.058 251.524 270.298 251.072C270.522 250.582 270.822 249.865 271.197 248.918C271.531 248.077 271.778 247.49 271.94 247.159C271.981 246.749 272.276 246.425 272.827 246.187C272.974 246.124 273.247 246.049 273.646 245.964C274.087 246.078 274.372 246.282 274.499 246.576C274.626 246.869 274.68 247.5 274.662 248.466C274.637 248.913 274.401 249.625 273.952 250.603C273.524 251.529 273.114 252.295 272.722 252.9C271.854 254.016 270.85 254.82 269.712 255.312C269.015 255.614 268.135 255.798 267.075 255.864ZM265.491 243.279C265.827 243.047 266.319 242.725 266.969 242.313C267.619 241.902 268.085 241.417 268.367 240.859C268.67 240.249 268.927 239.332 269.139 238.107C269.122 237.766 269.05 237.448 268.923 237.155C268.685 236.604 268.408 236.266 268.093 236.141C267.724 235.995 267.375 235.994 267.045 236.136C266.531 236.359 266.093 236.809 265.733 237.488C265.414 237.757 265.037 238.399 264.605 239.414C264.209 240.413 263.904 241.372 263.692 242.292C263.464 243.175 263.465 243.632 263.696 243.663C263.67 243.805 263.894 243.817 264.366 243.7C264.822 243.546 265.198 243.406 265.491 243.279ZM286.667 246.872C286.389 247.036 285.922 247.063 285.265 246.955C284.592 246.81 283.906 246.584 283.206 246.276C282.564 245.9 281.797 245.033 280.906 243.676C280.014 242.318 279.258 240.923 278.639 239.491C278.168 238.3 277.704 236.823 277.247 235.06C276.81 233.244 276.494 231.856 276.296 230.895C276.577 230.033 276.956 229.499 277.434 229.292C277.838 229.118 278.263 229.195 278.711 229.525C279.336 229.56 279.775 229.871 280.029 230.458C280.22 230.899 280.306 231.602 280.288 232.569C280.367 232.752 280.431 233.052 280.48 233.466C280.565 233.865 280.621 234.146 280.648 234.309C280.576 234.95 280.61 235.48 280.747 235.9C280.859 236.157 280.988 236.406 281.136 236.647C281.32 236.873 281.476 237.132 281.603 237.426C281.793 237.866 281.845 238.237 281.756 238.536L281.732 238.481C281.759 238.644 281.876 238.964 282.082 239.441C282.384 240.139 282.74 240.813 283.152 241.463C283.548 242.076 283.901 242.49 284.211 242.704C284.338 242.998 284.567 243.073 284.898 242.93C285.265 242.772 285.639 242.327 286.02 241.595C286.541 240.281 287.048 238.58 287.54 236.493C288.033 234.407 288.15 233.267 287.892 233.073C287.84 233.052 287.79 232.987 287.742 232.877C287.647 232.656 287.706 232.391 287.921 232.08C288.156 231.717 288.305 231.457 288.367 231.299C288.414 231.104 288.421 230.818 288.388 230.44C288.356 230.062 288.344 229.784 288.354 229.605C288.458 229.342 288.494 229.022 288.461 228.644L288.335 228.502C288.256 228.319 288.297 228.061 288.459 227.73C288.604 227.362 288.672 227.115 288.661 226.989C288.501 226.317 288.679 225.87 289.193 225.648C289.486 225.521 289.799 225.538 290.13 225.7C290.483 225.809 290.756 226.039 290.952 226.39C291.238 227.051 291.375 228.277 291.365 230.068C291.339 231.823 291.176 233.462 290.876 234.986C290.84 235.307 290.784 235.832 290.708 236.562C290.631 237.293 290.365 238.541 289.908 240.307C289.783 240.623 289.616 241.043 289.408 241.569C289.236 242.079 289.069 242.5 288.907 242.831C288.496 244.098 288.14 245.037 287.837 245.647C287.518 246.221 287.128 246.629 286.667 246.872ZM308.794 237.111C308.225 238.316 307.298 239.196 306.013 239.751C305.095 240.148 304.118 240.309 303.084 240.233C302.085 240.142 301.144 239.83 300.26 239.297C299.529 238.915 298.894 238.405 298.357 237.766C297.819 237.127 297.32 236.275 296.86 235.21C296.701 234.843 296.42 234.093 296.018 232.96C295.54 231.554 295.37 229.95 295.506 228.148C295.679 226.33 296.107 224.598 296.79 222.952C297.457 221.269 298.264 219.961 299.212 219.029C299.641 218.408 300.094 217.994 300.571 217.788C300.828 217.676 301.093 217.584 301.366 217.509C301.639 217.435 301.93 217.353 302.24 217.262C303.095 217.023 303.772 216.927 304.272 216.972C304.792 216.966 305.286 217.101 305.754 217.377C307.069 217.899 307.988 218.765 308.512 219.977C308.746 220.921 308.613 222.177 308.114 223.744C307.614 225.31 306.818 226.744 305.724 228.045C305.159 228.551 304.453 228.986 303.609 229.351C302.471 229.843 301.45 230.002 300.546 229.826C300.168 229.859 299.887 229.915 299.703 229.994C299.373 230.137 299.211 230.468 299.218 230.988C299.262 231.492 299.464 232.363 299.825 233.602C299.899 233.875 300.04 234.25 300.246 234.727C301.055 236.6 302.124 237.358 303.452 237.002C304.375 236.82 305.021 236.65 305.388 236.492C305.829 236.301 306.261 235.94 306.685 235.408L307.469 234.35C307.642 234.145 307.78 233.911 307.885 233.648C307.989 233.385 308.083 233.148 308.166 232.938C308.208 232.833 308.27 232.675 308.354 232.464C308.421 232.217 308.502 232.052 308.596 231.967C308.711 231.83 308.824 231.738 308.934 231.691C309.081 231.627 309.286 231.647 309.549 231.752C309.796 231.819 309.99 231.866 310.132 231.892C310.463 231.749 310.639 231.956 310.662 232.512C310.669 233.032 310.495 233.739 310.141 234.633C309.807 235.475 309.358 236.301 308.794 237.111ZM303.691 225.459C304.204 224.932 304.63 224.204 304.969 223.273C305.344 222.326 305.436 221.633 305.246 221.192C305.055 220.752 304.732 220.456 304.274 220.305C303.817 220.154 303.294 220.206 302.707 220.46C302.266 220.65 301.952 220.83 301.763 220.998C301.312 221.367 300.881 222.033 300.469 222.995C300.042 223.921 299.713 224.826 299.485 225.709C299.257 226.592 299.221 227.065 299.379 227.127C299.706 227.378 300.493 227.234 301.741 226.694C302.586 226.329 303.236 225.918 303.691 225.459ZM320.034 234.54C319.939 234.625 319.764 234.722 319.507 234.834C318.919 235.087 318.333 234.992 317.749 234.547C317.165 234.103 316.65 233.367 316.206 232.338C315.841 231.494 315.53 230.473 315.275 229.277C315.218 228.037 315.087 227.179 314.88 226.702C314.689 225.956 314.517 224.549 314.363 222.48C314.23 220.359 314.177 219.075 314.201 218.628C314.348 218.565 314.429 218.399 314.444 218.131C314.443 217.827 314.379 217.527 314.252 217.234C314.109 216.903 314.022 216.549 313.989 216.171C313.977 215.74 314.013 215.42 314.096 215.209C314.049 215.099 313.998 214.881 313.944 214.556C313.928 214.215 313.895 213.989 313.848 213.879C313.816 213.805 313.797 213.661 313.791 213.446C313.806 213.178 313.79 212.989 313.742 212.879C313.838 211.486 313.763 208.49 313.517 203.89C313.256 199.253 313.03 196.714 312.84 196.274C312.586 195.686 312.753 195.265 313.34 195.012C313.444 194.749 313.698 194.53 314.102 194.355L315.364 194.856C315.732 195.001 316.017 195.205 316.217 195.467C316.402 195.693 316.613 196.081 316.851 196.631C317.089 197.182 317.222 197.691 317.25 198.159C317.277 198.626 317.267 199.611 317.219 201.113C317.22 201.418 317.208 201.793 317.184 202.24C317.143 202.65 317.123 203.159 317.125 203.768C317.131 203.984 317.123 204.772 317.101 206.132C317.051 207.025 317.05 207.527 317.098 207.637C317.146 207.747 317.175 208.017 317.187 208.448C317.183 208.842 317.205 209.246 317.254 209.661C317.214 210.376 317.189 211.628 317.179 213.419C317.19 215.158 317.227 216.1 317.29 216.247C317.465 216.651 317.5 216.985 317.396 217.248C317.286 217.295 317.252 217.419 317.294 217.618C317.321 217.781 317.351 217.899 317.382 217.972C317.541 218.34 317.668 219.44 317.763 221.272L317.958 223.084C318.292 225.772 318.55 227.73 318.732 228.959C318.951 230.171 319.228 231.163 319.561 231.934C319.958 232.852 320.175 233.455 320.212 233.744C320.287 234.017 320.227 234.282 320.034 234.54Z" fill="white"/>
<path d="M185.487 214.099C184.86 214.276 184.082 214.192 183.153 213.848C182.243 213.451 181.556 213.009 181.093 212.525C181.057 212.453 180.986 212.399 180.879 212.363C180.754 212.291 180.664 212.245 180.611 212.227C180.414 212.191 180.05 211.635 179.518 210.559C179.092 209.699 178.684 208.785 178.295 207.817C177.941 206.832 177.694 206.017 177.554 205.372L177.112 202.043L176.8 199.519L176.709 195.682L174.265 196.154C173.997 196.243 173.72 196.224 173.434 196.097C173.184 195.953 173.015 195.791 172.926 195.612C172.784 195.325 172.759 194.914 172.851 194.378C172.961 193.788 173.105 193.448 173.284 193.36C173.41 193.342 173.705 193.218 174.171 192.988C175.247 192.456 176.027 192.003 176.512 191.629C176.799 191.308 176.908 190.897 176.839 190.396C176.84 190.038 176.824 189.6 176.791 189.081C176.793 188.545 176.795 188.053 176.797 187.605C176.798 187.337 176.8 186.935 176.802 186.398C176.822 185.808 176.87 185.137 176.945 184.386C176.963 184.243 177 183.912 177.056 183.394C177.094 182.839 177.222 182.33 177.438 181.866C177.565 181.491 177.808 181.214 178.166 181.037C178.525 180.86 179.106 180.862 179.91 181.044C180.035 181.116 180.196 181.216 180.392 181.342C180.624 181.45 180.776 181.576 180.847 181.719C180.918 181.863 180.925 182.238 180.869 182.846C180.866 183.383 180.846 183.884 180.809 184.349C180.789 184.76 180.77 185.127 180.75 185.449C180.675 186.378 180.636 187.067 180.634 187.514C180.506 188.158 180.505 188.605 180.629 188.856C180.753 189.107 181.048 189.117 181.514 188.886C182.016 188.638 182.805 188.114 183.882 187.313C184.348 186.993 184.671 186.789 184.851 186.7C186.105 186.079 187.044 186.262 187.666 187.249C187.808 187.446 187.95 187.688 188.092 187.975C188.34 188.477 188.312 188.87 188.007 189.155C187.737 189.422 187.011 189.849 185.828 190.434C184.769 191.181 183.63 191.856 182.411 192.459C182.196 192.565 181.954 192.707 181.685 192.885C181.434 193.009 181.183 193.178 180.932 193.392C180.68 193.605 180.518 193.819 180.446 194.034C180.409 194.23 180.399 194.526 180.415 194.919C180.361 195.08 180.314 195.616 180.274 196.529C180.287 197.817 180.275 198.604 180.238 198.89C180.689 202.237 181.426 205.531 182.45 208.774C182.662 209.383 182.804 209.759 182.875 209.902C183.141 210.44 183.506 210.728 183.971 210.766C184.436 210.803 185.099 210.609 185.959 210.184C187.178 209.581 188.174 208.932 188.946 208.237C189.791 207.239 190.402 206.446 190.781 205.857C191.015 205.518 191.222 205.215 191.402 204.947C191.6 204.626 191.735 204.403 191.807 204.278C191.808 204.01 191.88 203.84 192.024 203.769C192.31 203.627 192.703 203.79 193.202 204.257C193.486 204.831 193.609 205.395 193.571 205.949C193.533 206.504 193.154 207.316 192.434 208.386C191.01 210.742 189.259 212.434 187.18 213.462C186.606 213.746 186.042 213.959 185.487 214.099ZM202.539 205.127C202.109 205.34 201.733 205.437 201.411 205.417C201.089 205.398 200.598 205.307 199.937 205.143C198.133 204.473 196.973 203.619 196.459 202.579C196.335 202.328 196.264 202.14 196.247 202.015C196.23 201.71 196.142 201.442 195.982 201.209C195.858 200.958 195.778 200.796 195.742 200.724C195.528 200.652 195.412 200.598 195.394 200.562C195.359 200.49 195.368 200.419 195.422 200.347C195.458 200.24 195.476 200.142 195.477 200.053C195.692 199.946 195.666 199.713 195.399 199.355C195.186 199.103 195.019 198.405 194.898 197.259C194.76 196.078 194.756 194.942 194.886 193.852C194.961 193.011 195.135 191.921 195.409 190.58C195.719 189.222 196.055 188.141 196.416 187.338C196.904 186.159 197.4 185.222 197.904 184.526C198.407 183.831 199.027 183.19 199.763 182.602C200.391 182.068 200.831 181.739 201.082 181.615C201.333 181.491 201.584 181.456 201.834 181.511C202.102 181.512 202.477 181.594 202.96 181.757C204.141 181.708 205.079 181.936 205.774 182.44C206.488 182.89 207.191 183.814 207.883 185.212C209.035 187.543 209.336 190.54 208.784 194.205C208.545 195.796 208.226 197.092 207.828 198.092C207.413 199.056 206.791 200.19 205.963 201.492C205.476 202.402 204.972 203.143 204.451 203.713C203.947 204.229 203.31 204.701 202.539 205.127ZM204.882 196.872C205.263 195.478 205.492 194.227 205.568 193.118C205.681 191.992 205.641 190.65 205.451 189.093C205.329 188.395 205.055 187.615 204.629 186.755C204.097 185.679 203.652 185.141 203.294 185.139C202.847 185.138 202.444 185.225 202.086 185.403C201.297 185.793 200.65 186.559 200.144 187.702C199.548 189.113 199.166 190.685 198.997 192.42C198.811 194.119 198.767 196.149 198.864 198.51C198.878 199.441 199.063 200.264 199.417 200.981C199.683 201.519 200.022 201.887 200.432 202.086C200.879 202.267 201.335 202.242 201.801 202.011C202.984 201.426 204.011 199.713 204.882 196.872Z" fill="#EBD8D8"/>
</svg>
