<svg width="53" height="45" viewBox="0 0 53 45" fill="none" xmlns="http://www.w3.org/2000/svg">
<g clip-path="url(#clip0)">
<path d="M47.1111 16.525V36.25H5.88887V8.75H33.228C33.1607 8.33577 33.1262 7.91816 33.125 7.5C33.1265 7.08125 33.1603 6.66375 33.228 6.25H5.88887C5.10796 6.25 4.35903 6.51339 3.80684 6.98223C3.25464 7.45107 2.94443 8.08696 2.94443 8.75V36.25C2.94443 36.913 3.25464 37.5489 3.80684 38.0178C4.35903 38.4866 5.10796 38.75 5.88887 38.75H47.1111C47.892 38.75 48.6409 38.4866 49.1931 38.0178C49.7453 37.5489 50.0555 36.913 50.0555 36.25V15.425C49.1428 15.9125 48.1505 16.2825 47.1111 16.525Z" fill="#757AFF"/>
<path d="M22.9961 19.0275L14.1363 29.96L8.17084 25.48L9.73139 23.9825L13.7034 26.965L23.0167 15.475L32.9542 27.9938L42.8976 16.8375L44.7762 18.045L32.8423 31.4313L22.9961 19.0275Z" fill="#757AFF"/>
<path d="M44.1667 13.75C48.2321 13.75 51.5278 10.9518 51.5278 7.5C51.5278 4.04822 48.2321 1.25 44.1667 1.25C40.1012 1.25 36.8055 4.04822 36.8055 7.5C36.8055 10.9518 40.1012 13.75 44.1667 13.75Z" fill="#757AFF"/>
</g>
<defs>
<clipPath id="clip0">
<rect width="53" height="45" fill="white"/>
</clipPath>
</defs>
</svg>
