<svg width="16" height="16" viewBox="0 0 16 16" fill="none" xmlns="http://www.w3.org/2000/svg">
<path d="M12.085 2.20599H1.46072C1.07363 2.20626 0.702481 2.36018 0.428814 2.63394C0.155148 2.9077 0.00135313 3.2789 0.0012207 3.66599V14.2905C0.00128699 14.6776 0.155077 15.0487 0.428772 15.3224C0.702467 15.5961 1.07366 15.7499 1.46072 15.75H12.085C12.4721 15.7499 12.8433 15.5961 13.117 15.3224C13.3907 15.0486 13.5445 14.6774 13.5445 14.2902V3.66599C13.5444 3.27888 13.3906 2.90764 13.117 2.63387C12.8433 2.36009 12.4721 2.20619 12.085 2.20599ZM12.765 13.571C12.765 13.7406 12.7317 13.9086 12.6668 14.0653C12.602 14.2221 12.5069 14.3645 12.387 14.4845C12.2671 14.6044 12.1247 14.6996 11.968 14.7646C11.8113 14.8295 11.6433 14.863 11.4737 14.863H2.07322C1.90353 14.8631 1.7355 14.8297 1.57872 14.7648C1.42193 14.6999 1.27948 14.6047 1.15949 14.4847C1.03951 14.3647 0.94434 14.2223 0.879434 14.0655C0.814529 13.9087 0.781155 13.7407 0.781221 13.571V4.17074C0.781221 4.00109 0.814641 3.83309 0.879573 3.67635C0.944505 3.51962 1.03968 3.3772 1.15965 3.25725C1.27963 3.1373 1.42206 3.04215 1.57881 2.97725C1.73556 2.91235 1.90356 2.87896 2.07322 2.87899H11.4737C11.8162 2.87919 12.1446 3.01537 12.3867 3.25759C12.6289 3.49981 12.7649 3.82826 12.765 4.17074V13.571Z" fill="#9FAFB3"/>
<path d="M14.015 0.911252C12.0897 2.57825 10.3235 4.34675 8.83172 6.41625C8.17372 7.32925 7.65647 8.3435 7.17847 9.358C6.95372 9.8355 6.81947 10.3323 6.69322 10.829C5.77497 9.9755 4.88122 9.09775 3.87322 8.339C3.15447 7.79825 0.74197 9.494 1.58447 10.1285C3.09447 11.2645 4.35197 12.6788 5.81947 13.8653C6.43397 14.361 7.79572 13.285 8.11472 12.8328C9.16497 11.3453 9.30847 9.5255 10.0742 7.90225C11.2432 5.42 13.316 3.38225 15.3617 1.60975C16.8892 0.287753 15.0437 0.0205024 14.0155 0.910252" fill="#757AFF"/>
</svg>
