<svg width="17" height="14" viewBox="0 0 17 14" fill="none" xmlns="http://www.w3.org/2000/svg">
<path d="M3.9351 7.23978C3.38267 6.88041 3.14976 6.42409 2.71336 6.1875C2.12355 4.44489 -1.45977 10.6678 0.66805 10.6678C1.38347 10.6678 1.57524 9.89532 2.08508 9.86118C2.75735 9.81616 2.81604 10.4866 3.23642 10.8694C4.00587 11.5702 4.99779 12.4937 5.62766 13.39C6.29493 14.3395 8.20852 14.0703 8.85535 13.334C9.50432 12.5952 10.4101 11.2047 10.4101 10.1637C10.4101 9.26375 11.1052 7.76189 11.8272 7.39662C12.8896 6.85906 13.2227 6.14396 13.9921 5.26812C14.6518 4.51714 15.2265 3.70028 15.9405 3.05001C16.3683 2.66044 17.2046 2.90543 16.9541 1.90735C16.8221 1.38165 16.223 1.01087 16.0881 0.473419C15.8801 -0.355572 15.3287 0.149318 14.8384 0.182152C14.1405 0.228885 13.4463 2.16305 13.0671 2.70273C12.4921 3.52097 11.5346 4.38993 10.6758 4.60717C9.77934 4.83397 8.86768 5.70428 8.32396 6.478C8.14002 6.73975 7.78904 7.72006 7.75321 8.04636C7.71636 8.382 7.52399 9.8683 7.31039 10.0628C6.46907 10.829 5.5565 9.06264 5.14466 8.26547L5.13564 8.24801C4.93234 7.85457 4.26945 7.45728 3.9351 7.23978Z" fill="#6268FF"/>
</svg>
