<svg width="14" height="14" viewBox="0 0 14 14" fill="none" xmlns="http://www.w3.org/2000/svg">
<path d="M13.076 13.432C12.692 13.432 12.44 13.36 12.32 13.216C12.176 13.216 11.996 13.18 11.78 13.108C11.588 13.036 11.384 12.952 11.168 12.856C10.664 12.64 9.932 12.112 8.972 11.272C8.012 10.432 7.532 9.868 7.532 9.58C7.532 9.508 7.52 9.46 7.496 9.436C7.472 9.412 7.424 9.4 7.352 9.4C7.328 9.376 7.28 9.328 7.208 9.256C7.16 9.184 7.136 9.1 7.136 9.004C7.136 8.908 7.1 8.824 7.028 8.752C6.956 8.68 6.872 8.644 6.776 8.644L5.084 10.372C4.316 11.14 3.788 11.656 3.5 11.92C3.212 12.16 2.984 12.28 2.816 12.28C2.6 12.28 2.336 12.184 2.024 11.992C1.736 11.8 1.484 11.548 1.268 11.236C1.052 10.9 0.944 10.54 0.944 10.156C1.064 9.988 1.364 9.652 1.844 9.148C2.348 8.62 2.876 8.116 3.428 7.636L5.264 5.764L4.868 4.396C4.436 3.46 4.124 2.704 3.932 2.128C3.788 1.936 3.668 1.78 3.572 1.66C3.5 1.516 3.464 1.396 3.464 1.3C3.464 1.204 3.56 1.024 3.752 0.76C3.92 0.592 4.16 0.436 4.472 0.291999C4.784 0.123999 5.084 0.0399995 5.372 0.0399995C5.516 0.0399995 5.66 0.0759994 5.804 0.147999C5.996 0.147999 6.296 0.555999 6.704 1.372C7.136 2.164 7.352 2.716 7.352 3.028C7.352 3.244 7.364 3.4 7.388 3.496C7.436 3.592 7.508 3.64 7.604 3.64C7.772 3.64 8.132 3.46 8.684 3.1C8.948 2.86 9.152 2.656 9.296 2.488C9.464 2.32 9.572 2.212 9.62 2.164C11.084 0.939999 11.924 0.279999 12.14 0.184C12.26 0.111999 12.368 0.075999 12.464 0.075999C12.776 0.075999 13.1 0.243999 13.436 0.579999C13.796 0.891999 13.976 1.204 13.976 1.516C13.976 2.308 13.568 2.932 12.752 3.388C12.152 3.82 11.612 4.264 11.132 4.72L9.908 5.8L8.972 6.556L9.548 7.528C9.644 7.72 9.776 7.924 9.944 8.14C10.136 8.332 10.316 8.476 10.484 8.572C10.676 8.836 11.096 9.22 11.744 9.724C12.392 10.228 12.764 10.48 12.86 10.48C12.932 10.48 13.04 10.528 13.184 10.624C13.352 10.72 13.496 10.792 13.616 10.84C13.784 11.008 13.868 11.284 13.868 11.668C13.868 12.076 13.784 12.472 13.616 12.856C13.448 13.24 13.268 13.432 13.076 13.432Z" fill="#6268FF"/>
</svg>
