<svg width="17" height="17" viewBox="0 0 17 17" fill="none" xmlns="http://www.w3.org/2000/svg">
<path d="M4.25002 1.41667H12.75C13.5015 1.41667 14.2221 1.71518 14.7535 2.24654C15.2848 2.77789 15.5834 3.49856 15.5834 4.25001V12.75C15.5834 13.5015 15.2848 14.2221 14.7535 14.7535C14.2221 15.2848 13.5015 15.5833 12.75 15.5833H4.25002C3.49857 15.5833 2.7779 15.2848 2.24655 14.7535C1.7152 14.2221 1.41669 13.5015 1.41669 12.75V4.25001C1.41669 3.49856 1.7152 2.77789 2.24655 2.24654C2.7779 1.71518 3.49857 1.41667 4.25002 1.41667ZM4.25002 2.83334C3.8743 2.83334 3.51396 2.98259 3.24829 3.24827C2.98261 3.51395 2.83335 3.87428 2.83335 4.25001V12.75C2.83335 13.1257 2.98261 13.4861 3.24829 13.7517C3.51396 14.0174 3.8743 14.1667 4.25002 14.1667H12.75C13.1257 14.1667 13.4861 14.0174 13.7518 13.7517C14.0174 13.4861 14.1667 13.1257 14.1667 12.75V4.25001C14.1667 3.87428 14.0174 3.51395 13.7518 3.24827C13.4861 2.98259 13.1257 2.83334 12.75 2.83334H4.25002ZM9.5016 8.50001L11.5055 10.5032C11.6384 10.6361 11.7131 10.8164 11.7131 11.0043C11.7131 11.1923 11.6384 11.3726 11.5055 11.5055C11.3726 11.6384 11.1923 11.713 11.0043 11.713C10.8164 11.713 10.6361 11.6384 10.5032 11.5055L8.50002 9.50159L6.49685 11.5055C6.36394 11.6384 6.18367 11.713 5.99571 11.713C5.80774 11.713 5.62747 11.6384 5.49456 11.5055C5.36165 11.3726 5.28698 11.1923 5.28698 11.0043C5.28698 10.9112 5.30531 10.8191 5.34093 10.7331C5.37655 10.6471 5.42875 10.569 5.49456 10.5032L7.49844 8.50001L5.49456 6.49684C5.36165 6.36393 5.28698 6.18366 5.28698 5.99569C5.28698 5.90262 5.30531 5.81046 5.34093 5.72447C5.37655 5.63849 5.42875 5.56036 5.49456 5.49455C5.56037 5.42874 5.6385 5.37653 5.72449 5.34091C5.81048 5.3053 5.90264 5.28697 5.99571 5.28697C6.18367 5.28697 6.36394 5.36163 6.49685 5.49455L8.50002 7.49842L10.5032 5.49455C10.6361 5.36163 10.8164 5.28697 11.0043 5.28697C11.1923 5.28697 11.3726 5.36163 11.5055 5.49455C11.6384 5.62746 11.7131 5.80773 11.7131 5.99569C11.7131 6.18366 11.6384 6.36393 11.5055 6.49684L9.5016 8.50001Z" fill="#FA3939"/>
</svg>
