<svg width="16" height="18" viewBox="0 0 16 18" fill="none" xmlns="http://www.w3.org/2000/svg">
<path d="M12.8462 0.0737406C11.718 0.0491505 10.8333 0.196691 10.1923 0.516364C9.37181 0.909806 8.65386 1.79505 8.03847 3.1721C8.01283 3.09833 7.96155 3.01227 7.88463 2.9139C7.60258 2.4221 7.38463 2.06554 7.23078 1.84423C7.07693 1.62292 6.8654 1.37702 6.59617 1.10653C6.32693 0.836036 6.02565 0.627019 5.69232 0.479478C4.92309 0.110626 3.98719 -2.98768e-05 2.88463 0.147511C1.39745 0.491773 0.538473 1.45079 0.307703 3.02456C0.0256522 4.03276 0.320524 5.1639 1.19232 6.418C1.8077 7.32784 2.16668 7.85653 2.26924 8.00407C2.44873 8.24997 2.90386 8.82784 3.63463 9.73768C4.3654 10.6475 4.85899 11.2869 5.1154 11.6557C6.37181 13.5492 7.15386 14.8647 7.46155 15.6024C7.48719 15.6516 7.58334 15.8914 7.75001 16.3217C7.91668 16.752 8.01283 16.9918 8.03847 17.041C8.55129 14.877 10.0641 12.3688 12.5769 9.51636C15.5 6.29505 16.4359 3.77456 15.3846 1.95489C14.9487 1.02046 14.1026 0.393413 12.8462 0.0737406Z" fill="#757AFF"/>
</svg>
