<svg width="50" height="53" viewBox="0 0 50 53" fill="none" xmlns="http://www.w3.org/2000/svg">
<path d="M43.75 53H6.25C4.52474 53 3.05176 52.3322 1.83105 50.9965C0.610352 49.6608 0 48.0491 0 46.1613C0 44.2735 0.610352 42.6618 1.83105 41.3261C3.05176 39.9904 4.52474 39.3226 6.25 39.3226H43.75C45.4753 39.3226 46.9482 39.9904 48.1689 41.3261C49.3896 42.6618 50 44.2735 50 46.1613C50 48.0491 49.3896 49.6608 48.1689 50.9965C46.9482 52.3322 45.4753 53 43.75 53ZM9.35059 42.7419C8.48796 42.7419 7.75553 43.0803 7.15332 43.7571C6.55111 44.4338 6.25 45.2441 6.25 46.188C6.25 47.1319 6.55111 47.9333 7.15332 48.5922C7.75553 49.2512 8.48796 49.5806 9.35059 49.5806C10.2132 49.5806 10.9538 49.2512 11.5723 48.5922C12.1908 47.9333 12.5 47.1319 12.5 46.188C12.5 45.2441 12.1908 44.4338 11.5723 43.7571C10.9538 43.0803 10.2132 42.7419 9.35059 42.7419ZM40.625 42.7419H21.875C20.9961 42.7419 20.2555 43.0803 19.6533 43.7571C19.0511 44.4338 18.75 45.2441 18.75 46.188C18.75 47.1319 19.0511 47.9333 19.6533 48.5922C20.2555 49.2512 20.9961 49.5806 21.875 49.5806H40.625C41.4714 49.5806 42.2038 49.2512 42.8223 48.5922C43.4408 47.9333 43.75 47.1319 43.75 46.188C43.75 45.2441 43.4408 44.4338 42.8223 43.7571C42.2038 43.0803 41.4714 42.7419 40.625 42.7419ZM39.0625 22.2258H37.1094C36.8164 23.4724 36.3444 24.6835 35.6934 25.8589L36.6211 26.874C37.207 27.5151 37.5 28.2898 37.5 29.1981C37.5 30.1064 37.207 30.881 36.6211 31.5222C36.0352 32.1633 35.3271 32.4839 34.4971 32.4839C33.667 32.4839 32.959 32.1633 32.373 31.5222L31.4453 30.4536C30.3711 31.166 29.2643 31.6825 28.125 32.003V34.1936C28.125 35.1552 27.8239 35.9656 27.2217 36.6245C26.6195 37.2834 25.887 37.6129 25.0244 37.6129C24.1618 37.6129 23.4212 37.2834 22.8027 36.6245C22.1842 35.9656 21.875 35.1552 21.875 34.1936V32.003C20.7357 31.6825 19.6289 31.166 18.5547 30.4536L17.5781 31.5222C16.9922 32.1633 16.2842 32.4839 15.4541 32.4839C14.624 32.4839 13.916 32.1633 13.3301 31.5222C12.7441 30.881 12.4512 30.1064 12.4512 29.1981C12.4512 28.2898 12.7441 27.5151 13.3301 26.874L14.3066 25.8054C13.6556 24.6657 13.1836 23.4724 12.8906 22.2258H10.9375C10.0586 22.2258 9.31803 21.8963 8.71582 21.2374C8.11361 20.5785 7.8125 19.7771 7.8125 18.8332C7.8125 17.8893 8.11361 17.079 8.71582 16.4022C9.31803 15.7255 10.0586 15.3871 10.9375 15.3871H12.8906C13.1836 14.1405 13.6556 12.9294 14.3066 11.754L13.3301 10.6855C12.7441 10.0444 12.4512 9.26966 12.4512 8.36139C12.4512 7.45312 12.7441 6.67843 13.3301 6.0373C13.916 5.39617 14.624 5.0756 15.4541 5.0756C16.2842 5.0756 16.9922 5.39617 17.5781 6.0373L18.5547 7.15927C19.6289 6.44691 20.7357 5.93044 21.875 5.60988V3.41935C21.875 2.49328 22.1761 1.69187 22.7783 1.01512C23.3805 0.338374 24.113 0 24.9756 0C25.8382 0 26.5788 0.338374 27.1973 1.01512C27.8158 1.69187 28.125 2.49328 28.125 3.41935V5.60988C29.2643 5.93044 30.3548 6.4291 31.3965 7.10585L32.373 6.0373C32.959 5.39617 33.667 5.0756 34.4971 5.0756C35.3271 5.0756 36.0352 5.39617 36.6211 6.0373C37.207 6.67843 37.5 7.45312 37.5 8.36139C37.5 9.26966 37.207 10.0444 36.6211 10.6855L35.6445 11.7006C36.3281 12.9116 36.8164 14.1405 37.1094 15.3871H39.0625C39.9414 15.3871 40.682 15.7255 41.2842 16.4022C41.8864 17.079 42.1875 17.8893 42.1875 18.8332C42.1875 19.7771 41.8783 20.5785 41.2598 21.2374C40.6413 21.8963 39.9089 22.2258 39.0625 22.2258ZM25 11.9677C23.2747 11.9677 21.8018 12.6356 20.5811 13.9713C19.3604 15.307 18.75 16.9187 18.75 18.8065C18.75 20.6942 19.3604 22.3059 20.5811 23.6416C21.8018 24.9773 23.2747 25.6452 25 25.6452C26.7253 25.6452 28.1982 24.9773 29.4189 23.6416C30.6396 22.3059 31.25 20.6942 31.25 18.8065C31.25 16.9187 30.6396 15.307 29.4189 13.9713C28.1982 12.6356 26.7253 11.9677 25 11.9677Z" fill="#757AFF"/>
</svg>
