<svg width="21" height="20" viewBox="0 0 21 20" fill="none" xmlns="http://www.w3.org/2000/svg">
<path fill-rule="evenodd" clip-rule="evenodd" d="M10.5 4.375C10.674 4.375 10.841 4.44085 10.964 4.55806C11.0871 4.67527 11.1562 4.83424 11.1562 5V10C11.1562 10.1658 11.0871 10.3247 10.964 10.4419C10.841 10.5592 10.674 10.625 10.5 10.625H5.25C5.07595 10.625 4.90903 10.5592 4.78596 10.4419C4.66289 10.3247 4.59375 10.1658 4.59375 10C4.59375 9.83424 4.66289 9.67527 4.78596 9.55806C4.90903 9.44085 5.07595 9.375 5.25 9.375H9.84375V5C9.84375 4.83424 9.91289 4.67527 10.036 4.55806C10.159 4.44085 10.326 4.375 10.5 4.375Z" fill="white"/>
<path fill-rule="evenodd" clip-rule="evenodd" d="M9.84375 10C9.84375 9.83424 9.91289 9.67527 10.036 9.55806C10.159 9.44085 10.326 9.375 10.5 9.375H15.75C15.924 9.375 16.091 9.44085 16.214 9.55806C16.3371 9.67527 16.4062 9.83424 16.4062 10C16.4062 10.1658 16.3371 10.3247 16.214 10.4419C16.091 10.5592 15.924 10.625 15.75 10.625H11.1562V15C11.1562 15.1658 11.0871 15.3247 10.964 15.4419C10.841 15.5592 10.674 15.625 10.5 15.625C10.326 15.625 10.159 15.5592 10.036 15.4419C9.91289 15.3247 9.84375 15.1658 9.84375 15V10Z" fill="white"/>
</svg>
