<svg width="50" height="40" viewBox="0 0 50 40" fill="none" xmlns="http://www.w3.org/2000/svg">
<path d="M44.3376 38.8446C46.0567 37.7748 47.4839 36.2497 48.619 34.2694C49.6541 32.2874 49.9831 30.6429 49.6061 29.3361C49.352 26.7312 48.556 23.6667 47.2179 20.1425L46.2236 16.9745C45.382 13.6591 42.4627 9.05692 37.4658 3.16787C37.4693 2.9679 37.322 2.81528 37.0238 2.71001C36.7274 2.50474 36.3301 2.34771 35.8319 2.23891C35.2355 2.02836 34.5892 1.81692 33.8928 1.60461L31.4958 1.4123C29.2962 1.3735 27.9787 2.35042 27.5435 4.34305L27.5329 4.94296C27.5171 5.84282 27.9976 6.95147 28.9745 8.2689L30.8686 11.4528C31.1615 11.858 31.9885 13.1728 33.3494 15.3972C34.7104 17.6215 35.5794 19.3871 35.9564 20.694C35.9494 21.0939 35.9932 21.4447 36.0879 21.7465C34.3934 21.4165 32.6331 21.9856 30.807 23.4536C29.486 24.6305 28.8079 26.2188 28.7726 28.2184C28.7426 29.9182 29.2117 31.6767 30.1798 33.4941C31.1496 35.2115 32.4738 36.685 34.1524 37.9148C36.031 39.1482 37.8701 39.7807 39.6698 39.8124C40.8696 39.8336 42.4256 39.511 44.3376 38.8446ZM17.6418 38.3737C19.3609 37.3039 20.788 35.7788 21.9231 33.7985C22.9582 31.8165 23.2873 30.172 22.9103 28.8652C22.6562 26.2603 21.8601 23.1957 20.5221 19.6716L19.5278 16.5036C18.6861 13.1882 15.7668 8.586 10.7699 2.69695C10.7735 2.49699 10.6261 2.34436 10.3279 2.23909C10.0315 2.03383 9.63422 1.87679 9.13606 1.76799C8.53968 1.55744 7.89331 1.346 7.19695 1.13369L4.79996 0.941387C2.50032 0.900822 1.13289 1.87685 0.697681 3.86949L0.687098 4.46939C0.671225 5.36925 1.15175 6.4779 2.12866 7.79534L4.0228 10.9792C4.3157 11.3845 5.14264 12.6993 6.50362 14.9236C7.8646 17.148 8.7336 18.9136 9.11061 20.2204C9.10355 20.6204 9.14737 20.9712 9.24206 21.2729C7.54762 20.943 5.78731 21.512 3.96113 22.98C2.74192 24.0587 2.11467 25.5979 2.0794 27.5975C2.04765 29.3973 2.51583 31.2058 3.48392 33.0232C4.45378 34.7405 5.778 36.2141 7.45657 37.4439C9.33511 38.6772 11.1742 39.3098 12.974 39.3415C14.1738 39.3627 15.7297 39.0401 17.6418 38.3737Z" fill="#D8E0FF"/>
</svg>
