<svg width="53" height="41" viewBox="0 0 53 41" fill="none" xmlns="http://www.w3.org/2000/svg">
<path d="M4.65898 36.0459C3.08561 34.7714 1.85839 33.0813 0.977328 30.9756C0.195698 28.8806 0.0728758 27.2081 0.608862 25.958C1.18367 23.4046 2.35322 20.4623 4.1175 17.1311L5.49655 14.1106C6.74239 10.925 10.2093 6.71987 15.8972 1.49515C15.9184 1.29628 16.0835 1.16309 16.3925 1.09556C16.7121 0.928598 17.1257 0.821988 17.6335 0.775731C18.2514 0.640671 18.919 0.510933 19.6363 0.386514L22.0386 0.492606C24.2262 0.726575 25.4124 1.85916 25.5975 3.89035L25.5337 4.48695C25.4379 5.38185 24.8238 6.42243 23.6912 7.60871L21.4173 10.5335C21.0764 10.8993 20.093 12.1015 18.467 14.1402C16.8409 16.1788 15.7599 17.8232 15.2239 19.0732C15.1814 19.471 15.0945 19.8137 14.9631 20.1013C16.6854 19.9838 18.3617 20.7665 19.9919 22.4495C21.1569 23.7809 21.6331 25.441 21.4204 27.4296C21.2396 29.12 20.5563 30.8069 19.3706 32.4903C18.1954 34.0743 16.6989 35.3725 14.8809 36.3849C12.8641 37.3761 10.9607 37.7759 9.17095 37.5845C7.97775 37.4569 6.47376 36.944 4.65898 36.0459ZM31.2076 38.8855C29.6342 37.6109 28.407 35.9208 27.5259 33.8152C26.7443 31.7201 26.6215 30.0476 27.1574 28.7975C27.7322 26.2442 28.9018 23.3019 30.6661 19.9706L32.0451 16.9501C33.291 13.7646 36.7579 9.55941 42.4458 4.33468C42.467 4.13582 42.6321 4.00262 42.9411 3.9351C43.2606 3.76813 43.6743 3.66152 44.1821 3.61526C44.8 3.4802 45.4676 3.35047 46.1849 3.22605L48.5872 3.33214C50.8742 3.57674 52.1102 4.71464 52.2952 6.74584L52.2314 7.34244C52.1357 8.23733 51.5215 9.27792 50.3889 10.4642L48.115 13.3889C47.7742 13.7548 46.7907 14.957 45.1647 16.9956C43.5387 19.0343 42.4577 20.6786 41.9217 21.9287C41.8791 22.3265 41.7922 22.6692 41.6608 22.9568C43.3831 22.8393 45.0594 23.622 46.6896 25.3049C47.7659 26.5263 48.1976 28.1313 47.9849 30.12C47.7935 31.9098 47.1049 33.6464 45.9191 35.3299C44.744 36.9139 43.2475 38.2121 41.4295 39.2245C39.4126 40.2156 37.5093 40.6155 35.7195 40.424C34.5263 40.2964 33.0223 39.7835 31.2076 38.8855Z" fill="#D8E0FF"/>
</svg>
