<svg width="23" height="20" viewBox="0 0 23 20" fill="none" xmlns="http://www.w3.org/2000/svg">
<path d="M21.9947 9.66492C21.9185 7.27919 20.8977 5.02143 19.1569 3.38832C17.4161 1.75521 15.0978 0.880536 12.712 0.956706C10.3233 1.03297 8.06442 2.04557 6.39827 3.75961L7.94538 5.21098C8.55358 4.52479 9.29604 3.97061 10.1269 3.5827C10.9577 3.19479 11.8593 2.98139 12.7759 2.95569C19.0127 2.75656 22.3717 10.1932 18.1047 14.7416C13.8377 19.2901 6.20161 16.4023 6.00281 10.1755L9.00128 10.0798L4.87567 6.20945L4.77572 6.21264L1.00535 10.3351L4.00383 10.2393C4.08 12.6251 5.10078 14.8828 6.84161 16.5159C8.58243 18.149 10.9007 19.0237 13.2864 18.9475C15.6722 18.8714 17.9299 17.8506 19.563 16.1098C21.1962 14.3689 22.0708 12.0507 21.9947 9.66492V9.66492Z" fill="#02CE16"/>
</svg>
