<svg width="20" height="20" viewBox="0 0 20 20" fill="none" xmlns="http://www.w3.org/2000/svg">
<g clip-path="url(#clip0)">
<path d="M11 7L12.44 9.16C12.75 9.63 13.45 10 14.01 10H17V8H14L12.56 5.84C12.1749 5.2983 11.7017 4.82506 11.16 4.44L9.84 3.56C9.5844 3.40658 9.29331 3.32223 8.99529 3.31522C8.69726 3.30821 8.40253 3.37878 8.14 3.52L4 6V11H6V7L8 6L5 20H7L9.35 12.35L11 14V20H13V12L10.3 9.3L11 7ZM12 4C12.5304 4 13.0391 3.78929 13.4142 3.41421C13.7893 3.03914 14 2.53043 14 2C14 1.46957 13.7893 0.960859 13.4142 0.585786C13.0391 0.210714 12.5304 0 12 0C11.4696 0 10.9609 0.210714 10.5858 0.585786C10.2107 0.960859 10 1.46957 10 2C10 2.53043 10.2107 3.03914 10.5858 3.41421C10.9609 3.78929 11.4696 4 12 4Z" fill="#796FED"/>
</g>
<defs>
<clipPath id="clip0">
<rect width="20" height="20" fill="white"/>
</clipPath>
</defs>
</svg>
