<svg width="59" height="52" viewBox="0 0 59 52" fill="none" xmlns="http://www.w3.org/2000/svg">
<path d="M19.7752 34.4015L23.3579 33.4451L44.9295 13.2443C45.0996 13.0829 45.1944 12.8661 45.1932 12.6407C45.1921 12.4152 45.0951 12.1992 44.9234 12.0394L43.6315 10.8307C43.548 10.7513 43.4483 10.6881 43.3381 10.6448C43.2279 10.6015 43.1096 10.5789 42.9899 10.5784C42.8702 10.5779 42.7515 10.5994 42.6409 10.6418C42.5303 10.6841 42.43 10.7464 42.3457 10.8251L20.8311 30.9732L19.7731 34.3996L19.7752 34.4015ZM46.1888 8.43599L47.4807 9.64653C49.2629 11.3164 49.2792 14.0105 47.5133 15.6635L25.2845 36.4818L17.6268 38.5226C17.1592 38.6437 16.6589 38.5882 16.2355 38.3683C15.8121 38.1484 15.5003 37.7821 15.3685 37.3497C15.2704 37.0388 15.269 36.7087 15.3644 36.3971L17.5922 29.1677L39.7619 8.40399C40.1835 8.01119 40.6853 7.69999 41.2382 7.48855C41.7911 7.27711 42.3839 7.16966 42.9822 7.17247C43.5804 7.17527 44.1721 7.28827 44.7226 7.50488C45.2731 7.72149 45.7716 8.03738 46.1888 8.43411V8.43599ZM22.7536 10.6067C23.7627 10.6067 24.5806 11.3729 24.5806 12.318C24.5822 12.5414 24.5362 12.7629 24.4452 12.9699C24.3543 13.1768 24.2201 13.3652 24.0504 13.5241C23.8808 13.683 23.6789 13.8095 23.4564 13.8962C23.2339 13.9829 22.9951 14.0281 22.7536 14.0293H15.4458C13.4276 14.0293 11.7919 15.5618 11.7919 17.4501V37.9823C11.7919 39.8725 13.4276 41.4049 15.4458 41.4049H37.3693C39.3875 41.4049 41.0253 39.8725 41.0253 37.9823V31.1388C41.0253 30.1938 41.8432 29.4275 42.8523 29.4275C43.8614 29.4275 44.6792 30.1938 44.6792 31.1407V37.9823C44.6792 41.7626 41.4058 44.8276 37.3693 44.8276H15.4458C11.4094 44.8276 8.13794 41.7626 8.13794 37.9823V17.4501C8.13794 13.6716 11.4094 10.6067 15.4458 10.6067H22.7536Z" fill="#757AFF"/>
</svg>
