<svg width="161" height="128" viewBox="0 0 161 128" fill="none" xmlns="http://www.w3.org/2000/svg">
<path d="M0.5 8.10229H68.6023C72.7444 8.10229 76.1023 11.4602 76.1023 15.6023V60.3166H8C3.85787 60.3166 0.5 56.9587 0.5 52.8166V8.10229Z" stroke="#5B9BF3" stroke-opacity="0.5"/>
<path d="M84.7624 67.3982H152.865C157.007 67.3982 160.365 70.7561 160.365 74.8982V119.612H92.2624C88.1203 119.612 84.7624 116.255 84.7624 112.112V67.3982Z" stroke="#5B9BF3" stroke-opacity="0.5"/>
<path d="M84.7624 8C84.7624 3.85787 88.1203 0.5 92.2624 0.5H150.789V52.8163C150.789 56.9585 147.432 60.3163 143.289 60.3163H84.7624V8Z" stroke="#5B9BF3" stroke-opacity="0.5"/>
<path d="M10.0751 74.8982C10.0751 70.7561 13.433 67.3982 17.5751 67.3982H76.1021V119.715C76.1021 123.857 72.7443 127.215 68.6021 127.215H10.0751V74.8982Z" stroke="#5B9BF3" stroke-opacity="0.5"/>
</svg>
