<svg width="538" height="532" viewBox="0 0 538 532" fill="none" xmlns="http://www.w3.org/2000/svg">
<g opacity="0.1">
<path d="M463.58 221.414C463.58 221.414 458.31 218.075 453.087 220.45C453.087 220.45 454.695 223.428 461.308 223.143L463.58 221.414Z" fill="#757AFF"/>
<path d="M464.228 221.595C464.228 221.595 465.832 227.459 461.814 231.449C461.814 231.449 459.395 229.028 461.814 223.107L464.228 221.595Z" fill="#757AFF"/>
<path d="M470.802 215.967C470.802 215.967 470.412 210.976 458.687 212.631C458.687 212.631 458.632 215.851 462.748 217.375C466.865 218.898 468.748 217.614 470.802 215.967Z" fill="#757AFF"/>
<path d="M471.522 215.929C471.522 215.929 476.484 217.461 472.063 228.023C472.063 228.023 468.791 227.319 468.203 223.119C467.616 218.919 469.374 217.461 471.522 215.929Z" fill="#757AFF"/>
<path d="M478.165 208.855C478.165 208.855 478.834 200.649 466.848 201.493C466.848 201.493 465.99 208.905 476.047 210.828L478.165 208.855Z" fill="#757AFF"/>
<path d="M486.086 199.591C486.086 199.591 484.439 190.293 472.462 193.064C472.462 193.064 472.414 201.106 484.126 201.81L486.086 199.591Z" fill="#757AFF"/>
<path d="M491.87 190.013C491.87 190.013 489.122 180.954 477.252 183.668C477.252 183.668 480.073 191.812 491.081 191.689L491.87 190.013Z" fill="#757AFF"/>
<path d="M497.368 180.662C497.368 180.662 494.679 171.261 483.216 174.074C483.216 174.074 487.042 183.005 496.613 182.255L497.368 180.662Z" fill="#757AFF"/>
<path d="M500.915 171.776C500.915 171.776 498.848 160.296 488.174 162.824C488.174 162.824 491.279 173.283 500.138 173.448L500.915 171.776Z" fill="#757AFF"/>
<path d="M504.234 161.041C504.234 161.041 501.755 149.45 490.94 152.806C490.94 152.806 495.181 163.755 503.47 162.622L504.234 161.041Z" fill="#757AFF"/>
<path d="M506.292 151.048C506.292 151.048 502.351 139.461 493.993 139.774C493.993 139.774 498.024 152.015 505.572 153.362L506.292 151.048Z" fill="#757AFF"/>
<path d="M507.6 141.301C507.6 141.301 503.312 127.351 496.51 128.425C496.51 128.425 499.478 139.09 507.36 143.471L507.6 141.301Z" fill="#757AFF"/>
</g>
<path d="M508.329 129.656C508.329 129.656 504.311 118.028 497.608 117.567C497.608 117.567 500.344 129.006 508.192 132.675L508.329 129.656Z" fill="#757AFF"/>
<path d="M509.157 118.815C509.157 118.815 504.144 107.174 499.722 106.915C499.722 106.915 501.897 118.37 508.728 120.725L509.157 118.815Z" fill="#757AFF"/>
<path d="M509.71 108.718C509.71 108.718 506.614 96.0607 502.197 95.0312C502.197 95.0312 502.806 105.367 509.268 109.661L509.71 108.718Z" fill="#757AFF"/>
<path d="M511.378 95.5047C511.378 95.5047 508.136 85.433 504.547 83.8971C504.547 83.8971 505.259 95.7724 510.55 97.9712L511.378 95.5047Z" fill="#757AFF"/>
<path d="M512.763 86.8288L513.419 69.0653C513.419 69.0653 506.721 82.4682 512.27 89.9624L512.763 86.8288Z" fill="#757AFF"/>
<path d="M517.948 69.1765C517.948 69.1765 522.777 56.2018 523.952 55.4812C523.952 55.4812 514.474 63.8935 515.401 74.723L517.948 69.1765Z" fill="#757AFF"/>
<g opacity="0.1">
<path d="M478.491 208.798C478.491 208.798 486.99 207.727 486.733 219.265C486.733 219.265 479.053 220.463 476.548 210.927L478.491 208.798Z" fill="#757AFF"/>
<path d="M486.484 199.282C486.484 199.282 496.309 199.249 495.49 211.058C495.49 211.058 487.248 212.471 484.524 201.509L486.484 199.282Z" fill="#757AFF"/>
<path d="M491.965 190.766C491.965 190.766 500.88 186.752 506.588 197.112C506.588 197.112 498.35 200.459 491.18 192.438L491.965 190.766Z" fill="#757AFF"/>
<path d="M497.57 180.748C497.57 180.748 506.695 176.474 512.056 186.599C512.056 186.599 502.548 189.745 496.815 182.35L497.57 180.748Z" fill="#757AFF"/>
<path d="M500.799 172.023C500.799 172.023 509.585 163.965 516.597 172.118C516.597 172.118 507.621 178.747 500.391 173.818L500.799 172.023Z" fill="#757AFF"/>
<path d="M503.736 160.765C503.736 160.765 512.579 152.53 519.534 161.144C519.534 161.144 509.611 167.909 503.423 162.495L503.736 160.765Z" fill="#757AFF"/>
<path d="M505.392 150.718C505.392 150.718 512.201 140.424 520.216 142.726C520.216 142.726 513.153 153.625 505.469 153.139L505.392 150.718Z" fill="#757AFF"/>
<path d="M507.399 141.235C507.399 141.235 514.26 128.269 520.748 130.529C520.748 130.529 515.804 140.494 507.223 143.422L507.399 141.235Z" fill="#757AFF"/>
</g>
<path d="M507.87 129.002C507.87 129.002 514.925 118.798 521.533 120.042C521.533 120.042 515.769 130.389 507.188 131.954L507.87 129.002Z" fill="#757AFF"/>
<path d="M508.411 118.584C508.411 118.584 513.874 107.137 518.321 107.034C518.321 107.034 515.696 118.407 508.775 120.511L508.411 118.584Z" fill="#757AFF"/>
<path d="M509.491 108.467C509.491 108.467 515.568 96.8718 520.135 96.8512C520.135 96.8512 517.026 106.762 509.697 109.488L509.491 108.467Z" fill="#757AFF"/>
<path d="M510.409 96.2171C510.409 96.2171 514.954 86.6229 518.715 85.5359C518.715 85.5359 516.443 97.23 510.906 98.7618L510.409 96.2171Z" fill="#757AFF"/>
<path d="M513.308 86.4911L523.463 71.6346C523.463 71.6346 520.864 86.2893 511.824 89.3405L513.308 86.4911Z" fill="#757AFF"/>
<path d="M520.281 70.3706C520.281 70.3706 532.086 62.547 532.511 61.2788C532.511 61.2788 526.507 72.24 515.358 74.1753L520.281 70.3706Z" fill="#757AFF"/>
<path d="M520.984 66.8501C520.984 66.8501 534.539 54.3366 538 54.353C538 54.353 526.82 54.843 520.658 66.183L520.984 66.8501Z" fill="#757AFF"/>
<path d="M510.538 98.0741L511.031 98.1359C513.578 78.9888 517.292 67.6653 521.49 66.2735L521.327 65.8247C516.88 67.3071 513.149 78.4577 510.538 98.0741Z" fill="#444053"/>
<path d="M506.794 143.85L507.54 143.912C507.694 142.125 507.815 140.292 507.896 138.472C508.608 122.624 509.714 108.076 511.164 97.1683L510.735 96.6536C509.281 107.582 507.866 122.574 507.154 138.439C507.068 140.251 506.948 142.071 506.794 143.85Z" fill="#444053"/>
<path opacity="0.1" d="M449.661 230.531C449.793 230.473 462.929 224.844 476.561 211.408C484.547 203.54 491.184 194.507 496.223 184.643C502.523 172.319 506.365 157.175 507.656 142.462L506.88 142.812C503.985 175.832 488.328 198.401 475.875 210.688C462.375 224.004 449.39 229.579 449.262 229.629L449.661 230.531Z" fill="#444053"/>
<path d="M97.8332 252.974C122.346 252.974 142.217 251.503 142.217 249.688C142.217 247.874 122.346 246.403 97.8332 246.403C73.3205 246.403 53.449 247.874 53.449 249.688C53.449 251.503 73.3205 252.974 97.8332 252.974Z" fill="#757AFF"/>
<path opacity="0.1" d="M89.0302 70.3452L88.9922 70.1439L85.3921 68.3207H84.8271L84.611 67.9247H77.1916L75.4711 68.3207H69.1344L67.4178 70.2361L67.4002 70.3536C67.2891 71.0387 64.8061 87.1482 71.3572 92.2738L74.0887 93.4874H75.8551L75.5098 92.8282L77.0454 93.4874H82.0171L82.1055 93.3607L85.0558 92.3046L85.1318 92.2207C85.3979 91.9187 91.6682 84.6343 89.0302 70.3452Z" fill="#757AFF"/>
<path d="M80.116 86.3567H77.1915V93.6271H80.116V86.3567Z" fill="#E6E6E6"/>
<path d="M81.1398 102.995H75.8756V242.81H81.1398V102.995Z" fill="#3F3D56"/>
<path d="M82.4557 100.618H74.5594V105.372H82.4557V100.618Z" fill="#3F3D56"/>
<path d="M71.635 91.9493L76.6066 96.9827L74.5595 100.618L78.6537 101.457L82.4558 100.618L80.1161 96.7032L84.7953 91.9493H71.635Z" fill="#3F3D56"/>
<path d="M67.8328 70.418L65.4932 68.181L67.2479 66.5032H89.4745L91.2293 68.4606L88.5972 70.418C88.5972 70.418 74.5593 69.8587 67.8328 70.418Z" fill="#3F3D56"/>
<path d="M89.0302 70.3452L88.9922 70.1438L85.3921 68.3206L83.7484 67.4873L74.5215 66.9197L69.3479 68.0829L69.1344 68.3206L67.4178 70.2361L67.4002 70.3535C67.2891 71.0386 64.8061 87.1481 71.3572 92.2738L74.0887 93.4874L76.3874 94.508L75.8551 93.4874L74.9806 91.818C74.0653 86.7231 72.0532 73.3372 73.3371 70.5409L78.6422 68.905L83.3508 70.5773C83.6753 72.5878 85.7752 86.684 82.0961 91.7089L82.0171 91.818V93.3923L85.0558 92.3045L85.1318 92.2206C85.3979 91.9187 91.6682 84.6343 89.0302 70.3452ZM84.5264 91.5971L82.8945 92.1843V92.078C86.9304 86.3205 84.2925 70.8597 84.1784 70.1997L84.1374 69.9593L79.5225 68.3206L78.6656 68.0158L77.6771 68.3206L72.7287 69.8474L72.6439 69.99C70.7635 73.2142 73.9892 91.2531 74.1267 92.0193L74.1384 92.0808L74.4864 92.7463L71.8689 91.5915C66.0344 86.9468 68.0348 72.0733 68.2483 70.5996L69.8276 68.8379L72.1263 68.3206L74.5975 67.7642L78.6656 68.0158L83.5028 68.315L83.5145 68.3206L88.2026 70.6919C90.5247 83.6528 85.1961 90.7694 84.5264 91.5971H84.5264Z" fill="#3F3D56"/>
<path d="M78.6537 70.4177C83.0147 70.4177 86.55 68.6649 86.55 66.5028C86.55 64.3407 83.0147 62.588 78.6537 62.588C74.2927 62.588 70.7574 64.3407 70.7574 66.5028C70.7574 68.6649 74.2927 70.4177 78.6537 70.4177Z" fill="#3F3D56"/>
<path d="M74.5595 235.679L69.8802 249.941C69.8802 249.941 77.1916 253.855 87.1351 249.941L82.4558 235.679H74.5595Z" fill="#3F3D56"/>
<path d="M78.6538 87.1956C79.9459 87.1956 80.9934 86.1941 80.9934 84.9586C80.9934 83.7231 79.9459 82.7216 78.6538 82.7216C77.3616 82.7216 76.3141 83.7231 76.3141 84.9586C76.3141 86.1941 77.3616 87.1956 78.6538 87.1956Z" fill="#757AFF"/>
<path d="M86.902 149.694C86.902 149.694 85.0434 155.025 86.076 156.21C87.1086 157.395 79.8803 152.656 79.8803 152.656L83.8042 148.312L86.902 149.694Z" fill="#A0616A"/>
<path d="M82.6634 149.685C87.7844 149.685 91.9358 145.716 91.9358 140.819C91.9358 135.923 87.7844 131.954 82.6634 131.954C77.5424 131.954 73.391 135.923 73.391 140.819C73.391 145.716 77.5424 149.685 82.6634 149.685Z" fill="#2F2E41"/>
<path d="M118.706 209.723L113.956 213.277L111.271 209.13L116.021 205.971L118.706 209.723Z" fill="#A0616A"/>
<path d="M111.994 236.479L113.233 242.206L116.744 246.747C116.744 246.747 126.244 249.512 119.842 250.894C113.44 252.276 111.994 249.907 111.994 249.907L107.451 246.155V251.289H104.56L103.94 243.983C103.94 243.983 103.527 241.811 105.386 239.441L105.799 235.887L111.994 236.479Z" fill="#2F2E41"/>
<path d="M88.0379 165.59L89.6901 174.673C89.6901 174.673 107.244 172.896 108.483 176.253C109.723 179.609 110.136 180.597 110.136 180.597L106.625 181.782L104.973 178.82C104.469 178.649 103.935 178.579 103.402 178.613C102.87 178.647 102.35 178.784 101.875 179.017C100.223 179.807 85.7662 181.782 84.7336 179.215C83.701 176.648 80.8097 167.169 80.8097 167.169L85.1466 163.812L88.0379 165.59Z" fill="#A0616A"/>
<path opacity="0.1" d="M88.0379 165.59L89.6901 174.673C89.6901 174.673 107.244 172.896 108.483 176.253C109.723 179.609 110.136 180.597 110.136 180.597L106.625 181.782L104.973 178.82C104.469 178.649 103.935 178.579 103.402 178.613C102.87 178.647 102.35 178.784 101.875 179.017C100.223 179.807 85.7662 181.782 84.7336 179.215C83.701 176.648 80.8097 167.169 80.8097 167.169L85.1466 163.812L88.0379 165.59Z" fill="black"/>
<path d="M97.7443 191.852L99.19 196.591L102.907 214.758C102.907 214.758 103.32 228.186 103.94 229.765C104.559 231.345 104.559 231.542 103.94 232.135C103.32 232.727 102.081 234.702 103.94 235.887C105.799 237.071 112.407 238.454 112.614 237.071C112.82 235.689 112.82 233.517 112.614 232.53C112.407 231.542 113.233 216.14 113.233 216.14L110.755 192.642L102.288 188.89L97.7443 191.852Z" fill="#2F2E41"/>
<path opacity="0.1" d="M97.7443 191.852L99.19 196.591L102.907 214.758C102.907 214.758 103.32 228.186 103.94 229.765C104.559 231.345 104.559 231.542 103.94 232.135C103.32 232.727 102.081 234.702 103.94 235.887C105.799 237.071 112.407 238.454 112.614 237.071C112.82 235.689 112.82 233.517 112.614 232.53C112.407 231.542 113.233 216.14 113.233 216.14L110.755 192.642L102.288 188.89L97.7443 191.852Z" fill="black"/>
<path d="M106.625 173.291L111.168 181.584C111.168 181.584 137.19 192.642 134.918 197.184C132.646 201.726 120.049 210.216 120.049 210.216C120.049 210.216 119.429 213.573 117.57 212.586C115.712 211.599 111.168 206.465 111.581 205.872C111.994 205.28 113.44 203.898 114.059 204.095C114.679 204.293 121.907 198.961 121.907 198.961L109.516 195.999C109.516 195.999 94.6465 195.604 93.8204 188.89C92.9943 182.177 93.8204 180.992 93.8204 180.992L92.7878 178.82L101.255 173.883L106.625 173.291Z" fill="#2F2E41"/>
<path d="M113.027 206.07L108.69 209.821C108.69 209.821 104.973 208.242 102.701 208.834C100.429 209.426 96.5052 209.821 96.5052 209.821L97.1248 213.178L102.394 212.249L98.1574 217.917C98.1574 217.917 98.1574 226.803 100.842 226.803C103.527 226.803 102.701 221.472 102.701 221.472L110.962 215.35C110.962 215.35 115.092 213.771 115.505 213.771C115.918 213.771 113.027 206.07 113.027 206.07Z" fill="#2F2E41"/>
<path d="M86.076 151.273C89.9539 151.273 93.0977 148.268 93.0977 144.56C93.0977 140.852 89.9539 137.846 86.076 137.846C82.198 137.846 79.0543 140.852 79.0543 144.56C79.0543 148.268 82.198 151.273 86.076 151.273Z" fill="#A0616A"/>
<path d="M79.1576 149.793C79.1576 149.793 82.4619 149.003 83.4945 149.793C84.5271 150.582 84.7336 152.36 86.1793 152.557C87.6249 152.755 88.864 152.755 89.0705 152.952C89.277 153.149 94.027 158.678 94.027 158.678C94.027 158.678 96.9183 160.258 97.5379 162.43C98.1575 164.602 104.353 171.909 105.179 172.698C106.005 173.488 99.8096 177.437 97.7444 178.82C95.6792 180.202 89.6901 180.794 87.8314 177.635C85.9727 174.476 75.8532 153.939 79.1576 149.793Z" fill="#575A89"/>
<path d="M87.0053 162.628L88.6575 171.711C88.6575 171.711 106.212 169.934 107.451 173.291C108.69 176.648 109.103 177.635 109.103 177.635L105.592 178.82L103.94 175.858C103.437 175.687 102.902 175.617 102.37 175.651C101.837 175.685 101.317 175.822 100.842 176.055C99.19 176.845 84.7336 178.82 83.701 176.253C82.6684 173.686 79.7771 164.207 79.7771 164.207L84.114 160.85L87.0053 162.628Z" fill="#A0616A"/>
<path d="M83.0586 150.623C83.0586 150.623 88.0378 160.653 87.6248 163.417C87.2117 166.182 85.7661 164.207 85.7661 164.207C85.7661 164.207 83.9074 161.443 83.0813 163.023C82.2552 164.602 81.2226 166.774 80.3965 166.577C79.5705 166.379 75.027 151.767 77.5053 150.385C79.9835 149.003 83.0586 150.623 83.0586 150.623Z" fill="#575A89"/>
<path d="M72.6183 138.012C77.7392 138.012 81.8906 134.043 81.8906 129.146C81.8906 124.25 77.7392 120.28 72.6183 120.28C67.4973 120.28 63.3459 124.25 63.3459 129.146C63.3459 134.043 67.4973 138.012 72.6183 138.012Z" fill="#2F2E41"/>
<path d="M64.6204 136.487C65.8205 137.317 67.2109 137.859 68.6753 138.07C70.1397 138.28 71.6354 138.152 73.0374 137.696C74.4393 137.24 75.7067 136.47 76.7336 135.45C77.7604 134.43 78.5168 133.189 78.9394 131.832C78.7795 133.048 78.3576 134.219 77.7004 135.272C77.0432 136.324 76.165 137.235 75.1212 137.946C74.0774 138.657 72.8906 139.154 71.6359 139.405C70.3812 139.655 69.0857 139.655 67.8313 139.403C66.5768 139.15 65.3907 138.652 64.3478 137.94C63.3049 137.227 62.4278 136.316 61.7719 135.263C61.116 134.21 60.6956 133.038 60.5372 131.822C60.3787 130.606 60.4858 129.371 60.8515 128.196C60.6438 129.775 60.8841 131.377 61.5472 132.836C62.2104 134.295 63.2719 135.556 64.6204 136.487Z" fill="#2F2E41"/>
<path d="M80.1908 148.799C83.9462 148.799 86.9905 145.888 86.9905 142.297C86.9905 138.706 83.9462 135.795 80.1908 135.795C76.4354 135.795 73.391 138.706 73.391 142.297C73.391 145.888 76.4354 148.799 80.1908 148.799Z" fill="#2F2E41"/>
<path d="M85.9087 144.366C89.2373 144.366 91.9357 142.348 91.9357 139.859C91.9357 137.37 89.2373 135.352 85.9087 135.352C82.58 135.352 79.8816 137.37 79.8816 139.859C79.8816 142.348 82.58 144.366 85.9087 144.366Z" fill="#2F2E41"/>
<path d="M86.1791 147.522C86.9205 147.522 87.5215 146.505 87.5215 145.251C87.5215 143.997 86.9205 142.98 86.1791 142.98C85.4377 142.98 84.8367 143.997 84.8367 145.251C84.8367 146.505 85.4377 147.522 86.1791 147.522Z" fill="#A0616A"/>
<path d="M104.606 178.733C104.606 178.733 108.262 176.728 108.941 177.231C109.619 177.734 109.921 179.307 109.921 179.307L105.695 180.893L104.456 178.721L104.606 178.733Z" fill="#2F2E41"/>
<g clip-path="url(#clip0)">
<path d="M413.171 456.591C413.268 466.352 349.209 467.246 347.989 456.591C347.892 446.831 411.951 445.936 413.171 456.591Z" fill="#E6E6E6"/>
<path d="M363.052 422.705L358.291 425.198L361.32 434.756L366.081 435.172L368.678 429.77L363.052 422.705Z" fill="#9F616A"/>
<path d="M377.767 441.821V446.392L385.124 445.977L385.022 442.212L377.767 441.821Z" fill="#9F616A"/>
<path d="M361.32 367.849L363.917 399.017L372.14 444.73L385.124 443.068L380.796 406.913L382.528 373.667L361.32 367.849Z" fill="#2F2E41"/>
<path d="M395.944 344.578L364.783 344.993L361.32 367.849L382.527 377.408L387.721 395.693L361.32 422.705L371.708 435.172C371.708 435.172 386.423 416.056 397.243 405.251C408.063 394.446 402.869 361.616 402.869 361.616L395.944 344.578Z" fill="#2F2E41"/>
<path d="M377.334 285.566C382.593 285.566 386.855 281.473 386.855 276.424C386.855 271.375 382.593 267.281 377.334 267.281C372.075 267.281 367.812 271.375 367.812 276.424C367.812 281.473 372.075 285.566 377.334 285.566Z" fill="#9F616A"/>
<path d="M373.872 282.657V291.8L380.363 301.774C380.363 301.774 390.318 294.709 388.154 293.047C385.99 291.384 385.557 278.502 385.557 278.502L373.872 282.657Z" fill="#9F616A"/>
<path d="M373.872 290.138L367.379 297.618L369.976 349.564L390.318 349.148L393.78 303.851L389.452 292.215L386.484 288.337L381.229 295.956L373.872 290.138Z" fill="#D0CDE1"/>
<path d="M363.484 317.15L358.724 334.604L363.484 352.058L355.694 362.032L348.769 330.448C348.769 330.448 353.963 304.683 354.396 301.774C354.828 298.865 355.694 298.449 355.694 298.449L359.156 298.865L363.484 317.15Z" fill="#2F2E41"/>
<path d="M398.108 323.799L401.138 329.201L402.003 338.344L400.272 348.733L406.331 358.291L412.39 332.11L405.899 298.449H403.302L398.108 323.799Z" fill="#2F2E41"/>
<path d="M361.32 422.289C361.32 422.289 355.261 423.952 353.097 424.367C350.933 424.783 354.396 432.679 354.396 432.679C354.396 432.679 356.56 443.483 356.992 445.561C357.425 447.639 360.455 454.704 364.35 455.535C368.245 456.366 365.648 440.99 365.648 440.99C365.648 440.99 367.38 436.003 367.38 434.341C367.38 432.679 364.783 433.51 364.783 433.51C357.858 432.679 361.32 422.289 361.32 422.289Z" fill="#2F2E41"/>
<path d="M375.603 454.288C376.036 456.782 375.17 456.782 382.095 457.613C389.019 458.444 387.288 453.042 387.288 453.042C386.999 450.495 386.418 447.986 385.557 445.561C384.259 442.237 377.334 446.392 377.334 446.392C377.334 446.392 375.17 451.795 375.603 454.288Z" fill="#2F2E41"/>
<path d="M385.568 278.792L385.794 282.488C385.794 282.488 388.587 276.424 389.019 270.19C389.452 263.957 382.095 262.71 377.767 262.294C373.439 261.879 366.081 264.788 366.081 268.112C366.081 271.437 373.871 270.606 376.901 269.775C379.931 268.944 381.229 276.008 381.229 276.008L382.96 276.424L385.568 278.792Z" fill="#2F2E41"/>
<path d="M371.317 293.081L373.872 290.138L381.229 295.956L373.872 300.942L371.317 293.081Z" fill="#D0CDE1"/>
<path d="M389.452 292.215L386.423 288.475L381.229 295.955L387.721 300.527L389.452 292.215Z" fill="#D0CDE1"/>
<path d="M362.186 322.968L363.917 338.759L360.455 348.318L358.291 357.46C358.291 357.46 358.291 366.187 366.947 366.603C375.603 367.018 382.96 340.422 382.96 340.422C382.96 340.422 384.259 346.24 385.124 349.564C385.99 352.889 400.705 366.187 400.705 366.187C400.705 366.187 404.167 365.772 407.197 359.122C410.226 352.473 401.138 346.24 401.138 346.24L398.541 337.513L399.407 326.708L405.466 298.449L387.505 289.514L389.452 313.41L382.96 332.11L373.222 290.761L369.976 293.047L356.127 298.449L362.186 322.968Z" fill="#2F2E41"/>
<path d="M191.141 385.824C190.285 385.817 189.419 385.811 188.569 385.786L188.595 384.963C189.437 384.988 190.297 384.999 191.141 385C191.988 385 192.852 384.987 193.708 384.96L193.736 385.783C192.87 385.81 191.997 385.824 191.141 385.824ZM183.413 385.476C181.706 385.32 179.982 385.11 178.289 384.851L178.424 384.038C180.099 384.294 181.805 384.503 183.494 384.656L183.413 385.476ZM198.891 385.467L198.809 384.647C200.498 384.492 202.204 384.282 203.879 384.023L204.015 384.836C202.322 385.098 200.598 385.31 198.891 385.467H198.891ZM173.216 383.911C171.544 383.547 169.862 383.126 168.216 382.659L168.46 381.869C170.087 382.331 171.751 382.748 173.405 383.108L173.216 383.911ZM209.087 383.891L208.896 383.088C210.554 382.725 212.218 382.306 213.841 381.843L214.085 382.633C212.444 383.101 210.763 383.524 209.087 383.891H209.087ZM163.311 381.1C161.698 380.531 160.084 379.905 158.514 379.238L158.861 378.485C160.414 379.144 162.011 379.764 163.607 380.327L163.311 381.1ZM218.988 381.068L218.691 380.295C220.277 379.734 221.868 379.115 223.42 378.454L223.768 379.206C222.199 379.875 220.591 380.501 218.988 381.068H218.988ZM153.853 377.082C152.335 376.322 150.819 375.501 149.348 374.645L149.793 373.94C151.249 374.788 152.748 375.599 154.25 376.352L153.853 377.082ZM228.416 377.052L228.019 376.322C229.517 375.57 231.013 374.759 232.465 373.912L232.911 374.615C231.443 375.472 229.931 376.291 228.416 377.052H228.416ZM145.016 371.935C143.61 370.993 142.216 369.994 140.874 368.966L141.408 368.322C142.737 369.339 144.116 370.328 145.506 371.26L145.016 371.935ZM237.236 371.906L236.744 371.231C238.135 370.298 239.512 369.309 240.837 368.293L241.372 368.937C240.033 369.964 238.642 370.963 237.236 371.906ZM136.938 365.749C135.667 364.641 134.417 363.48 133.224 362.299L133.84 361.726C135.02 362.894 136.256 364.043 137.514 365.139L136.938 365.749ZM245.304 365.72L244.727 365.111C245.982 364.016 247.217 362.867 248.4 361.696L249.015 362.268C247.821 363.453 246.572 364.614 245.304 365.72ZM129.747 358.63C128.634 357.377 127.549 356.074 126.522 354.757L127.208 354.263C128.225 355.566 129.299 356.856 130.4 358.095L129.747 358.63ZM252.491 358.596L251.839 358.062C252.94 356.821 254.013 355.53 255.03 354.225L255.717 354.718C254.689 356.037 253.604 357.342 252.491 358.596V358.596ZM123.561 350.694C122.623 349.314 121.72 347.889 120.877 346.459L121.624 346.054C122.457 347.469 123.351 348.878 124.279 350.243L123.561 350.694ZM258.679 350.649L257.96 350.199C258.889 348.832 259.782 347.42 260.616 346.001L261.363 346.406C260.52 347.84 259.617 349.267 258.679 350.649ZM118.482 342.069C117.736 340.586 117.031 339.063 116.387 337.541L117.181 337.231C117.818 338.737 118.516 340.244 119.254 341.71L118.482 342.069ZM263.759 342.004L262.987 341.646C263.725 340.178 264.422 338.667 265.06 337.154L265.855 337.463C265.21 338.992 264.505 340.52 263.759 342.004ZM114.596 332.887C114.054 331.323 113.558 329.723 113.123 328.131L113.953 327.922C114.383 329.497 114.873 331.08 115.41 332.627L114.596 332.887ZM267.642 332.8L266.828 332.541C267.362 330.996 267.85 329.412 268.28 327.835L269.11 328.043C268.675 329.638 268.182 331.238 267.642 332.8ZM111.973 323.296C111.645 321.68 111.368 320.032 111.148 318.399L111.999 318.293C112.216 319.91 112.49 321.54 112.814 323.138L111.973 323.296ZM270.254 323.205L269.412 323.049C269.734 321.451 270.007 319.821 270.221 318.203L271.072 318.307C270.855 319.942 270.58 321.59 270.254 323.205V323.205ZM110.653 313.462C110.543 311.82 110.486 310.152 110.484 308.503L111.342 308.502C111.343 310.134 111.4 311.784 111.508 313.408L110.653 313.462ZM271.562 313.369L270.706 313.317C270.813 311.695 270.867 310.044 270.867 308.412L270.867 308.231H271.724L271.725 308.409C271.725 310.061 271.67 311.729 271.562 313.369ZM111.497 303.596L110.641 303.545C110.747 301.901 110.91 300.239 111.124 298.607L111.975 298.71C111.763 300.325 111.602 301.969 111.497 303.596ZM270.695 303.326C270.583 301.698 270.416 300.055 270.198 298.441L271.048 298.335C271.269 299.966 271.438 301.626 271.551 303.272L270.695 303.326ZM112.778 293.863L111.936 293.708C112.26 292.091 112.643 290.463 113.075 288.869L113.905 289.076C113.478 290.654 113.099 292.264 112.778 293.863ZM269.376 293.598C269.049 291.998 268.664 290.388 268.232 288.814L269.061 288.604C269.498 290.195 269.887 291.822 270.218 293.439L269.376 293.598ZM115.351 284.369L114.536 284.11C115.075 282.546 115.674 280.976 116.318 279.445L117.113 279.753C116.476 281.268 115.883 282.821 115.351 284.369ZM266.769 284.112C266.231 282.566 265.633 281.018 264.993 279.51L265.787 279.199C266.434 280.723 267.039 282.288 267.583 283.85L266.769 284.112ZM119.182 275.258L118.409 274.901C119.153 273.416 119.957 271.934 120.8 270.497L121.547 270.901C120.714 272.322 119.918 273.788 119.182 275.258ZM262.915 275.033C262.176 273.571 261.377 272.11 260.54 270.692L261.286 270.286C262.132 271.719 262.94 273.196 263.686 274.674L262.915 275.033ZM124.198 266.699L123.479 266.25C124.414 264.87 125.409 263.499 126.436 262.178L127.123 262.67C126.108 263.978 125.123 265.333 124.198 266.699ZM257.879 266.505C256.951 265.144 255.964 263.793 254.945 262.489L255.631 261.995C256.661 263.313 257.659 264.679 258.597 266.054L257.879 266.505ZM130.31 258.83L129.656 258.296C130.767 257.042 131.935 255.805 133.127 254.62L133.744 255.193C132.564 256.365 131.409 257.588 130.31 258.83ZM251.749 258.66C250.646 257.422 249.487 256.202 248.304 255.033L248.919 254.46C250.114 255.64 251.286 256.874 252.4 258.125L251.749 258.66ZM137.412 251.773L136.835 251.164C138.104 250.054 139.425 248.97 140.763 247.943L141.299 248.586C139.975 249.603 138.668 250.675 137.412 251.773ZM244.625 251.624C243.367 250.531 242.056 249.461 240.727 248.446L241.261 247.802C242.604 248.828 243.93 249.908 245.201 251.013L244.625 251.624ZM145.388 245.644L144.896 244.969C146.299 244.025 147.753 243.112 149.217 242.255L149.664 242.959C148.215 243.806 146.776 244.709 145.388 245.644ZM236.626 245.512C235.229 244.579 233.786 243.679 232.336 242.836L232.78 242.132C234.246 242.983 235.705 243.893 237.116 244.837L236.626 245.512ZM154.108 240.543L153.709 239.813C155.226 239.05 156.788 238.323 158.354 237.654L158.703 238.406C157.154 239.068 155.608 239.787 154.108 240.543ZM227.875 240.43C226.369 239.677 224.817 238.961 223.262 238.303L223.609 237.549C225.18 238.215 226.749 238.938 228.272 239.699L227.875 240.43ZM163.43 236.559L163.132 235.786C164.74 235.215 166.389 234.687 168.033 234.216L168.278 235.005C166.652 235.471 165.021 235.994 163.43 236.559H163.43ZM218.514 236.465C216.92 235.905 215.287 235.388 213.66 234.929L213.902 234.138C215.547 234.603 217.198 235.126 218.809 235.692L218.514 236.465ZM173.221 233.756L173.03 232.953C174.698 232.586 176.404 232.266 178.1 232.002L178.237 232.815C176.56 233.076 174.872 233.393 173.221 233.756ZM208.712 233.696C207.059 233.338 205.37 233.027 203.692 232.772L203.827 231.958C205.522 232.217 207.229 232.531 208.901 232.893L208.712 233.696ZM183.306 232.185L183.223 231.365C184.926 231.206 186.661 231.098 188.378 231.043L188.407 231.866C186.707 231.921 184.991 232.028 183.306 232.185ZM198.621 232.159C196.934 232.008 195.217 231.906 193.52 231.858L193.545 231.035C195.261 231.084 196.996 231.186 198.701 231.339L198.621 232.159Z" fill="#D0CDE1"/>
<path d="M188.102 252.412C199.234 252.412 208.258 243.747 208.258 233.059C208.258 222.371 199.234 213.706 188.102 213.706C176.971 213.706 167.947 222.371 167.947 233.059C167.947 243.747 176.971 252.412 188.102 252.412Z" fill="#757AFF"/>
<path d="M266.15 305.118C277.281 305.118 286.305 296.453 286.305 285.765C286.305 275.076 277.281 266.412 266.15 266.412C255.019 266.412 245.995 275.076 245.995 285.765C245.995 296.453 255.019 305.118 266.15 305.118Z" fill="#757AFF"/>
<path d="M241.707 385.824C252.838 385.824 261.862 377.159 261.862 366.471C261.862 355.782 252.838 347.118 241.707 347.118C230.575 347.118 221.551 355.782 221.551 366.471C221.551 377.159 230.575 385.824 241.707 385.824Z" fill="#757AFF"/>
<path d="M144.79 389.118C155.922 389.118 164.946 380.453 164.946 369.765C164.946 359.076 155.922 350.412 144.79 350.412C133.659 350.412 124.635 359.076 124.635 369.765C124.635 380.453 133.659 389.118 144.79 389.118Z" fill="#757AFF"/>
<path d="M115.63 305.118C126.761 305.118 135.785 296.453 135.785 285.765C135.785 275.076 126.761 266.412 115.63 266.412C104.498 266.412 95.4746 275.076 95.4746 285.765C95.4746 296.453 104.498 305.118 115.63 305.118Z" fill="#757AFF"/>
<path d="M196.74 231.516H189.709C189.07 231.516 188.457 231.272 188.005 230.838C187.553 230.404 187.299 229.815 187.299 229.201V222.451C187.299 222.426 187.294 222.401 187.284 222.377C187.274 222.354 187.259 222.333 187.24 222.315C187.222 222.297 187.199 222.283 187.175 222.273C187.151 222.263 187.125 222.258 187.098 222.258H182.478C181.626 222.258 180.809 222.583 180.206 223.162C179.603 223.741 179.264 224.526 179.264 225.344V240.774C179.264 241.592 179.603 242.377 180.206 242.956C180.809 243.534 181.626 243.859 182.478 243.859H193.727C194.579 243.859 195.396 243.534 195.999 242.956C196.602 242.377 196.94 241.592 196.94 240.774V231.709C196.94 231.683 196.935 231.658 196.925 231.635C196.915 231.612 196.9 231.59 196.882 231.572C196.863 231.554 196.841 231.54 196.816 231.531C196.792 231.521 196.766 231.516 196.74 231.516ZM192.12 239.231H184.085C183.872 239.231 183.668 239.149 183.517 239.005C183.366 238.86 183.282 238.664 183.282 238.459C183.282 238.255 183.366 238.058 183.517 237.914C183.668 237.769 183.872 237.688 184.085 237.688H192.12C192.333 237.688 192.537 237.769 192.688 237.914C192.839 238.058 192.923 238.255 192.923 238.459C192.923 238.664 192.839 238.86 192.688 239.005C192.537 239.149 192.333 239.231 192.12 239.231ZM192.12 235.373H184.085C183.872 235.373 183.668 235.292 183.517 235.147C183.366 235.003 183.282 234.806 183.282 234.602C183.282 234.397 183.366 234.201 183.517 234.056C183.668 233.912 183.872 233.83 184.085 233.83H192.12C192.333 233.83 192.537 233.912 192.688 234.056C192.839 234.201 192.923 234.397 192.923 234.602C192.923 234.806 192.839 235.003 192.688 235.147C192.537 235.292 192.333 235.373 192.12 235.373Z" fill="white"/>
<path d="M196.299 229.809L189.077 222.874C189.063 222.861 189.045 222.852 189.026 222.848C189.006 222.845 188.986 222.846 188.968 222.854C188.95 222.861 188.934 222.873 188.923 222.889C188.912 222.905 188.906 222.923 188.906 222.942V229.202C188.906 229.406 188.991 229.602 189.141 229.747C189.292 229.892 189.496 229.973 189.709 229.973H196.228C196.248 229.973 196.267 229.967 196.283 229.957C196.3 229.946 196.313 229.931 196.32 229.913C196.328 229.896 196.33 229.877 196.326 229.858C196.322 229.839 196.313 229.822 196.299 229.809L196.299 229.809Z" fill="white"/>
<path d="M244.622 362.658C244.375 362.658 244.135 362.741 243.944 362.891C243.753 363.042 243.623 363.252 243.575 363.484C243.527 363.717 243.564 363.959 243.681 364.168C243.797 364.377 243.986 364.541 244.214 364.632C244.442 364.722 244.696 364.734 244.933 364.665C245.169 364.596 245.374 364.451 245.511 364.253C245.648 364.056 245.71 363.819 245.685 363.583C245.661 363.347 245.552 363.126 245.377 362.958C245.278 362.863 245.16 362.788 245.031 362.736C244.901 362.685 244.762 362.658 244.622 362.658Z" fill="white"/>
<path d="M250.568 358.557V358.553C250.534 358.411 250.46 358.281 250.353 358.177C250.246 358.073 250.111 358 249.963 357.966C248.77 357.686 246.894 357.984 244.815 358.783C242.816 359.53 240.987 360.642 239.429 362.058C239.004 362.464 238.609 362.899 238.247 363.358C237.447 363.305 236.645 363.429 235.903 363.72C233.592 364.696 232.932 367.195 232.756 368.221C232.731 368.367 232.741 368.516 232.785 368.658C232.83 368.799 232.908 368.929 233.013 369.037C233.118 369.145 233.248 369.228 233.392 369.279C233.536 369.331 233.691 369.35 233.844 369.335H233.85L236.424 369.066C236.427 369.097 236.43 369.126 236.433 369.152C236.466 369.454 236.606 369.735 236.829 369.949L238.086 371.156C238.308 371.37 238.601 371.505 238.914 371.537L239.001 371.545L238.72 374.014V374.019C238.707 374.144 238.719 374.271 238.757 374.392C238.794 374.513 238.856 374.626 238.939 374.724C239.022 374.821 239.124 374.903 239.24 374.963C239.355 375.023 239.482 375.06 239.613 375.073C239.643 375.076 239.674 375.078 239.705 375.078C239.761 375.078 239.816 375.074 239.871 375.065C240.946 374.899 243.547 374.273 244.561 372.043C244.862 371.332 244.991 370.566 244.94 369.801C245.42 369.454 245.874 369.074 246.298 368.665C247.772 367.184 248.932 365.441 249.712 363.534C250.54 361.561 250.852 359.746 250.568 358.557ZM246.284 365.277C245.955 365.593 245.536 365.808 245.08 365.896C244.624 365.983 244.151 365.939 243.721 365.768C243.291 365.597 242.924 365.308 242.665 364.937C242.406 364.565 242.268 364.129 242.268 363.682C242.268 363.236 242.405 362.799 242.664 362.427C242.922 362.056 243.289 361.766 243.719 361.595C244.148 361.424 244.621 361.379 245.078 361.466C245.534 361.553 245.953 361.768 246.282 362.083L246.284 362.085C246.725 362.502 246.975 363.07 246.98 363.664C246.984 364.258 246.743 364.83 246.309 365.253L246.284 365.277Z" fill="white"/>
<path d="M237.942 371.483C237.787 371.465 237.63 371.501 237.501 371.586C237.246 371.753 236.989 371.92 236.729 372.081C236.617 372.151 236.483 372.182 236.35 372.17C236.217 372.158 236.091 372.103 235.995 372.014C235.898 371.926 235.834 371.808 235.815 371.681C235.796 371.554 235.822 371.424 235.889 371.313L236.375 370.506C236.445 370.408 236.483 370.293 236.487 370.175C236.49 370.057 236.458 369.94 236.394 369.839C236.33 369.738 236.237 369.657 236.126 369.605C236.015 369.554 235.891 369.534 235.769 369.549C235.229 369.614 234.727 369.85 234.343 370.219C234.196 370.36 233.751 370.789 233.511 372.42C233.443 372.888 233.4 373.36 233.382 373.833C233.38 373.914 233.394 373.994 233.425 374.069C233.455 374.145 233.5 374.213 233.558 374.272C233.616 374.331 233.685 374.378 233.762 374.41C233.839 374.443 233.922 374.461 234.006 374.463C234.011 374.463 234.017 374.463 234.022 374.463H234.038C234.531 374.447 235.023 374.406 235.511 374.34C237.211 374.11 237.657 373.682 237.803 373.541C238.19 373.172 238.435 372.688 238.499 372.168C238.52 372.006 238.473 371.843 238.368 371.715C238.263 371.586 238.11 371.503 237.942 371.483Z" fill="white"/>
<path d="M137.854 380.281H136.394C136.103 380.281 135.825 380.17 135.619 379.973C135.414 379.776 135.298 379.508 135.298 379.23V372.92C135.298 372.641 135.414 372.373 135.619 372.176C135.825 371.979 136.103 371.868 136.394 371.868H137.854C138.144 371.868 138.423 371.979 138.628 372.176C138.834 372.373 138.949 372.641 138.949 372.92V379.23C138.949 379.508 138.834 379.776 138.628 379.973C138.423 380.17 138.144 380.281 137.854 380.281Z" fill="white"/>
<path d="M148.076 380.281H146.616C146.325 380.281 146.047 380.17 145.841 379.973C145.636 379.776 145.521 379.508 145.521 379.23V368.713C145.521 368.434 145.636 368.167 145.841 367.97C146.047 367.772 146.325 367.661 146.616 367.661H148.076C148.367 367.661 148.645 367.772 148.851 367.97C149.056 368.167 149.171 368.434 149.171 368.713V379.23C149.171 379.508 149.056 379.776 148.851 379.973C148.645 380.17 148.367 380.281 148.076 380.281Z" fill="white"/>
<path d="M153.187 380.281H151.727C151.436 380.281 151.158 380.17 150.952 379.973C150.747 379.776 150.632 379.508 150.632 379.229V363.805C150.632 363.527 150.747 363.259 150.952 363.062C151.158 362.865 151.436 362.754 151.727 362.754H153.187C153.478 362.754 153.756 362.865 153.962 363.062C154.167 363.259 154.282 363.527 154.282 363.805V379.229C154.282 379.508 154.167 379.776 153.962 379.973C153.756 380.17 153.478 380.281 153.187 380.281Z" fill="white"/>
<path d="M142.965 380.281H141.505C141.214 380.281 140.936 380.17 140.73 379.973C140.525 379.776 140.409 379.508 140.409 379.229V360.3C140.409 360.021 140.525 359.754 140.73 359.556C140.936 359.359 141.214 359.248 141.505 359.248H142.965C143.255 359.248 143.534 359.359 143.739 359.556C143.945 359.754 144.06 360.021 144.06 360.3V379.229C144.06 379.368 144.032 379.504 143.977 379.632C143.922 379.76 143.841 379.875 143.739 379.973C143.638 380.071 143.517 380.148 143.384 380.201C143.251 380.254 143.109 380.281 142.965 380.281Z" fill="white"/>
<path d="M267.116 285.258L266.072 284.256C265.833 284.026 265.509 283.897 265.171 283.896C264.833 283.895 264.509 284.023 264.269 284.251L257.015 290.679C256.749 290.905 256.586 291.223 256.561 291.564C256.554 291.733 256.582 291.902 256.646 292.06C256.709 292.218 256.806 292.362 256.929 292.482L258.488 293.995L258.491 293.998C258.731 294.228 259.057 294.358 259.397 294.359H259.444C259.621 294.35 259.793 294.307 259.952 294.233C260.111 294.16 260.253 294.057 260.37 293.931L267.111 286.997C267.352 286.768 267.488 286.456 267.49 286.131C267.491 285.805 267.358 285.492 267.119 285.261L267.116 285.258Z" fill="white"/>
<path d="M275.5 283.232L275.488 283.221L274.119 281.919C274.038 281.842 273.943 281.782 273.838 281.74C273.734 281.699 273.621 281.678 273.508 281.679C273.325 281.679 273.146 281.735 272.997 281.838C272.997 281.821 272.999 281.805 273.001 281.791C273.056 281.455 272.982 281.111 272.793 280.823C272.491 280.433 272.16 280.064 271.802 279.721L271.799 279.718C270.798 278.795 269.621 278.067 268.334 277.571C267.661 277.306 266.94 277.17 266.213 277.17C265.271 277.162 264.356 277.47 263.625 278.04C263.417 278.231 263.228 278.439 263.059 278.663C262.978 278.77 262.935 278.899 262.937 279.031C262.939 279.163 262.985 279.291 263.069 279.396C263.153 279.501 263.269 279.577 263.402 279.614C263.534 279.65 263.675 279.644 263.804 279.597C263.916 279.556 264.03 279.523 264.147 279.496C264.389 279.447 264.637 279.432 264.884 279.452C265.395 279.503 265.885 279.676 266.31 279.954C266.548 280.146 266.738 280.388 266.864 280.662C266.99 280.935 267.05 281.232 267.04 281.53C266.862 282.016 266.591 282.465 266.241 282.853C266.147 282.972 266.101 283.119 266.112 283.267C266.123 283.415 266.189 283.554 266.298 283.659L267.673 284.979C267.789 285.091 267.944 285.155 268.108 285.159C268.272 285.164 268.431 285.108 268.552 285.003C268.941 284.67 269.533 284.167 269.74 284.044C269.917 283.93 270.118 283.854 270.328 283.821C270.484 283.807 270.642 283.839 270.779 283.913C270.78 283.919 270.779 283.926 270.777 283.932C270.775 283.938 270.771 283.944 270.767 283.949L270.694 284.016L270.682 284.026C270.52 284.181 270.429 284.391 270.429 284.61C270.428 284.829 270.519 285.039 270.68 285.194L270.684 285.198L272.053 286.499C272.133 286.576 272.228 286.636 272.333 286.678C272.438 286.719 272.55 286.74 272.663 286.739C272.891 286.739 273.109 286.654 273.272 286.501L275.489 284.398C275.497 284.39 275.504 284.383 275.512 284.375C275.66 284.218 275.742 284.014 275.74 283.802C275.738 283.59 275.652 283.386 275.5 283.232Z" fill="white"/>
<path d="M118.83 284.612C118.672 284.612 118.517 284.567 118.385 284.483C118.254 284.399 118.151 284.279 118.091 284.138C118.03 283.998 118.014 283.843 118.045 283.694C118.076 283.545 118.152 283.409 118.264 283.301L120.098 281.54L118.264 279.778C118.114 279.634 118.03 279.439 118.03 279.235C118.03 279.031 118.114 278.836 118.264 278.692C118.414 278.548 118.618 278.467 118.83 278.467C119.042 278.467 119.245 278.548 119.396 278.692L121.796 280.997C121.87 281.068 121.929 281.153 121.969 281.246C122.009 281.339 122.03 281.439 122.03 281.54C122.03 281.641 122.009 281.741 121.969 281.834C121.929 281.927 121.87 282.012 121.796 282.083L119.396 284.387C119.321 284.459 119.233 284.516 119.136 284.554C119.039 284.593 118.935 284.613 118.83 284.612Z" fill="white"/>
<path d="M106.029 286.917C105.924 286.917 105.82 286.897 105.723 286.859C105.626 286.82 105.538 286.763 105.464 286.692C105.389 286.621 105.33 286.536 105.29 286.443C105.25 286.35 105.229 286.25 105.229 286.149V285.381C105.236 284.161 105.743 282.992 106.641 282.129C107.54 281.266 108.756 280.778 110.027 280.772H120.43C120.642 280.772 120.846 280.853 120.996 280.997C121.146 281.141 121.23 281.336 121.23 281.54C121.23 281.744 121.146 281.939 120.996 282.083C120.846 282.227 120.642 282.308 120.43 282.308H110.03C109.182 282.313 108.371 282.638 107.771 283.214C107.172 283.79 106.834 284.569 106.829 285.383V286.149C106.829 286.25 106.809 286.35 106.769 286.443C106.728 286.536 106.669 286.621 106.595 286.692C106.521 286.763 106.433 286.82 106.336 286.859C106.239 286.897 106.134 286.917 106.029 286.917Z" fill="white"/>
<path d="M112.43 293.063C112.325 293.063 112.22 293.043 112.123 293.004C112.026 292.966 111.938 292.909 111.864 292.838L109.464 290.533C109.39 290.462 109.331 290.377 109.29 290.284C109.25 290.191 109.23 290.091 109.23 289.99C109.23 289.889 109.25 289.789 109.29 289.696C109.331 289.603 109.39 289.518 109.464 289.447L111.864 287.142C112.014 286.998 112.217 286.918 112.429 286.918C112.642 286.918 112.845 286.999 112.995 287.143C113.145 287.287 113.229 287.482 113.229 287.685C113.229 287.889 113.145 288.084 112.995 288.228L111.161 289.99L112.995 291.751C113.107 291.859 113.183 291.996 113.214 292.145C113.245 292.294 113.229 292.448 113.169 292.588C113.108 292.729 113.006 292.849 112.874 292.933C112.743 293.017 112.588 293.063 112.43 293.063Z" fill="white"/>
<path d="M110.83 290.758C110.617 290.758 110.414 290.677 110.264 290.533C110.114 290.389 110.03 290.194 110.03 289.99C110.03 289.786 110.114 289.591 110.264 289.447C110.414 289.303 110.617 289.222 110.83 289.222H121.23C122.077 289.217 122.889 288.891 123.488 288.316C124.087 287.74 124.426 286.96 124.43 286.147V285.381C124.43 285.177 124.514 284.982 124.664 284.838C124.814 284.693 125.018 284.613 125.23 284.613C125.442 284.613 125.646 284.693 125.796 284.838C125.946 284.982 126.03 285.177 126.03 285.381V286.149C126.024 287.369 125.516 288.538 124.618 289.401C123.72 290.264 122.503 290.751 121.232 290.758L110.83 290.758Z" fill="white"/>
<path d="M352 390.499C352.083 403.88 297.048 405.106 296 390.5C295.917 377.12 350.952 375.894 352 390.499Z" fill="#E6E6E6"/>
</g>
<path d="M132 521.999C132.196 534.743 2.47125 535.911 0.000223141 522C-0.196335 509.257 129.529 508.089 132 521.999Z" fill="#E6E6E6"/>
<path d="M34.5488 402.418L30.5894 408.145C30.2586 408.712 30.0485 409.336 29.9714 409.982C29.8942 410.627 29.9516 411.281 30.14 411.905C30.3284 412.53 30.6443 413.111 31.0691 413.617C31.4939 414.123 32.0192 414.543 32.6145 414.852C33.3561 415.237 34.1854 415.44 35.0285 415.443C35.8716 415.445 36.7022 415.247 37.4461 414.866C38.1901 414.485 38.8242 413.933 39.2918 413.259C39.7594 412.586 40.046 411.811 40.126 411.006L39.4763 405.697L42.5256 371.281L47.7271 348.644L36.9276 345.7L31.9008 371.157L34.5488 402.418Z" fill="#9F616A"/>
<path d="M90.3937 511.026L79.9279 511.463L56.4334 434.166L30.7529 512.06L20.7739 511.9L36.9013 420.574C32.1563 408.09 35.2359 396.686 42.5893 385.872L43.6951 379.125L72.1924 378.639L74.8704 404.232L90.3937 511.026Z" fill="#2F2E41"/>
<path d="M83.1195 524.772C84.5938 525.418 86.0108 520.029 87.0721 521.357C91.1773 526.494 99.171 524.721 98.8946 523.904C99.1748 523.817 99.4337 523.677 99.6558 523.492C99.8779 523.306 100.058 523.08 100.187 522.825C100.315 522.571 100.388 522.294 100.401 522.012C100.415 521.73 100.368 521.448 100.265 521.183C100.141 520.867 99.9396 520.584 99.6768 520.358C99.414 520.133 99.0982 519.973 98.7566 519.891L95.0574 519.003L89.2492 509.195L82.9193 508.426L82.7594 508.677C81.5357 510.57 80.7467 512.693 80.4451 514.903C80.1435 517.112 80.3362 519.359 81.0104 521.491C81.5368 523.111 82.2533 524.393 83.1195 524.772Z" fill="#2F2E41"/>
<path d="M22.8128 524.772C24.287 525.418 25.704 520.029 26.7654 521.357C30.8706 526.494 38.8642 524.721 38.5879 523.904C38.8681 523.817 39.127 523.677 39.3491 523.492C39.5712 523.306 39.7517 523.08 39.8799 522.825C40.008 522.571 40.081 522.294 40.0945 522.012C40.108 521.73 40.0617 521.448 39.9584 521.183C39.8347 520.867 39.6328 520.584 39.3701 520.358C39.1073 520.133 38.7915 519.973 38.4499 519.891L34.7507 519.003L28.9425 509.195L22.6125 508.426L22.4527 508.677C21.229 510.57 20.44 512.693 20.1384 514.903C19.8368 517.112 20.0295 519.359 20.7037 521.491C21.2301 523.111 21.9466 524.393 22.8128 524.772Z" fill="#2F2E41"/>
<path d="M29.4163 365.545L37.6499 338.558C38.0426 336.631 39.2165 334.933 40.9132 333.837C42.6099 332.741 44.6905 332.337 46.6972 332.714C47.6909 332.901 48.6365 333.274 49.4801 333.812C50.3236 334.349 51.0487 335.041 51.6138 335.848C52.1789 336.654 52.5729 337.56 52.7735 338.513C52.9741 339.466 52.9772 340.447 52.7828 341.402L46.0512 366.047C41.1741 361.116 35.57 361.371 29.4163 365.545Z" fill="#757AFF"/>
<path d="M102.196 340.416L86.6031 343.719L87.2735 331.81H100.012L108.22 307.922L108.113 301.74C107.943 301.17 107.907 300.571 108.007 299.985C108.107 299.4 108.341 298.843 108.691 298.354C109.042 297.866 109.501 297.458 110.035 297.16C110.569 296.862 111.165 296.681 111.781 296.63C112.488 296.572 113.199 296.687 113.847 296.966C114.495 297.244 115.059 297.675 115.485 298.22C115.912 298.765 116.187 299.405 116.285 300.08C116.383 300.755 116.301 301.443 116.046 302.079L113.241 309.405L109.398 331.81C109.398 333.817 108.684 335.765 107.374 337.33C106.065 338.895 104.238 339.984 102.196 340.416Z" fill="#9F616A"/>
<path d="M59.618 323.602C67.0234 323.602 73.0267 317.838 73.0267 310.727C73.0267 303.616 67.0234 297.852 59.618 297.852C52.2126 297.852 46.2093 303.616 46.2093 310.727C46.2093 317.838 52.2126 323.602 59.618 323.602Z" fill="#9F616A"/>
<path d="M62.132 337.925L42.3542 338.247C45.5127 328.737 47.6822 319.845 47.3824 312.497H62.4673C61.4651 320.941 61.3528 329.46 62.132 337.925Z" fill="#9F616A"/>
<path d="M75.0379 380.896L42.6153 385.63C37.4934 371.358 37.3426 354.886 40.0755 342.696C39.7393 339.791 40.0691 336.85 41.0418 334.08C42.0145 331.309 43.6066 328.777 45.7063 326.66L61.4616 328.269C63.2773 328.657 64.9461 329.519 66.2832 330.76C67.6203 332.002 68.5737 333.575 69.0378 335.304C75.1167 343.396 79.5701 351.053 74.6449 356.199L75.0379 380.896Z" fill="#757AFF"/>
<path d="M94.6484 346.294L65.4844 343.719C63.4395 343.719 61.4785 342.939 60.0326 341.551C58.5867 340.162 57.7744 338.279 57.7744 336.316C57.7744 334.352 58.5867 332.469 60.0326 331.081C61.4785 329.693 63.4395 328.913 65.4844 328.913L91.9666 330.522C87.8634 336.065 89.2003 341.297 94.6484 346.294Z" fill="#757AFF"/>
<path d="M41.3485 334.844L31.4428 334.599C33.0239 321.302 33.8474 306.318 41.9264 298.615C42.9544 297.635 43.8771 296.62 44.7981 295.604C46.6321 293.579 50.5187 292.417 54.4924 292.858L56.4395 293.074C62.8315 293.784 76.239 298.184 75.8506 302.028C75.6529 303.986 75.5194 307.507 70.6679 307.552C66.7496 312.6 59.7432 315.402 62.6686 320.198C68.5217 325.211 60.9057 329.186 54.764 332.18C50.9985 334.016 46.2221 334.964 41.3485 334.844Z" fill="#2F2E41"/>
<path d="M531.169 297.696H415.384C414.815 297.695 414.27 297.478 413.868 297.092C413.467 296.706 413.24 296.183 413.24 295.637V245C413.24 244.454 413.467 243.931 413.868 243.545C414.27 243.159 414.815 242.942 415.384 242.941H531.169C531.737 242.942 532.282 243.159 532.684 243.545C533.086 243.931 533.313 244.454 533.313 245V295.637C533.313 296.183 533.086 296.706 532.684 297.092C532.282 297.478 531.737 297.695 531.169 297.696ZM415.384 243.765C415.043 243.765 414.716 243.895 414.475 244.127C414.233 244.358 414.098 244.672 414.097 245V295.637C414.098 295.964 414.233 296.278 414.475 296.51C414.716 296.742 415.043 296.872 415.384 296.872H531.169C531.51 296.872 531.837 296.742 532.078 296.51C532.319 296.278 532.455 295.964 532.456 295.637V245C532.455 244.672 532.319 244.358 532.078 244.127C531.837 243.895 531.51 243.765 531.169 243.765H415.384Z" fill="#3F3D56"/>
<path d="M430.393 267.436C435.367 267.436 439.399 263.565 439.399 258.789C439.399 254.013 435.367 250.142 430.393 250.142C425.419 250.142 421.388 254.013 421.388 258.789C421.388 263.565 425.419 267.436 430.393 267.436Z" fill="#757AFF"/>
<path d="M451.191 253.024C450.793 253.024 450.412 253.176 450.13 253.446C449.849 253.717 449.69 254.083 449.69 254.465C449.69 254.848 449.849 255.214 450.13 255.485C450.412 255.755 450.793 255.907 451.191 255.907H521.949C522.347 255.907 522.729 255.755 523.01 255.485C523.292 255.214 523.45 254.848 523.45 254.465C523.45 254.083 523.292 253.717 523.01 253.446C522.729 253.176 522.347 253.024 521.949 253.024H451.191Z" fill="#F37479"/>
<path d="M451.191 261.671C450.793 261.671 450.412 261.823 450.13 262.093C449.849 262.364 449.69 262.73 449.69 263.112C449.69 263.495 449.849 263.861 450.13 264.132C450.412 264.402 450.793 264.554 451.191 264.554H481.639C482.037 264.554 482.418 264.402 482.7 264.132C482.981 263.861 483.139 263.495 483.139 263.112C483.139 262.73 482.981 262.364 482.7 262.093C482.418 261.823 482.037 261.671 481.639 261.671H451.191Z" fill="#EAA2A4"/>
<path d="M423.486 275.495C422.344 275.495 421.415 276.142 421.415 276.937C421.415 277.731 422.344 278.378 423.486 278.378H521.109C522.251 278.378 523.18 277.731 523.18 276.937C523.18 276.142 522.251 275.495 521.109 275.495H423.486Z" fill="#B96467"/>
<path d="M423.486 284.143C422.344 284.143 421.415 284.789 421.415 285.584C421.415 286.378 422.344 287.025 423.486 287.025H521.109C522.251 287.025 523.18 286.378 523.18 285.584C523.18 284.789 522.251 284.143 521.109 284.143H423.486Z" fill="#D6B0B2"/>
<path opacity="0.7" d="M518.938 120.219L341.809 168.446L503.417 81.0111C496.049 68.0505 486.8 56.1614 475.947 45.7006L319.151 128.56L450.416 25.6406C431.59 13.6821 410.351 5.66502 388.083 2.11128L315.375 118.671L363.531 0.0192701C362.814 0.0102771 362.097 0 361.378 0C272.075 0 199.681 69.5126 199.681 155.261C199.634 183.622 207.717 211.449 223.043 235.693H499.712C521.497 201.061 528.393 159.647 518.938 120.219Z" fill="#F2F2F2"/>
<path opacity="0.4" d="M315.857 240H254.143C253.84 240 253.549 239.909 253.335 239.746C253.121 239.584 253 239.364 253 239.135V217.865C253 217.636 253.121 217.416 253.335 217.254C253.549 217.091 253.84 217 254.143 217H315.857C316.16 217 316.451 217.091 316.665 217.254C316.879 217.416 317 217.636 317 217.865V239.135C317 239.364 316.879 239.584 316.665 239.746C316.451 239.909 316.16 240 315.857 240ZM254.143 217.346C253.961 217.346 253.787 217.401 253.658 217.498C253.53 217.595 253.457 217.727 253.457 217.865V239.135C253.457 239.273 253.53 239.405 253.658 239.502C253.787 239.599 253.961 239.654 254.143 239.654H315.857C316.039 239.654 316.213 239.599 316.342 239.502C316.47 239.405 316.543 239.273 316.543 239.135V217.865C316.543 217.727 316.47 217.595 316.342 217.498C316.213 217.401 316.039 217.346 315.857 217.346H254.143Z" fill="#737189"/>
<path d="M262.143 227.289C264.794 227.289 266.943 225.663 266.943 223.657C266.943 221.651 264.794 220.025 262.143 220.025C259.492 220.025 257.343 221.651 257.343 223.657C257.343 225.663 259.492 227.289 262.143 227.289Z" fill="#757AFF"/>
<path d="M273.229 221.235C273.016 221.235 272.813 221.299 272.663 221.413C272.513 221.526 272.429 221.68 272.429 221.841C272.429 222.001 272.513 222.155 272.663 222.269C272.813 222.382 273.016 222.446 273.229 222.446H310.943C311.155 222.446 311.358 222.382 311.508 222.269C311.658 222.155 311.743 222.001 311.743 221.841C311.743 221.68 311.658 221.526 311.508 221.413C311.358 221.299 311.155 221.235 310.943 221.235H273.229Z" fill="#F37479"/>
<path d="M273.229 224.868C273.016 224.868 272.813 224.931 272.663 225.045C272.513 225.158 272.429 225.312 272.429 225.473C272.429 225.633 272.513 225.787 272.663 225.901C272.813 226.015 273.016 226.078 273.229 226.078H289.457C289.669 226.078 289.873 226.015 290.023 225.901C290.173 225.787 290.257 225.633 290.257 225.473C290.257 225.312 290.173 225.158 290.023 225.045C289.873 224.931 289.669 224.868 289.457 224.868H273.229Z" fill="#EAA2A4"/>
<path d="M258.461 230.675C257.853 230.675 257.357 230.946 257.357 231.28C257.357 231.614 257.853 231.885 258.461 231.885H310.495C311.104 231.885 311.599 231.614 311.599 231.28C311.599 230.946 311.104 230.675 310.495 230.675H258.461Z" fill="#B96467"/>
<path d="M258.461 234.307C257.853 234.307 257.357 234.578 257.357 234.912C257.357 235.246 257.853 235.518 258.461 235.518H310.495C311.104 235.518 311.599 235.246 311.599 234.912C311.599 234.578 311.104 234.307 310.495 234.307H258.461Z" fill="#D6B0B2"/>
<path d="M267.004 242.441C266.369 242.054 266.622 241.016 267.274 240.658C267.926 240.299 268.736 240.419 269.47 240.559C269.438 240.379 269.467 240.195 269.552 240.032C269.637 239.87 269.773 239.737 269.941 239.653V239.497C269.513 239.085 269.676 238.261 270.199 237.899C270.722 237.537 271.537 237.52 272.24 237.553C272.19 237.144 272.242 236.729 272.391 236.342C272.54 235.956 272.782 235.609 273.098 235.329C273.221 235.202 273.389 235.124 273.569 235.111C273.998 235.111 274.118 235.638 274.148 236.029C274.23 237.057 274.406 238.075 274.676 239.072L288.004 260.484C289.488 262.543 284.878 256.367 286.361 258.446C287.113 259.578 287.993 260.626 288.986 261.571C289.877 262.335 290.874 262.977 291.949 263.478C292.667 263.498 293.374 263.305 293.973 262.926C294.726 262.42 295.384 261.794 295.92 261.077C297.082 259.659 298.133 258.16 299.063 256.593C299.386 256.097 299.629 255.557 299.784 254.991C299.981 254.102 299.784 253.138 300.148 252.302C300.304 251.991 300.496 251.698 300.723 251.429L301.645 250.256V250.202C301.748 248.465 303.219 247.122 304.591 245.978C305.758 244.998 307.023 243.977 308.562 243.787C309.385 243.684 310.23 243.837 311.054 243.738C311.727 243.655 312.366 243.412 313.035 243.305C313.679 243.221 314.331 243.209 314.977 243.268L315.252 243.025C313.829 242.448 312.62 241.472 311.783 240.225C311.148 239.241 310.801 238.105 310.213 237.092C309.497 235.857 308.433 234.835 307.64 233.649C305.723 230.837 305.372 227.218 306.148 223.94C306.924 220.662 308.742 217.685 310.865 215.029C314.982 209.915 321.886 208.029 328.387 209.018C328.816 209.084 329.245 209.162 329.674 209.252C330.767 209.473 331.835 209.8 332.86 210.228C334.247 210.774 335.45 211.675 336.338 212.835C336.577 213.174 336.779 213.535 336.942 213.914C337.062 214.203 337.159 214.5 337.234 214.803C337.433 215.718 337.487 216.656 337.393 217.587C337.367 217.904 337.332 218.221 337.294 218.538L337.23 219.015C337.187 219.332 337.139 219.649 337.092 219.967C337.024 220.444 336.959 220.922 336.912 221.391C336.874 221.724 336.856 222.058 336.856 222.392C336.856 222.478 336.856 222.561 336.856 222.643C336.872 222.892 336.91 223.138 336.972 223.38C337.006 223.513 337.049 223.644 337.101 223.771C337.255 224.15 337.459 224.508 337.706 224.838C338.04 225.285 338.402 225.713 338.791 226.118L339.164 226.53C339.288 226.666 339.408 226.806 339.532 226.942C340.023 227.491 340.471 228.073 340.875 228.684C341.071 228.991 341.248 229.31 341.402 229.639C341.519 229.888 341.621 230.144 341.707 230.405C341.816 230.755 341.893 231.113 341.938 231.475C341.938 231.566 341.938 231.657 341.964 231.747C341.964 231.924 341.964 232.105 341.964 232.287C341.954 232.466 341.934 232.645 341.904 232.822C341.874 232.997 341.831 233.171 341.775 233.341C341.721 233.513 341.654 233.681 341.574 233.843C341.574 233.888 341.531 233.934 341.505 233.979L341.436 234.115C341.389 234.205 341.342 234.292 341.299 234.382C341.234 234.514 341.187 234.652 341.158 234.794C341.158 234.839 341.158 234.889 341.158 234.938C341.158 234.988 341.158 235.045 341.158 235.095C341.226 235.508 341.452 235.883 341.792 236.145C341.878 236.223 341.964 236.293 342.054 236.367L342.191 236.474L342.47 236.684L342.736 236.89C342.969 237.078 343.186 237.285 343.383 237.508C345.798 237.384 348.218 237.611 350.562 238.183C351.395 238.443 352.26 238.594 353.135 238.632C353.345 238.65 353.556 238.619 353.751 238.541C353.945 238.463 354.117 238.34 354.25 238.183C354.399 237.874 354.439 237.528 354.366 237.195C354.25 235.816 354.486 234.431 355.052 233.159C355.189 232.787 355.425 232.456 355.738 232.2C355.897 232.076 356.094 232.003 356.299 231.993C356.504 231.982 356.707 232.035 356.879 232.142C356.153 234.395 356.258 236.819 357.175 239.007C357.645 240.038 358.197 241.033 358.826 241.984C359.803 243.585 360.352 245.418 361.223 247.077C360.249 250.244 360.468 253.624 359.936 256.894C359.46 259.937 358.354 262.852 357.243 265.738C356.386 267.917 355.494 270.189 353.675 271.721C353.089 272.289 352.299 272.619 351.467 272.644C350.851 272.57 350.263 272.356 349.751 272.018C349.221 271.74 348.732 271.395 348.298 270.992C348.137 270.823 347.993 270.64 347.869 270.445C347.816 270.721 347.706 270.984 347.547 271.219C346.501 269.053 345.352 266.937 344.117 264.865C343.749 264.677 343.404 264.451 343.087 264.19C343.087 264.264 343.049 264.338 343.027 264.412C343.083 264.61 343.135 264.824 343.19 265.009C343.246 265.195 343.31 265.392 343.37 265.578C343.43 265.763 343.46 265.854 343.508 265.989C343.555 266.125 343.623 266.319 343.688 266.484C343.752 266.648 343.825 266.842 343.898 267.019C343.971 267.196 343.997 267.274 344.052 267.398C344.185 267.711 344.322 268.015 344.481 268.32C344.362 268.376 344.238 268.424 344.112 268.464L344.031 268.489C343.92 268.523 343.807 268.55 343.692 268.571H343.568C343.484 268.584 343.399 268.592 343.315 268.596H343.22H342.942C342.635 268.583 342.331 268.533 342.037 268.448L341.87 269.107C341.442 270.587 341.166 272.104 341.046 273.636C340.965 275.365 341.278 277.124 340.93 278.824C340.755 279.709 340.399 280.558 340.27 281.447C340.187 282.285 340.203 283.129 340.317 283.963C340.517 285.983 340.717 288.005 340.918 290.028C340.936 290.771 341.12 291.501 341.458 292.17C341.754 292.664 342.234 293.228 341.934 293.718C341.44 293.591 340.937 293.499 340.429 293.442C340.613 294.084 340.78 294.731 340.939 295.381C341.094 295.865 341.135 296.375 341.059 296.876C340.952 297.345 340.63 297.769 340.596 298.247C340.519 298.988 341.055 299.643 341.351 300.331C342.105 302.085 341.303 304.061 340.493 305.799L338.126 310.954L336.183 315.183C335.609 316.418 335.03 317.695 334.468 318.963C331.936 324.738 329.869 330.69 328.284 336.768C328.231 337.044 328.122 337.307 327.962 337.542C327.637 337.954 327.04 338.085 326.556 338.341C325.102 339.111 324.935 341.408 326.264 342.364C325.994 345.46 328.408 348.454 329.652 351.319C332.517 357.908 331.998 365.344 332.98 372.427L331.869 371.805C331.737 371.862 331.616 371.938 331.509 372.031C331.535 372.163 331.565 372.3 331.599 372.443C331.749 373.045 331.989 373.624 332.311 374.16C332.958 375.227 333.949 376.178 334.099 377.405C334.189 378.146 333.953 378.887 333.958 379.632C333.958 379.702 333.958 379.768 333.958 379.838C334.056 379.748 334.206 379.756 334.429 379.925C334.778 380.277 335.02 380.714 335.128 381.189C335.321 381.72 335.476 382.26 335.63 382.799L336.205 384.701C336.498 385.848 336.887 386.97 337.367 388.057C337.777 388.785 338.122 389.545 338.396 390.33C338.549 390.97 338.608 391.627 338.572 392.282C338.583 392.91 338.489 393.536 338.293 394.135C338.036 394.725 337.653 395.257 337.169 395.698C336.686 396.138 336.112 396.476 335.484 396.692C334.228 397.116 332.912 397.355 331.582 397.4C331.241 397.442 330.895 397.432 330.557 397.371C330.195 397.271 329.858 397.102 329.566 396.873C327.757 395.597 326.822 393.249 326.659 391.108C326.705 390.666 326.786 390.229 326.903 389.799C326.792 387.456 327.148 385.101 326.963 382.766C326.925 383.034 326.886 383.297 326.843 383.561L326.414 386.184C326.44 386.09 326.49 386.005 326.56 385.937C326.878 386.908 326.934 387.941 326.723 388.938C326.509 389.931 326.208 390.905 325.823 391.849L325.239 393.414C325.099 393.886 324.863 394.327 324.545 394.711C324.034 395.251 323.258 395.452 322.512 395.625C320.908 396.075 319.257 396.352 317.589 396.449C317.366 396.474 317.14 396.434 316.941 396.334C316.839 396.261 316.742 396.183 316.65 396.099C316.502 395.997 316.344 395.909 316.178 395.835C315.462 395.473 314.92 394.857 314.669 394.118C314.548 393.751 314.51 393.362 314.559 392.98C314.607 392.597 314.739 392.229 314.947 391.899C315.142 391.621 315.365 391.362 315.612 391.125L318.545 388.139C318.994 387.628 319.472 387.141 319.978 386.682C320.038 386.622 320.112 386.578 320.195 386.552C320.277 386.526 320.364 386.52 320.449 386.534C321.247 384.623 321.144 382.391 321.007 380.295C320.964 379.669 320.608 378.372 320.466 377.306C319.901 377.122 319.374 376.844 318.91 376.482C318.463 376.169 318.145 375.714 318.014 375.198C316.534 367.942 314.154 360.909 311.907 353.839C311.684 353.144 311.478 352.444 311.251 351.748C311.157 351.451 311.071 351.151 310.981 350.85C310.891 350.549 310.831 350.364 310.758 350.121C310.638 349.71 310.518 349.298 310.402 348.886C310.367 348.775 310.337 348.664 310.303 348.552C310.305 348.531 310.305 348.508 310.303 348.487C310.162 347.98 310.024 347.474 309.874 346.967C309.823 346.769 309.767 346.58 309.716 346.382C309.548 345.74 309.381 345.089 309.222 344.443C309.196 344.354 309.176 344.263 309.162 344.171C309.105 343.943 309.121 343.703 309.21 343.484C309.252 343.399 309.309 343.321 309.377 343.253C309.424 343.2 309.475 343.146 309.527 343.097C309.578 343.047 309.638 342.981 309.69 342.92C309.825 342.76 309.927 342.577 309.99 342.38C309.99 342.182 309.99 341.968 309.99 341.787C309.99 341.606 310.016 341.375 310.029 341.161C309.983 340.883 309.918 340.608 309.836 340.338C309.784 340.177 309.729 340.017 309.677 339.856C309.626 339.695 309.548 339.444 309.48 339.259C309.223 338.978 309.084 338.616 309.09 338.242C308.824 337.605 308.531 336.98 308.21 336.368C307.815 335.748 307.549 335.06 307.426 334.342C307.428 333.694 307.511 333.049 307.674 332.42C308.103 329.743 306.817 327.137 305.869 324.596C305.166 322.722 304.632 320.793 304.274 318.831C303.995 317.328 303.802 315.751 302.966 314.45C302.69 314.085 302.454 313.693 302.263 313.281C302.133 312.85 302.069 312.403 302.074 311.955C301.968 310.137 301.51 308.353 300.723 306.697C300.549 306.375 300.43 306.029 300.371 305.671C300.369 305.648 300.369 305.625 300.371 305.601V305.502L300.153 305.469C299.78 303.201 299.402 300.672 299.66 298.387C299.994 295.74 301.337 293.305 303.429 291.552H303.386C302.648 291.194 302.318 290.317 302.305 289.542C302.304 288.956 302.439 288.376 302.702 287.847C302.965 287.317 303.348 286.851 303.823 286.483C304.036 286.356 304.213 286.181 304.338 285.972C304.409 285.759 304.431 285.532 304.402 285.309C304.399 284.637 304.604 283.979 304.991 283.419C305.378 282.859 305.93 282.422 306.577 282.164C306.711 282.128 306.833 282.06 306.933 281.966C307.043 281.784 307.076 281.569 307.027 281.365C306.987 280.696 307.138 280.03 307.464 279.438C307.79 278.846 308.278 278.35 308.875 278.005C308.704 277.124 308.532 276.201 308.794 275.337C309.055 274.472 309.9 273.689 310.826 273.813C310.072 271.837 311.144 269.638 310.861 267.55C310.736 266.652 310.363 265.792 310.316 264.89C310.273 264.067 310.483 263.185 310.067 262.469C309.651 261.752 308.669 261.192 308.922 260.41C309.03 260.077 309.351 259.846 309.501 259.521C309.651 259.195 309.051 258.697 308.742 258.878C308.596 258.771 308.451 258.66 308.313 258.545C308.269 258.963 308.182 259.377 308.056 259.78C307.846 260.455 307.524 261.089 307.306 261.761C306.971 262.786 306.877 263.898 306.336 264.837C305.479 266.339 303.665 267.085 302.438 268.332C301.718 269.061 301.199 269.979 300.457 270.671C299.894 271.177 299.276 271.622 298.613 272.001L294.651 274.472C294.24 274.758 293.782 274.977 293.296 275.118C292.987 275.175 292.67 275.17 292.364 275.105C292.057 275.04 291.768 274.916 291.513 274.74C291.258 274.563 291.043 274.339 290.882 274.081C290.72 273.823 290.615 273.535 290.573 273.237C290.937 273.113 291.269 272.915 291.546 272.656C291.49 272.656 291.435 272.656 291.379 272.631C290.437 272.395 289.567 271.951 288.836 271.334C286.014 269.177 283.986 266.232 282.004 263.338C279.929 260.303 269.941 252.274 269.941 252.274V249.021C268.67 248.313 267.543 247.391 266.614 246.299C266.113 245.716 265.819 244.995 265.777 244.24C265.758 243.854 265.867 243.473 266.087 243.149C266.307 242.826 266.628 242.578 267.004 242.441ZM350.069 250.244C350.26 251.427 350.496 252.602 350.776 253.768C351.085 255.118 351.48 256.448 351.96 257.75L352.114 258.162C352.256 257.907 352.397 257.655 352.543 257.396C352.865 256.749 353.126 256.078 353.401 255.407L355.056 251.125C355.271 250.569 355.485 249.927 355.163 249.416C354.928 249.103 354.599 248.866 354.22 248.737C353.056 248.224 351.84 247.828 350.592 247.555C350.197 247.479 349.808 247.38 349.426 247.258C349.733 248.233 349.949 249.232 350.069 250.244ZM348.238 244.891C348.293 244.796 348.322 244.689 348.322 244.58C348.322 244.471 348.293 244.364 348.238 244.269C348.114 244.149 347.969 244.051 347.809 243.981L347.684 243.898C347.856 244.24 348.049 244.569 348.238 244.903V244.891ZM344.807 240.234C345.294 240.621 345.737 241.058 346.128 241.535C346.548 242.067 346.926 242.629 347.26 243.215C347.209 242.987 347.227 242.75 347.31 242.532C347.394 242.313 347.54 242.122 347.732 241.979C347.884 241.899 348.027 241.806 348.161 241.699C348.304 241.516 348.365 241.285 348.332 241.058C348.298 240.831 348.171 240.626 347.98 240.489C347.586 240.229 347.124 240.078 346.647 240.052L344.67 239.772C344.73 239.933 344.768 240.089 344.811 240.246L344.807 240.234ZM326.299 378.031C326.264 377.461 326.303 376.89 326.414 376.33C326.17 376.33 325.926 376.33 325.685 376.33C325.887 376.878 326.093 377.458 326.299 378.031Z" fill="#EE8E9E"/>
<path d="M328.314 210.253C331.745 210.784 335.561 212.053 336.891 215.141C337.881 217.476 337.114 220.103 336.861 222.61C336.765 223.272 336.789 223.945 336.934 224.599C337.217 225.657 337.997 226.514 338.752 227.333C339.8 228.374 340.681 229.559 341.363 230.85C341.981 232.167 342.178 233.732 341.539 235.05C341.322 235.388 341.176 235.765 341.11 236.157C341.068 237.014 342.002 237.557 342.689 238.105C345.262 240.164 345.154 243.87 345.176 247.094C345.215 253.668 346.735 260.156 349.631 266.113C348.546 266.641 347.32 266.842 346.114 266.691C344.907 266.54 343.776 266.043 342.869 265.265C343.225 266.729 343.74 268.153 344.404 269.514C342.225 270.527 339.597 268.864 338.503 266.789C337.41 264.713 337.281 262.3 336.505 260.097C335.729 257.894 334.361 255.98 333.756 253.76C333.563 253.027 333.443 252.245 332.975 251.636C332.582 251.195 332.119 250.815 331.603 250.511C329.341 248.944 327.646 246.737 326.753 244.199C324.086 244.763 321.363 245.331 318.644 245.093C315.925 244.854 313.146 243.672 311.71 241.44C311.075 240.456 310.732 239.324 310.144 238.311C309.424 237.076 308.365 236.054 307.571 234.873C305.659 232.06 305.307 228.449 306.083 225.171C306.86 221.894 308.656 218.929 310.801 216.273C314.909 211.151 321.813 209.253 328.314 210.253Z" fill="#303D5C"/>
<path d="M349.966 251.438C350.159 252.615 350.395 253.793 350.669 254.958C350.98 256.306 351.376 257.634 351.853 258.936C352.133 259.506 352.262 260.135 352.226 260.764C352.141 261.15 351.986 261.518 351.767 261.851C350.202 264.524 348.083 267.105 347.908 270.169C347.865 270.931 347.908 271.758 347.479 272.388C346.269 269.888 344.934 267.45 343.473 265.075C341.947 262.605 340.249 260.077 339.811 257.219C339.637 255.878 339.656 254.52 339.867 253.184C340.068 251.681 340.42 250.141 341.372 248.938C342.41 247.637 345.232 245.673 347.088 246.081C349.246 246.554 349.692 249.762 349.966 251.438Z" fill="#757AFF"/>
<path d="M294.694 265.841C292.644 265.038 290.551 264.194 288.926 262.745C287.933 261.8 287.053 260.752 286.301 259.62L281.477 252.937C280.336 251.347 279.157 249.68 278.904 247.765C276.079 244.901 274.377 241.184 274.088 237.248C274.054 236.857 273.917 236.343 273.509 236.33C273.329 236.343 273.161 236.421 273.038 236.548C272.722 236.827 272.48 237.173 272.331 237.559C272.182 237.945 272.13 238.359 272.18 238.768C271.477 238.735 270.713 238.718 270.139 239.114C269.564 239.509 269.41 240.489 270.027 240.814C269.82 240.875 269.644 241.005 269.531 241.182C269.418 241.359 269.376 241.569 269.414 241.774C268.676 241.634 267.866 241.518 267.214 241.873C266.562 242.227 266.314 243.264 266.944 243.651C266.576 243.788 266.262 244.03 266.043 244.345C265.824 244.659 265.712 245.031 265.722 245.41C265.761 246.165 266.054 246.887 266.558 247.468C268.41 249.857 271.678 250.82 273.827 252.97C274.533 253.721 275.166 254.533 275.718 255.395L281.94 264.487C283.917 267.369 285.945 270.321 288.767 272.471C289.498 273.087 290.369 273.531 291.31 273.768C291.782 273.882 292.276 273.876 292.744 273.751C293.213 273.627 293.639 273.387 293.982 273.055C294.604 272.376 294.698 271.408 294.758 270.498C294.861 268.967 294.586 267.385 294.694 265.841Z" fill="#EE8E9E"/>
<path d="M315.531 392.113C315.282 392.349 315.06 392.608 314.866 392.887C314.658 393.216 314.525 393.584 314.477 393.966C314.429 394.348 314.467 394.736 314.587 395.103C314.836 395.841 315.376 396.456 316.092 396.815C316.26 396.888 316.419 396.976 316.568 397.079C316.66 397.165 316.757 397.245 316.86 397.318C317.06 397.414 317.285 397.454 317.508 397.433C319.173 397.332 320.823 397.056 322.426 396.61C323.164 396.433 323.944 396.231 324.459 395.695C324.777 395.311 325.013 394.87 325.154 394.398L325.737 392.838C326.12 391.895 326.42 390.922 326.633 389.931C326.846 388.935 326.79 387.903 326.47 386.933C326.325 387.107 326.25 387.324 326.256 387.547C326.084 388.597 325.655 389.594 325.003 390.454C324.867 390.669 324.703 390.867 324.515 391.043C324.088 391.357 323.585 391.56 323.052 391.631C322.028 391.845 320.986 391.973 319.939 392.014C319.794 392.033 319.646 392.016 319.51 391.965C319.342 391.875 319.215 391.728 319.154 391.553C319.004 391.154 319.004 390.717 319.154 390.318C319.437 389.556 320.213 389.058 320.582 388.333C320.861 387.798 320.479 387.209 319.913 387.662C319.405 388.12 318.925 388.607 318.477 389.12L315.531 392.113Z" fill="#303D5C"/>
<path d="M320.921 381.296C321.088 383.812 321.204 386.53 319.772 388.642C319.253 389.4 318.562 390.038 317.975 390.75C317.638 391.106 317.415 391.548 317.332 392.023C317.25 392.945 318.151 393.735 319.098 393.908C320.046 394.081 321.015 393.793 321.933 393.497C322.801 393.289 323.619 392.92 324.339 392.41C325.587 391.397 325.917 389.708 326.166 388.16L326.749 384.561C327.191 382.742 327.004 380.834 326.217 379.126L325.256 376.425C325.194 376.162 325.043 375.927 324.828 375.754C324.604 375.636 324.347 375.589 324.094 375.622C323.177 375.667 320.857 375.988 320.411 376.923C320.033 377.734 320.857 380.328 320.921 381.296Z" fill="#EE8E9E"/>
<path opacity="0.05" d="M320.921 381.296C321.088 383.812 321.204 386.53 319.772 388.642C319.253 389.4 318.562 390.038 317.975 390.75C317.638 391.106 317.415 391.548 317.332 392.023C317.25 392.945 318.151 393.735 319.098 393.908C320.046 394.081 321.015 393.793 321.933 393.497C322.801 393.289 323.619 392.92 324.339 392.41C325.587 391.397 325.917 389.708 326.166 388.16L326.749 384.561C327.191 382.742 327.004 380.834 326.217 379.126L325.256 376.425C325.194 376.162 325.043 375.927 324.828 375.754C324.604 375.636 324.347 375.589 324.094 375.622C323.177 375.667 320.857 375.988 320.411 376.923C320.033 377.734 320.857 380.328 320.921 381.296Z" fill="black"/>
<path d="M300.307 306.721C300.305 306.745 300.305 306.768 300.307 306.791C300.362 307.148 300.481 307.492 300.659 307.808C301.446 309.461 301.905 311.24 302.014 313.054C302.009 313.503 302.073 313.949 302.202 314.38C302.395 314.791 302.631 315.181 302.906 315.546C303.742 316.851 303.935 318.428 304.214 319.923C304.573 321.876 305.107 323.797 305.809 325.663C306.765 328.207 308.052 330.81 307.614 333.486C307.451 334.115 307.367 334.761 307.366 335.409C307.488 336.126 307.754 336.812 308.15 337.431C308.471 338.04 308.756 338.665 309.008 339.304C309.287 339.988 309.536 340.688 309.754 341.396C310.012 342.257 310.183 343.278 309.591 343.97C309.407 344.139 309.245 344.328 309.107 344.534C308.995 344.849 308.995 345.19 309.107 345.506C309.447 346.878 309.81 348.251 310.196 349.623C310.496 350.694 310.813 351.756 311.139 352.818C313.549 360.588 316.285 368.28 317.898 376.24C318.129 377.384 319.66 378.204 320.844 378.455C321.44 378.577 322.058 378.562 322.646 378.411C323.235 378.26 323.778 377.977 324.232 377.586C324.313 377.516 324.39 377.438 324.463 377.364C325.707 376.079 325.891 374.107 325.797 372.328C325.368 364.138 321.08 356.64 319.038 348.68C318.3 345.802 317.855 342.862 317.709 339.901C317.233 330.019 317.04 319.568 319.952 310.069C320.557 308.093 321.273 305.861 320.183 304.09C319.497 302.97 318.224 302.307 316.963 301.83C314.392 300.867 311.646 300.408 308.888 300.479C306.129 300.55 303.413 301.149 300.899 302.241C300.895 302.439 300.903 302.637 300.925 302.834C301.034 303.755 300.922 304.687 300.599 305.56C300.432 305.928 300.333 306.321 300.307 306.721Z" fill="#303D5C"/>
<path opacity="0.05" d="M309.613 343.974C310.205 343.282 310.042 342.261 309.771 341.4C309.677 341.079 309.57 340.762 309.458 340.445L317.641 337.785C317.671 338.493 317.705 339.193 317.739 339.893C317.882 342.855 318.326 345.797 319.064 348.676C321.11 356.631 325.402 364.13 325.823 372.315C325.921 374.201 325.711 376.31 324.257 377.578C323.805 377.969 323.263 378.252 322.675 378.404C322.087 378.556 321.47 378.572 320.874 378.451C319.686 378.2 318.159 377.376 317.924 376.231C316.303 368.272 313.579 360.584 311.165 352.806C310.413 350.393 309.736 347.961 309.132 345.51C309.021 345.196 309.021 344.856 309.132 344.542C309.267 344.334 309.428 344.143 309.613 343.974Z" fill="black"/>
<path d="M332.221 375.198C332.868 376.269 333.855 377.216 334.005 378.443C334.095 379.18 333.859 379.921 333.863 380.666C333.895 381.283 334.009 381.893 334.202 382.482C335 385.246 335.917 387.972 336.955 390.66C337.126 391.006 337.201 391.389 337.174 391.771C337.071 392.401 336.432 392.817 335.823 393.069C333.872 393.867 331.676 393.814 329.558 393.731C328.942 393.756 328.331 393.613 327.795 393.32C327.036 392.821 326.847 391.837 326.8 390.956C326.655 388.403 327.105 385.838 326.8 383.301C326.693 382.375 326.492 381.465 326.341 380.547C326.131 379.27 326.024 377.928 326.462 376.705C326.824 375.827 327.33 375.011 327.962 374.288C328.52 373.505 329.225 372.829 330.042 372.295C330.291 372.155 330.999 371.719 331.252 371.99C331.38 372.13 331.324 372.505 331.342 372.678C331.375 372.944 331.424 373.208 331.487 373.469C331.644 374.076 331.891 374.658 332.221 375.198Z" fill="#EE8E9E"/>
<path opacity="0.05" d="M316.5 309.908C316.882 310.407 316.804 311.098 316.65 311.699C316.38 312.787 315.925 313.828 315.556 314.887C314.953 316.787 314.483 318.724 314.15 320.684C313.807 322.455 313.078 324.427 313.374 326.21C311.137 330.298 309.666 334.731 309.03 339.308C308.862 340.482 311.577 341.997 311.525 343.179C311.422 345.534 309.467 345.724 310.908 347.601C310.981 347.696 310.368 349.8 310.449 349.891C311.037 350.57 311.783 351.126 312.413 351.748C313.226 352.632 313.922 353.61 314.484 354.659C318.215 361.132 323.61 368.469 321.946 375.696C321.912 375.956 321.962 376.22 322.09 376.452C322.217 376.684 322.415 376.873 322.658 376.993C323.15 377.221 323.689 377.34 324.236 377.343H324.493C325.737 376.058 325.921 374.086 325.827 372.307C325.398 364.117 321.11 356.619 319.069 348.659C318.33 345.781 317.885 342.841 317.739 339.881C317.263 329.998 317.07 319.548 319.982 310.048C320.587 308.072 321.303 305.84 320.214 304.069C319.527 302.949 318.254 302.287 316.993 301.809C314.422 300.847 311.676 300.388 308.918 300.458C306.159 300.529 303.443 301.128 300.929 302.221C300.925 302.419 300.933 302.617 300.955 302.814C301.064 303.734 300.952 304.667 300.629 305.539C300.449 305.913 300.34 306.315 300.307 306.725C300.307 306.725 300.161 305.132 300.166 305.157C303.489 305.614 306.997 307.701 310.35 308.175C312.089 308.353 313.802 308.715 315.458 309.254C315.861 309.376 316.222 309.602 316.5 309.908Z" fill="black"/>
<path d="M339.652 292.376C340.101 293.748 340.497 295.134 340.84 296.534C340.993 297.018 341.034 297.528 340.96 298.029C340.853 298.499 340.532 298.919 340.497 299.396C340.42 300.137 340.956 300.792 341.252 301.48C342.007 303.23 341.201 305.206 340.394 306.94L338.027 312.087L336.08 316.311C335.501 317.567 334.927 318.823 334.365 320.087C331.835 325.855 329.769 331.8 328.185 337.871C328.132 338.147 328.024 338.409 327.868 338.646C327.538 339.057 326.942 339.189 326.462 339.444C325.004 340.21 324.836 342.508 326.17 343.463C325.896 346.556 328.314 349.541 329.553 352.407C332.418 358.995 331.899 366.407 332.881 373.489L331.771 372.863C330.703 373.333 330.741 374.786 330.167 375.77C329.309 377.249 327.199 377.454 325.45 377.343C324.904 377.341 324.367 377.221 323.876 376.993C323.633 376.873 323.434 376.685 323.306 376.453C323.179 376.221 323.129 375.956 323.164 375.696C324.823 368.47 319.433 361.132 315.698 354.659C315.137 353.61 314.443 352.633 313.631 351.748C312.996 351.106 312.254 350.566 311.663 349.891C310.016 347.993 309.806 345.316 309.917 342.846C310.179 337.036 311.775 331.354 314.591 326.206C314.291 324.427 315.02 322.455 315.363 320.684C315.698 318.724 316.172 316.789 316.783 314.891C317.152 313.824 317.602 312.787 317.876 311.7C318.026 311.099 318.108 310.407 317.726 309.909C317.444 309.601 317.079 309.374 316.671 309.254C315.015 308.715 313.303 308.353 311.564 308.175L300.058 306.59C299.69 304.321 299.312 301.793 299.569 299.511C299.846 297.398 300.763 295.408 302.206 293.79C303.649 292.171 305.555 290.995 307.687 290.407C308.189 290.28 308.776 290.197 309.188 290.502C319.341 288.588 329.837 289.234 339.652 292.376Z" fill="#303D5C"/>
<path d="M329.219 232.707C329.051 233.785 329.226 234.887 329.721 235.869C330.055 236.405 330.491 236.876 331.007 237.257C332.12 238.116 333.413 238.732 334.798 239.064C335.613 239.262 336.513 239.394 337.067 240.015C337.873 240.95 337.332 242.367 336.638 243.388C335.446 245.167 333.79 246.777 331.668 247.333C329.952 247.777 328.164 247.505 326.432 247.794C325.175 248.004 323.991 248.502 322.752 248.786C320.989 249.173 319.152 249.132 317.41 248.665C315.667 248.199 314.073 247.322 312.773 246.114C314.617 244.755 316.53 243.31 317.49 241.275C318.166 239.82 318.294 238.183 317.851 236.647C317.422 235.14 316.414 233.674 316.723 232.118C317.031 230.561 318.61 229.52 320.153 229.001C321.571 228.587 323.027 228.31 324.502 228.173C325.312 228.066 330.458 226.975 330.78 227.514C330.96 227.819 329.892 229.623 329.759 230.022C329.446 230.887 329.264 231.791 329.219 232.707Z" fill="#EE8E9E"/>
<path d="M322.731 236.314C316.966 236.314 312.293 231.827 312.293 226.291C312.293 220.756 316.966 216.269 322.731 216.269C328.495 216.269 333.169 220.756 333.169 226.291C333.169 231.827 328.495 236.314 322.731 236.314Z" fill="#EE8E9E"/>
<path d="M328.246 242.857L321.165 244.001C319.425 244.341 317.654 244.512 315.878 244.512C314.908 244.419 313.932 244.419 312.962 244.512C312.293 244.619 311.654 244.862 310.985 244.944C310.157 245.043 309.317 244.891 308.489 244.994C306.954 245.183 305.689 246.204 304.522 247.18C303.155 248.325 301.684 249.651 301.576 251.401C301.557 251.599 301.587 251.8 301.662 251.986C301.797 252.196 301.976 252.375 302.19 252.513C303.476 253.538 304.218 255.066 305.144 256.416C306.098 257.81 307.286 259.041 308.661 260.06C308.969 259.871 309.557 260.369 309.424 260.698C309.291 261.028 308.952 261.254 308.841 261.588C308.588 262.358 309.578 262.926 309.99 263.647C310.402 264.367 310.192 265.244 310.235 266.064C310.286 266.966 310.663 267.826 310.779 268.72C311.066 270.807 309.99 273.006 310.749 274.978C309.819 274.867 308.978 275.637 308.716 276.498C308.455 277.358 308.622 278.285 308.798 279.166C308.2 279.51 307.712 280.003 307.385 280.594C307.059 281.185 306.907 281.85 306.945 282.518C306.982 282.597 306.999 282.682 306.997 282.769C306.994 282.855 306.971 282.939 306.93 283.016C306.889 283.093 306.831 283.159 306.759 283.212C306.687 283.264 306.605 283.3 306.517 283.317C305.871 283.575 305.32 284.011 304.933 284.571C304.546 285.13 304.34 285.787 304.342 286.458C304.371 286.683 304.349 286.91 304.278 287.126C304.153 287.332 303.978 287.505 303.768 287.632C303.292 287.999 302.909 288.465 302.646 288.993C302.383 289.522 302.248 290.101 302.25 290.687C302.25 291.482 302.593 292.334 303.326 292.693C304.827 293.426 306.435 293.71 308.082 294.051C309.599 294.396 311.135 294.658 312.683 294.838C314.109 294.95 315.541 294.993 316.971 294.966L326.44 294.928C329.103 294.928 331.766 294.928 334.421 294.735C336.899 294.574 339.434 294.278 341.835 294.904C342.135 294.414 341.655 293.85 341.359 293.36C341.02 292.692 340.836 291.961 340.819 291.218L340.219 285.161C340.104 284.329 340.088 283.486 340.171 282.65C340.3 281.756 340.652 280.912 340.832 280.027C341.175 278.33 340.862 276.576 340.943 274.847C341.066 273.315 341.343 271.798 341.771 270.317L343.649 262.906C343.949 261.716 344.108 260.332 344.571 259.2C346.015 255.631 347.529 252.101 349.113 248.609C349.17 248.456 349.192 248.293 349.177 248.131C349.162 247.969 349.111 247.811 349.027 247.67L347.462 244.977C347.043 244.212 346.564 243.478 346.029 242.783C344.707 241.177 342.835 240.074 340.746 239.67C338.654 239.277 336.485 239.585 334.601 240.543C333.872 240.917 333.194 241.366 332.457 241.737C331.192 242.313 329.648 242.947 328.246 242.857Z" fill="#757AFF"/>
<path d="M303.124 249.457L300.659 252.616C300.432 252.884 300.239 253.177 300.084 253.488C299.715 254.312 299.917 255.284 299.72 256.169C299.566 256.736 299.321 257.276 298.995 257.771C298.068 259.336 297.02 260.832 295.86 262.247C295.324 262.965 294.664 263.591 293.909 264.096C293.53 264.347 293.1 264.517 292.647 264.594C292.195 264.672 291.73 264.655 291.284 264.544C291.657 264.684 291.962 264.951 292.142 265.294C293.081 267.081 293.15 269.197 292.751 271.157C292.639 271.83 292.407 272.479 292.065 273.076C291.722 273.678 291.165 274.142 290.495 274.381C290.537 274.68 290.643 274.967 290.804 275.225C290.966 275.484 291.181 275.707 291.436 275.883C291.691 276.059 291.98 276.183 292.287 276.248C292.593 276.312 292.91 276.316 293.218 276.259C293.704 276.119 294.161 275.901 294.569 275.613L298.532 273.142C299.193 272.762 299.811 272.316 300.376 271.812C301.118 271.104 301.632 270.206 302.353 269.477C303.579 268.242 305.38 267.484 306.246 265.986C306.791 265.047 306.885 263.927 307.22 262.914C307.439 262.243 307.76 261.608 307.97 260.933C308.622 258.85 308.15 256.564 307.16 254.608C306.169 252.653 304.591 251.121 303.124 249.457Z" fill="#757AFF"/>
<path d="M312.417 220.576C313.383 219.137 314.63 217.892 316.088 216.907C318.039 215.511 320.282 214.35 322.714 214.218C323.73 214.169 324.746 214.327 325.694 214.684C325.741 211.855 326.47 209.969 328.314 210.253C331.745 210.784 335.561 212.053 336.891 215.141C337.881 217.475 337.114 220.103 336.861 222.61C336.765 223.272 336.789 223.945 336.934 224.599C337.217 225.657 337.997 226.514 338.752 227.333C339.8 228.373 340.681 229.559 341.363 230.85C341.981 232.167 342.178 233.732 341.539 235.05C341.322 235.388 341.176 235.765 341.11 236.157C341.068 237.014 342.002 237.557 342.689 238.105C345.262 240.164 345.154 243.87 345.176 247.094C345.215 253.668 346.735 260.156 349.631 266.113C348.546 266.641 347.32 266.842 346.114 266.691C344.907 266.54 343.776 266.043 342.869 265.265C343.225 266.729 343.74 268.153 344.404 269.514C342.225 270.527 339.597 268.864 338.503 266.788C337.41 264.713 337.281 262.3 336.505 260.097C335.729 257.894 334.361 255.98 333.756 253.76C333.563 253.027 333.443 252.245 332.975 251.635C332.582 251.195 332.119 250.815 331.603 250.511C329.356 248.963 332.667 237.232 331.788 234.712C330.501 234.988 328.078 228.947 326.71 222.771C325.756 223.087 324.739 223.184 323.738 223.055C323.391 222.982 323.034 222.959 322.679 222.985C322.35 223.05 322.036 223.173 321.753 223.347C320.741 223.944 319.683 224.465 318.588 224.908C316.324 225.731 313.837 225.612 311.422 225.497C311.095 223.795 311.451 222.037 312.417 220.576Z" fill="#303D5C"/>
<path opacity="0.1" d="M253.928 525C383.123 525 487.857 433.376 487.857 320.353C487.857 207.33 383.123 115.706 253.928 115.706C124.733 115.706 20 207.33 20 320.353C20 433.376 124.733 525 253.928 525Z" fill="#4D53EF"/>
<defs>
<clipPath id="clip0">
<rect width="317.697" height="250.545" fill="white" transform="translate(95.4746 213.706)"/>
</clipPath>
</defs>
</svg>
