<svg width="759" height="87" viewBox="0 0 759 87" fill="none" xmlns="http://www.w3.org/2000/svg">
<g filter="url(#filter0_d)">
<rect x="4" y="4" width="751" height="79" rx="5" fill="white"/>
</g>
<path d="M40.36 51.144C39.896 51.144 39.52 51 39.232 50.712C38.96 50.424 38.824 50.048 38.824 49.584V35.544C38.824 35.08 38.952 34.72 39.208 34.464C39.48 34.208 39.848 34.08 40.312 34.08H48.736C49.712 34.08 50.2 34.496 50.2 35.328C50.2 36.144 49.712 36.552 48.736 36.552H41.872V41.16H48.256C49.232 41.16 49.72 41.576 49.72 42.408C49.72 43.224 49.232 43.632 48.256 43.632H41.872V49.584C41.872 50.048 41.736 50.424 41.464 50.712C41.192 51 40.824 51.144 40.36 51.144ZM61.2074 47.784C61.4794 47.784 61.6954 47.888 61.8554 48.096C62.0314 48.304 62.1194 48.584 62.1194 48.936C62.1194 49.432 61.8234 49.848 61.2314 50.184C60.6874 50.488 60.0714 50.736 59.3834 50.928C58.6954 51.104 58.0394 51.192 57.4154 51.192C55.5274 51.192 54.0314 50.648 52.9274 49.56C51.8234 48.472 51.2714 46.984 51.2714 45.096C51.2714 43.896 51.5114 42.832 51.9914 41.904C52.4714 40.976 53.1434 40.256 54.0074 39.744C54.8874 39.232 55.8794 38.976 56.9834 38.976C58.0394 38.976 58.9594 39.208 59.7434 39.672C60.5274 40.136 61.1354 40.792 61.5674 41.64C61.9994 42.488 62.2154 43.488 62.2154 44.64C62.2154 45.328 61.9114 45.672 61.3034 45.672H54.2234C54.3194 46.776 54.6314 47.592 55.1594 48.12C55.6874 48.632 56.4554 48.888 57.4634 48.888C57.9754 48.888 58.4234 48.824 58.8074 48.696C59.2074 48.568 59.6554 48.392 60.1514 48.168C60.6314 47.912 60.9834 47.784 61.2074 47.784ZM57.0554 41.088C56.2394 41.088 55.5834 41.344 55.0874 41.856C54.6074 42.368 54.3194 43.104 54.2234 44.064H59.6474C59.6154 43.088 59.3754 42.352 58.9274 41.856C58.4794 41.344 57.8554 41.088 57.0554 41.088ZM69.7574 38.976C71.3894 38.976 72.5974 39.384 73.3814 40.2C74.1814 41 74.5814 42.224 74.5814 43.872V49.728C74.5814 50.16 74.4534 50.504 74.1974 50.76C73.9414 51 73.5894 51.12 73.1414 51.12C72.7254 51.12 72.3814 50.992 72.1094 50.736C71.8534 50.48 71.7254 50.144 71.7254 49.728V49.2C71.4534 49.824 71.0214 50.312 70.4294 50.664C69.8534 51.016 69.1814 51.192 68.4134 51.192C67.6294 51.192 66.9174 51.032 66.2774 50.712C65.6374 50.392 65.1334 49.952 64.7654 49.392C64.3974 48.832 64.2134 48.208 64.2134 47.52C64.2134 46.656 64.4294 45.976 64.8614 45.48C65.3094 44.984 66.0294 44.624 67.0214 44.4C68.0134 44.176 69.3814 44.064 71.1254 44.064H71.7254V43.512C71.7254 42.728 71.5574 42.16 71.2214 41.808C70.8854 41.44 70.3414 41.256 69.5894 41.256C69.1254 41.256 68.6534 41.328 68.1734 41.472C67.6934 41.6 67.1254 41.792 66.4694 42.048C66.0534 42.256 65.7494 42.36 65.5574 42.36C65.2694 42.36 65.0294 42.256 64.8374 42.048C64.6614 41.84 64.5734 41.568 64.5734 41.232C64.5734 40.96 64.6374 40.728 64.7654 40.536C64.9094 40.328 65.1414 40.136 65.4614 39.96C66.0214 39.656 66.6854 39.416 67.4534 39.24C68.2374 39.064 69.0054 38.976 69.7574 38.976ZM69.0134 49.032C69.8134 49.032 70.4614 48.768 70.9574 48.24C71.4694 47.696 71.7254 47 71.7254 46.152V45.648H71.2934C70.2214 45.648 69.3894 45.696 68.7974 45.792C68.2054 45.888 67.7814 46.056 67.5254 46.296C67.2694 46.536 67.1414 46.864 67.1414 47.28C67.1414 47.792 67.3174 48.216 67.6694 48.552C68.0374 48.872 68.4854 49.032 69.0134 49.032ZM83.7263 48.912C84.5263 48.96 84.9263 49.32 84.9263 49.992C84.9263 50.376 84.7663 50.672 84.4463 50.88C84.1423 51.072 83.7023 51.152 83.1263 51.12L82.4783 51.072C79.7903 50.88 78.4463 49.44 78.4463 46.752V41.52H77.2463C76.8143 41.52 76.4783 41.424 76.2383 41.232C76.0143 41.04 75.9023 40.76 75.9023 40.392C75.9023 40.024 76.0143 39.744 76.2383 39.552C76.4783 39.36 76.8143 39.264 77.2463 39.264H78.4463V37.056C78.4463 36.624 78.5823 36.28 78.8543 36.024C79.1263 35.768 79.4943 35.64 79.9583 35.64C80.4063 35.64 80.7663 35.768 81.0383 36.024C81.3103 36.28 81.4463 36.624 81.4463 37.056V39.264H83.4863C83.9183 39.264 84.2463 39.36 84.4703 39.552C84.7103 39.744 84.8303 40.024 84.8303 40.392C84.8303 40.76 84.7103 41.04 84.4703 41.232C84.2463 41.424 83.9183 41.52 83.4863 41.52H81.4463V46.968C81.4463 48.152 81.9903 48.784 83.0783 48.864L83.7263 48.912ZM95.7537 39.024C96.2177 39.024 96.5857 39.152 96.8577 39.408C97.1297 39.664 97.2657 40.008 97.2657 40.44V49.752C97.2657 50.168 97.1217 50.504 96.8337 50.76C96.5617 51.016 96.2017 51.144 95.7537 51.144C95.3217 51.144 94.9777 51.024 94.7217 50.784C94.4657 50.544 94.3377 50.216 94.3377 49.8V49.2C93.9697 49.84 93.4737 50.336 92.8497 50.688C92.2257 51.024 91.5217 51.192 90.7377 51.192C87.8577 51.192 86.4177 49.576 86.4177 46.344V40.44C86.4177 40.008 86.5537 39.664 86.8257 39.408C87.0977 39.152 87.4577 39.024 87.9057 39.024C88.3697 39.024 88.7377 39.152 89.0097 39.408C89.2817 39.664 89.4177 40.008 89.4177 40.44V46.368C89.4177 47.2 89.5857 47.816 89.9217 48.216C90.2577 48.616 90.7857 48.816 91.5057 48.816C92.3377 48.816 93.0017 48.544 93.4977 48C94.0097 47.44 94.2657 46.704 94.2657 45.792V40.44C94.2657 40.008 94.4017 39.664 94.6737 39.408C94.9457 39.152 95.3057 39.024 95.7537 39.024ZM106.94 39.024C107.356 38.992 107.684 39.08 107.924 39.288C108.164 39.496 108.284 39.808 108.284 40.224C108.284 40.656 108.18 40.976 107.972 41.184C107.764 41.392 107.388 41.528 106.844 41.592L106.124 41.664C105.18 41.76 104.484 42.08 104.036 42.624C103.604 43.168 103.388 43.848 103.388 44.664V49.704C103.388 50.168 103.244 50.528 102.956 50.784C102.668 51.024 102.308 51.144 101.876 51.144C101.444 51.144 101.084 51.024 100.796 50.784C100.524 50.528 100.388 50.168 100.388 49.704V40.416C100.388 39.968 100.524 39.624 100.796 39.384C101.084 39.144 101.436 39.024 101.852 39.024C102.268 39.024 102.604 39.144 102.86 39.384C103.116 39.608 103.244 39.936 103.244 40.368V41.328C103.548 40.624 103.996 40.08 104.588 39.696C105.196 39.312 105.868 39.096 106.604 39.048L106.94 39.024ZM118.629 47.784C118.901 47.784 119.117 47.888 119.277 48.096C119.453 48.304 119.541 48.584 119.541 48.936C119.541 49.432 119.245 49.848 118.653 50.184C118.109 50.488 117.493 50.736 116.805 50.928C116.117 51.104 115.461 51.192 114.837 51.192C112.949 51.192 111.453 50.648 110.349 49.56C109.245 48.472 108.693 46.984 108.693 45.096C108.693 43.896 108.933 42.832 109.413 41.904C109.893 40.976 110.565 40.256 111.429 39.744C112.309 39.232 113.301 38.976 114.405 38.976C115.461 38.976 116.381 39.208 117.165 39.672C117.949 40.136 118.557 40.792 118.989 41.64C119.421 42.488 119.637 43.488 119.637 44.64C119.637 45.328 119.333 45.672 118.725 45.672H111.645C111.741 46.776 112.053 47.592 112.581 48.12C113.109 48.632 113.877 48.888 114.885 48.888C115.397 48.888 115.845 48.824 116.229 48.696C116.629 48.568 117.077 48.392 117.573 48.168C118.053 47.912 118.405 47.784 118.629 47.784ZM114.477 41.088C113.661 41.088 113.005 41.344 112.509 41.856C112.029 42.368 111.741 43.104 111.645 44.064H117.069C117.037 43.088 116.797 42.352 116.349 41.856C115.901 41.344 115.277 41.088 114.477 41.088Z" fill="black"/>
<path d="M173.061 47.0607C173.646 46.4749 173.646 45.5251 173.061 44.9393L163.515 35.3934C162.929 34.8076 161.979 34.8076 161.393 35.3934C160.808 35.9792 160.808 36.9289 161.393 37.5147L169.879 46L161.393 54.4853C160.808 55.0711 160.808 56.0208 161.393 56.6066C161.979 57.1924 162.929 57.1924 163.515 56.6066L173.061 47.0607ZM133 47.5H172V44.5H133V47.5Z" fill="black"/>
<path d="M198.312 53C197.848 53 197.48 52.872 197.208 52.616C196.952 52.36 196.824 52 196.824 51.536V37.544C196.824 37.08 196.952 36.72 197.208 36.464C197.48 36.208 197.848 36.08 198.312 36.08H203.064C205.832 36.08 207.976 36.824 209.496 38.312C211.032 39.784 211.8 41.856 211.8 44.528C211.8 47.216 211.032 49.304 209.496 50.792C207.976 52.264 205.832 53 203.064 53H198.312ZM202.872 50.48C206.76 50.48 208.704 48.496 208.704 44.528C208.704 40.576 206.76 38.6 202.872 38.6H199.92V50.48H202.872ZM223.942 49.784C224.214 49.784 224.43 49.888 224.59 50.096C224.766 50.304 224.854 50.584 224.854 50.936C224.854 51.432 224.558 51.848 223.966 52.184C223.422 52.488 222.806 52.736 222.118 52.928C221.43 53.104 220.774 53.192 220.15 53.192C218.262 53.192 216.766 52.648 215.662 51.56C214.558 50.472 214.006 48.984 214.006 47.096C214.006 45.896 214.246 44.832 214.726 43.904C215.206 42.976 215.878 42.256 216.742 41.744C217.622 41.232 218.614 40.976 219.718 40.976C220.774 40.976 221.694 41.208 222.478 41.672C223.262 42.136 223.87 42.792 224.302 43.64C224.734 44.488 224.95 45.488 224.95 46.64C224.95 47.328 224.646 47.672 224.038 47.672H216.958C217.054 48.776 217.366 49.592 217.894 50.12C218.422 50.632 219.19 50.888 220.198 50.888C220.71 50.888 221.158 50.824 221.542 50.696C221.942 50.568 222.39 50.392 222.886 50.168C223.366 49.912 223.718 49.784 223.942 49.784ZM219.79 43.088C218.974 43.088 218.318 43.344 217.822 43.856C217.342 44.368 217.054 45.104 216.958 46.064H222.382C222.35 45.088 222.11 44.352 221.662 43.856C221.214 43.344 220.59 43.088 219.79 43.088ZM235.4 41.888C235.528 41.6 235.696 41.384 235.904 41.24C236.128 41.096 236.368 41.024 236.624 41.024C236.992 41.024 237.32 41.152 237.608 41.408C237.912 41.648 238.064 41.952 238.064 42.32C238.064 42.512 238.016 42.704 237.92 42.896L233.48 52.184C233.336 52.488 233.128 52.72 232.856 52.88C232.6 53.04 232.312 53.12 231.992 53.12C231.688 53.12 231.392 53.04 231.104 52.88C230.832 52.72 230.624 52.488 230.48 52.184L226.016 42.896C225.936 42.736 225.896 42.552 225.896 42.344C225.896 41.976 226.048 41.664 226.352 41.408C226.672 41.152 227.032 41.024 227.432 41.024C228.008 41.024 228.432 41.304 228.704 41.864L232.064 49.28L235.4 41.888Z" fill="black"/>
<path d="M291.061 49.0607C291.646 48.4749 291.646 47.5251 291.061 46.9393L281.515 37.3934C280.929 36.8076 279.979 36.8076 279.393 37.3934C278.808 37.9792 278.808 38.9289 279.393 39.5147L287.879 48L279.393 56.4853C278.808 57.0711 278.808 58.0208 279.393 58.6066C279.979 59.1924 280.929 59.1924 281.515 58.6066L291.061 49.0607ZM251 49.5H290V46.5H251V49.5Z" fill="black"/>
<path d="M328.36 51.056C328.552 51.344 328.648 51.624 328.648 51.896C328.648 52.264 328.496 52.568 328.192 52.808C327.904 53.048 327.56 53.168 327.16 53.168C326.904 53.168 326.656 53.112 326.416 53C326.192 52.872 326 52.688 325.84 52.448L322.648 47.6C322.328 47.088 321.984 46.728 321.616 46.52C321.264 46.312 320.8 46.208 320.224 46.208H317.872V51.584C317.872 52.064 317.736 52.448 317.464 52.736C317.192 53.008 316.824 53.144 316.36 53.144C315.896 53.144 315.52 53.008 315.232 52.736C314.96 52.448 314.824 52.064 314.824 51.584V37.544C314.824 37.08 314.952 36.72 315.208 36.464C315.48 36.208 315.848 36.08 316.312 36.08H322.312C324.232 36.08 325.688 36.512 326.68 37.376C327.688 38.224 328.192 39.456 328.192 41.072C328.192 42.384 327.816 43.464 327.064 44.312C326.328 45.144 325.28 45.68 323.92 45.92C324.384 46.032 324.792 46.232 325.144 46.52C325.496 46.808 325.84 47.208 326.176 47.72L328.36 51.056ZM321.88 43.832C323.048 43.832 323.904 43.616 324.448 43.184C324.992 42.736 325.264 42.056 325.264 41.144C325.264 40.216 324.992 39.544 324.448 39.128C323.904 38.696 323.048 38.48 321.88 38.48H317.848V43.832H321.88ZM340.536 49.784C340.808 49.784 341.024 49.888 341.184 50.096C341.36 50.304 341.448 50.584 341.448 50.936C341.448 51.432 341.152 51.848 340.56 52.184C340.016 52.488 339.4 52.736 338.712 52.928C338.024 53.104 337.368 53.192 336.743 53.192C334.856 53.192 333.36 52.648 332.256 51.56C331.152 50.472 330.6 48.984 330.6 47.096C330.6 45.896 330.84 44.832 331.32 43.904C331.8 42.976 332.472 42.256 333.336 41.744C334.216 41.232 335.208 40.976 336.312 40.976C337.368 40.976 338.288 41.208 339.072 41.672C339.856 42.136 340.464 42.792 340.896 43.64C341.328 44.488 341.544 45.488 341.544 46.64C341.544 47.328 341.24 47.672 340.632 47.672H333.552C333.648 48.776 333.96 49.592 334.488 50.12C335.016 50.632 335.784 50.888 336.792 50.888C337.304 50.888 337.752 50.824 338.136 50.696C338.536 50.568 338.984 50.392 339.48 50.168C339.96 49.912 340.312 49.784 340.536 49.784ZM336.384 43.088C335.568 43.088 334.912 43.344 334.416 43.856C333.936 44.368 333.648 45.104 333.552 46.064H338.976C338.944 45.088 338.704 44.352 338.256 43.856C337.808 43.344 337.184 43.088 336.384 43.088ZM351.994 41.888C352.122 41.6 352.29 41.384 352.498 41.24C352.722 41.096 352.962 41.024 353.218 41.024C353.586 41.024 353.914 41.152 354.202 41.408C354.506 41.648 354.658 41.952 354.658 42.32C354.658 42.512 354.61 42.704 354.514 42.896L350.074 52.184C349.93 52.488 349.722 52.72 349.45 52.88C349.194 53.04 348.906 53.12 348.586 53.12C348.282 53.12 347.986 53.04 347.698 52.88C347.426 52.72 347.218 52.488 347.074 52.184L342.61 42.896C342.53 42.736 342.49 42.552 342.49 42.344C342.49 41.976 342.642 41.664 342.946 41.408C343.266 41.152 343.626 41.024 344.026 41.024C344.602 41.024 345.026 41.304 345.298 41.864L348.658 49.28L351.994 41.888ZM358.329 53.144C357.897 53.144 357.537 53.024 357.249 52.784C356.977 52.528 356.841 52.168 356.841 51.704V42.44C356.841 41.976 356.977 41.624 357.249 41.384C357.537 41.144 357.897 41.024 358.329 41.024C358.761 41.024 359.121 41.144 359.409 41.384C359.697 41.624 359.841 41.976 359.841 42.44V51.704C359.841 52.168 359.697 52.528 359.409 52.784C359.121 53.024 358.761 53.144 358.329 53.144ZM358.329 38.888C357.785 38.888 357.353 38.744 357.033 38.456C356.713 38.152 356.553 37.76 356.553 37.28C356.553 36.8 356.713 36.416 357.033 36.128C357.353 35.84 357.785 35.696 358.329 35.696C358.857 35.696 359.281 35.84 359.601 36.128C359.937 36.416 360.105 36.8 360.105 37.28C360.105 37.76 359.945 38.152 359.625 38.456C359.305 38.744 358.873 38.888 358.329 38.888ZM372.223 49.784C372.495 49.784 372.711 49.888 372.871 50.096C373.047 50.304 373.135 50.584 373.135 50.936C373.135 51.432 372.839 51.848 372.247 52.184C371.703 52.488 371.087 52.736 370.399 52.928C369.711 53.104 369.055 53.192 368.431 53.192C366.543 53.192 365.047 52.648 363.943 51.56C362.839 50.472 362.287 48.984 362.287 47.096C362.287 45.896 362.527 44.832 363.007 43.904C363.487 42.976 364.159 42.256 365.023 41.744C365.903 41.232 366.895 40.976 367.999 40.976C369.055 40.976 369.975 41.208 370.759 41.672C371.543 42.136 372.151 42.792 372.583 43.64C373.015 44.488 373.231 45.488 373.231 46.64C373.231 47.328 372.927 47.672 372.319 47.672H365.239C365.335 48.776 365.647 49.592 366.175 50.12C366.703 50.632 367.471 50.888 368.479 50.888C368.991 50.888 369.439 50.824 369.823 50.696C370.223 50.568 370.671 50.392 371.167 50.168C371.647 49.912 371.999 49.784 372.223 49.784ZM368.071 43.088C367.255 43.088 366.599 43.344 366.103 43.856C365.623 44.368 365.335 45.104 365.239 46.064H370.663C370.631 45.088 370.391 44.352 369.943 43.856C369.495 43.344 368.871 43.088 368.071 43.088ZM391.362 41.912C391.474 41.624 391.634 41.408 391.842 41.264C392.066 41.12 392.306 41.048 392.562 41.048C392.93 41.048 393.258 41.176 393.546 41.432C393.85 41.672 394.002 41.976 394.002 42.344C394.002 42.552 393.962 42.736 393.882 42.896L389.922 52.184C389.794 52.488 389.594 52.72 389.322 52.88C389.066 53.04 388.778 53.12 388.458 53.12C388.154 53.12 387.866 53.04 387.594 52.88C387.338 52.72 387.146 52.488 387.018 52.184L384.162 45.32L381.402 52.184C381.274 52.488 381.074 52.72 380.802 52.88C380.546 53.04 380.258 53.12 379.938 53.12C379.634 53.12 379.346 53.04 379.074 52.88C378.802 52.72 378.602 52.488 378.474 52.184L374.538 42.896C374.458 42.688 374.418 42.512 374.418 42.368C374.418 42 374.578 41.688 374.898 41.432C375.218 41.16 375.57 41.024 375.954 41.024C376.226 41.024 376.474 41.096 376.698 41.24C376.922 41.384 377.09 41.6 377.202 41.888L380.034 49.208L382.938 41.96C383.066 41.656 383.25 41.432 383.49 41.288C383.73 41.128 383.994 41.048 384.282 41.048C384.57 41.048 384.834 41.128 385.074 41.288C385.314 41.432 385.498 41.656 385.626 41.96L388.554 49.232L391.362 41.912Z" fill="black"/>
<path d="M454.061 49.0607C454.646 48.4749 454.646 47.5251 454.061 46.9393L444.515 37.3934C443.929 36.8076 442.979 36.8076 442.393 37.3934C441.808 37.9792 441.808 38.9289 442.393 39.5147L450.879 48L442.393 56.4853C441.808 57.0711 441.808 58.0208 442.393 58.6066C442.979 59.1924 443.929 59.1924 444.515 58.6066L454.061 49.0607ZM414 49.5H453V46.5H414V49.5Z" fill="black"/>
<path d="M483.68 53.216C482.448 53.216 481.28 53.056 480.176 52.736C479.088 52.4 478.2 51.952 477.512 51.392C477.144 51.12 476.96 50.736 476.96 50.24C476.96 49.904 477.056 49.616 477.248 49.376C477.456 49.12 477.696 48.992 477.968 48.992C478.256 48.992 478.584 49.104 478.952 49.328C479.64 49.824 480.36 50.184 481.112 50.408C481.864 50.632 482.696 50.744 483.608 50.744C484.776 50.744 485.672 50.544 486.296 50.144C486.92 49.728 487.232 49.128 487.232 48.344C487.232 47.736 486.936 47.272 486.344 46.952C485.768 46.616 484.8 46.296 483.44 45.992C482.032 45.688 480.888 45.336 480.008 44.936C479.128 44.536 478.464 44.024 478.016 43.4C477.568 42.776 477.344 41.984 477.344 41.024C477.344 40.032 477.624 39.144 478.184 38.36C478.744 37.576 479.52 36.968 480.512 36.536C481.52 36.088 482.648 35.864 483.896 35.864C486.184 35.864 488.048 36.472 489.488 37.688C489.696 37.864 489.84 38.04 489.92 38.216C490.016 38.376 490.064 38.584 490.064 38.84C490.064 39.176 489.96 39.472 489.752 39.728C489.56 39.968 489.328 40.088 489.056 40.088C488.896 40.088 488.744 40.064 488.6 40.016C488.472 39.968 488.296 39.88 488.072 39.752C487.416 39.272 486.776 38.92 486.152 38.696C485.544 38.456 484.792 38.336 483.896 38.336C482.808 38.336 481.944 38.56 481.304 39.008C480.68 39.44 480.368 40.048 480.368 40.832C480.368 41.488 480.648 41.992 481.208 42.344C481.768 42.696 482.72 43.024 484.064 43.328C485.488 43.648 486.64 44.008 487.52 44.408C488.416 44.792 489.096 45.288 489.56 45.896C490.04 46.504 490.28 47.264 490.28 48.176C490.28 49.168 490 50.048 489.44 50.816C488.896 51.568 488.12 52.16 487.112 52.592C486.12 53.008 484.976 53.216 483.68 53.216ZM498.797 50.912C499.597 50.96 499.997 51.32 499.997 51.992C499.997 52.376 499.837 52.672 499.517 52.88C499.213 53.072 498.773 53.152 498.197 53.12L497.549 53.072C494.861 52.88 493.517 51.44 493.517 48.752V43.52H492.317C491.885 43.52 491.549 43.424 491.309 43.232C491.085 43.04 490.973 42.76 490.973 42.392C490.973 42.024 491.085 41.744 491.309 41.552C491.549 41.36 491.885 41.264 492.317 41.264H493.517V39.056C493.517 38.624 493.653 38.28 493.925 38.024C494.197 37.768 494.565 37.64 495.029 37.64C495.477 37.64 495.837 37.768 496.109 38.024C496.381 38.28 496.517 38.624 496.517 39.056V41.264H498.557C498.989 41.264 499.317 41.36 499.541 41.552C499.781 41.744 499.901 42.024 499.901 42.392C499.901 42.76 499.781 43.04 499.541 43.232C499.317 43.424 498.989 43.52 498.557 43.52H496.517V48.968C496.517 50.152 497.061 50.784 498.149 50.864L498.797 50.912ZM506.648 40.976C508.28 40.976 509.488 41.384 510.272 42.2C511.072 43 511.472 44.224 511.472 45.872V51.728C511.472 52.16 511.344 52.504 511.088 52.76C510.832 53 510.48 53.12 510.032 53.12C509.616 53.12 509.272 52.992 509 52.736C508.744 52.48 508.616 52.144 508.616 51.728V51.2C508.344 51.824 507.912 52.312 507.32 52.664C506.744 53.016 506.072 53.192 505.304 53.192C504.52 53.192 503.808 53.032 503.168 52.712C502.528 52.392 502.024 51.952 501.656 51.392C501.288 50.832 501.104 50.208 501.104 49.52C501.104 48.656 501.32 47.976 501.752 47.48C502.2 46.984 502.92 46.624 503.912 46.4C504.904 46.176 506.272 46.064 508.016 46.064H508.616V45.512C508.616 44.728 508.448 44.16 508.112 43.808C507.776 43.44 507.232 43.256 506.48 43.256C506.016 43.256 505.544 43.328 505.064 43.472C504.584 43.6 504.016 43.792 503.36 44.048C502.944 44.256 502.64 44.36 502.448 44.36C502.16 44.36 501.92 44.256 501.728 44.048C501.552 43.84 501.464 43.568 501.464 43.232C501.464 42.96 501.528 42.728 501.656 42.536C501.8 42.328 502.032 42.136 502.352 41.96C502.912 41.656 503.576 41.416 504.344 41.24C505.128 41.064 505.896 40.976 506.648 40.976ZM505.904 51.032C506.704 51.032 507.352 50.768 507.848 50.24C508.36 49.696 508.616 49 508.616 48.152V47.648H508.184C507.112 47.648 506.28 47.696 505.688 47.792C505.096 47.888 504.672 48.056 504.416 48.296C504.16 48.536 504.032 48.864 504.032 49.28C504.032 49.792 504.208 50.216 504.56 50.552C504.928 50.872 505.376 51.032 505.904 51.032ZM524.457 41.024C524.905 41.024 525.265 41.152 525.537 41.408C525.809 41.664 525.945 42.008 525.945 42.44V51.92C525.945 53.76 525.433 55.152 524.409 56.096C523.385 57.04 521.873 57.512 519.873 57.512C518.129 57.512 516.673 57.184 515.505 56.528C514.913 56.176 514.617 55.752 514.617 55.256C514.617 54.904 514.697 54.624 514.857 54.416C515.033 54.208 515.257 54.104 515.529 54.104C515.673 54.104 515.849 54.136 516.057 54.2C516.265 54.28 516.481 54.368 516.705 54.464C517.281 54.704 517.793 54.888 518.241 55.016C518.705 55.144 519.233 55.208 519.825 55.208C521.921 55.208 522.969 54.184 522.969 52.136V50.6C522.617 51.256 522.105 51.768 521.433 52.136C520.761 52.488 519.993 52.664 519.129 52.664C518.105 52.664 517.193 52.424 516.393 51.944C515.609 51.448 514.993 50.76 514.545 49.88C514.097 49 513.873 47.984 513.873 46.832C513.873 45.68 514.089 44.664 514.521 43.784C514.969 42.888 515.593 42.2 516.393 41.72C517.193 41.224 518.105 40.976 519.129 40.976C519.993 40.976 520.761 41.16 521.433 41.528C522.105 41.88 522.617 42.384 522.969 43.04V42.416C522.969 42 523.105 41.664 523.377 41.408C523.649 41.152 524.009 41.024 524.457 41.024ZM519.921 50.336C520.881 50.336 521.625 50.024 522.153 49.4C522.697 48.776 522.969 47.92 522.969 46.832C522.969 45.728 522.697 44.864 522.153 44.24C521.625 43.616 520.881 43.304 519.921 43.304C518.977 43.304 518.233 43.616 517.689 44.24C517.145 44.864 516.873 45.728 516.873 46.832C516.873 47.92 517.145 48.776 517.689 49.4C518.233 50.024 518.977 50.336 519.921 50.336ZM530.54 53.144C530.108 53.144 529.748 53.024 529.46 52.784C529.188 52.528 529.052 52.168 529.052 51.704V42.44C529.052 41.976 529.188 41.624 529.46 41.384C529.748 41.144 530.108 41.024 530.54 41.024C530.972 41.024 531.332 41.144 531.62 41.384C531.908 41.624 532.052 41.976 532.052 42.44V51.704C532.052 52.168 531.908 52.528 531.62 52.784C531.332 53.024 530.972 53.144 530.54 53.144ZM530.54 38.888C529.996 38.888 529.564 38.744 529.244 38.456C528.924 38.152 528.764 37.76 528.764 37.28C528.764 36.8 528.924 36.416 529.244 36.128C529.564 35.84 529.996 35.696 530.54 35.696C531.068 35.696 531.492 35.84 531.812 36.128C532.148 36.416 532.316 36.8 532.316 37.28C532.316 37.76 532.156 38.152 531.836 38.456C531.516 38.744 531.084 38.888 530.54 38.888ZM541.962 40.976C543.37 40.976 544.418 41.376 545.106 42.176C545.794 42.976 546.138 44.184 546.138 45.8V51.704C546.138 52.152 546.002 52.504 545.73 52.76C545.474 53.016 545.114 53.144 544.65 53.144C544.186 53.144 543.818 53.016 543.546 52.76C543.274 52.504 543.138 52.152 543.138 51.704V45.968C543.138 45.056 542.962 44.392 542.61 43.976C542.274 43.56 541.738 43.352 541.002 43.352C540.138 43.352 539.442 43.624 538.914 44.168C538.402 44.712 538.146 45.44 538.146 46.352V51.704C538.146 52.152 538.01 52.504 537.738 52.76C537.466 53.016 537.098 53.144 536.634 53.144C536.17 53.144 535.802 53.016 535.53 52.76C535.274 52.504 535.146 52.152 535.146 51.704V42.416C535.146 42 535.282 41.664 535.554 41.408C535.826 41.152 536.194 41.024 536.658 41.024C537.074 41.024 537.41 41.152 537.666 41.408C537.938 41.648 538.074 41.968 538.074 42.368V43.016C538.474 42.36 539.01 41.856 539.682 41.504C540.354 41.152 541.114 40.976 541.962 40.976ZM559.121 41.024C559.569 41.024 559.929 41.152 560.201 41.408C560.473 41.664 560.609 42.008 560.609 42.44V51.92C560.609 53.76 560.097 55.152 559.073 56.096C558.049 57.04 556.537 57.512 554.537 57.512C552.793 57.512 551.337 57.184 550.169 56.528C549.577 56.176 549.281 55.752 549.281 55.256C549.281 54.904 549.361 54.624 549.521 54.416C549.697 54.208 549.921 54.104 550.193 54.104C550.337 54.104 550.513 54.136 550.721 54.2C550.929 54.28 551.145 54.368 551.369 54.464C551.945 54.704 552.457 54.888 552.905 55.016C553.369 55.144 553.897 55.208 554.489 55.208C556.585 55.208 557.633 54.184 557.633 52.136V50.6C557.281 51.256 556.769 51.768 556.097 52.136C555.425 52.488 554.657 52.664 553.793 52.664C552.769 52.664 551.857 52.424 551.057 51.944C550.273 51.448 549.657 50.76 549.209 49.88C548.761 49 548.537 47.984 548.537 46.832C548.537 45.68 548.753 44.664 549.185 43.784C549.633 42.888 550.257 42.2 551.057 41.72C551.857 41.224 552.769 40.976 553.793 40.976C554.657 40.976 555.425 41.16 556.097 41.528C556.769 41.88 557.281 42.384 557.633 43.04V42.416C557.633 42 557.769 41.664 558.041 41.408C558.313 41.152 558.673 41.024 559.121 41.024ZM554.585 50.336C555.545 50.336 556.289 50.024 556.817 49.4C557.361 48.776 557.633 47.92 557.633 46.832C557.633 45.728 557.361 44.864 556.817 44.24C556.289 43.616 555.545 43.304 554.585 43.304C553.641 43.304 552.897 43.616 552.353 44.24C551.809 44.864 551.537 45.728 551.537 46.832C551.537 47.92 551.809 48.776 552.353 49.4C552.897 50.024 553.641 50.336 554.585 50.336Z" fill="black"/>
<path d="M617.061 49.0607C617.646 48.4749 617.646 47.5251 617.061 46.9393L607.515 37.3934C606.929 36.8076 605.979 36.8076 605.393 37.3934C604.808 37.9792 604.808 38.9289 605.393 39.5147L613.879 48L605.393 56.4853C604.808 57.0711 604.808 58.0208 605.393 58.6066C605.979 59.1924 606.929 59.1924 607.515 58.6066L617.061 49.0607ZM577 49.5H616V46.5H577V49.5Z" fill="black"/>
<path d="M652.36 51.056C652.552 51.344 652.648 51.624 652.648 51.896C652.648 52.264 652.496 52.568 652.192 52.808C651.904 53.048 651.56 53.168 651.16 53.168C650.904 53.168 650.656 53.112 650.416 53C650.192 52.872 650 52.688 649.84 52.448L646.648 47.6C646.328 47.088 645.984 46.728 645.616 46.52C645.264 46.312 644.8 46.208 644.224 46.208H641.872V51.584C641.872 52.064 641.736 52.448 641.464 52.736C641.192 53.008 640.824 53.144 640.36 53.144C639.896 53.144 639.52 53.008 639.232 52.736C638.96 52.448 638.824 52.064 638.824 51.584V37.544C638.824 37.08 638.952 36.72 639.208 36.464C639.48 36.208 639.848 36.08 640.312 36.08H646.312C648.232 36.08 649.688 36.512 650.68 37.376C651.688 38.224 652.192 39.456 652.192 41.072C652.192 42.384 651.816 43.464 651.064 44.312C650.328 45.144 649.28 45.68 647.92 45.92C648.384 46.032 648.792 46.232 649.144 46.52C649.496 46.808 649.84 47.208 650.176 47.72L652.36 51.056ZM645.88 43.832C647.048 43.832 647.904 43.616 648.448 43.184C648.992 42.736 649.264 42.056 649.264 41.144C649.264 40.216 648.992 39.544 648.448 39.128C647.904 38.696 647.048 38.48 645.88 38.48H641.848V43.832H645.88ZM664.536 49.784C664.808 49.784 665.024 49.888 665.184 50.096C665.36 50.304 665.448 50.584 665.448 50.936C665.448 51.432 665.152 51.848 664.56 52.184C664.016 52.488 663.4 52.736 662.712 52.928C662.024 53.104 661.368 53.192 660.743 53.192C658.856 53.192 657.36 52.648 656.256 51.56C655.152 50.472 654.6 48.984 654.6 47.096C654.6 45.896 654.84 44.832 655.32 43.904C655.8 42.976 656.472 42.256 657.336 41.744C658.216 41.232 659.208 40.976 660.312 40.976C661.368 40.976 662.288 41.208 663.072 41.672C663.856 42.136 664.464 42.792 664.896 43.64C665.328 44.488 665.544 45.488 665.544 46.64C665.544 47.328 665.24 47.672 664.632 47.672H657.552C657.648 48.776 657.96 49.592 658.488 50.12C659.016 50.632 659.784 50.888 660.792 50.888C661.304 50.888 661.752 50.824 662.136 50.696C662.536 50.568 662.984 50.392 663.48 50.168C663.96 49.912 664.312 49.784 664.536 49.784ZM660.384 43.088C659.568 43.088 658.912 43.344 658.416 43.856C657.936 44.368 657.648 45.104 657.552 46.064H662.976C662.944 45.088 662.704 44.352 662.256 43.856C661.808 43.344 661.184 43.088 660.384 43.088ZM669.486 53.144C669.054 53.144 668.694 53.024 668.406 52.784C668.134 52.528 667.998 52.168 667.998 51.704V37.376C667.998 36.912 668.134 36.56 668.406 36.32C668.694 36.08 669.054 35.96 669.486 35.96C669.918 35.96 670.278 36.08 670.566 36.32C670.854 36.56 670.998 36.912 670.998 37.376V51.704C670.998 52.168 670.854 52.528 670.566 52.784C670.278 53.024 669.918 53.144 669.486 53.144ZM683.379 49.784C683.651 49.784 683.867 49.888 684.027 50.096C684.203 50.304 684.291 50.584 684.291 50.936C684.291 51.432 683.995 51.848 683.403 52.184C682.859 52.488 682.243 52.736 681.555 52.928C680.867 53.104 680.211 53.192 679.587 53.192C677.699 53.192 676.203 52.648 675.099 51.56C673.995 50.472 673.443 48.984 673.443 47.096C673.443 45.896 673.683 44.832 674.163 43.904C674.643 42.976 675.315 42.256 676.179 41.744C677.059 41.232 678.051 40.976 679.155 40.976C680.211 40.976 681.131 41.208 681.915 41.672C682.699 42.136 683.307 42.792 683.739 43.64C684.171 44.488 684.387 45.488 684.387 46.64C684.387 47.328 684.083 47.672 683.475 47.672H676.395C676.491 48.776 676.803 49.592 677.331 50.12C677.859 50.632 678.627 50.888 679.635 50.888C680.147 50.888 680.595 50.824 680.979 50.696C681.379 50.568 681.827 50.392 682.323 50.168C682.803 49.912 683.155 49.784 683.379 49.784ZM679.227 43.088C678.411 43.088 677.755 43.344 677.259 43.856C676.779 44.368 676.491 45.104 676.395 46.064H681.819C681.787 45.088 681.547 44.352 681.099 43.856C680.651 43.344 680.027 43.088 679.227 43.088ZM691.929 40.976C693.561 40.976 694.769 41.384 695.553 42.2C696.353 43 696.753 44.224 696.753 45.872V51.728C696.753 52.16 696.625 52.504 696.369 52.76C696.113 53 695.761 53.12 695.313 53.12C694.897 53.12 694.553 52.992 694.281 52.736C694.025 52.48 693.897 52.144 693.897 51.728V51.2C693.625 51.824 693.193 52.312 692.601 52.664C692.025 53.016 691.353 53.192 690.585 53.192C689.801 53.192 689.089 53.032 688.449 52.712C687.809 52.392 687.305 51.952 686.937 51.392C686.569 50.832 686.385 50.208 686.385 49.52C686.385 48.656 686.601 47.976 687.033 47.48C687.481 46.984 688.201 46.624 689.193 46.4C690.185 46.176 691.553 46.064 693.297 46.064H693.897V45.512C693.897 44.728 693.729 44.16 693.393 43.808C693.057 43.44 692.513 43.256 691.761 43.256C691.297 43.256 690.825 43.328 690.345 43.472C689.865 43.6 689.297 43.792 688.641 44.048C688.225 44.256 687.921 44.36 687.729 44.36C687.441 44.36 687.201 44.256 687.009 44.048C686.833 43.84 686.745 43.568 686.745 43.232C686.745 42.96 686.809 42.728 686.937 42.536C687.081 42.328 687.313 42.136 687.633 41.96C688.193 41.656 688.857 41.416 689.625 41.24C690.409 41.064 691.177 40.976 691.929 40.976ZM691.185 51.032C691.985 51.032 692.633 50.768 693.129 50.24C693.641 49.696 693.897 49 693.897 48.152V47.648H693.465C692.393 47.648 691.561 47.696 690.969 47.792C690.377 47.888 689.953 48.056 689.697 48.296C689.441 48.536 689.313 48.864 689.313 49.28C689.313 49.792 689.489 50.216 689.841 50.552C690.209 50.872 690.657 51.032 691.185 51.032ZM704.05 53.192C702.306 53.192 700.898 52.848 699.826 52.16C699.314 51.856 699.058 51.424 699.058 50.864C699.058 50.544 699.146 50.288 699.322 50.096C699.498 49.888 699.714 49.784 699.97 49.784C700.242 49.784 700.618 49.912 701.098 50.168C701.61 50.408 702.074 50.592 702.49 50.72C702.922 50.848 703.466 50.912 704.122 50.912C704.794 50.912 705.314 50.8 705.682 50.576C706.066 50.352 706.258 50.04 706.258 49.64C706.258 49.368 706.178 49.152 706.018 48.992C705.874 48.832 705.602 48.688 705.202 48.56C704.818 48.416 704.226 48.256 703.426 48.08C702.002 47.792 700.978 47.384 700.354 46.856C699.746 46.328 699.442 45.6 699.442 44.672C699.442 43.968 699.65 43.336 700.066 42.776C700.482 42.2 701.05 41.76 701.77 41.456C702.506 41.136 703.338 40.976 704.266 40.976C704.938 40.976 705.586 41.064 706.21 41.24C706.834 41.4 707.394 41.64 707.89 41.96C708.402 42.28 708.658 42.704 708.658 43.232C708.658 43.552 708.57 43.824 708.394 44.048C708.218 44.256 708.002 44.36 707.746 44.36C707.57 44.36 707.394 44.328 707.218 44.264C707.058 44.184 706.85 44.072 706.594 43.928C706.13 43.688 705.73 43.512 705.394 43.4C705.058 43.272 704.642 43.208 704.146 43.208C703.554 43.208 703.082 43.328 702.73 43.568C702.394 43.808 702.226 44.136 702.226 44.552C702.226 44.952 702.402 45.256 702.754 45.464C703.106 45.672 703.786 45.88 704.794 46.088C705.866 46.312 706.706 46.568 707.314 46.856C707.922 47.144 708.354 47.504 708.61 47.936C708.882 48.368 709.018 48.92 709.018 49.592C709.018 50.68 708.562 51.552 707.65 52.208C706.754 52.864 705.554 53.192 704.05 53.192ZM720.739 49.784C721.011 49.784 721.227 49.888 721.387 50.096C721.563 50.304 721.651 50.584 721.651 50.936C721.651 51.432 721.355 51.848 720.763 52.184C720.219 52.488 719.603 52.736 718.915 52.928C718.227 53.104 717.571 53.192 716.947 53.192C715.059 53.192 713.563 52.648 712.459 51.56C711.355 50.472 710.803 48.984 710.803 47.096C710.803 45.896 711.043 44.832 711.523 43.904C712.003 42.976 712.675 42.256 713.539 41.744C714.419 41.232 715.411 40.976 716.515 40.976C717.571 40.976 718.491 41.208 719.275 41.672C720.059 42.136 720.667 42.792 721.099 43.64C721.531 44.488 721.747 45.488 721.747 46.64C721.747 47.328 721.443 47.672 720.835 47.672H713.755C713.851 48.776 714.163 49.592 714.691 50.12C715.219 50.632 715.987 50.888 716.995 50.888C717.507 50.888 717.955 50.824 718.339 50.696C718.739 50.568 719.187 50.392 719.683 50.168C720.163 49.912 720.515 49.784 720.739 49.784ZM716.587 43.088C715.771 43.088 715.115 43.344 714.619 43.856C714.139 44.368 713.851 45.104 713.755 46.064H719.179C719.147 45.088 718.907 44.352 718.459 43.856C718.011 43.344 717.387 43.088 716.587 43.088Z" fill="black"/>
<path d="M40.32 19C40.1667 19 40.0433 18.9567 39.95 18.87C39.8633 18.7833 39.82 18.6667 39.82 18.52V12.42C39.82 12.2667 39.8667 12.1433 39.96 12.05C40.0533 11.95 40.1767 11.9 40.33 11.9C40.49 11.9 40.6167 11.9467 40.71 12.04C40.8033 12.1333 40.85 12.26 40.85 12.42V18.14H43.89C44.0433 18.14 44.16 18.1767 44.24 18.25C44.3267 18.3233 44.37 18.43 44.37 18.57C44.37 18.71 44.3267 18.8167 44.24 18.89C44.16 18.9633 44.0433 19 43.89 19H40.32ZM45.7988 19.05C45.6454 19.05 45.5221 19.0033 45.4288 18.91C45.3354 18.8167 45.2888 18.69 45.2888 18.53V12.45C45.2888 12.2967 45.3321 12.1767 45.4188 12.09C45.5121 11.9967 45.6388 11.95 45.7988 11.95H48.2088C48.9554 11.95 49.5354 12.1333 49.9488 12.5C50.3621 12.8667 50.5688 13.3867 50.5688 14.06C50.5688 14.7267 50.3621 15.2467 49.9488 15.62C49.5354 15.9933 48.9554 16.18 48.2088 16.18H46.3188V18.53C46.3188 18.69 46.2721 18.8167 46.1788 18.91C46.0921 19.0033 45.9654 19.05 45.7988 19.05ZM48.0988 15.35C49.0854 15.35 49.5788 14.92 49.5788 14.06C49.5788 13.2067 49.0854 12.78 48.0988 12.78H46.3188V15.35H48.0988ZM54.9589 19C54.7989 19 54.6722 18.9567 54.5789 18.87C54.4922 18.7767 54.4489 18.6533 54.4489 18.5V12.45C54.4489 12.2967 54.4922 12.1767 54.5789 12.09C54.6722 11.9967 54.7989 11.95 54.9589 11.95H56.9189C58.0589 11.95 58.9422 12.2567 59.5689 12.87C60.1956 13.4833 60.5089 14.35 60.5089 15.47C60.5089 16.59 60.1956 17.46 59.5689 18.08C58.9422 18.6933 58.0589 19 56.9189 19H54.9589ZM56.8589 18.14C58.5922 18.14 59.4589 17.25 59.4589 15.47C59.4589 13.6967 58.5922 12.81 56.8589 12.81H55.4789V18.14H56.8589ZM65.6098 17.77C65.7032 17.77 65.7798 17.8067 65.8398 17.88C65.8998 17.9533 65.9298 18.0467 65.9298 18.16C65.9298 18.3533 65.8098 18.5167 65.5698 18.65C65.3365 18.7833 65.0798 18.8867 64.7998 18.96C64.5265 19.0333 64.2632 19.07 64.0098 19.07C63.2365 19.07 62.6265 18.8467 62.1798 18.4C61.7332 17.9467 61.5098 17.33 61.5098 16.55C61.5098 16.05 61.6065 15.6067 61.7998 15.22C61.9998 14.8333 62.2765 14.5333 62.6298 14.32C62.9898 14.1067 63.3965 14 63.8498 14C64.5032 14 65.0198 14.21 65.3998 14.63C65.7798 15.05 65.9698 15.6167 65.9698 16.33C65.9698 16.5967 65.8498 16.73 65.6098 16.73H62.5198C62.5865 17.7633 63.0832 18.28 64.0098 18.28C64.2565 18.28 64.4698 18.2467 64.6498 18.18C64.8298 18.1133 65.0198 18.0267 65.2198 17.92C65.2398 17.9067 65.2932 17.88 65.3798 17.84C65.4732 17.7933 65.5498 17.77 65.6098 17.77ZM63.8698 14.74C63.4832 14.74 63.1732 14.8633 62.9398 15.11C62.7065 15.3567 62.5665 15.7033 62.5198 16.15H65.0998C65.0798 15.6967 64.9632 15.35 64.7498 15.11C64.5432 14.8633 64.2498 14.74 63.8698 14.74ZM70.4845 14.32C70.5245 14.22 70.5811 14.1467 70.6545 14.1C70.7345 14.0533 70.8178 14.03 70.9045 14.03C71.0311 14.03 71.1411 14.0733 71.2345 14.16C71.3345 14.2467 71.3845 14.35 71.3845 14.47C71.3845 14.5367 71.3711 14.6 71.3445 14.66L69.4345 18.71C69.3878 18.8167 69.3145 18.9 69.2145 18.96C69.1211 19.0133 69.0211 19.04 68.9145 19.04C68.8078 19.04 68.7045 19.0133 68.6045 18.96C68.5111 18.9 68.4411 18.8167 68.3945 18.71L66.4845 14.66C66.4578 14.6067 66.4445 14.5433 66.4445 14.47C66.4445 14.35 66.4978 14.2467 66.6045 14.16C66.7111 14.0733 66.8311 14.03 66.9645 14.03C67.1578 14.03 67.3011 14.1233 67.3945 14.31L68.9445 17.75L70.4845 14.32ZM75.9614 17.77C76.0547 17.77 76.1314 17.8067 76.1914 17.88C76.2514 17.9533 76.2814 18.0467 76.2814 18.16C76.2814 18.3533 76.1614 18.5167 75.9214 18.65C75.6881 18.7833 75.4314 18.8867 75.1514 18.96C74.8781 19.0333 74.6147 19.07 74.3614 19.07C73.5881 19.07 72.9781 18.8467 72.5314 18.4C72.0847 17.9467 71.8614 17.33 71.8614 16.55C71.8614 16.05 71.9581 15.6067 72.1514 15.22C72.3514 14.8333 72.6281 14.5333 72.9814 14.32C73.3414 14.1067 73.7481 14 74.2014 14C74.8547 14 75.3714 14.21 75.7514 14.63C76.1314 15.05 76.3214 15.6167 76.3214 16.33C76.3214 16.5967 76.2014 16.73 75.9614 16.73H72.8714C72.9381 17.7633 73.4347 18.28 74.3614 18.28C74.6081 18.28 74.8214 18.2467 75.0014 18.18C75.1814 18.1133 75.3714 18.0267 75.5714 17.92C75.5914 17.9067 75.6447 17.88 75.7314 17.84C75.8247 17.7933 75.9014 17.77 75.9614 17.77ZM74.2214 14.74C73.8347 14.74 73.5247 14.8633 73.2914 15.11C73.0581 15.3567 72.9181 15.7033 72.8714 16.15H75.4514C75.4314 15.6967 75.3147 15.35 75.1014 15.11C74.8947 14.8633 74.6014 14.74 74.2214 14.74ZM77.9444 19.05C77.7977 19.05 77.6744 19.01 77.5744 18.93C77.481 18.85 77.4344 18.73 77.4344 18.57V12.39C77.4344 12.23 77.481 12.11 77.5744 12.03C77.6744 11.9433 77.7977 11.9 77.9444 11.9C78.091 11.9 78.211 11.9433 78.3044 12.03C78.3977 12.11 78.4444 12.23 78.4444 12.39V18.57C78.4444 18.73 78.3977 18.85 78.3044 18.93C78.211 19.01 78.091 19.05 77.9444 19.05ZM81.9763 19.07C81.4963 19.07 81.0729 18.9667 80.7063 18.76C80.3463 18.5533 80.0663 18.26 79.8663 17.88C79.6729 17.4933 79.5763 17.0467 79.5763 16.54C79.5763 16.0267 79.6729 15.58 79.8663 15.2C80.0663 14.8133 80.3463 14.5167 80.7063 14.31C81.0729 14.1033 81.4963 14 81.9763 14C82.4563 14 82.8763 14.1033 83.2363 14.31C83.6029 14.5167 83.8829 14.8133 84.0763 15.2C84.2763 15.58 84.3763 16.0267 84.3763 16.54C84.3763 17.0467 84.2763 17.4933 84.0763 17.88C83.8829 18.26 83.6029 18.5533 83.2363 18.76C82.8763 18.9667 82.4563 19.07 81.9763 19.07ZM81.9763 18.27C82.4229 18.27 82.7629 18.1233 82.9963 17.83C83.2363 17.5367 83.3563 17.1067 83.3563 16.54C83.3563 15.98 83.2363 15.5533 82.9963 15.26C82.7563 14.96 82.4163 14.81 81.9763 14.81C81.5363 14.81 81.1963 14.96 80.9563 15.26C80.7163 15.5533 80.5963 15.98 80.5963 16.54C80.5963 17.1067 80.7129 17.5367 80.9463 17.83C81.1863 18.1233 81.5296 18.27 81.9763 18.27ZM88.1208 14C88.5408 14 88.9141 14.1067 89.2408 14.32C89.5741 14.5333 89.8308 14.8333 90.0108 15.22C90.1974 15.6067 90.2908 16.0533 90.2908 16.56C90.2908 17.06 90.2008 17.5 90.0208 17.88C89.8408 18.26 89.5841 18.5533 89.2508 18.76C88.9241 18.9667 88.5474 19.07 88.1208 19.07C87.7541 19.07 87.4308 18.9933 87.1508 18.84C86.8708 18.68 86.6574 18.4533 86.5108 18.16V20.39C86.5108 20.53 86.4641 20.64 86.3708 20.72C86.2841 20.8067 86.1674 20.85 86.0208 20.85C85.8674 20.85 85.7408 20.8067 85.6408 20.72C85.5474 20.6333 85.5008 20.5167 85.5008 20.37V14.51C85.5008 14.3633 85.5474 14.2467 85.6408 14.16C85.7341 14.0667 85.8574 14.02 86.0108 14.02C86.1574 14.02 86.2774 14.0667 86.3708 14.16C86.4641 14.2467 86.5108 14.3633 86.5108 14.51V14.92C86.6574 14.6267 86.8708 14.4 87.1508 14.24C87.4308 14.08 87.7541 14 88.1208 14ZM87.8808 18.27C88.3208 18.27 88.6608 18.1233 88.9008 17.83C89.1408 17.53 89.2608 17.1067 89.2608 16.56C89.2608 16.0067 89.1374 15.5767 88.8908 15.27C88.6508 14.9633 88.3141 14.81 87.8808 14.81C87.4408 14.81 87.1008 14.96 86.8608 15.26C86.6274 15.56 86.5108 15.9867 86.5108 16.54C86.5108 17.0933 86.6274 17.52 86.8608 17.82C87.1008 18.12 87.4408 18.27 87.8808 18.27ZM97.009 14C98.1023 14 98.649 14.6567 98.649 15.97V18.57C98.649 18.7233 98.6023 18.8433 98.509 18.93C98.4157 19.01 98.2923 19.05 98.139 19.05C97.9923 19.05 97.8723 19.01 97.779 18.93C97.6857 18.8433 97.639 18.7233 97.639 18.57V15.98C97.639 15.5733 97.5657 15.28 97.419 15.1C97.2723 14.9133 97.0423 14.82 96.729 14.82C96.3623 14.82 96.0723 14.9467 95.859 15.2C95.6457 15.4467 95.539 15.7867 95.539 16.22V18.57C95.539 18.7233 95.4923 18.8433 95.399 18.93C95.3057 19.01 95.1823 19.05 95.029 19.05C94.8823 19.05 94.7623 19.01 94.669 18.93C94.5757 18.8433 94.529 18.7233 94.529 18.57V15.98C94.529 15.5733 94.4557 15.28 94.309 15.1C94.1623 14.9133 93.9323 14.82 93.619 14.82C93.2523 14.82 92.959 14.9467 92.739 15.2C92.5257 15.4467 92.419 15.7867 92.419 16.22V18.57C92.419 18.7233 92.3723 18.8433 92.279 18.93C92.1857 19.01 92.0657 19.05 91.919 19.05C91.7723 19.05 91.649 19.01 91.549 18.93C91.4557 18.8433 91.409 18.7233 91.409 18.57V14.5C91.409 14.3533 91.459 14.2367 91.559 14.15C91.659 14.0633 91.779 14.02 91.919 14.02C92.059 14.02 92.1723 14.0633 92.259 14.15C92.3523 14.23 92.399 14.3433 92.399 14.49V14.86C92.5457 14.58 92.749 14.3667 93.009 14.22C93.269 14.0733 93.569 14 93.909 14C94.2823 14 94.589 14.0767 94.829 14.23C95.0757 14.3833 95.259 14.62 95.379 14.94C95.5257 14.6533 95.7423 14.4267 96.029 14.26C96.3157 14.0867 96.6423 14 97.009 14ZM103.852 17.77C103.945 17.77 104.022 17.8067 104.082 17.88C104.142 17.9533 104.172 18.0467 104.172 18.16C104.172 18.3533 104.052 18.5167 103.812 18.65C103.579 18.7833 103.322 18.8867 103.042 18.96C102.769 19.0333 102.505 19.07 102.252 19.07C101.479 19.07 100.869 18.8467 100.422 18.4C99.9754 17.9467 99.752 17.33 99.752 16.55C99.752 16.05 99.8487 15.6067 100.042 15.22C100.242 14.8333 100.519 14.5333 100.872 14.32C101.232 14.1067 101.639 14 102.092 14C102.745 14 103.262 14.21 103.642 14.63C104.022 15.05 104.212 15.6167 104.212 16.33C104.212 16.5967 104.092 16.73 103.852 16.73H100.762C100.829 17.7633 101.325 18.28 102.252 18.28C102.499 18.28 102.712 18.2467 102.892 18.18C103.072 18.1133 103.262 18.0267 103.462 17.92C103.482 17.9067 103.535 17.88 103.622 17.84C103.715 17.7933 103.792 17.77 103.852 17.77ZM102.112 14.74C101.725 14.74 101.415 14.8633 101.182 15.11C100.949 15.3567 100.809 15.7033 100.762 16.15H103.342C103.322 15.6967 103.205 15.35 102.992 15.11C102.785 14.8633 102.492 14.74 102.112 14.74ZM107.955 14C109.122 14 109.705 14.6567 109.705 15.97V18.57C109.705 18.7233 109.658 18.8433 109.565 18.93C109.478 19.01 109.355 19.05 109.195 19.05C109.042 19.05 108.918 19.0067 108.825 18.92C108.738 18.8333 108.695 18.7167 108.695 18.57V16.02C108.695 15.6067 108.612 15.3033 108.445 15.11C108.285 14.9167 108.032 14.82 107.685 14.82C107.278 14.82 106.952 14.9467 106.705 15.2C106.458 15.4533 106.335 15.7933 106.335 16.22V18.57C106.335 18.7167 106.288 18.8333 106.195 18.92C106.108 19.0067 105.988 19.05 105.835 19.05C105.682 19.05 105.558 19.0067 105.465 18.92C105.372 18.8333 105.325 18.7167 105.325 18.57V14.5C105.325 14.36 105.372 14.2467 105.465 14.16C105.565 14.0667 105.688 14.02 105.835 14.02C105.982 14.02 106.098 14.0633 106.185 14.15C106.272 14.2367 106.315 14.35 106.315 14.49V14.9C106.475 14.6067 106.698 14.3833 106.985 14.23C107.272 14.0767 107.595 14 107.955 14ZM113.477 18.28C113.623 18.2933 113.727 18.3333 113.787 18.4C113.853 18.46 113.887 18.5467 113.887 18.66C113.887 18.7933 113.833 18.8967 113.727 18.97C113.627 19.0367 113.477 19.0633 113.277 19.05L113.007 19.03C112.467 18.99 112.063 18.8267 111.797 18.54C111.53 18.2467 111.397 17.8167 111.397 17.25V14.9H110.797C110.503 14.9 110.357 14.77 110.357 14.51C110.357 14.39 110.393 14.2967 110.467 14.23C110.547 14.1567 110.657 14.12 110.797 14.12H111.397V13.09C111.397 12.9367 111.44 12.8167 111.527 12.73C111.62 12.6433 111.743 12.6 111.897 12.6C112.05 12.6 112.173 12.6433 112.267 12.73C112.36 12.8167 112.407 12.9367 112.407 13.09V14.12H113.397C113.537 14.12 113.643 14.1567 113.717 14.23C113.797 14.2967 113.837 14.39 113.837 14.51C113.837 14.6367 113.797 14.7333 113.717 14.8C113.643 14.8667 113.537 14.9 113.397 14.9H112.407V17.32C112.407 17.6333 112.47 17.8633 112.597 18.01C112.73 18.1567 112.93 18.24 113.197 18.26L113.477 18.28ZM117.879 19.05C117.725 19.05 117.602 19.0033 117.509 18.91C117.415 18.8167 117.369 18.69 117.369 18.53V12.45C117.369 12.2967 117.412 12.1767 117.499 12.09C117.592 11.9967 117.719 11.95 117.879 11.95H120.289C121.035 11.95 121.615 12.1333 122.029 12.5C122.442 12.8667 122.649 13.3867 122.649 14.06C122.649 14.7267 122.442 15.2467 122.029 15.62C121.615 15.9933 121.035 16.18 120.289 16.18H118.399V18.53C118.399 18.69 118.352 18.8167 118.259 18.91C118.172 19.0033 118.045 19.05 117.879 19.05ZM120.179 15.35C121.165 15.35 121.659 14.92 121.659 14.06C121.659 13.2067 121.165 12.78 120.179 12.78H118.399V15.35H120.179ZM126.412 14C127.572 14 128.152 14.6567 128.152 15.97V18.57C128.152 18.7167 128.106 18.8333 128.012 18.92C127.919 19.0067 127.796 19.05 127.642 19.05C127.489 19.05 127.366 19.0067 127.272 18.92C127.186 18.8333 127.142 18.7167 127.142 18.57V15.98C127.142 15.58 127.059 15.2867 126.892 15.1C126.732 14.9133 126.479 14.82 126.132 14.82C125.726 14.82 125.399 14.9467 125.152 15.2C124.906 15.4533 124.782 15.7933 124.782 16.22V18.57C124.782 18.7167 124.736 18.8333 124.642 18.92C124.556 19.0067 124.436 19.05 124.282 19.05C124.129 19.05 124.006 19.0067 123.912 18.92C123.819 18.8333 123.772 18.7167 123.772 18.57V12.38C123.772 12.2333 123.819 12.1167 123.912 12.03C124.012 11.9433 124.139 11.9 124.292 11.9C124.439 11.9 124.556 11.9433 124.642 12.03C124.736 12.11 124.782 12.22 124.782 12.36V14.86C124.949 14.58 125.172 14.3667 125.452 14.22C125.732 14.0733 126.052 14 126.412 14ZM131.584 14C132.231 14 132.711 14.1633 133.024 14.49C133.344 14.8167 133.504 15.3133 133.504 15.98V18.57C133.504 18.7233 133.461 18.8433 133.374 18.93C133.287 19.01 133.167 19.05 133.014 19.05C132.867 19.05 132.751 19.0067 132.664 18.92C132.577 18.8333 132.534 18.7167 132.534 18.57V18.2C132.407 18.48 132.217 18.6967 131.964 18.85C131.717 18.9967 131.427 19.07 131.094 19.07C130.774 19.07 130.481 19.0067 130.214 18.88C129.954 18.7467 129.747 18.5667 129.594 18.34C129.441 18.1133 129.364 17.8567 129.364 17.57C129.357 17.21 129.447 16.93 129.634 16.73C129.821 16.5233 130.124 16.3767 130.544 16.29C130.964 16.1967 131.547 16.15 132.294 16.15H132.524V15.86C132.524 15.4867 132.447 15.2167 132.294 15.05C132.141 14.8833 131.894 14.8 131.554 14.8C131.321 14.8 131.101 14.83 130.894 14.89C130.687 14.95 130.461 15.0367 130.214 15.15C130.034 15.25 129.907 15.3 129.834 15.3C129.734 15.3 129.651 15.2633 129.584 15.19C129.524 15.1167 129.494 15.0233 129.494 14.91C129.494 14.81 129.521 14.7233 129.574 14.65C129.634 14.57 129.727 14.4933 129.854 14.42C130.087 14.2933 130.361 14.1933 130.674 14.12C130.987 14.04 131.291 14 131.584 14ZM131.274 18.32C131.641 18.32 131.941 18.1967 132.174 17.95C132.407 17.6967 132.524 17.3733 132.524 16.98V16.72H132.344C131.824 16.72 131.424 16.7433 131.144 16.79C130.864 16.8367 130.664 16.9167 130.544 17.03C130.424 17.1367 130.364 17.2933 130.364 17.5C130.364 17.74 130.451 17.9367 130.624 18.09C130.797 18.2433 131.014 18.32 131.274 18.32ZM136.586 19.07C135.906 19.07 135.349 18.93 134.916 18.65C134.796 18.5767 134.709 18.5 134.656 18.42C134.609 18.34 134.586 18.25 134.586 18.15C134.586 18.0433 134.616 17.9533 134.676 17.88C134.736 17.8067 134.812 17.77 134.906 17.77C134.992 17.77 135.129 17.8233 135.316 17.93C135.516 18.0367 135.709 18.1233 135.896 18.19C136.089 18.2567 136.329 18.29 136.616 18.29C136.936 18.29 137.186 18.2333 137.366 18.12C137.546 18.0067 137.636 17.8467 137.636 17.64C137.636 17.5067 137.599 17.4 137.526 17.32C137.459 17.24 137.339 17.17 137.166 17.11C136.992 17.0433 136.736 16.9733 136.396 16.9C135.809 16.7733 135.386 16.6033 135.126 16.39C134.872 16.17 134.746 15.8733 134.746 15.5C134.746 15.2133 134.829 14.9567 134.996 14.73C135.162 14.4967 135.392 14.3167 135.686 14.19C135.979 14.0633 136.312 14 136.686 14C136.952 14 137.212 14.0367 137.466 14.11C137.719 14.1767 137.942 14.2767 138.136 14.41C138.356 14.5567 138.466 14.7267 138.466 14.92C138.466 15.0267 138.432 15.1167 138.366 15.19C138.306 15.2633 138.232 15.3 138.146 15.3C138.086 15.3 138.026 15.2867 137.966 15.26C137.906 15.2333 137.826 15.19 137.726 15.13C137.546 15.0233 137.376 14.94 137.216 14.88C137.062 14.82 136.869 14.79 136.636 14.79C136.356 14.79 136.129 14.85 135.956 14.97C135.789 15.09 135.706 15.2533 135.706 15.46C135.706 15.6467 135.782 15.7933 135.936 15.9C136.096 16 136.392 16.0967 136.826 16.19C137.272 16.2833 137.622 16.39 137.876 16.51C138.129 16.63 138.309 16.78 138.416 16.96C138.529 17.1333 138.586 17.3567 138.586 17.63C138.586 18.0633 138.402 18.4133 138.036 18.68C137.676 18.94 137.192 19.07 136.586 19.07ZM143.53 17.77C143.623 17.77 143.7 17.8067 143.76 17.88C143.82 17.9533 143.85 18.0467 143.85 18.16C143.85 18.3533 143.73 18.5167 143.49 18.65C143.256 18.7833 143 18.8867 142.72 18.96C142.446 19.0333 142.183 19.07 141.93 19.07C141.156 19.07 140.546 18.8467 140.1 18.4C139.653 17.9467 139.43 17.33 139.43 16.55C139.43 16.05 139.526 15.6067 139.72 15.22C139.92 14.8333 140.196 14.5333 140.55 14.32C140.91 14.1067 141.316 14 141.77 14C142.423 14 142.94 14.21 143.32 14.63C143.7 15.05 143.89 15.6167 143.89 16.33C143.89 16.5967 143.77 16.73 143.53 16.73H140.44C140.506 17.7633 141.003 18.28 141.93 18.28C142.176 18.28 142.39 18.2467 142.57 18.18C142.75 18.1133 142.94 18.0267 143.14 17.92C143.16 17.9067 143.213 17.88 143.3 17.84C143.393 17.7933 143.47 17.77 143.53 17.77ZM141.79 14.74C141.403 14.74 141.093 14.8633 140.86 15.11C140.626 15.3567 140.486 15.7033 140.44 16.15H143.02C143 15.6967 142.883 15.35 142.67 15.11C142.463 14.8633 142.17 14.74 141.79 14.74ZM146.703 19.07C146.023 19.07 145.466 18.93 145.033 18.65C144.913 18.5767 144.826 18.5 144.773 18.42C144.726 18.34 144.703 18.25 144.703 18.15C144.703 18.0433 144.733 17.9533 144.793 17.88C144.853 17.8067 144.929 17.77 145.023 17.77C145.109 17.77 145.246 17.8233 145.433 17.93C145.633 18.0367 145.826 18.1233 146.013 18.19C146.206 18.2567 146.446 18.29 146.733 18.29C147.053 18.29 147.303 18.2333 147.483 18.12C147.663 18.0067 147.753 17.8467 147.753 17.64C147.753 17.5067 147.716 17.4 147.643 17.32C147.576 17.24 147.456 17.17 147.283 17.11C147.109 17.0433 146.853 16.9733 146.513 16.9C145.926 16.7733 145.503 16.6033 145.243 16.39C144.989 16.17 144.863 15.8733 144.863 15.5C144.863 15.2133 144.946 14.9567 145.113 14.73C145.279 14.4967 145.509 14.3167 145.803 14.19C146.096 14.0633 146.429 14 146.803 14C147.069 14 147.329 14.0367 147.583 14.11C147.836 14.1767 148.059 14.2767 148.253 14.41C148.473 14.5567 148.583 14.7267 148.583 14.92C148.583 15.0267 148.549 15.1167 148.483 15.19C148.423 15.2633 148.349 15.3 148.263 15.3C148.203 15.3 148.143 15.2867 148.083 15.26C148.023 15.2333 147.943 15.19 147.843 15.13C147.663 15.0233 147.493 14.94 147.333 14.88C147.179 14.82 146.986 14.79 146.753 14.79C146.473 14.79 146.246 14.85 146.073 14.97C145.906 15.09 145.823 15.2533 145.823 15.46C145.823 15.6467 145.899 15.7933 146.053 15.9C146.213 16 146.509 16.0967 146.943 16.19C147.389 16.2833 147.739 16.39 147.993 16.51C148.246 16.63 148.426 16.78 148.533 16.96C148.646 17.1333 148.703 17.3567 148.703 17.63C148.703 18.0633 148.519 18.4133 148.153 18.68C147.793 18.94 147.309 19.07 146.703 19.07Z" fill="#8D8D8D"/>
<defs>
<filter id="filter0_d" x="0" y="0" width="759" height="87" filterUnits="userSpaceOnUse" color-interpolation-filters="sRGB">
<feFlood flood-opacity="0" result="BackgroundImageFix"/>
<feColorMatrix in="SourceAlpha" type="matrix" values="0 0 0 0 0 0 0 0 0 0 0 0 0 0 0 0 0 0 127 0"/>
<feOffset/>
<feGaussianBlur stdDeviation="2"/>
<feColorMatrix type="matrix" values="0 0 0 0 0 0 0 0 0 0 0 0 0 0 0 0 0 0 0.25 0"/>
<feBlend mode="normal" in2="BackgroundImageFix" result="effect1_dropShadow"/>
<feBlend mode="normal" in="SourceGraphic" in2="effect1_dropShadow" result="shape"/>
</filter>
</defs>
</svg>
