<svg width="555" height="465" viewBox="0 0 555 465" fill="none" xmlns="http://www.w3.org/2000/svg">
<g filter="url(#filter0_d)">
<path d="M8.5 164.894H85.712C129.619 164.894 165.212 200.487 165.212 244.394V293.529H88.0001C44.0934 293.529 8.5 257.936 8.5 214.029V164.894Z" stroke="#897942" stroke-opacity="0.2"/>
</g>
<g filter="url(#filter1_d)">
<path d="M181.983 309.345H259.195C303.102 309.345 338.695 344.938 338.695 388.845V437.981H261.483C217.577 437.981 181.983 402.387 181.983 358.481V309.345Z" stroke="#897942" stroke-opacity="0.2"/>
</g>
<g filter="url(#filter2_d)">
<path d="M181.983 225.874C181.983 181.968 217.577 146.374 261.483 146.374H318.981V214.029C318.981 257.936 283.388 293.529 239.481 293.529H181.983V225.874Z" stroke="#897942" stroke-opacity="0.2"/>
</g>
<g filter="url(#filter3_d)">
<path d="M28.214 388.845C28.214 344.938 63.8074 309.345 107.714 309.345H165.212V377C165.212 420.907 129.619 456.5 85.712 456.5H28.214V388.845Z" stroke="#897942" stroke-opacity="0.2"/>
</g>
<path d="M376.691 30.3812L361.152 42.3311L385.708 45.4759C394.149 43.7987 394.98 50.5074 394.341 54.0714L392.231 78.1809L406.811 67.2792C415.712 59.2287 432.646 53.1629 440 51.1363C455.347 48.1174 476.961 58.2644 485.85 63.7152L507.912 62.8766C516.967 64.5538 517.44 56.4474 516.545 52.1846L515.97 27.6558C506.608 18.4313 488.28 10.3948 480.287 7.52962C474.608 4.67841 460.399 2.84749 454.004 2.28843C444.489 1.44984 436.227 2.63784 433.285 3.33667L425.228 5.01385L416.978 7.52962L409.113 11.0936L400.672 15.0769L392.231 20.1085L384.365 25.14L376.691 30.3812Z" fill="url(#paint0_linear)" stroke="white" stroke-width="3"/>
<path d="M267.364 79.7792L295.565 109.34L311.296 128.208L327.219 145.609L336.619 155.043L359.64 176.007L355.995 145.609C355.228 141.416 358.745 139.948 360.6 139.738L371.918 137.642L384.196 135.336L378.441 130.514L370.767 122.967L364.245 116.677L357.722 109.34L348.13 98.4378L336.619 86.0686L330.48 78.9406L326.068 74.1187L317.819 64.6846L310.529 57.1373L301.896 48.3321L292.112 39.7365L283.862 32.6085L272.544 23.5937L262.376 17.3042L250.482 10.8052L223.432 26.5287C219.748 28.7091 220.106 32.6085 220.746 34.2857L229.762 53.5733L238.779 58.8145L245.302 62.5881L255.661 69.9258L267.364 79.7792Z" fill="#112E53" stroke="white" stroke-width="2"/>
<path d="M220.722 33.1642L230.506 53.9193L226.478 52.2421L222.449 50.7746L217.269 50.1456H211.706L205.95 50.7746L198.277 52.2421L190.219 54.9675L183.888 57.9026L176.79 61.6762L169.692 67.3367L162.786 74.884L155.879 85.576L153.385 86.6243L145.712 89.5593L138.613 92.0751C132.935 95.5972 129.853 91.1666 129.021 88.5111L119.045 57.9026L123.266 51.4035L130.172 41.7597L135.736 35.2607L141.875 29.3905L149.357 23.3107L155.879 18.6985L160.292 15.9731L166.239 13.038L170.843 10.7319L176.023 9.05472C177.097 8.38385 183.121 6.53895 185.999 5.70036C188.915 4.02318 198.98 2.90505 203.648 2.55563C207.178 1.54933 219.06 2.13634 224.559 2.55563C230.391 2.55563 244.511 8.00647 250.842 10.7319L223.6 26.2458C219.763 28.4261 220.083 31.7665 220.722 33.1642Z" fill="url(#paint1_linear)" stroke="white" stroke-width="2"/>
<path d="M138.411 91.1001L156.444 83.5528C140.329 122.463 165.205 148.823 179.657 157.139L188.482 178.942C193.7 187.831 188.482 190.892 185.221 191.312L162.775 202.842C144.512 195.63 125.877 170.487 118.843 158.816C112.857 150.766 108.036 124.434 106.373 112.275C104.531 98.6894 109.954 78.3815 112.896 69.9257L120.186 54.8311L128.243 84.8107C129.778 93.1966 135.661 92.4978 138.411 91.1001Z" fill="url(#paint2_linear)" stroke="white" stroke-width="2"/>
<path d="M187.917 178.523L179.86 158.397C216.694 181.207 250.714 156.72 263.12 141.625L289.019 142.673C296.692 141.332 297.588 146.727 297.076 149.592L296.117 175.378L278.084 190.263C272.252 195.798 258.004 203.891 251.609 207.245C236.262 217.643 216.054 217.867 207.869 216.679C189.912 217.014 169.564 208.014 161.635 203.471L184.272 192.989C193.941 190.473 190.731 182.297 187.917 178.523Z" fill="url(#paint3_linear)" stroke="white" stroke-width="2"/>
<path d="M508.845 64.0556H486.783C490.006 65.2297 498.741 76.1453 502.706 81.4564C508.845 90.8486 510.38 106.894 510.38 113.742C507.464 138.564 492.027 152.876 484.673 156.929L482.754 176.007C481.22 186.909 486.463 188.377 489.277 187.748L517.478 191.102C524.384 186.741 532.122 176.287 535.128 171.605C544.95 160.368 551.243 139.389 553.161 130.304C557.765 110.346 552.649 85.6493 549.516 75.7959C543.684 54.8311 524.96 34.9146 516.327 27.577L517.478 51.4768C519.166 62.3784 512.426 64.405 508.845 64.0556Z" fill="url(#paint4_linear)"/>
<path d="M481.291 176.376L481.295 176.349L481.298 176.322L483.408 156.406L483.65 154.128L481.815 155.5C461.718 170.526 440.353 168.334 432.299 165.423L432.219 165.394L432.136 165.379C429.497 164.905 425.937 163.407 421.845 161.213C417.774 159.031 413.257 156.205 408.725 153.145C399.662 147.024 390.595 140 385.018 135.403L384.679 135.123L384.244 135.184L360.153 138.527C358.635 138.494 357.394 138.78 356.406 139.332C355.393 139.897 354.711 140.707 354.279 141.598C353.449 143.309 353.544 145.305 353.852 146.623L357.298 175.288L357.325 175.509L357.442 175.697C357.836 176.329 358.496 177.062 359.306 177.845C360.129 178.641 361.157 179.538 362.33 180.501C364.679 182.43 367.65 184.658 370.82 186.935C377.148 191.48 384.31 196.247 388.988 199.26C413.773 218.031 444.931 219.225 457.544 217.469C467.671 217.449 479.469 213.069 490.028 207.69C500.639 202.285 510.132 195.802 515.645 191.469L517.507 190.006L515.16 189.692L486.959 185.918L486.819 185.899L486.679 185.92C485.186 186.142 484.153 185.872 483.418 185.388C482.668 184.894 482.113 184.101 481.729 183.082C480.949 181.01 480.985 178.283 481.291 176.376Z" fill="#63B4E1" stroke="white" stroke-width="2"/>
<path d="M279.043 127.998L264.463 141.835L290.362 143.302C297.115 141.961 297.907 147.356 297.46 150.221L296.309 176.217L300.338 172.653L307.244 165.735L313.575 159.445L320.481 152.108L341.392 127.998L362.495 104.518L375.157 92.1484L391.847 77.8924L394.149 53.7829C396.298 44.7262 389.033 44.2789 385.132 45.1874L360.768 42.2523L350.792 51.0575L344.462 56.5083L335.637 65.1039L327.004 73.9091L317.22 85.0204L302.256 102.421L289.594 116.677L279.043 127.998Z" fill="url(#paint5_linear)" stroke="white" stroke-width="2"/>
<path d="M213.55 114.01L213.64 114.58C213.64 114.86 213.47 115.38 213.13 116.14C212.81 116.88 212.62 117.29 212.56 117.37C212.34 117.57 211.83 117.67 211.03 117.67C209.51 117.67 208.12 117.59 206.86 117.43L206.17 117.34C205.83 117.34 205.54 117.46 205.3 117.7C205.06 117.92 204.7 118.03 204.22 118.03L201.52 117.85C200.52 117.85 200.02 117.73 200.02 117.49V117.43C200.12 117.09 200.17 116.55 200.17 115.81L200.02 113.29V113.26C200.02 113.16 200.21 112.97 200.59 112.69C200.97 112.41 201.16 112.16 201.16 111.94C201.16 111.72 201.07 111.51 200.89 111.31C200.71 111.11 200.43 110.95 200.05 110.83C200.01 110.71 199.99 110.59 199.99 110.47L200.17 109.27C200.21 108.99 200.23 108.73 200.23 108.49L199.96 103.69C199.96 103.63 200.04 103.54 200.2 103.42C200.5 103.2 200.65 103.01 200.65 102.85L200.5 102.19C200.38 102.07 200.23 101.97 200.05 101.89C199.75 101.79 199.6 101.69 199.6 101.59C199.6 101.47 199.71 101.13 199.93 100.57C200.17 100.01 200.29 99.66 200.29 99.52L199.78 96.88C199.78 96.72 200.21 96.33 201.07 95.71C201.93 95.07 202.64 94.75 203.2 94.75C203.78 94.75 204.51 94.82 205.39 94.96C206.29 95.1 206.74 95.24 206.74 95.38C206.74 95.62 206.66 96.26 206.5 97.3C206.36 98.32 206.24 98.86 206.14 98.92C205.66 99.16 205.42 99.42 205.42 99.7C205.42 99.96 205.57 100.23 205.87 100.51C206.19 100.77 206.35 100.94 206.35 101.02V101.05C206.19 103.27 206.11 104.8 206.11 105.64C206.11 106.46 206.12 106.94 206.14 107.08C206.18 107.2 206.28 107.35 206.44 107.53C206.62 107.71 206.71 107.85 206.71 107.95C206.71 108.05 206.6 108.26 206.38 108.58C206.18 108.88 206.08 109.16 206.08 109.42C206.14 110.04 206.17 110.53 206.17 110.89C206.17 111.23 206.15 111.42 206.11 111.46C205.41 112.16 205.06 112.76 205.06 113.26C205.06 113.36 205.11 113.5 205.21 113.68C205.31 113.86 205.39 113.95 205.45 113.95C205.53 113.95 205.76 113.81 206.14 113.53C206.52 113.23 206.81 113.08 207.01 113.08H207.1C207.78 113.22 208.42 113.29 209.02 113.29C209.62 113.29 210.01 113.2 210.19 113.02C210.87 112.34 211.41 111.54 211.81 110.62C211.91 110.38 211.99 110.26 212.05 110.26C212.61 110.26 213.12 110.5 213.58 110.98C214.06 111.46 214.3 111.86 214.3 112.18C214.18 112.8 214.02 113.23 213.82 113.47C213.64 113.69 213.55 113.87 213.55 114.01ZM223.713 106.51L223.353 105.94C223.353 105.92 223.373 105.89 223.413 105.85C223.473 105.79 223.533 105.69 223.593 105.55C223.673 105.41 223.753 105.23 223.833 105.01C224.013 104.51 224.103 103.71 224.103 102.61C224.103 102.59 223.973 102.48 223.713 102.28C223.453 102.06 223.323 101.9 223.323 101.8C223.323 101.62 223.493 101.15 223.833 100.39L224.013 100.03C224.013 99.79 223.893 99.56 223.653 99.34C223.413 99.12 223.173 98.96 222.933 98.86L222.603 98.71C221.763 99.41 221.343 99.93 221.343 100.27L221.523 102.25C221.143 102.59 220.953 102.84 220.953 103C220.953 103.16 220.973 103.26 221.013 103.3C221.313 103.58 221.463 103.79 221.463 103.93C221.463 104.05 221.433 104.14 221.373 104.2C221.333 104.24 221.313 104.4 221.313 104.68L221.343 106C221.343 106.44 221.313 106.72 221.253 106.84C221.553 107.18 221.813 107.35 222.033 107.35C222.273 107.35 222.613 107.25 223.053 107.05C223.493 106.85 223.713 106.67 223.713 106.51ZM229.713 102.28L229.623 104.23C229.623 104.57 229.653 104.84 229.713 105.04V105.13C229.713 105.53 229.313 106.28 228.513 107.38C227.713 108.46 227.193 109 226.953 109C226.733 109 226.263 109.27 225.543 109.81C224.843 110.33 224.493 110.67 224.493 110.83C224.493 110.95 223.953 111.1 222.873 111.28C221.813 111.44 221.283 111.54 221.283 111.58C221.283 113.56 221.443 115.14 221.763 116.32L221.913 116.89C221.913 117.03 221.603 117.25 220.983 117.55C220.383 117.83 220.033 118.02 219.933 118.12C219.713 118.34 219.243 118.51 218.523 118.63C218.163 118.63 217.463 118.5 216.423 118.24C215.383 117.98 214.863 117.75 214.863 117.55C215.083 117.09 215.273 116 215.433 114.28L215.493 113.38C215.493 113.36 215.533 113.32 215.613 113.26C215.893 113.12 216.033 112.91 216.033 112.63C216.033 112.33 215.853 112.07 215.493 111.85C215.153 111.61 214.983 111.47 214.983 111.43C214.983 111.19 215.123 110.82 215.403 110.32L215.553 110.05L215.613 107.98C215.613 107.3 215.583 106.93 215.523 106.87C215.463 106.81 215.433 106.74 215.433 106.66L215.793 105.16C215.833 104.88 215.853 104.56 215.853 104.2C215.853 103.16 215.733 101.86 215.493 100.3L215.343 99.46L215.763 98.77C215.763 98.41 215.503 97.7 214.983 96.64L214.713 96.07C215.833 95.09 216.863 94.6 217.803 94.6C219.103 94.74 219.793 94.86 219.873 94.96C220.073 95.18 220.283 95.66 220.503 96.4L220.623 96.79C220.763 96.89 220.873 96.94 220.953 96.94C221.033 96.94 221.083 96.92 221.103 96.88C221.683 96.06 222.043 95.46 222.183 95.08C223.323 95.02 224.153 94.99 224.673 94.99L225.003 95.02H225.063C225.323 95.06 225.743 95.18 226.323 95.38C226.903 95.56 227.253 95.71 227.373 95.83C227.993 96.45 228.593 97.42 229.173 98.74C229.373 99.18 229.503 99.42 229.563 99.46V99.49C229.563 99.55 229.403 99.76 229.083 100.12C228.783 100.46 228.633 100.68 228.633 100.78V100.81C228.633 101.01 228.713 101.18 228.873 101.32C229.033 101.44 229.223 101.5 229.443 101.5C229.623 101.5 229.713 101.76 229.713 102.28Z" fill="black"/>
<path d="M439.55 114.01L439.64 114.58C439.64 114.86 439.47 115.38 439.13 116.14C438.81 116.88 438.62 117.29 438.56 117.37C438.34 117.57 437.83 117.67 437.03 117.67C435.51 117.67 434.12 117.59 432.86 117.43L432.17 117.34C431.83 117.34 431.54 117.46 431.3 117.7C431.06 117.92 430.7 118.03 430.22 118.03L427.52 117.85C426.52 117.85 426.02 117.73 426.02 117.49V117.43C426.12 117.09 426.17 116.55 426.17 115.81L426.02 113.29V113.26C426.02 113.16 426.21 112.97 426.59 112.69C426.97 112.41 427.16 112.16 427.16 111.94C427.16 111.72 427.07 111.51 426.89 111.31C426.71 111.11 426.43 110.95 426.05 110.83C426.01 110.71 425.99 110.59 425.99 110.47L426.17 109.27C426.21 108.99 426.23 108.73 426.23 108.49L425.96 103.69C425.96 103.63 426.04 103.54 426.2 103.42C426.5 103.2 426.65 103.01 426.65 102.85L426.5 102.19C426.38 102.07 426.23 101.97 426.05 101.89C425.75 101.79 425.6 101.69 425.6 101.59C425.6 101.47 425.71 101.13 425.93 100.57C426.17 100.01 426.29 99.66 426.29 99.52L425.78 96.88C425.78 96.72 426.21 96.33 427.07 95.71C427.93 95.07 428.64 94.75 429.2 94.75C429.78 94.75 430.51 94.82 431.39 94.96C432.29 95.1 432.74 95.24 432.74 95.38C432.74 95.62 432.66 96.26 432.5 97.3C432.36 98.32 432.24 98.86 432.14 98.92C431.66 99.16 431.42 99.42 431.42 99.7C431.42 99.96 431.57 100.23 431.87 100.51C432.19 100.77 432.35 100.94 432.35 101.02V101.05C432.19 103.27 432.11 104.8 432.11 105.64C432.11 106.46 432.12 106.94 432.14 107.08C432.18 107.2 432.28 107.35 432.44 107.53C432.62 107.71 432.71 107.85 432.71 107.95C432.71 108.05 432.6 108.26 432.38 108.58C432.18 108.88 432.08 109.16 432.08 109.42C432.14 110.04 432.17 110.53 432.17 110.89C432.17 111.23 432.15 111.42 432.11 111.46C431.41 112.16 431.06 112.76 431.06 113.26C431.06 113.36 431.11 113.5 431.21 113.68C431.31 113.86 431.39 113.95 431.45 113.95C431.53 113.95 431.76 113.81 432.14 113.53C432.52 113.23 432.81 113.08 433.01 113.08H433.1C433.78 113.22 434.42 113.29 435.02 113.29C435.62 113.29 436.01 113.2 436.19 113.02C436.87 112.34 437.41 111.54 437.81 110.62C437.91 110.38 437.99 110.26 438.05 110.26C438.61 110.26 439.12 110.5 439.58 110.98C440.06 111.46 440.3 111.86 440.3 112.18C440.18 112.8 440.02 113.23 439.82 113.47C439.64 113.69 439.55 113.87 439.55 114.01ZM449.713 106.51L449.353 105.94C449.353 105.92 449.373 105.89 449.413 105.85C449.473 105.79 449.533 105.69 449.593 105.55C449.673 105.41 449.753 105.23 449.833 105.01C450.013 104.51 450.103 103.71 450.103 102.61C450.103 102.59 449.973 102.48 449.713 102.28C449.453 102.06 449.323 101.9 449.323 101.8C449.323 101.62 449.493 101.15 449.833 100.39L450.013 100.03C450.013 99.79 449.893 99.56 449.653 99.34C449.413 99.12 449.173 98.96 448.933 98.86L448.603 98.71C447.763 99.41 447.343 99.93 447.343 100.27L447.523 102.25C447.143 102.59 446.953 102.84 446.953 103C446.953 103.16 446.973 103.26 447.013 103.3C447.313 103.58 447.463 103.79 447.463 103.93C447.463 104.05 447.433 104.14 447.373 104.2C447.333 104.24 447.313 104.4 447.313 104.68L447.343 106C447.343 106.44 447.313 106.72 447.253 106.84C447.553 107.18 447.813 107.35 448.033 107.35C448.273 107.35 448.613 107.25 449.053 107.05C449.493 106.85 449.713 106.67 449.713 106.51ZM455.713 102.28L455.623 104.23C455.623 104.57 455.653 104.84 455.713 105.04V105.13C455.713 105.53 455.313 106.28 454.513 107.38C453.713 108.46 453.193 109 452.953 109C452.733 109 452.263 109.27 451.543 109.81C450.843 110.33 450.493 110.67 450.493 110.83C450.493 110.95 449.953 111.1 448.873 111.28C447.813 111.44 447.283 111.54 447.283 111.58C447.283 113.56 447.443 115.14 447.763 116.32L447.913 116.89C447.913 117.03 447.603 117.25 446.983 117.55C446.383 117.83 446.033 118.02 445.933 118.12C445.713 118.34 445.243 118.51 444.523 118.63C444.163 118.63 443.463 118.5 442.423 118.24C441.383 117.98 440.863 117.75 440.863 117.55C441.083 117.09 441.273 116 441.433 114.28L441.493 113.38C441.493 113.36 441.533 113.32 441.613 113.26C441.893 113.12 442.033 112.91 442.033 112.63C442.033 112.33 441.853 112.07 441.493 111.85C441.153 111.61 440.983 111.47 440.983 111.43C440.983 111.19 441.123 110.82 441.403 110.32L441.553 110.05L441.613 107.98C441.613 107.3 441.583 106.93 441.523 106.87C441.463 106.81 441.433 106.74 441.433 106.66L441.793 105.16C441.833 104.88 441.853 104.56 441.853 104.2C441.853 103.16 441.733 101.86 441.493 100.3L441.343 99.46L441.763 98.77C441.763 98.41 441.503 97.7 440.983 96.64L440.713 96.07C441.833 95.09 442.863 94.6 443.803 94.6C445.103 94.74 445.793 94.86 445.873 94.96C446.073 95.18 446.283 95.66 446.503 96.4L446.623 96.79C446.763 96.89 446.873 96.94 446.953 96.94C447.033 96.94 447.083 96.92 447.103 96.88C447.683 96.06 448.043 95.46 448.183 95.08C449.323 95.02 450.153 94.99 450.673 94.99L451.003 95.02H451.063C451.323 95.06 451.743 95.18 452.323 95.38C452.903 95.56 453.253 95.71 453.373 95.83C453.993 96.45 454.593 97.42 455.173 98.74C455.373 99.18 455.503 99.42 455.563 99.46V99.49C455.563 99.55 455.403 99.76 455.083 100.12C454.783 100.46 454.633 100.68 454.633 100.78V100.81C454.633 101.01 454.713 101.18 454.873 101.32C455.033 101.44 455.223 101.5 455.443 101.5C455.623 101.5 455.713 101.76 455.713 102.28Z" fill="black"/>
<path d="M265.634 56.0648C265.323 55.764 265.158 55.428 265.136 55.0569C265.114 54.6859 265.239 54.3327 265.511 53.9974L271.868 46.1743C272.133 45.8483 272.419 45.6762 272.726 45.658C273.034 45.6399 273.338 45.777 273.639 46.0695L276.882 49.2157C277.872 50.1767 278.424 51.1947 278.536 52.2697C278.648 53.3447 278.311 54.3665 277.524 55.3351C276.737 56.3037 275.848 56.7906 274.858 56.796C273.868 56.8013 272.878 56.3235 271.887 55.3625L269.717 53.2567L267.527 55.9528C267.254 56.2881 266.948 56.4658 266.608 56.4859C266.268 56.506 265.944 56.3656 265.634 56.0648ZM272.969 53.4634C273.976 54.4411 274.862 54.4596 275.626 53.519C276.398 52.569 276.28 51.6052 275.273 50.6275L273.361 48.7723L271.057 51.6082L272.969 53.4634ZM274.266 64.2912C273.965 63.9987 273.804 63.6846 273.784 63.3488C273.764 63.0131 273.887 62.6823 274.152 62.3563L280.508 54.5331C280.773 54.2072 281.075 54.0342 281.415 54.0141C281.755 53.994 282.08 54.1343 282.39 54.4352C282.7 54.736 282.866 55.072 282.888 55.443C282.91 55.8141 282.788 56.1626 282.523 56.4886L276.78 63.5574L280.087 66.7663C280.715 67.3763 280.788 67.9793 280.303 68.5754C279.827 69.1621 279.274 69.1505 278.645 68.5405L274.266 64.2912ZM290.155 77.3352C290.088 77.5697 290.001 77.7521 289.895 77.8825C289.683 78.1433 289.403 78.2707 289.053 78.2647C288.72 78.2579 288.428 78.1332 288.179 77.8909C288.015 77.7321 287.898 77.5351 287.827 77.2999C287.764 77.0554 287.773 76.7978 287.854 76.527L288.509 74.2142L284.13 69.9649L282.106 70.949C281.869 71.0694 281.636 71.1098 281.407 71.0701C281.193 71.0296 281 70.9257 280.828 70.7586C280.578 70.5163 280.426 70.2105 280.372 69.8414C280.325 69.4629 280.408 69.1433 280.62 68.8825C280.726 68.7521 280.881 68.6365 281.086 68.5357L291.01 63.9992C291.287 63.8676 291.565 63.8378 291.845 63.9099C292.133 63.9727 292.385 64.1085 292.6 64.3174C292.824 64.5347 292.981 64.7958 293.072 65.1007C293.163 65.4056 293.174 65.7153 293.103 66.0298L290.155 77.3352ZM286.154 68.9808L289.164 71.9014L290.617 66.8152L286.154 68.9808ZM305.3 76.6654C305.584 76.9411 305.729 77.265 305.735 77.6371C305.757 78.0081 305.639 78.352 305.382 78.6686L299.014 86.5058C298.749 86.8317 298.443 87.0094 298.096 87.0388C297.764 87.0673 297.457 86.9436 297.172 86.6678C296.862 86.367 296.711 86.0036 296.718 85.5776L297.26 75.3853L292.981 80.652C292.716 80.978 292.414 81.1598 292.076 81.1976C291.753 81.2344 291.45 81.1149 291.166 80.8392C290.881 80.5634 290.733 80.2442 290.719 79.8814C290.713 79.5094 290.843 79.1604 291.108 78.8345L297.476 70.9973C297.733 70.6807 298.027 70.5081 298.358 70.4797C298.706 70.4503 299.021 70.5735 299.306 70.8492C299.624 71.1584 299.771 71.5176 299.747 71.9269L299.239 82.0773L303.496 76.8385C303.753 76.5219 304.047 76.3493 304.378 76.3209C304.717 76.2831 305.024 76.398 305.3 76.6654Z" fill="white"/>
<path d="M166.644 42.8086C166.237 42.9132 165.88 42.8753 165.571 42.6947C165.274 42.5111 165.081 42.214 164.993 41.8034L163.075 32.8995L160.251 33.6259C159.391 33.847 158.88 33.5822 158.718 32.8315C158.559 32.0924 158.91 31.6123 159.77 31.3911L168.137 29.239C168.997 29.0179 169.507 29.2768 169.666 30.0159C169.828 30.7666 169.479 31.2526 168.619 31.4738L165.795 32.2001L167.712 41.104C167.8 41.5146 167.749 41.8744 167.558 42.1836C167.367 42.4927 167.062 42.701 166.644 42.8086ZM174.651 40.768C174.232 40.8756 173.875 40.8376 173.577 40.654C173.28 40.4705 173.086 40.1675 172.995 39.7452L170.869 29.8735C170.781 29.4629 170.832 29.1031 171.023 28.794C171.214 28.4848 171.519 28.2765 171.937 28.1689C172.356 28.0613 172.714 28.0993 173.011 28.2828C173.308 28.4664 173.5 28.7635 173.589 29.1741L175.715 39.0458C175.806 39.4681 175.756 39.8338 175.565 40.1429C175.374 40.4521 175.069 40.6604 174.651 40.768ZM186.649 24.3853C187.032 24.2867 187.368 24.3365 187.656 24.5348C187.953 24.7184 188.145 25.0096 188.231 25.4085L190.383 35.4033C190.466 35.7904 190.422 36.1239 190.249 36.4035C190.076 36.6832 189.81 36.8694 189.449 36.962C189.101 37.0517 188.792 37.0135 188.523 36.8474C188.254 36.6813 188.078 36.4047 187.995 36.0176L186.657 29.806L185.193 35.1409C185.096 35.4877 184.964 35.757 184.797 35.9486C184.641 36.1371 184.43 36.2658 184.163 36.3346C183.907 36.4003 183.665 36.3882 183.437 36.2983C183.209 36.2083 182.981 36.0317 182.753 35.7686L179.285 31.7949L180.603 37.9185C180.684 38.2939 180.639 38.6273 180.469 38.9187C180.296 39.1984 180.03 39.3846 179.67 39.4772C179.321 39.5669 179.012 39.5287 178.743 39.3626C178.475 39.1965 178.298 38.9199 178.215 38.5328L176.063 28.5379C175.977 28.1391 176.023 27.7866 176.203 27.4804C176.391 27.1596 176.677 26.9498 177.061 26.8512C177.619 26.7077 178.107 26.8978 178.527 27.4213L183.524 33.2859L185.587 25.6055C185.772 24.9266 186.126 24.5198 186.649 24.3853ZM194.374 35.5841C193.967 35.6887 193.629 35.6579 193.361 35.4918C193.092 35.3257 192.913 35.0374 192.825 34.6268L190.706 24.7903C190.618 24.3797 190.66 24.0346 190.833 23.7549C191.006 23.4753 191.295 23.2831 191.702 23.1785L197.873 21.5914C198.733 21.3702 199.239 21.6115 199.391 22.3154C199.545 23.031 199.192 23.4994 198.332 23.7205L193.538 24.9535L194.163 27.8569L198.609 26.7136C199.469 26.4925 199.976 26.7397 200.13 27.4553C200.281 28.1591 199.927 28.6216 199.067 28.8428L194.622 29.9861L195.293 33.1007L200.087 31.8678C200.947 31.6466 201.454 31.8938 201.608 32.6094C201.759 33.3132 201.405 33.7758 200.545 33.9969L194.374 35.5841Z" fill="white"/>
<path d="M128.719 112.832C128.554 113.072 128.368 113.235 128.161 113.321C127.885 113.435 127.618 113.412 127.361 113.254C127.106 113.105 126.927 112.88 126.823 112.577C126.756 112.386 126.736 112.181 126.762 111.963C126.789 111.745 126.874 111.536 127.02 111.338L129.229 108.146C129.426 107.869 129.546 107.612 129.588 107.376C129.641 107.135 129.616 106.869 129.515 106.577L129.092 105.352L126.104 106.584C125.749 106.731 125.432 106.741 125.152 106.614C124.875 106.498 124.675 106.264 124.554 105.911C124.428 105.548 124.432 105.218 124.566 104.921C124.7 104.624 124.945 104.402 125.3 104.255L133.583 100.838C133.928 100.696 134.227 100.682 134.481 100.796C134.734 100.91 134.922 101.144 135.044 101.497L136.355 105.293C136.787 106.543 136.841 107.598 136.518 108.456C136.209 109.321 135.546 109.963 134.531 110.382C133.732 110.712 132.988 110.759 132.299 110.525C131.61 110.291 131.038 109.796 130.585 109.038C130.63 109.365 130.604 109.681 130.507 109.986C130.423 110.297 130.257 110.631 130.008 110.987L128.719 112.832ZM131.605 106.855C131.839 107.53 132.121 107.972 132.452 108.181C132.793 108.386 133.21 108.387 133.704 108.184C134.206 107.976 134.519 107.674 134.641 107.278C134.764 106.882 134.708 106.347 134.475 105.671L133.696 103.418L130.827 104.601L131.605 106.855ZM128.279 116.402C128.157 116.05 128.157 115.739 128.278 115.47C128.399 115.201 128.632 114.995 128.978 114.853L137.246 111.442C137.591 111.3 137.89 111.286 138.144 111.4C138.397 111.514 138.585 111.748 138.707 112.101L140.556 117.454C140.814 118.2 140.647 118.696 140.055 118.94C139.454 119.188 139.024 118.939 138.766 118.193L137.33 114.034L134.889 115.041L136.221 118.897C136.479 119.643 136.307 120.14 135.706 120.388C135.114 120.632 134.689 120.381 134.432 119.635L133.1 115.779L130.482 116.859L131.918 121.018C132.176 121.764 132.004 122.261 131.403 122.509C130.811 122.753 130.386 122.502 130.129 121.756L128.279 116.402ZM135.781 133.472C135.631 133.626 135.487 133.731 135.349 133.788C135.073 133.902 134.797 133.883 134.519 133.733C134.255 133.588 134.073 133.37 133.972 133.078C133.906 132.886 133.892 132.684 133.932 132.472C133.981 132.256 134.093 132.06 134.269 131.884L135.738 130.362L133.967 125.235L131.944 125.154C131.706 125.149 131.503 125.083 131.335 124.956C131.181 124.835 131.069 124.674 130.999 124.473C130.898 124.18 130.901 123.879 131.009 123.57C131.126 123.257 131.322 123.043 131.598 122.929C131.737 122.873 131.908 122.848 132.114 122.855L141.911 123.479C142.185 123.492 142.42 123.585 142.615 123.758C142.82 123.927 142.966 124.138 143.053 124.39C143.144 124.652 143.163 124.92 143.112 125.195C143.06 125.47 142.942 125.714 142.757 125.929L135.781 133.472ZM135.989 125.317L137.206 128.841L140.446 125.5L135.989 125.317ZM135.248 136.576C135.126 136.224 135.126 135.913 135.247 135.644C135.368 135.375 135.601 135.169 135.946 135.027L144.229 131.61C144.574 131.468 144.887 131.46 145.167 131.586C145.448 131.712 145.65 131.957 145.776 132.32C145.901 132.683 145.897 133.013 145.763 133.31C145.629 133.607 145.389 133.827 145.044 133.969L137.56 137.057L138.898 140.928C139.152 141.664 138.963 142.162 138.332 142.423C137.711 142.679 137.273 142.439 137.019 141.703L135.248 136.576ZM140.455 151.893C140.333 151.54 140.337 151.21 140.467 150.903C140.601 150.606 140.841 150.386 141.186 150.244L148.67 147.156L147.824 144.706C147.566 143.96 147.753 143.457 148.384 143.197C149.005 142.94 149.445 143.185 149.702 143.931L152.21 151.19C152.468 151.936 152.286 152.438 151.665 152.694C151.034 152.954 150.589 152.711 150.331 151.965L149.485 149.515L142.001 152.603C141.656 152.745 141.343 152.753 141.063 152.627C140.783 152.501 140.58 152.256 140.455 151.893ZM142.838 158.842C142.713 158.479 142.717 158.149 142.851 157.852C142.985 157.554 143.229 157.333 143.584 157.186L151.882 153.763C152.227 153.621 152.54 153.613 152.82 153.739C153.1 153.865 153.303 154.11 153.428 154.473C153.554 154.836 153.549 155.166 153.415 155.463C153.281 155.76 153.042 155.98 152.697 156.122L144.399 159.545C144.044 159.692 143.727 159.702 143.446 159.576C143.166 159.449 142.963 159.205 142.838 158.842ZM157.837 167.235C157.952 167.568 157.936 167.88 157.788 168.171C157.654 168.468 157.42 168.686 157.085 168.824L148.683 172.29C148.358 172.424 148.068 172.434 147.815 172.32C147.561 172.206 147.381 171.992 147.273 171.68C147.168 171.377 147.177 171.092 147.298 170.823C147.419 170.554 147.642 170.352 147.968 170.218L153.189 168.064L148.498 167.546C148.193 167.511 147.951 167.432 147.774 167.309C147.6 167.196 147.473 167.024 147.393 166.792C147.316 166.571 147.307 166.35 147.366 166.129C147.425 165.909 147.559 165.676 147.766 165.429L150.9 161.683L145.753 163.806C145.437 163.936 145.148 163.946 144.884 163.836C144.631 163.722 144.45 163.508 144.342 163.196C144.237 162.893 144.246 162.608 144.367 162.339C144.488 162.07 144.711 161.868 145.037 161.734L153.438 158.268C153.773 158.13 154.079 158.119 154.356 158.235C154.646 158.357 154.849 158.585 154.964 158.918C155.131 159.402 155.006 159.873 154.591 160.333L149.957 165.752L156.706 166.458C157.303 166.522 157.68 166.782 157.837 167.235ZM148.844 175.935C148.722 175.582 148.722 175.271 148.843 175.002C148.964 174.734 149.197 174.528 149.542 174.386L157.81 170.975C158.156 170.832 158.455 170.818 158.708 170.933C158.962 171.047 159.15 171.28 159.272 171.633L161.121 176.987C161.379 177.733 161.212 178.228 160.62 178.472C160.019 178.72 159.589 178.471 159.331 177.725L157.895 173.566L155.454 174.573L156.786 178.43C157.044 179.176 156.872 179.673 156.271 179.921C155.679 180.165 155.254 179.914 154.997 179.168L153.664 175.311L151.046 176.391L152.483 180.55C152.741 181.296 152.569 181.793 151.967 182.042C151.376 182.286 150.951 182.035 150.693 181.289L148.844 175.935Z" fill="white"/>
<path d="M319.763 129.675C319.99 129.763 320.177 129.887 320.323 130.046C320.591 130.337 320.709 130.705 320.678 131.147C320.654 131.581 320.505 131.949 320.231 132.25C320.045 132.455 319.826 132.588 319.575 132.65C319.324 132.713 319.057 132.687 318.773 132.573L316.997 131.833L313.07 136.144L313.743 138.095C313.849 138.405 313.87 138.701 313.806 138.985C313.75 139.259 313.629 139.498 313.443 139.702C313.168 140.004 312.824 140.177 312.411 140.223C312.006 140.259 311.67 140.131 311.402 139.84C311.255 139.681 311.142 139.478 311.06 139.23L307.657 128.535C307.543 128.181 307.53 127.831 307.618 127.486C307.707 127.122 307.876 126.803 308.127 126.528C308.369 126.262 308.656 126.08 308.988 125.982C309.312 125.875 309.636 125.883 309.96 126.006L319.763 129.675ZM312.14 133.491L314.565 130.829L310.636 129.205L312.14 133.491ZM325.963 126.117C324.726 127.475 323.468 128.164 322.188 128.184C320.916 128.196 319.671 127.539 318.453 126.214L314.518 121.934C314.185 121.572 314.018 121.178 314.017 120.753C314.016 120.311 314.181 119.908 314.513 119.544C314.844 119.18 315.208 119.002 315.605 119.01C316.002 119 316.367 119.177 316.7 119.539L320.72 123.912C321.337 124.583 321.95 124.949 322.558 125.01C323.165 125.07 323.728 124.817 324.245 124.249C324.762 123.681 324.991 123.065 324.933 122.402C324.875 121.738 324.537 121.07 323.92 120.399L319.9 116.026C319.567 115.664 319.4 115.27 319.399 114.845C319.398 114.402 319.563 113.999 319.895 113.635C320.226 113.272 320.594 113.089 320.999 113.089C321.396 113.079 321.761 113.255 322.094 113.617L326.029 117.897C327.239 119.214 327.837 120.58 327.824 121.997C327.811 123.395 327.191 124.769 325.963 126.117ZM334.267 116.894C333.927 117.267 333.555 117.462 333.15 117.481C332.745 117.482 332.376 117.301 332.043 116.939L326.305 110.698L324.596 112.574C324.241 112.964 323.901 113.178 323.577 113.214C323.253 113.232 322.937 113.074 322.628 112.738C322.319 112.402 322.177 112.062 322.2 111.716C322.232 111.362 322.426 110.99 322.781 110.6L328.454 104.372C328.809 103.982 329.145 103.773 329.461 103.745C329.785 103.709 330.101 103.859 330.41 104.195C330.718 104.531 330.861 104.88 330.837 105.243C330.814 105.588 330.624 105.956 330.269 106.346L328.56 108.223L334.298 114.464C334.631 114.826 334.793 115.233 334.786 115.685C334.779 116.118 334.606 116.522 334.267 116.894ZM342.506 107.955C341.634 108.913 340.696 109.552 339.692 109.873C338.688 110.177 337.683 110.161 336.678 109.827C335.665 109.484 334.711 108.827 333.818 107.855C332.925 106.883 332.323 105.849 332.012 104.752C331.694 103.646 331.675 102.548 331.956 101.459C332.245 100.36 332.826 99.332 333.699 98.3739C334.572 97.4158 335.506 96.7807 336.502 96.4686C337.505 96.1476 338.51 96.163 339.515 96.5148C340.521 96.8489 341.47 97.5018 342.363 98.4736C343.257 99.4454 343.863 100.484 344.181 101.59C344.491 102.687 344.506 103.789 344.225 104.897C343.944 105.986 343.371 107.005 342.506 107.955ZM340.789 106.086C341.435 105.377 341.713 104.575 341.622 103.681C341.522 102.778 341.034 101.85 340.157 100.895C339.28 99.9414 338.428 99.421 337.602 99.3344C336.783 99.2389 336.055 99.5415 335.417 100.242C334.77 100.952 334.492 101.754 334.584 102.648C334.667 103.533 335.151 104.457 336.036 105.42C336.921 106.383 337.773 106.912 338.592 107.008C339.41 107.103 340.142 106.796 340.789 106.086ZM346.922 83.9635C347.229 83.6264 347.581 83.4618 347.978 83.4697C348.375 83.4777 348.736 83.6583 349.061 84.0117L355.688 91.2204C355.996 91.5561 356.151 91.9188 356.152 92.3083C356.153 92.6978 356.008 93.0523 355.717 93.3716C355.434 93.6821 355.111 93.8422 354.746 93.8519C354.39 93.8527 354.057 93.6853 353.748 93.3496L350.167 89.4537L351.343 93.7535C351.466 94.187 351.507 94.5499 351.467 94.8421C351.419 95.1255 351.29 95.3825 351.08 95.6132C350.87 95.8438 350.636 95.986 350.376 96.0397C350.109 96.0846 349.777 96.0411 349.38 95.9092L345.525 94.7096L349.033 98.526C349.334 98.8529 349.485 99.22 349.485 99.6272C349.486 100.017 349.341 100.371 349.05 100.691C348.768 101.001 348.444 101.161 348.079 101.171C347.723 101.172 347.39 101.004 347.082 100.668L340.455 93.4597C340.13 93.1064 339.963 92.7128 339.954 92.279C339.953 91.8364 340.106 91.4465 340.413 91.1094C340.631 90.8699 340.894 90.7232 341.202 90.6694C341.501 90.6067 341.83 90.6369 342.186 90.7601L348.632 92.8965L346.635 85.8764C346.398 85.0713 346.494 84.4337 346.922 83.9635ZM364.992 80.0206C365.219 80.1086 365.406 80.2321 365.552 80.3912C365.82 80.6827 365.938 81.0498 365.907 81.4925C365.884 81.9264 365.735 82.2941 365.46 82.5957C365.274 82.7998 365.056 82.9331 364.805 82.9956C364.554 83.0582 364.286 83.0322 364.002 82.9178L362.227 82.1782L358.299 86.4897L358.972 88.4402C359.078 88.7498 359.099 89.0464 359.035 89.3298C358.979 89.6044 358.858 89.8437 358.672 90.0477C358.397 90.3493 358.053 90.5228 357.64 90.568C357.235 90.6043 356.899 90.4767 356.631 90.1852C356.485 90.0262 356.371 89.8228 356.289 89.5751L352.887 78.8798C352.772 78.5259 352.759 78.1763 352.848 77.8308C352.936 77.4676 353.105 77.1486 353.356 76.8735C353.598 76.6074 353.885 76.4253 354.217 76.3271C354.541 76.2201 354.865 76.2283 355.19 76.3514L364.992 80.0206ZM357.37 83.836L359.794 81.1746L355.865 79.5502L357.37 83.836ZM369.411 78.3115C369.071 78.6841 368.699 78.8797 368.294 78.8983C367.889 78.8993 367.52 78.7186 367.187 78.3564L361.449 72.115L359.74 73.9913C359.385 74.3816 359.045 74.5949 358.721 74.631C358.397 74.6495 358.081 74.4909 357.772 74.1552C357.464 73.8195 357.321 73.479 357.344 73.1336C357.376 72.7795 357.57 72.4072 357.925 72.0168L363.598 65.7891C363.953 65.3988 364.289 65.19 364.605 65.1627C364.929 65.1265 365.245 65.2763 365.554 65.612C365.862 65.9477 366.005 66.2971 365.982 66.6601C365.958 67.0054 365.769 67.3732 365.413 67.7636L363.704 69.6399L369.442 75.8813C369.775 76.2435 369.938 76.6504 369.93 77.1019C369.923 77.5357 369.75 77.9389 369.411 78.3115ZM374.984 72.0596C374.653 72.4233 374.309 72.6056 373.953 72.6064C373.596 72.6072 373.251 72.4265 372.918 72.0643L366.401 64.9748C366.068 64.6126 365.901 64.2368 365.9 63.8472C365.899 63.4577 366.065 63.0811 366.396 62.7174L370.59 58.1131C370.937 57.7316 371.273 57.5228 371.597 57.4867C371.921 57.4505 372.221 57.5826 372.497 57.883C373.082 58.5191 373.023 59.223 372.32 59.9948L369.265 63.3482L370.897 65.1239L373.71 62.0366C374.413 61.2648 375.052 61.1925 375.629 61.8198C375.905 62.1201 376.027 62.4474 375.996 62.8016C375.964 63.1558 375.775 63.5236 375.427 63.9051L372.615 66.9923L374.394 68.927L377.448 65.5736C378.151 64.8018 378.795 64.734 379.38 65.37C379.656 65.6704 379.778 65.9977 379.747 66.3519C379.715 66.706 379.526 67.0739 379.178 67.4553L374.984 72.0596Z" fill="white"/>
<path d="M217.271 197.805C216.815 198.021 216.399 198.06 216.022 197.921C215.651 197.766 215.372 197.454 215.186 196.985L211.628 188.037C211.446 187.579 211.426 187.172 211.567 186.813C211.708 186.454 212.001 186.17 212.445 185.959L216.608 183.982C217.876 183.38 218.996 183.246 219.966 183.581C220.932 183.904 221.65 184.657 222.12 185.839C222.586 187.01 222.594 188.1 222.144 189.109C221.706 190.112 220.858 190.912 219.6 191.509L217.047 192.721L218.178 195.565C218.364 196.033 218.377 196.471 218.217 196.879C218.052 197.275 217.737 197.584 217.271 197.805ZM218.276 189.394C218.829 189.132 219.189 188.822 219.356 188.464C219.534 188.101 219.525 187.674 219.33 187.184C218.945 186.214 218.21 185.986 217.126 186.5L214.979 187.519L216.13 190.413L218.276 189.394ZM235.62 186.648C235.935 186.856 236.145 187.094 236.252 187.362C236.394 187.719 236.367 188.089 236.172 188.474C235.983 188.842 235.699 189.116 235.32 189.296C235.059 189.419 234.791 189.474 234.515 189.459C234.238 189.445 233.97 189.353 233.71 189.185L230.333 187.011C230.092 186.86 229.865 186.775 229.652 186.757C229.445 186.723 229.228 186.76 229 186.868L227.943 187.37L229.133 190.364C229.32 190.832 229.338 191.267 229.189 191.67C229.035 192.061 228.73 192.365 228.275 192.581C227.82 192.797 227.403 192.835 227.026 192.696C226.655 192.541 226.376 192.229 226.19 191.761L222.633 182.812C222.451 182.355 222.431 181.947 222.572 181.589C222.712 181.23 223.005 180.945 223.45 180.734L227.531 178.797C228.919 178.138 230.083 177.956 231.025 178.251C231.974 178.53 232.681 179.255 233.146 180.426C233.501 181.318 233.564 182.189 233.335 183.04C233.102 183.88 232.594 184.612 231.811 185.235C232.191 185.121 232.549 185.097 232.884 185.163C233.23 185.224 233.609 185.382 234.02 185.638L235.62 186.648ZM229.074 184.089C229.736 183.775 230.165 183.445 230.363 183.099C230.571 182.748 230.58 182.333 230.389 181.854C230.194 181.363 229.908 181.081 229.531 181.008C229.161 180.919 228.645 181.032 227.984 181.346L225.902 182.334L226.993 185.077L229.074 184.089ZM239.634 187.069C239.19 187.28 238.8 187.319 238.464 187.187C238.128 187.055 237.869 186.76 237.687 186.303L234.129 177.354C233.948 176.897 233.927 176.489 234.068 176.131C234.209 175.772 234.502 175.487 234.946 175.276L240.572 172.605C241.039 172.384 241.431 172.317 241.749 172.404C242.067 172.492 242.302 172.725 242.453 173.104C242.772 173.907 242.46 174.533 241.517 174.98L237.419 176.926L238.31 179.167L242.083 177.376C243.026 176.928 243.655 177.1 243.969 177.892C244.12 178.271 244.116 178.618 243.957 178.932C243.799 179.246 243.486 179.513 243.02 179.735L239.248 181.526L240.219 183.968L244.316 182.022C245.259 181.575 245.89 181.752 246.21 182.555C246.36 182.934 246.356 183.281 246.198 183.595C246.039 183.909 245.727 184.176 245.26 184.397L239.634 187.069ZM249.337 182.462C248.892 182.673 248.502 182.713 248.166 182.581C247.83 182.449 247.571 182.154 247.389 181.697L243.832 172.748C243.65 172.291 243.63 171.883 243.771 171.524C243.912 171.166 244.204 170.881 244.649 170.67L247.933 169.111C249.202 168.508 250.386 168.231 251.488 168.278C252.595 168.309 253.568 168.649 254.406 169.298C255.244 169.948 255.905 170.88 256.388 172.096C256.876 173.322 257.053 174.498 256.92 175.621C256.793 176.729 256.362 177.735 255.627 178.641C254.902 179.542 253.9 180.296 252.621 180.903L249.337 182.462ZM251.426 178.528C252.542 177.998 253.266 177.323 253.597 176.503C253.935 175.666 253.873 174.668 253.412 173.508C252.951 172.349 252.328 171.624 251.543 171.334C250.768 171.039 249.823 171.156 248.706 171.686L247.243 172.381L249.962 179.222L251.426 178.528ZM262.051 176.546C261.595 176.762 261.179 176.8 260.802 176.661C260.431 176.506 260.152 176.194 259.966 175.726L256.408 166.777C256.227 166.32 256.213 165.896 256.366 165.505C256.526 165.097 256.834 164.785 257.29 164.569C257.756 164.348 258.18 164.312 258.561 164.462C258.939 164.601 259.218 164.9 259.4 165.357L262.958 174.305C263.144 174.774 263.157 175.212 262.997 175.619C262.832 176.015 262.517 176.324 262.051 176.546ZM271.087 172.315C269.938 172.86 268.833 173.094 267.77 173.015C266.719 172.931 265.773 172.545 264.932 171.857C264.103 171.164 263.444 170.204 262.957 168.977C262.473 167.762 262.283 166.586 262.386 165.45C262.499 164.31 262.887 163.291 263.548 162.393C264.22 161.491 265.131 160.767 266.28 160.222C267.656 159.568 269.014 159.368 270.351 159.621C270.589 159.667 270.777 159.75 270.915 159.87C271.063 159.985 271.186 160.165 271.284 160.411C271.421 160.756 271.441 161.098 271.344 161.436C271.253 161.758 271.071 161.983 270.8 162.112C270.638 162.189 270.483 162.236 270.335 162.253C270.183 162.259 269.998 162.248 269.78 162.218C269.307 162.164 268.883 162.167 268.507 162.226C268.131 162.285 267.764 162.4 267.407 162.57C266.442 163.028 265.841 163.671 265.603 164.5C265.372 165.312 265.498 166.326 265.981 167.541C266.469 168.768 267.065 169.572 267.771 169.953C268.483 170.317 269.321 170.27 270.286 169.812C270.611 169.658 270.905 169.459 271.169 169.214C271.428 168.958 271.752 168.606 272.14 168.156C272.319 167.926 272.454 167.762 272.545 167.666C272.635 167.57 272.757 167.486 272.908 167.414C273.179 167.285 273.456 167.3 273.738 167.458C274.026 167.599 274.239 167.843 274.376 168.189C274.469 168.423 274.506 168.644 274.485 168.853C274.472 169.045 274.399 169.251 274.268 169.473C273.524 170.714 272.464 171.661 271.087 172.315ZM280.589 167.725C280.134 167.941 279.712 167.982 279.324 167.848C278.942 167.698 278.66 167.394 278.478 166.937L275.346 159.059L273.054 160.147C272.577 160.374 272.179 160.443 271.861 160.356C271.549 160.252 271.309 159.988 271.14 159.564C270.972 159.141 270.961 158.774 271.109 158.466C271.268 158.152 271.586 157.881 272.063 157.655L279.673 154.042C280.15 153.816 280.542 153.749 280.849 153.841C281.168 153.929 281.411 154.185 281.579 154.608C281.748 155.032 281.755 155.406 281.601 155.732C281.453 156.04 281.141 156.308 280.664 156.534L278.371 157.623L281.503 165.501C281.685 165.958 281.69 166.393 281.519 166.806C281.354 167.202 281.044 167.508 280.589 167.725Z" fill="white"/>
<path d="M424.11 39.0396C423.606 39.0323 423.2 38.8824 422.891 38.5899C422.595 38.2856 422.45 37.8874 422.456 37.3954L422.559 28.9181L420.021 28.8812C419.493 28.8735 419.099 28.7598 418.837 28.54C418.588 28.3083 418.466 27.9645 418.472 27.5085C418.477 27.0526 418.607 26.7184 418.862 26.5061C419.129 26.294 419.526 26.1917 420.054 26.1994L428.477 26.3218C429.005 26.3295 429.393 26.4431 429.643 26.6628C429.904 26.8826 430.032 27.2205 430.027 27.6764C430.021 28.1324 429.885 28.4725 429.618 28.6966C429.363 28.9089 428.972 29.0113 428.444 29.0036L425.907 28.9667L425.803 37.4441C425.797 37.936 425.637 38.3298 425.321 38.6252C425.017 38.9088 424.614 39.047 424.11 39.0396ZM441.646 37.0982C441.858 37.4253 441.962 37.7329 441.959 38.0208C441.954 38.4048 441.788 38.7264 441.461 38.9857C441.146 39.2332 440.778 39.3538 440.358 39.3477C440.07 39.3435 439.801 39.2736 439.551 39.138C439.3 39.0023 439.087 38.8012 438.91 38.5346L436.612 35.0809C436.447 34.8384 436.269 34.6618 436.078 34.5511C435.9 34.4285 435.685 34.3653 435.433 34.3617L434.263 34.3447L434.224 37.5664C434.217 38.0704 434.069 38.4703 433.777 38.7661C433.485 39.0499 433.088 39.1881 432.584 39.1808C432.08 39.1734 431.68 39.0236 431.383 38.7313C431.099 38.4271 430.96 38.0231 430.966 37.5191L431.083 27.8898C431.089 27.3978 431.226 27.0218 431.493 26.7616C431.76 26.5015 432.14 26.375 432.631 26.3821L437.149 26.4478C438.685 26.4701 439.833 26.8228 440.592 27.5059C441.364 28.1772 441.743 29.1428 441.727 30.4027C441.716 31.3626 441.442 32.1747 440.906 32.839C440.37 33.4913 439.62 33.9245 438.658 34.1385C439.053 34.2042 439.393 34.3412 439.679 34.5494C439.976 34.7577 440.266 35.068 440.549 35.4801L441.646 37.0982ZM436.561 31.8938C437.293 31.9044 437.816 31.798 438.131 31.5746C438.457 31.3513 438.624 30.9817 438.63 30.4657C438.637 29.9378 438.479 29.5574 438.158 29.3247C437.849 29.0802 437.329 28.9526 436.597 28.942L434.293 28.9085L434.257 31.8603L436.561 31.8938ZM445.309 39.3657C444.805 39.3583 444.405 39.2085 444.108 38.9162C443.824 38.612 443.685 38.2079 443.691 37.704L443.808 28.0747C443.814 27.5827 443.963 27.1949 444.254 26.9111C444.558 26.6154 444.962 26.4713 445.466 26.4786C445.982 26.4861 446.388 26.642 446.684 26.9464C446.981 27.2387 447.126 27.6308 447.12 28.1228L447.003 37.7521C446.997 38.2561 446.842 38.6559 446.538 38.9515C446.235 39.2351 445.825 39.3732 445.309 39.3657ZM459.301 32.2962C459.697 32.302 460.008 32.4205 460.233 32.6518C460.471 32.8713 460.587 33.167 460.582 33.5389L460.544 36.6707C460.537 37.2707 460.483 37.7319 460.383 38.0545C460.296 38.3653 460.131 38.6089 459.889 38.7854C459.658 38.9621 459.308 39.113 458.839 39.2382C458.37 39.3514 457.846 39.4338 457.27 39.4854C456.705 39.5492 456.177 39.5776 455.685 39.5704C454.305 39.5504 453.108 39.275 452.094 38.7442C451.093 38.2016 450.328 37.4404 449.8 36.4606C449.272 35.4688 449.016 34.301 449.033 32.9571C449.049 31.6372 449.333 30.4952 449.884 29.5311C450.436 28.555 451.213 27.8102 452.216 27.2968C453.218 26.7833 454.385 26.5362 455.717 26.5555C456.557 26.5677 457.306 26.6806 457.963 26.8942C458.633 27.096 459.253 27.405 459.824 27.8213C460.026 27.9683 460.168 28.1264 460.25 28.2956C460.344 28.465 460.389 28.6816 460.386 28.9456C460.382 29.3176 460.276 29.6341 460.069 29.8951C459.862 30.1441 459.614 30.2665 459.326 30.2624C459.134 30.2596 458.966 30.2331 458.823 30.183C458.692 30.1211 458.519 30.0226 458.305 29.8875C457.864 29.641 457.446 29.461 457.051 29.3472C456.668 29.2336 456.249 29.1735 455.793 29.1669C454.653 29.1504 453.798 29.456 453.226 30.0837C452.666 30.7117 452.378 31.6856 452.362 33.0055C452.346 34.3614 452.622 35.3735 453.189 36.0418C453.769 36.6983 454.659 37.0353 455.859 37.0527C456.435 37.0611 457.006 37.0093 457.571 36.8975L457.6 34.5397L456.304 34.5209C455.908 34.5151 455.603 34.4147 455.39 34.2196C455.176 34.0125 455.072 33.7289 455.076 33.3689C455.08 33.009 455.192 32.7346 455.41 32.5457C455.629 32.3449 455.936 32.2473 456.332 32.2531L459.301 32.2962ZM472.695 32.4908C473.09 32.4966 473.401 32.6151 473.626 32.8464C473.864 33.0658 473.98 33.3616 473.976 33.7335L473.937 36.8653C473.93 37.4653 473.876 37.9265 473.777 38.2491C473.689 38.5599 473.524 38.8035 473.282 38.98C473.051 39.1567 472.702 39.3076 472.232 39.4328C471.763 39.546 471.24 39.6284 470.663 39.68C470.098 39.7438 469.57 39.7722 469.078 39.765C467.698 39.745 466.501 39.4695 465.488 38.9388C464.486 38.3962 463.721 37.635 463.193 36.6552C462.665 35.6634 462.409 34.4956 462.426 33.1517C462.442 31.8318 462.726 30.6898 463.278 29.7257C463.829 28.7496 464.607 28.0048 465.609 27.4914C466.611 26.9779 467.778 26.7308 469.11 26.7501C469.95 26.7623 470.699 26.8752 471.356 27.0888C472.026 27.2906 472.646 27.5996 473.217 28.0159C473.419 28.1629 473.561 28.321 473.643 28.4902C473.737 28.6596 473.783 28.8762 473.779 29.1402C473.775 29.5122 473.669 29.8287 473.462 30.0897C473.255 30.3387 473.007 30.4611 472.719 30.457C472.527 30.4542 472.36 30.4277 472.216 30.3776C472.085 30.3157 471.912 30.2172 471.698 30.0821C471.257 29.8356 470.839 29.6556 470.444 29.5418C470.062 29.4282 469.642 29.3681 469.186 29.3615C468.046 29.345 467.191 29.6506 466.619 30.2783C466.059 30.9062 465.771 31.8802 465.755 33.2001C465.739 34.556 466.015 35.5681 466.583 36.2364C467.163 36.8929 468.053 37.2299 469.252 37.2473C469.828 37.2557 470.399 37.2039 470.964 37.0921L470.993 34.7343L469.697 34.7155C469.301 34.7097 468.997 34.6093 468.783 34.4142C468.569 34.2071 468.465 33.9235 468.469 33.5635C468.474 33.2036 468.585 32.9291 468.803 32.7403C469.022 32.5395 469.329 32.4419 469.725 32.4477L472.695 32.4908ZM477.595 39.7267C477.103 39.7196 476.727 39.5821 476.466 39.3143C476.206 39.0465 476.078 38.6666 476.084 38.1746L476.201 28.5453C476.207 28.0534 476.344 27.6773 476.611 27.4172C476.878 27.157 477.258 27.0305 477.75 27.0377L483.977 27.1282C484.493 27.1357 484.882 27.2493 485.143 27.4691C485.404 27.689 485.533 28.0029 485.528 28.4108C485.517 29.2748 484.99 29.6991 483.946 29.684L479.41 29.6181L479.381 32.0299L483.557 32.0906C484.601 32.1057 485.117 32.5393 485.107 33.3912C485.102 33.7992 484.966 34.1093 484.7 34.3214C484.433 34.5336 484.042 34.6359 483.526 34.6284L479.35 34.5677L479.318 37.1955L483.854 37.2614C484.898 37.2766 485.414 37.7161 485.404 38.5801C485.399 38.988 485.263 39.2981 484.997 39.5102C484.73 39.7224 484.339 39.8247 483.823 39.8172L477.595 39.7267ZM497.503 37.9098C497.715 38.2369 497.819 38.5444 497.816 38.8324C497.811 39.2164 497.645 39.538 497.318 39.7973C497.003 40.0447 496.636 40.1654 496.216 40.1593C495.928 40.1551 495.659 40.0852 495.408 39.9496C495.158 39.8139 494.944 39.6128 494.767 39.3462L492.469 35.8924C492.304 35.65 492.126 35.4734 491.936 35.3626C491.757 35.24 491.542 35.1769 491.29 35.1732L490.12 35.1562L490.081 38.378C490.075 38.882 489.926 39.2818 489.634 39.5776C489.343 39.8614 488.945 39.9997 488.441 39.9923C487.937 39.985 487.537 39.8352 487.241 39.5429C486.956 39.2387 486.817 38.8346 486.823 38.3307L486.94 28.7014C486.946 28.2094 487.083 27.8334 487.35 27.5732C487.617 27.3131 487.997 27.1866 488.489 27.1937L493.006 27.2594C494.542 27.2817 495.69 27.6344 496.45 28.3175C497.222 28.9888 497.6 29.9544 497.585 31.2143C497.573 32.1742 497.299 32.9863 496.763 33.6506C496.227 34.3029 495.478 34.736 494.515 34.9501C494.91 35.0158 495.251 35.1528 495.536 35.3609C495.834 35.5693 496.124 35.8795 496.407 36.2917L497.503 37.9098ZM492.418 32.7054C493.15 32.716 493.673 32.6096 493.988 32.3861C494.315 32.1629 494.481 31.7932 494.488 31.2773C494.494 30.7493 494.337 30.369 494.015 30.1363C493.706 29.8918 493.186 29.7642 492.454 29.7536L490.15 29.7201L490.114 32.6719L492.418 32.7054Z" fill="white"/>
<path d="M523.208 92.8383C522.968 92.908 522.741 92.9252 522.528 92.8898C522.138 92.8251 521.829 92.6097 521.601 92.2436C521.371 91.8894 521.285 91.5103 521.341 91.1061C521.379 90.8328 521.485 90.5949 521.658 90.3926C521.831 90.1904 522.069 90.0474 522.371 89.9638L524.276 89.4588L525.078 83.6822L523.399 82.5647C523.133 82.3869 522.945 82.1673 522.836 81.906C522.725 81.6567 522.689 81.3953 522.727 81.1219C522.783 80.7178 522.97 80.3719 523.289 80.0842C523.606 79.8084 523.96 79.7029 524.35 79.7677C524.563 79.803 524.775 79.8928 524.985 80.0371L533.956 86.3397C534.254 86.5472 534.466 86.8133 534.59 87.1379C534.725 87.4764 534.767 87.8299 534.715 88.1983C534.666 88.5549 534.531 88.873 534.31 89.1526C534.102 89.4341 533.827 89.6257 533.486 89.7272L523.208 92.8383ZM527.375 85.1939L526.88 88.7597L531.088 87.6334L527.375 85.1939ZM532.255 105.788C532.192 106.24 531.993 106.584 531.658 106.82C531.321 107.068 530.915 107.153 530.442 107.074L520.941 105.499C520.456 105.419 520.085 105.211 519.829 104.877C519.572 104.542 519.476 104.149 519.538 103.698C519.613 103.163 519.846 102.788 520.239 102.574L527.722 98.2696L522.075 97.3333C521.59 97.2529 521.218 97.0514 520.96 96.729C520.702 96.4065 520.605 96.0135 520.669 95.55C520.732 95.0983 520.931 94.7544 521.267 94.5182C521.602 94.282 522.013 94.2041 522.498 94.2846L531.999 95.8597C532.472 95.9382 532.837 96.1446 533.093 96.479C533.35 96.8133 533.447 97.2063 533.384 97.658C533.313 98.1691 533.08 98.5378 532.685 98.7642L525.22 103.071L530.867 104.008C531.353 104.088 531.719 104.289 531.965 104.609C532.221 104.943 532.318 105.336 532.255 105.788ZM519.451 119.895C519.212 119.965 518.985 119.982 518.772 119.947C518.381 119.882 518.072 119.667 517.844 119.3C517.615 118.946 517.528 118.567 517.584 118.163C517.622 117.89 517.728 117.652 517.902 117.45C518.075 117.247 518.313 117.104 518.615 117.021L520.52 116.516L521.322 110.739L519.642 109.622C519.376 109.444 519.189 109.224 519.08 108.963C518.969 108.714 518.933 108.452 518.971 108.179C519.027 107.775 519.214 107.429 519.533 107.141C519.849 106.865 520.203 106.76 520.594 106.825C520.807 106.86 521.018 106.95 521.229 107.094L530.2 113.397C530.498 113.604 530.709 113.87 530.834 114.195C530.968 114.533 531.01 114.887 530.959 115.255C530.909 115.612 530.774 115.93 530.554 116.209C530.345 116.491 530.07 116.683 529.729 116.784L519.451 119.895ZM523.619 112.251L523.124 115.817L527.331 114.69L523.619 112.251ZM517.022 122.607C517.09 122.119 517.272 121.767 517.569 121.548C517.865 121.33 518.262 121.262 518.76 121.344L528.242 122.917C528.728 122.997 529.092 123.204 529.337 123.536C529.592 123.882 529.684 124.305 529.615 124.804C529.544 125.315 529.34 125.695 529.003 125.943C528.677 126.193 528.272 126.278 527.787 126.197L519.423 124.81L518.854 128.911C518.71 129.945 518.194 130.389 517.306 130.241C516.857 130.167 516.543 129.981 516.366 129.684C516.188 129.399 516.135 128.995 516.208 128.472L517.022 122.607ZM527.137 138.862C527.449 139.23 527.576 139.622 527.518 140.038C527.464 140.43 527.261 140.755 526.911 141.013C526.57 141.285 526.204 141.389 525.814 141.324C525.47 141.267 525.163 141.082 524.892 140.77L521.096 136.31L516.763 135.592C516.243 135.506 515.861 135.284 515.62 134.928C515.389 134.586 515.307 134.177 515.373 133.702C515.44 133.214 515.632 132.839 515.947 132.575C516.274 132.313 516.698 132.225 517.219 132.311L521.552 133.03L526.382 130.037C526.727 129.814 527.078 129.733 527.433 129.792C527.824 129.856 528.146 130.068 528.399 130.426C528.652 130.784 528.751 131.159 528.696 131.551C528.639 131.967 528.411 132.301 528.013 132.551L523.846 135.088L527.137 138.862ZM513.748 145.011C513.88 144.06 514.104 143.192 514.419 142.405C514.744 141.632 515.127 141.014 515.566 140.552C515.748 140.376 515.928 140.254 516.107 140.186C516.285 140.13 516.504 140.124 516.764 140.167C517.119 140.226 517.412 140.384 517.643 140.641C517.874 140.898 517.969 141.17 517.93 141.455C517.908 141.609 517.864 141.754 517.797 141.889C517.73 142.024 517.616 142.187 517.456 142.379C517.116 142.822 516.854 143.271 516.67 143.726C516.484 144.194 516.348 144.731 516.264 145.337C516.167 146.039 516.194 146.584 516.346 146.974C516.508 147.378 516.79 147.613 517.192 147.68C517.465 147.725 517.72 147.591 517.957 147.278C518.204 146.978 518.489 146.369 518.81 145.449C519.222 144.314 519.646 143.442 520.082 142.833C520.517 142.224 520.985 141.822 521.485 141.625C521.995 141.442 522.581 141.405 523.244 141.515C524.002 141.641 524.657 141.98 525.21 142.534C525.763 143.088 526.156 143.785 526.391 144.627C526.635 145.482 526.689 146.403 526.552 147.39C526.432 148.257 526.23 149.014 525.946 149.66C525.663 150.306 525.281 150.875 524.801 151.367C524.617 151.556 524.431 151.677 524.242 151.73C524.063 151.798 523.849 151.811 523.601 151.77C523.245 151.711 522.952 151.553 522.722 151.296C522.489 151.051 522.393 150.786 522.432 150.5C522.454 150.346 522.492 150.206 522.545 150.081C522.611 149.958 522.731 149.79 522.906 149.576C522.95 149.522 523.063 149.364 523.244 149.103C523.436 148.855 523.6 148.548 523.735 148.181C523.881 147.828 523.985 147.432 524.046 146.992C524.13 146.386 524.079 145.879 523.894 145.471C523.72 145.066 523.444 144.831 523.065 144.769C522.84 144.731 522.647 144.766 522.487 144.873C522.327 144.981 522.151 145.201 521.959 145.534C521.78 145.869 521.57 146.375 521.331 147.053C520.924 148.153 520.497 149 520.051 149.595C519.617 150.192 519.15 150.588 518.651 150.785C518.151 150.982 517.587 151.028 516.96 150.924C516.179 150.795 515.517 150.46 514.974 149.92C514.443 149.382 514.067 148.688 513.846 147.836C513.636 146.999 513.603 146.057 513.748 145.011ZM512.71 153.668C512.777 153.181 512.96 152.828 513.256 152.61C513.553 152.391 513.944 152.322 514.429 152.403L523.93 153.978C524.415 154.059 524.77 154.251 524.994 154.556C525.218 154.86 525.296 155.256 525.229 155.744L524.372 161.913C524.301 162.424 524.141 162.792 523.892 163.019C523.642 163.245 523.316 163.324 522.914 163.258C522.062 163.116 521.707 162.529 521.851 161.495L522.475 157.002L520.095 156.607L519.521 160.743C519.377 161.778 518.885 162.225 518.045 162.086C517.642 162.019 517.352 161.837 517.176 161.54C516.999 161.243 516.946 160.839 517.017 160.328L517.591 156.192L514.999 155.762L514.375 160.255C514.231 161.289 513.733 161.736 512.881 161.594C512.478 161.527 512.189 161.346 512.012 161.049C511.835 160.752 511.782 160.348 511.853 159.837L512.71 153.668Z" fill="white"/>
<path d="M388.926 184.587C387.666 184.285 386.621 183.763 385.791 183.022C384.976 182.271 384.413 181.359 384.103 180.286C383.795 179.201 383.771 178.011 384.031 176.717C384.291 175.423 384.767 174.359 385.46 173.527C386.156 172.682 387.017 172.112 388.043 171.815C389.08 171.522 390.229 171.526 391.489 171.828C392.749 172.131 393.788 172.651 394.606 173.39C395.436 174.132 395.999 175.044 396.295 176.126C396.605 177.199 396.631 178.383 396.371 179.677C396.111 180.971 395.633 182.041 394.937 182.885C394.244 183.718 393.377 184.287 392.338 184.592C391.312 184.889 390.175 184.887 388.926 184.587ZM389.426 182.099C390.359 182.323 391.155 182.169 391.812 181.636C392.472 181.091 392.93 180.184 393.185 178.913C393.44 177.642 393.366 176.613 392.961 175.826C392.568 175.041 391.911 174.538 390.989 174.317C390.056 174.093 389.26 174.247 388.603 174.78C387.948 175.301 387.491 176.203 387.234 177.485C386.976 178.768 387.044 179.801 387.436 180.586C387.829 181.371 388.492 181.875 389.426 182.099ZM402.384 187.816C400.599 187.388 399.332 186.603 398.583 185.461C397.845 184.322 397.654 182.871 398.008 181.106L399.153 175.406C399.25 174.923 399.467 174.575 399.804 174.359C400.154 174.135 400.569 174.081 401.048 174.195C401.526 174.31 401.876 174.548 402.097 174.91C402.332 175.262 402.401 175.679 402.304 176.162L401.134 181.985C400.954 182.879 401.014 183.615 401.314 184.193C401.614 184.77 402.137 185.149 402.884 185.328C403.631 185.507 404.251 185.403 404.745 185.016C405.238 184.629 405.575 183.988 405.755 183.094L406.925 177.27C407.022 176.788 407.238 176.439 407.575 176.224C407.926 176 408.341 175.945 408.819 176.06C409.297 176.175 409.653 176.414 409.886 176.778C410.121 177.131 410.19 177.548 410.093 178.03L408.948 183.73C408.596 185.483 407.854 186.711 406.722 187.414C405.604 188.108 404.158 188.242 402.384 187.816ZM414.46 190.639C413.97 190.522 413.602 190.285 413.355 189.93C413.123 189.566 413.055 189.143 413.152 188.66L414.821 180.349L412.353 179.756C411.84 179.633 411.476 179.435 411.262 179.162C411.062 178.879 411.007 178.515 411.096 178.068C411.186 177.62 411.375 177.32 411.663 177.167C411.962 177.017 412.368 177.004 412.882 177.127L421.073 179.092C421.587 179.215 421.945 179.412 422.147 179.683C422.361 179.956 422.423 180.316 422.334 180.763C422.244 181.21 422.048 181.515 421.746 181.677C421.459 181.83 421.058 181.845 420.545 181.722L418.077 181.13L416.407 189.441C416.31 189.924 416.081 190.276 415.718 190.497C415.37 190.709 414.95 190.757 414.46 190.639ZM426.257 193.543C425.02 193.247 423.987 192.727 423.157 191.986C422.339 191.247 421.771 190.334 421.451 189.246C421.143 188.161 421.119 186.971 421.379 185.677C421.637 184.394 422.113 183.331 422.809 182.487C423.516 181.645 424.383 181.076 425.408 180.78C426.446 180.486 427.583 180.487 428.82 180.784C430.302 181.14 431.524 181.846 432.486 182.903C432.656 183.092 432.765 183.278 432.814 183.463C432.874 183.65 432.878 183.873 432.826 184.131C432.753 184.496 432.585 184.783 432.323 184.991C432.075 185.191 431.805 185.255 431.514 185.185C431.339 185.143 431.186 185.082 431.055 185.001C430.927 184.909 430.781 184.782 430.618 184.619C430.259 184.274 429.91 184.005 429.569 183.813C429.229 183.62 428.866 183.477 428.481 183.385C427.443 183.136 426.603 183.267 425.962 183.78C425.335 184.283 424.892 185.175 424.635 186.458C424.375 187.752 424.432 188.777 424.806 189.533C425.194 190.279 425.908 190.777 426.946 191.026C427.296 191.11 427.645 191.139 427.993 191.111C428.344 191.072 428.799 190.996 429.36 190.884C429.631 190.813 429.829 190.769 429.956 190.749C430.082 190.73 430.226 190.74 430.39 190.78C430.682 190.85 430.901 191.038 431.047 191.344C431.207 191.642 431.251 191.973 431.178 192.338C431.128 192.585 431.039 192.785 430.91 192.939C430.795 193.084 430.624 193.204 430.398 193.297C429.119 193.817 427.739 193.899 426.257 193.543ZM437.864 196.328C436.603 196.025 435.559 195.503 434.729 194.762C433.913 194.011 433.351 193.099 433.04 192.026C432.732 190.941 432.708 189.751 432.968 188.457C433.228 187.163 433.705 186.1 434.398 185.267C435.094 184.423 435.954 183.852 436.98 183.556C438.018 183.262 439.167 183.266 440.427 183.569C441.687 183.871 442.726 184.392 443.544 185.13C444.373 185.872 444.936 186.784 445.233 187.866C445.543 188.94 445.568 190.123 445.308 191.417C445.048 192.712 444.57 193.781 443.875 194.625C443.182 195.458 442.315 196.027 441.275 196.332C440.249 196.629 439.112 196.627 437.864 196.328ZM438.363 193.839C439.297 194.063 440.092 193.909 440.75 193.376C441.41 192.831 441.867 191.924 442.123 190.653C442.378 189.383 442.303 188.353 441.899 187.566C441.506 186.781 440.849 186.278 439.927 186.057C438.993 185.833 438.198 185.987 437.54 186.52C436.885 187.041 436.429 187.943 436.171 189.226C435.914 190.508 435.981 191.541 436.374 192.326C436.767 193.111 437.43 193.615 438.363 193.839ZM459.437 188.203C459.88 188.31 460.213 188.543 460.434 188.905C460.654 189.266 460.718 189.682 460.623 190.153L458.695 199.753C458.605 200.2 458.406 200.522 458.097 200.719C457.788 200.917 457.424 200.965 457.004 200.864C456.595 200.766 456.283 200.555 456.066 200.232C455.862 199.912 455.804 199.528 455.894 199.081L456.936 193.893L454.196 197.12C453.922 197.449 453.658 197.669 453.403 197.78C453.151 197.88 452.873 197.894 452.57 197.821C452.266 197.748 452.019 197.609 451.828 197.403C451.639 197.185 451.484 196.864 451.361 196.44L450.106 192.365L449.085 197.448C448.998 197.883 448.793 198.204 448.47 198.41C448.161 198.607 447.797 198.655 447.377 198.554C446.968 198.456 446.656 198.246 446.44 197.923C446.235 197.602 446.177 197.219 446.267 196.771L448.196 187.171C448.29 186.701 448.507 186.352 448.846 186.125C449.197 185.901 449.594 185.842 450.038 185.948C450.353 186.024 450.62 186.187 450.839 186.436C451.06 186.674 451.224 186.985 451.33 187.368L453.324 194.247L457.754 188.909C458.257 188.29 458.818 188.055 459.437 188.203ZM462.185 201.996C461.706 201.881 461.365 201.664 461.16 201.343C460.955 201.023 460.902 200.621 460.998 200.139L462.895 190.698C462.992 190.215 463.195 189.875 463.503 189.678C463.812 189.481 464.206 189.44 464.684 189.555L470.74 191.007C471.242 191.128 471.6 191.325 471.814 191.598C472.028 191.871 472.095 192.208 472.015 192.608C471.845 193.455 471.252 193.757 470.237 193.513L465.826 192.455L465.351 194.82L469.412 195.794C470.427 196.038 470.851 196.577 470.683 197.412C470.603 197.812 470.413 198.088 470.113 198.238C469.814 198.388 469.414 198.403 468.912 198.282L464.851 197.308L464.334 199.885L468.744 200.943C469.76 201.186 470.182 201.732 470.012 202.579C469.932 202.979 469.742 203.254 469.443 203.404C469.143 203.554 468.743 203.569 468.241 203.449L462.185 201.996Z" fill="white"/>
<defs>
<filter id="filter0_d" x="0" y="156.394" width="173.712" height="145.636" filterUnits="userSpaceOnUse" color-interpolation-filters="sRGB">
<feFlood flood-opacity="0" result="BackgroundImageFix"/>
<feColorMatrix in="SourceAlpha" type="matrix" values="0 0 0 0 0 0 0 0 0 0 0 0 0 0 0 0 0 0 127 0"/>
<feOffset/>
<feGaussianBlur stdDeviation="4"/>
<feColorMatrix type="matrix" values="0 0 0 0 0 0 0 0 0 0 0 0 0 0 0 0 0 0 0.15 0"/>
<feBlend mode="normal" in2="BackgroundImageFix" result="effect1_dropShadow"/>
<feBlend mode="normal" in="SourceGraphic" in2="effect1_dropShadow" result="shape"/>
</filter>
<filter id="filter1_d" x="173.483" y="300.845" width="173.712" height="145.636" filterUnits="userSpaceOnUse" color-interpolation-filters="sRGB">
<feFlood flood-opacity="0" result="BackgroundImageFix"/>
<feColorMatrix in="SourceAlpha" type="matrix" values="0 0 0 0 0 0 0 0 0 0 0 0 0 0 0 0 0 0 127 0"/>
<feOffset/>
<feGaussianBlur stdDeviation="4"/>
<feColorMatrix type="matrix" values="0 0 0 0 0 0 0 0 0 0 0 0 0 0 0 0 0 0 0.15 0"/>
<feBlend mode="normal" in2="BackgroundImageFix" result="effect1_dropShadow"/>
<feBlend mode="normal" in="SourceGraphic" in2="effect1_dropShadow" result="shape"/>
</filter>
<filter id="filter2_d" x="173.483" y="137.874" width="153.998" height="164.155" filterUnits="userSpaceOnUse" color-interpolation-filters="sRGB">
<feFlood flood-opacity="0" result="BackgroundImageFix"/>
<feColorMatrix in="SourceAlpha" type="matrix" values="0 0 0 0 0 0 0 0 0 0 0 0 0 0 0 0 0 0 127 0"/>
<feOffset/>
<feGaussianBlur stdDeviation="4"/>
<feColorMatrix type="matrix" values="0 0 0 0 0 0 0 0 0 0 0 0 0 0 0 0 0 0 0.15 0"/>
<feBlend mode="normal" in2="BackgroundImageFix" result="effect1_dropShadow"/>
<feBlend mode="normal" in="SourceGraphic" in2="effect1_dropShadow" result="shape"/>
</filter>
<filter id="filter3_d" x="19.714" y="300.845" width="153.998" height="164.155" filterUnits="userSpaceOnUse" color-interpolation-filters="sRGB">
<feFlood flood-opacity="0" result="BackgroundImageFix"/>
<feColorMatrix in="SourceAlpha" type="matrix" values="0 0 0 0 0 0 0 0 0 0 0 0 0 0 0 0 0 0 127 0"/>
<feOffset/>
<feGaussianBlur stdDeviation="4"/>
<feColorMatrix type="matrix" values="0 0 0 0 0 0 0 0 0 0 0 0 0 0 0 0 0 0 0.15 0"/>
<feBlend mode="normal" in2="BackgroundImageFix" result="effect1_dropShadow"/>
<feBlend mode="normal" in="SourceGraphic" in2="effect1_dropShadow" result="shape"/>
</filter>
<linearGradient id="paint0_linear" x1="506.761" y1="40.1559" x2="390.841" y2="45.4245" gradientUnits="userSpaceOnUse">
<stop stop-color="#F1B249"/>
<stop offset="1" stop-color="#EDCF9E"/>
</linearGradient>
<linearGradient id="paint1_linear" x1="136.695" y1="47.7032" x2="237.036" y2="30.0456" gradientUnits="userSpaceOnUse">
<stop offset="0.208333" stop-color="#2D4E78"/>
<stop offset="1" stop-color="#567BAB"/>
</linearGradient>
<linearGradient id="paint2_linear" x1="148.206" y1="75.7959" x2="164.89" y2="212.368" gradientUnits="userSpaceOnUse">
<stop stop-color="#41628E"/>
<stop offset="1" stop-color="#21446F"/>
</linearGradient>
<linearGradient id="paint3_linear" x1="297.076" y1="148.544" x2="161.602" y2="220.874" gradientUnits="userSpaceOnUse">
<stop offset="0.299023" stop-color="#18304E"/>
<stop offset="1" stop-color="#DFECB6" stop-opacity="0.95"/>
</linearGradient>
<linearGradient id="paint4_linear" x1="518.739" y1="27.577" x2="518.739" y2="191.102" gradientUnits="userSpaceOnUse">
<stop offset="0.0785497" stop-color="#8ED0F4"/>
<stop offset="1" stop-color="#2592CF"/>
</linearGradient>
<linearGradient id="paint5_linear" x1="363.07" y1="50.8479" x2="286.274" y2="170.036" gradientUnits="userSpaceOnUse">
<stop offset="0.338992" stop-color="#8992D9"/>
<stop offset="1" stop-color="#B6BCE8"/>
</linearGradient>
</defs>
</svg>
